<svg width="108" height="34" viewBox="0 0 108 34" fill="none" xmlns="http://www.w3.org/2000/svg">
<path d="M25.2889 20.3331L17.3658 16.4001L17.0503 16.5956L16.8101 16.3631L8.81166 20.3331L8.49609 20.8426L8.68851 21.2906L16.3406 25.0882H17.0503H17.7599L25.4105 21.2906L25.6045 20.8426L25.2889 20.3331Z" fill="#95001A"/>
<path d="M8.49526 20.8436L17.0494 25.0891V25.4416L11.5062 28.194H10.7951L8.49526 27.0364L8.17969 26.5654V21.3516L8.49526 20.8436Z" fill="#40004D"/>
<path d="M25.6058 20.8434L17.0547 25.089V25.4415L22.5979 28.1939H23.3091L25.6089 27.0363L25.9244 26.5652V21.3514L25.6058 20.8434Z" fill="#520033"/>
<path d="M25.6066 12.4002L25.291 12.5973V20.3341L25.6035 20.8436L25.9222 21.3516L31.0928 23.9177H31.8025L32.8215 23.4051L25.6066 12.4002Z" fill="#FFA80A"/>
<path d="M8.4962 12.4002L8.81177 12.5973V20.3341L8.4962 20.8436L8.18063 21.3516L3.00994 23.9177H2.3003L1.28125 23.4051L8.4962 12.4002Z" fill="#FF3417"/>
<path d="M8.49863 27.0364L2.30273 23.9177L8.49863 20.8436V27.0364Z" fill="#6D0044"/>
<path d="M17.0513 31.341L23.3041 28.1946L17.0513 25.0897L10.7969 28.1946L17.0513 31.341Z" fill="#6D0074"/>
<path d="M25.6085 27.0364L31.8044 23.9177L25.6055 20.8436L25.6085 27.0364Z" fill="#6D0044"/>
<path d="M17.0518 2.66H14.8829L8.49609 12.3995L8.81166 12.5965L17.0503 8.50646V8.15395L17.3659 7.93382L17.3674 2.93554L17.0518 2.66Z" fill="#FFA80A"/>
<path d="M17.0503 8.15219L8.49609 12.3977V20.8411L17.0503 16.594L17.3659 16.3985V8.66017L17.0503 8.15219Z" fill="#D7001F"/>
<path d="M17.0523 2.66H19.2213L25.608 12.3995L25.2925 12.5965L17.3663 8.66194L17.0508 8.15395L17.0523 2.66Z" fill="#FFE50A"/>
<path d="M25.605 20.8411L17.0508 16.594V8.15219L25.605 12.3977V20.8411Z" fill="#EF8109"/>
<path d="M103.343 23.0206C102.137 25.3569 99.4153 27 95.1534 27C91.0969 27 88.8633 25.6393 88.8633 22.8152V22.7895C88.8633 21.0694 89.5822 19.7857 91.1996 19.0411C91.6874 18.81 92.2266 18.6303 92.8171 18.4506C94.0237 18.1425 95.7696 17.9371 98.9275 17.7574C100.031 17.6804 100.879 17.629 101.469 17.5263C102.676 17.3466 103.087 17.0129 103.087 16.371V16.3453C103.087 16.0116 102.984 15.7035 102.702 15.3954C102.214 14.8049 101.058 14.3941 98.9275 14.3941C97.6438 14.3941 96.6682 14.4711 95.9493 14.6765C94.4602 15.0103 93.844 15.7292 93.7157 16.9102H89.2227C89.7105 12.9821 92.8684 11.2619 98.5424 11.2619C100.468 11.2619 102.034 11.4416 103.343 11.7754C105.936 12.4943 107.271 14.1374 107.271 17.3466V26.5122H103.728L103.343 23.0206ZM96.4628 23.9192C97.7721 23.9192 98.9018 23.6881 99.9031 23.2516C101.931 22.3787 103.138 20.941 103.138 19.4519V19.3492C102.753 19.8627 101.726 20.2221 99.3126 20.3505C96.4884 20.4789 95.2047 20.6842 94.4089 21.0694C93.7927 21.3774 93.4846 21.8139 93.4846 22.4044V22.4301C93.4846 23.4057 94.3062 23.9192 96.4628 23.9192Z" fill="white"/>
<path d="M76.1196 26.5122L68.1094 11.7754H72.9361L78.3019 22.0963L83.8218 11.7754H88.6999L80.2532 26.5122H76.1196Z" fill="white"/>
<path d="M63.2809 23.0206C62.0742 25.3569 59.3528 27 55.0909 27C51.0344 27 48.8008 25.6393 48.8008 22.8152V22.7895C48.8008 21.0694 49.5197 19.7857 51.1371 19.0411C51.6249 18.81 52.1641 18.6303 52.7546 18.4506C53.9612 18.1425 55.7071 17.9371 58.865 17.7574C59.9689 17.6804 60.8162 17.629 61.4067 17.5263C62.6134 17.3466 63.0241 17.0129 63.0241 16.371V16.3453C63.0241 16.0116 62.9215 15.7035 62.639 15.3954C62.1512 14.8049 60.9959 14.3941 58.865 14.3941C57.5813 14.3941 56.6057 14.4711 55.8868 14.6765C54.3977 15.0103 53.7815 15.7292 53.6532 16.9102H49.1602C49.648 12.9821 52.8059 11.2619 58.4799 11.2619C60.4054 11.2619 61.9715 11.4416 63.2809 11.7754C65.874 12.4943 67.209 14.1374 67.209 17.3466V26.5122H63.666L63.2809 23.0206ZM56.4003 23.9192C57.7096 23.9192 58.8393 23.6881 59.8406 23.2516C61.8688 22.3787 63.0755 20.941 63.0755 19.4519V19.3492C62.6904 19.8627 61.6634 20.2221 59.2501 20.3505C56.4259 20.4789 55.1422 20.6842 54.3464 21.0694C53.7302 21.3774 53.4221 21.8139 53.4221 22.4044V22.4301C53.4221 23.4057 54.2437 23.9192 56.4003 23.9192Z" fill="white"/>
<path d="M42 26.9216V7H46.3902V26.9216H42Z" fill="white"/>
</svg>
