<svg width="640" height="181" viewBox="0 0 640 181" fill="none" xmlns="http://www.w3.org/2000/svg">
<path d="M151.457 111.862L101.73 87.1773L99.7497 88.4043L98.2425 86.9455L48.0423 111.862L46.0618 115.06L47.2694 117.871L95.2958 141.706H99.7497H104.204L152.22 117.871L153.438 115.06L151.457 111.862Z" fill="#95001A"/>
<path d="M46.0613 115.06L99.7493 141.706V143.918L64.9589 161.193H60.4953L46.0613 153.928L44.0807 150.971V118.248L46.0613 115.06Z" fill="#40004D"/>
<path d="M153.438 115.06L99.769 141.706V143.918L134.559 161.193H139.023L153.457 153.928L155.437 150.971V118.248L153.438 115.06Z" fill="#520033"/>
<path d="M153.457 62.0679L151.477 63.3045V111.862L153.438 115.06L155.438 118.248L187.89 134.354H192.344L198.74 131.137L153.457 62.0679Z" fill="#FFA80A"/>
<path d="M46.062 62.0679L48.0426 63.3045V111.862L46.062 115.06L44.0814 118.248L11.629 134.354H7.17518L0.779388 131.137L46.062 62.0679Z" fill="#FF3417"/>
<path d="M46.0623 153.928L7.17548 134.354L46.0623 115.06V153.928Z" fill="#6D0044"/>
<path d="M99.7495 180.941L138.994 161.193L99.7495 141.706L60.4956 161.193L99.7495 180.941Z" fill="#6D0074"/>
<path d="M153.457 153.928L192.344 134.354L153.438 115.06L153.457 153.928Z" fill="#6D0044"/>
<path d="M99.7594 0.94043H86.1466L46.0618 62.0676L48.0423 63.3042L99.7497 37.6341V35.4217L101.73 34.0401L101.74 2.66981L99.7594 0.94043Z" fill="#FFA80A"/>
<path d="M99.7497 35.422L46.0618 62.0679V115.06L99.7497 88.4046L101.73 87.1776V38.6102L99.7497 35.422Z" fill="#D7001F"/>
<path d="M99.7592 0.94043H113.372L153.457 62.0676L151.476 63.3042L101.73 38.6099L99.7495 35.4217L99.7592 0.94043Z" fill="#FFE50A"/>
<path d="M153.437 115.06L99.7495 88.4046V35.422L153.437 62.0679V115.06Z" fill="#EF8109"/>
<path d="M528.922 53.904L488.103 148.682H469.689L428.87 53.904H452.057L478.993 117.843L505.745 53.904H528.922ZM279.245 115.234V18.6015H256.811V118.2C256.811 137.561 267.245 148.672 286.539 148.672H309.939V128.296H289.698C283.515 128.296 279.245 124.306 279.245 115.234ZM428.87 131.31V149.02C425.807 150.372 421.885 151.078 418.213 151.078C406.301 151.078 399.084 143.735 397.277 134.924L397.335 134.711C391.451 146.372 377.761 151.078 365.115 151.078C337.29 151.078 317.813 129.166 317.813 101.901C317.813 74.6372 338.227 51.8461 365.115 51.8461C379.133 51.8461 389.104 57.5366 395.229 68.4733V68.4443V53.904H417.663V120.606C417.663 124.596 418.194 127.427 419.257 129.108C420.319 130.789 422.097 131.629 424.59 131.629C425.865 131.629 427.295 131.523 428.889 131.31H428.87ZM397.277 101.013C397.277 84.1343 384.06 72.2219 368.11 72.2219C348.961 72.2219 340.256 87.8539 340.256 101.901C340.256 117.466 352.159 129.803 368.11 129.803C384.06 129.803 397.277 117.881 397.277 101.013ZM639.969 131.31V149.02C636.907 150.372 632.984 151.078 629.313 151.078C617.401 151.078 610.184 143.735 608.377 134.924L608.435 134.711C602.551 146.372 588.861 151.078 576.214 151.078C548.39 151.078 528.913 129.166 528.913 101.901C528.913 74.6372 549.327 51.8461 576.214 51.8461C590.233 51.8461 600.203 57.5366 606.329 68.4733V68.4443V53.904H628.762V120.606C628.762 124.596 629.294 127.427 630.356 129.108C631.419 130.789 633.197 131.629 635.689 131.629C636.965 131.629 638.395 131.523 639.989 131.31H639.969ZM608.377 101.013C608.377 84.1343 595.16 72.2219 579.209 72.2219C560.061 72.2219 551.356 87.8539 551.356 101.901C551.356 117.466 563.259 129.803 579.209 129.803C595.16 129.803 608.377 117.881 608.377 101.013Z" fill="white"/>
</svg>
