<svg width="20" height="19" viewBox="0 0 20 19" fill="none" xmlns="http://www.w3.org/2000/svg">
<path d="M8.45493 6.5083L9.04908 7.10245L6.96955 9.18198L9.04908 11.2615L8.45493 11.8557L5.78125 9.18198L8.45493 6.5083Z" fill="white"/>
<path d="M10.7305 7.10245L12.81 9.18198L10.7305 11.2615L11.3246 11.8557L13.9983 9.18198L11.3246 6.5083L10.7305 7.10245Z" fill="white"/>
<path fill-rule="evenodd" clip-rule="evenodd" d="M9.9611 18.1162L0 13.1036L8.59068 0H11.3293L19.9205 13.103L9.9611 18.1162ZM10.1595 3.18411C10.1595 3.36603 10.2625 3.53205 10.4252 3.6126L14.1551 5.46411C14.1912 5.48219 14.2285 5.44055 14.206 5.40657L11.0279 0.558904H10.1595V3.18411ZM18.7589 13.063L19.1101 12.8866L15.5162 7.40493C15.4942 7.37205 15.4427 7.3874 15.4427 7.42685V11.1759C15.4427 11.3238 15.5266 11.4586 15.6586 11.5244L18.7589 13.063ZM4.48658 11.3277L1.27945 12.9195C1.13205 12.9923 1.13151 13.2022 1.27836 13.2762L1.45644 13.366C1.62466 13.4504 1.82301 13.451 1.99123 13.3677L4.74521 12.0005L9.96877 14.5934L15.2389 11.977C15.4548 11.8696 15.4548 11.5616 15.2389 11.4542L15.0214 11.3463C14.9671 11.3195 14.9326 11.2641 14.9326 11.2033V6.42685L10.2471 4.10082C10.1929 4.07397 10.1584 4.01863 10.1584 3.95781V3.77096C10.1584 3.62685 10.0066 3.5326 9.87726 3.59671L4.91726 6.05918C4.6526 6.19068 4.48548 6.46027 4.48548 6.75562V11.326L4.48658 11.3277Z" fill="white"/>
</svg>
