<svg width="22" height="24" viewBox="0 0 22 24" fill="none" xmlns="http://www.w3.org/2000/svg">
<mask id="path-1-outside-1_4081_10467" maskUnits="userSpaceOnUse" x="-0.112305" y="0" width="22" height="24" fill="currentColor">
<rect fill="white" x="-0.112305" width="22" height="24"/>
<path fill-rule="evenodd" clip-rule="evenodd" d="M7.05188 9.56862L10.3408 7.73172V4.27813C9.95859 4.21017 9.61254 4.00989 9.36322 3.71238L4.09422 6.76135C4.15688 6.93681 4.1909 7.12479 4.1909 7.32173C4.1909 7.48644 4.16762 7.64399 4.12287 7.79438L7.05188 9.56862ZM9.08393 3.23436C9.01402 3.04833 8.97824 2.85122 8.9783 2.65249C8.9783 2.19595 9.1627 1.78238 9.46169 1.48339C9.76068 1.18441 10.1743 1 10.6308 1C11.0873 1 11.5009 1.18441 11.7999 1.48339C11.9535 1.63682 12.0753 1.81908 12.1582 2.01971C12.2412 2.22034 12.2837 2.43539 12.2833 2.65249C12.2833 2.85301 12.2475 3.04458 12.183 3.22183L17.4771 6.28333C17.5147 6.23857 17.5523 6.19381 17.5935 6.15263C17.7469 5.99902 17.9292 5.87724 18.1298 5.79429C18.3304 5.71133 18.5455 5.66883 18.7626 5.66924C19.2191 5.66924 19.6327 5.85364 19.9317 6.15263C20.0853 6.30606 20.2071 6.48832 20.29 6.68895C20.373 6.88958 20.4155 7.10463 20.4151 7.32173C20.4151 7.77827 20.2307 8.19005 19.9317 8.48904C19.6747 8.74631 19.3398 8.91125 18.9792 8.95811V15.0292C19.3498 15.0775 19.681 15.2476 19.9317 15.4983C20.2307 15.7973 20.4151 16.2108 20.4151 16.6656C20.4152 16.8826 20.3726 17.0976 20.2897 17.2982C20.2067 17.4988 20.085 17.681 19.9315 17.8345C19.778 17.988 19.5957 18.1097 19.3952 18.1927C19.1946 18.2756 18.9796 18.3183 18.7626 18.3181C18.5175 18.3185 18.2754 18.2642 18.054 18.1592C17.8325 18.0542 17.6373 17.9011 17.4825 17.7111L12.1812 20.7762C12.2457 20.9535 12.2815 21.145 12.2815 21.3456C12.2815 21.8021 12.0971 22.2157 11.7981 22.5147C11.6447 22.6683 11.4624 22.79 11.2618 22.873C11.0612 22.956 10.8461 22.9985 10.629 22.9981C10.1725 22.9981 9.75889 22.8136 9.4599 22.5147C9.16091 22.2157 8.97651 21.8021 8.97651 21.3456C8.97651 21.1415 9.0141 20.9445 9.08214 20.7637L3.81493 17.7183C3.65996 17.9068 3.46507 18.0586 3.24431 18.1626C3.02355 18.2667 2.78245 18.3204 2.5384 18.3199C2.08187 18.3199 1.66829 18.1355 1.36931 17.8365C1.07211 17.5375 0.887701 17.1239 0.887701 16.6674C0.887701 16.2108 1.07211 15.799 1.3711 15.5001C1.62514 15.2458 1.95509 15.0811 2.31103 15.031V8.95632C1.95484 8.907 1.62466 8.74222 1.3711 8.48725C1.21737 8.33428 1.0955 8.15236 1.01253 7.95199C0.929557 7.75163 0.887129 7.5368 0.887701 7.31994C0.887701 6.8634 1.07211 6.44983 1.3711 6.15084C1.52452 5.99723 1.70678 5.87545 1.90741 5.79249C2.10805 5.70954 2.32309 5.66704 2.54019 5.66745C2.78572 5.66701 3.02823 5.72145 3.25002 5.82676C3.4718 5.93208 3.66725 6.08562 3.82209 6.27617L9.08393 3.23436ZM11.9055 3.70164C11.6546 4.00759 11.3018 4.21289 10.9119 4.27992V7.73172L14.1936 9.63308L17.2103 7.88927C17.1441 7.71203 17.1101 7.51867 17.1101 7.31994C17.1101 7.12658 17.1441 6.9386 17.205 6.76672L11.9055 3.70164ZM18.4743 8.94737C18.1404 8.8893 17.8327 8.72918 17.5935 8.48904C17.5594 8.45502 17.5272 8.42101 17.4968 8.38341L14.4854 10.1236V13.844L17.5093 15.5896C17.5362 15.5591 17.563 15.5287 17.5917 15.5001C17.8311 15.2603 18.1387 15.1002 18.4725 15.0417V8.94737H18.4743ZM17.2085 17.2313C17.1441 17.0559 17.1101 16.8661 17.1101 16.6692C17.1101 16.4615 17.1477 16.2627 17.2193 16.0783L14.2938 14.39L10.9119 16.3558V19.7199C11.3018 19.787 11.6546 19.9923 11.9055 20.2982L17.2085 17.2313ZM9.36322 20.2857C9.61254 19.9882 9.95859 19.7879 10.3408 19.7199V16.3397L6.94625 14.3703L4.06557 16.0336C4.14614 16.2287 4.19269 16.4436 4.19269 16.6692C4.19269 16.8697 4.15688 17.0612 4.09243 17.2385L9.36322 20.2857ZM2.81412 15.0381C3.15966 15.0954 3.46939 15.2619 3.7075 15.5001C3.72541 15.518 3.74152 15.5359 3.75763 15.5538L6.69202 13.8601V10.0162L3.86685 8.30463C3.81851 8.37088 3.7648 8.43175 3.7075 8.48904C3.46476 8.73185 3.15258 8.89326 2.81412 8.95095V15.0381ZM2.54199 8.40131C2.54915 8.40131 2.55631 8.39952 2.56347 8.39952H2.57779C2.85138 8.39094 3.11138 8.27823 3.30467 8.08442C3.40523 7.98414 3.485 7.86498 3.53938 7.73379C3.59376 7.6026 3.62169 7.46196 3.62157 7.31994C3.62157 7.02095 3.49982 6.75061 3.30467 6.55546C3.10953 6.36031 2.83918 6.23857 2.54019 6.23857C2.24121 6.23857 1.97086 6.36031 1.77572 6.55546C1.67516 6.65574 1.59539 6.7749 1.54101 6.90609C1.48663 7.03728 1.4587 7.17792 1.45882 7.31994C1.45882 7.61893 1.58057 7.88927 1.77572 8.08442C1.87625 8.18514 1.99571 8.26499 2.12721 8.31937C2.25872 8.37375 2.39968 8.4016 2.54199 8.40131ZM11.3935 20.5847C11.2932 20.4841 11.174 20.4043 11.0429 20.35C10.9117 20.2956 10.771 20.2676 10.629 20.2678C10.33 20.2678 10.0597 20.3895 9.86452 20.5847C9.66937 20.7798 9.54763 21.0501 9.54763 21.3491C9.54763 21.6481 9.66937 21.9185 9.86452 22.1136C10.0597 22.3088 10.33 22.4305 10.629 22.4305C10.928 22.4305 11.1983 22.3088 11.3935 22.1136C11.5886 21.9185 11.7104 21.6481 11.7104 21.3491C11.7104 21.0501 11.5904 20.7798 11.3935 20.5847ZM11.3935 1.88801C11.2932 1.78745 11.174 1.70769 11.0429 1.65331C10.9117 1.59893 10.771 1.571 10.629 1.57112C10.33 1.57112 10.0597 1.69287 9.86452 1.88801C9.66937 2.08316 9.54763 2.35351 9.54763 2.65249C9.54763 2.95148 9.66937 3.22183 9.86452 3.41697C9.9648 3.51753 10.084 3.59729 10.2152 3.65168C10.3463 3.70606 10.487 3.73399 10.629 3.73387C10.928 3.73387 11.1983 3.61212 11.3935 3.41697C11.494 3.31669 11.5738 3.19754 11.6282 3.06634C11.6826 2.93515 11.7105 2.79451 11.7104 2.65249C11.7104 2.35351 11.5904 2.08316 11.3935 1.88801ZM19.5253 15.9047C19.425 15.8041 19.3058 15.7244 19.1746 15.67C19.0434 15.6156 18.9028 15.5877 18.7608 15.5878C18.4618 15.5878 18.1914 15.7095 17.9963 15.9047C17.8957 16.005 17.816 16.1241 17.7616 16.2553C17.7072 16.3865 17.6793 16.5271 17.6794 16.6692C17.6794 16.9681 17.8011 17.2385 17.9963 17.4336C18.0966 17.5342 18.2157 17.614 18.3469 17.6683C18.4781 17.7227 18.6188 17.7507 18.7608 17.7505C19.0598 17.7505 19.3301 17.6288 19.5253 17.4336C19.6258 17.3334 19.7056 17.2142 19.76 17.083C19.8143 16.9518 19.8423 16.8112 19.8421 16.6692C19.8421 16.3702 19.7222 16.0998 19.5253 15.9047ZM3.30467 15.9047C3.10953 15.7095 2.83918 15.5878 2.54019 15.5878C2.24121 15.5878 1.97086 15.7095 1.77572 15.9047C1.67516 16.005 1.59539 16.1241 1.54101 16.2553C1.48663 16.3865 1.4587 16.5271 1.45882 16.6692C1.45882 16.9681 1.58057 17.2385 1.77572 17.4336C1.97086 17.6288 2.24121 17.7505 2.54019 17.7505C2.83918 17.7505 3.10953 17.6288 3.30467 17.4336C3.40523 17.3334 3.485 17.2142 3.53938 17.083C3.59376 16.9518 3.62169 16.8112 3.62157 16.6692C3.62099 16.3825 3.50708 16.1077 3.30467 15.9047ZM17.7976 7.80871C17.8119 7.82303 17.8226 7.84093 17.8334 7.85884C17.8441 7.87674 17.8513 7.89464 17.8584 7.91434C17.8996 7.97521 17.9462 8.0325 17.9963 8.08442C18.0966 8.18498 18.2157 8.26474 18.3469 8.31912C18.4781 8.3735 18.6188 8.40144 18.7608 8.40131C19.0598 8.40131 19.3301 8.27957 19.5253 8.08442C19.6258 7.98414 19.7056 7.86498 19.76 7.73379C19.8143 7.6026 19.8423 7.46196 19.8421 7.31994C19.8421 7.02095 19.7204 6.75061 19.5253 6.55546C19.425 6.4549 19.3058 6.37514 19.1746 6.32076C19.0434 6.26638 18.9028 6.23845 18.7608 6.23857C18.4618 6.23857 18.1914 6.36031 17.9963 6.55546C17.8957 6.65574 17.816 6.7749 17.7616 6.90609C17.7072 7.03728 17.6793 7.17792 17.6794 7.31994C17.6812 7.49719 17.7242 7.6619 17.7976 7.80871ZM7.22733 13.7992C7.26801 13.843 7.2948 13.8978 7.30432 13.9568L10.3712 15.7597V12.2004L7.22733 10.3295V13.7992ZM13.9519 10.3779L10.9065 12.2022V15.7632L13.9519 13.9639V10.3779ZM10.6254 8.15962L7.65344 9.93743L10.6415 11.7367L13.5437 9.97503L10.6254 8.15962Z"/>
</mask>
<path fill-rule="evenodd" clip-rule="evenodd" d="M7.05188 9.56862L10.3408 7.73172V4.27813C9.95859 4.21017 9.61254 4.00989 9.36322 3.71238L4.09422 6.76135C4.15688 6.93681 4.1909 7.12479 4.1909 7.32173C4.1909 7.48644 4.16762 7.64399 4.12287 7.79438L7.05188 9.56862ZM9.08393 3.23436C9.01402 3.04833 8.97824 2.85122 8.9783 2.65249C8.9783 2.19595 9.1627 1.78238 9.46169 1.48339C9.76068 1.18441 10.1743 1 10.6308 1C11.0873 1 11.5009 1.18441 11.7999 1.48339C11.9535 1.63682 12.0753 1.81908 12.1582 2.01971C12.2412 2.22034 12.2837 2.43539 12.2833 2.65249C12.2833 2.85301 12.2475 3.04458 12.183 3.22183L17.4771 6.28333C17.5147 6.23857 17.5523 6.19381 17.5935 6.15263C17.7469 5.99902 17.9292 5.87724 18.1298 5.79429C18.3304 5.71133 18.5455 5.66883 18.7626 5.66924C19.2191 5.66924 19.6327 5.85364 19.9317 6.15263C20.0853 6.30606 20.2071 6.48832 20.29 6.68895C20.373 6.88958 20.4155 7.10463 20.4151 7.32173C20.4151 7.77827 20.2307 8.19005 19.9317 8.48904C19.6747 8.74631 19.3398 8.91125 18.9792 8.95811V15.0292C19.3498 15.0775 19.681 15.2476 19.9317 15.4983C20.2307 15.7973 20.4151 16.2108 20.4151 16.6656C20.4152 16.8826 20.3726 17.0976 20.2897 17.2982C20.2067 17.4988 20.085 17.681 19.9315 17.8345C19.778 17.988 19.5957 18.1097 19.3952 18.1927C19.1946 18.2756 18.9796 18.3183 18.7626 18.3181C18.5175 18.3185 18.2754 18.2642 18.054 18.1592C17.8325 18.0542 17.6373 17.9011 17.4825 17.7111L12.1812 20.7762C12.2457 20.9535 12.2815 21.145 12.2815 21.3456C12.2815 21.8021 12.0971 22.2157 11.7981 22.5147C11.6447 22.6683 11.4624 22.79 11.2618 22.873C11.0612 22.956 10.8461 22.9985 10.629 22.9981C10.1725 22.9981 9.75889 22.8136 9.4599 22.5147C9.16091 22.2157 8.97651 21.8021 8.97651 21.3456C8.97651 21.1415 9.0141 20.9445 9.08214 20.7637L3.81493 17.7183C3.65996 17.9068 3.46507 18.0586 3.24431 18.1626C3.02355 18.2667 2.78245 18.3204 2.5384 18.3199C2.08187 18.3199 1.66829 18.1355 1.36931 17.8365C1.07211 17.5375 0.887701 17.1239 0.887701 16.6674C0.887701 16.2108 1.07211 15.799 1.3711 15.5001C1.62514 15.2458 1.95509 15.0811 2.31103 15.031V8.95632C1.95484 8.907 1.62466 8.74222 1.3711 8.48725C1.21737 8.33428 1.0955 8.15236 1.01253 7.95199C0.929557 7.75163 0.887129 7.5368 0.887701 7.31994C0.887701 6.8634 1.07211 6.44983 1.3711 6.15084C1.52452 5.99723 1.70678 5.87545 1.90741 5.79249C2.10805 5.70954 2.32309 5.66704 2.54019 5.66745C2.78572 5.66701 3.02823 5.72145 3.25002 5.82676C3.4718 5.93208 3.66725 6.08562 3.82209 6.27617L9.08393 3.23436ZM11.9055 3.70164C11.6546 4.00759 11.3018 4.21289 10.9119 4.27992V7.73172L14.1936 9.63308L17.2103 7.88927C17.1441 7.71203 17.1101 7.51867 17.1101 7.31994C17.1101 7.12658 17.1441 6.9386 17.205 6.76672L11.9055 3.70164ZM18.4743 8.94737C18.1404 8.8893 17.8327 8.72918 17.5935 8.48904C17.5594 8.45502 17.5272 8.42101 17.4968 8.38341L14.4854 10.1236V13.844L17.5093 15.5896C17.5362 15.5591 17.563 15.5287 17.5917 15.5001C17.8311 15.2603 18.1387 15.1002 18.4725 15.0417V8.94737H18.4743ZM17.2085 17.2313C17.1441 17.0559 17.1101 16.8661 17.1101 16.6692C17.1101 16.4615 17.1477 16.2627 17.2193 16.0783L14.2938 14.39L10.9119 16.3558V19.7199C11.3018 19.787 11.6546 19.9923 11.9055 20.2982L17.2085 17.2313ZM9.36322 20.2857C9.61254 19.9882 9.95859 19.7879 10.3408 19.7199V16.3397L6.94625 14.3703L4.06557 16.0336C4.14614 16.2287 4.19269 16.4436 4.19269 16.6692C4.19269 16.8697 4.15688 17.0612 4.09243 17.2385L9.36322 20.2857ZM2.81412 15.0381C3.15966 15.0954 3.46939 15.2619 3.7075 15.5001C3.72541 15.518 3.74152 15.5359 3.75763 15.5538L6.69202 13.8601V10.0162L3.86685 8.30463C3.81851 8.37088 3.7648 8.43175 3.7075 8.48904C3.46476 8.73185 3.15258 8.89326 2.81412 8.95095V15.0381ZM2.54199 8.40131C2.54915 8.40131 2.55631 8.39952 2.56347 8.39952H2.57779C2.85138 8.39094 3.11138 8.27823 3.30467 8.08442C3.40523 7.98414 3.485 7.86498 3.53938 7.73379C3.59376 7.6026 3.62169 7.46196 3.62157 7.31994C3.62157 7.02095 3.49982 6.75061 3.30467 6.55546C3.10953 6.36031 2.83918 6.23857 2.54019 6.23857C2.24121 6.23857 1.97086 6.36031 1.77572 6.55546C1.67516 6.65574 1.59539 6.7749 1.54101 6.90609C1.48663 7.03728 1.4587 7.17792 1.45882 7.31994C1.45882 7.61893 1.58057 7.88927 1.77572 8.08442C1.87625 8.18514 1.99571 8.26499 2.12721 8.31937C2.25872 8.37375 2.39968 8.4016 2.54199 8.40131ZM11.3935 20.5847C11.2932 20.4841 11.174 20.4043 11.0429 20.35C10.9117 20.2956 10.771 20.2676 10.629 20.2678C10.33 20.2678 10.0597 20.3895 9.86452 20.5847C9.66937 20.7798 9.54763 21.0501 9.54763 21.3491C9.54763 21.6481 9.66937 21.9185 9.86452 22.1136C10.0597 22.3088 10.33 22.4305 10.629 22.4305C10.928 22.4305 11.1983 22.3088 11.3935 22.1136C11.5886 21.9185 11.7104 21.6481 11.7104 21.3491C11.7104 21.0501 11.5904 20.7798 11.3935 20.5847ZM11.3935 1.88801C11.2932 1.78745 11.174 1.70769 11.0429 1.65331C10.9117 1.59893 10.771 1.571 10.629 1.57112C10.33 1.57112 10.0597 1.69287 9.86452 1.88801C9.66937 2.08316 9.54763 2.35351 9.54763 2.65249C9.54763 2.95148 9.66937 3.22183 9.86452 3.41697C9.9648 3.51753 10.084 3.59729 10.2152 3.65168C10.3463 3.70606 10.487 3.73399 10.629 3.73387C10.928 3.73387 11.1983 3.61212 11.3935 3.41697C11.494 3.31669 11.5738 3.19754 11.6282 3.06634C11.6826 2.93515 11.7105 2.79451 11.7104 2.65249C11.7104 2.35351 11.5904 2.08316 11.3935 1.88801ZM19.5253 15.9047C19.425 15.8041 19.3058 15.7244 19.1746 15.67C19.0434 15.6156 18.9028 15.5877 18.7608 15.5878C18.4618 15.5878 18.1914 15.7095 17.9963 15.9047C17.8957 16.005 17.816 16.1241 17.7616 16.2553C17.7072 16.3865 17.6793 16.5271 17.6794 16.6692C17.6794 16.9681 17.8011 17.2385 17.9963 17.4336C18.0966 17.5342 18.2157 17.614 18.3469 17.6683C18.4781 17.7227 18.6188 17.7507 18.7608 17.7505C19.0598 17.7505 19.3301 17.6288 19.5253 17.4336C19.6258 17.3334 19.7056 17.2142 19.76 17.083C19.8143 16.9518 19.8423 16.8112 19.8421 16.6692C19.8421 16.3702 19.7222 16.0998 19.5253 15.9047ZM3.30467 15.9047C3.10953 15.7095 2.83918 15.5878 2.54019 15.5878C2.24121 15.5878 1.97086 15.7095 1.77572 15.9047C1.67516 16.005 1.59539 16.1241 1.54101 16.2553C1.48663 16.3865 1.4587 16.5271 1.45882 16.6692C1.45882 16.9681 1.58057 17.2385 1.77572 17.4336C1.97086 17.6288 2.24121 17.7505 2.54019 17.7505C2.83918 17.7505 3.10953 17.6288 3.30467 17.4336C3.40523 17.3334 3.485 17.2142 3.53938 17.083C3.59376 16.9518 3.62169 16.8112 3.62157 16.6692C3.62099 16.3825 3.50708 16.1077 3.30467 15.9047ZM17.7976 7.80871C17.8119 7.82303 17.8226 7.84093 17.8334 7.85884C17.8441 7.87674 17.8513 7.89464 17.8584 7.91434C17.8996 7.97521 17.9462 8.0325 17.9963 8.08442C18.0966 8.18498 18.2157 8.26474 18.3469 8.31912C18.4781 8.3735 18.6188 8.40144 18.7608 8.40131C19.0598 8.40131 19.3301 8.27957 19.5253 8.08442C19.6258 7.98414 19.7056 7.86498 19.76 7.73379C19.8143 7.6026 19.8423 7.46196 19.8421 7.31994C19.8421 7.02095 19.7204 6.75061 19.5253 6.55546C19.425 6.4549 19.3058 6.37514 19.1746 6.32076C19.0434 6.26638 18.9028 6.23845 18.7608 6.23857C18.4618 6.23857 18.1914 6.36031 17.9963 6.55546C17.8957 6.65574 17.816 6.7749 17.7616 6.90609C17.7072 7.03728 17.6793 7.17792 17.6794 7.31994C17.6812 7.49719 17.7242 7.6619 17.7976 7.80871ZM7.22733 13.7992C7.26801 13.843 7.2948 13.8978 7.30432 13.9568L10.3712 15.7597V12.2004L7.22733 10.3295V13.7992ZM13.9519 10.3779L10.9065 12.2022V15.7632L13.9519 13.9639V10.3779ZM10.6254 8.15962L7.65344 9.93743L10.6415 11.7367L13.5437 9.97503L10.6254 8.15962Z" fill="currentColor"/>
<path fill-rule="evenodd" clip-rule="evenodd" d="M7.05188 9.56862L10.3408 7.73172V4.27813C9.95859 4.21017 9.61254 4.00989 9.36322 3.71238L4.09422 6.76135C4.15688 6.93681 4.1909 7.12479 4.1909 7.32173C4.1909 7.48644 4.16762 7.64399 4.12287 7.79438L7.05188 9.56862ZM9.08393 3.23436C9.01402 3.04833 8.97824 2.85122 8.9783 2.65249C8.9783 2.19595 9.1627 1.78238 9.46169 1.48339C9.76068 1.18441 10.1743 1 10.6308 1C11.0873 1 11.5009 1.18441 11.7999 1.48339C11.9535 1.63682 12.0753 1.81908 12.1582 2.01971C12.2412 2.22034 12.2837 2.43539 12.2833 2.65249C12.2833 2.85301 12.2475 3.04458 12.183 3.22183L17.4771 6.28333C17.5147 6.23857 17.5523 6.19381 17.5935 6.15263C17.7469 5.99902 17.9292 5.87724 18.1298 5.79429C18.3304 5.71133 18.5455 5.66883 18.7626 5.66924C19.2191 5.66924 19.6327 5.85364 19.9317 6.15263C20.0853 6.30606 20.2071 6.48832 20.29 6.68895C20.373 6.88958 20.4155 7.10463 20.4151 7.32173C20.4151 7.77827 20.2307 8.19005 19.9317 8.48904C19.6747 8.74631 19.3398 8.91125 18.9792 8.95811V15.0292C19.3498 15.0775 19.681 15.2476 19.9317 15.4983C20.2307 15.7973 20.4151 16.2108 20.4151 16.6656C20.4152 16.8826 20.3726 17.0976 20.2897 17.2982C20.2067 17.4988 20.085 17.681 19.9315 17.8345C19.778 17.988 19.5957 18.1097 19.3952 18.1927C19.1946 18.2756 18.9796 18.3183 18.7626 18.3181C18.5175 18.3185 18.2754 18.2642 18.054 18.1592C17.8325 18.0542 17.6373 17.9011 17.4825 17.7111L12.1812 20.7762C12.2457 20.9535 12.2815 21.145 12.2815 21.3456C12.2815 21.8021 12.0971 22.2157 11.7981 22.5147C11.6447 22.6683 11.4624 22.79 11.2618 22.873C11.0612 22.956 10.8461 22.9985 10.629 22.9981C10.1725 22.9981 9.75889 22.8136 9.4599 22.5147C9.16091 22.2157 8.97651 21.8021 8.97651 21.3456C8.97651 21.1415 9.0141 20.9445 9.08214 20.7637L3.81493 17.7183C3.65996 17.9068 3.46507 18.0586 3.24431 18.1626C3.02355 18.2667 2.78245 18.3204 2.5384 18.3199C2.08187 18.3199 1.66829 18.1355 1.36931 17.8365C1.07211 17.5375 0.887701 17.1239 0.887701 16.6674C0.887701 16.2108 1.07211 15.799 1.3711 15.5001C1.62514 15.2458 1.95509 15.0811 2.31103 15.031V8.95632C1.95484 8.907 1.62466 8.74222 1.3711 8.48725C1.21737 8.33428 1.0955 8.15236 1.01253 7.95199C0.929557 7.75163 0.887129 7.5368 0.887701 7.31994C0.887701 6.8634 1.07211 6.44983 1.3711 6.15084C1.52452 5.99723 1.70678 5.87545 1.90741 5.79249C2.10805 5.70954 2.32309 5.66704 2.54019 5.66745C2.78572 5.66701 3.02823 5.72145 3.25002 5.82676C3.4718 5.93208 3.66725 6.08562 3.82209 6.27617L9.08393 3.23436ZM11.9055 3.70164C11.6546 4.00759 11.3018 4.21289 10.9119 4.27992V7.73172L14.1936 9.63308L17.2103 7.88927C17.1441 7.71203 17.1101 7.51867 17.1101 7.31994C17.1101 7.12658 17.1441 6.9386 17.205 6.76672L11.9055 3.70164ZM18.4743 8.94737C18.1404 8.8893 17.8327 8.72918 17.5935 8.48904C17.5594 8.45502 17.5272 8.42101 17.4968 8.38341L14.4854 10.1236V13.844L17.5093 15.5896C17.5362 15.5591 17.563 15.5287 17.5917 15.5001C17.8311 15.2603 18.1387 15.1002 18.4725 15.0417V8.94737H18.4743ZM17.2085 17.2313C17.1441 17.0559 17.1101 16.8661 17.1101 16.6692C17.1101 16.4615 17.1477 16.2627 17.2193 16.0783L14.2938 14.39L10.9119 16.3558V19.7199C11.3018 19.787 11.6546 19.9923 11.9055 20.2982L17.2085 17.2313ZM9.36322 20.2857C9.61254 19.9882 9.95859 19.7879 10.3408 19.7199V16.3397L6.94625 14.3703L4.06557 16.0336C4.14614 16.2287 4.19269 16.4436 4.19269 16.6692C4.19269 16.8697 4.15688 17.0612 4.09243 17.2385L9.36322 20.2857ZM2.81412 15.0381C3.15966 15.0954 3.46939 15.2619 3.7075 15.5001C3.72541 15.518 3.74152 15.5359 3.75763 15.5538L6.69202 13.8601V10.0162L3.86685 8.30463C3.81851 8.37088 3.7648 8.43175 3.7075 8.48904C3.46476 8.73185 3.15258 8.89326 2.81412 8.95095V15.0381ZM2.54199 8.40131C2.54915 8.40131 2.55631 8.39952 2.56347 8.39952H2.57779C2.85138 8.39094 3.11138 8.27823 3.30467 8.08442C3.40523 7.98414 3.485 7.86498 3.53938 7.73379C3.59376 7.6026 3.62169 7.46196 3.62157 7.31994C3.62157 7.02095 3.49982 6.75061 3.30467 6.55546C3.10953 6.36031 2.83918 6.23857 2.54019 6.23857C2.24121 6.23857 1.97086 6.36031 1.77572 6.55546C1.67516 6.65574 1.59539 6.7749 1.54101 6.90609C1.48663 7.03728 1.4587 7.17792 1.45882 7.31994C1.45882 7.61893 1.58057 7.88927 1.77572 8.08442C1.87625 8.18514 1.99571 8.26499 2.12721 8.31937C2.25872 8.37375 2.39968 8.4016 2.54199 8.40131ZM11.3935 20.5847C11.2932 20.4841 11.174 20.4043 11.0429 20.35C10.9117 20.2956 10.771 20.2676 10.629 20.2678C10.33 20.2678 10.0597 20.3895 9.86452 20.5847C9.66937 20.7798 9.54763 21.0501 9.54763 21.3491C9.54763 21.6481 9.66937 21.9185 9.86452 22.1136C10.0597 22.3088 10.33 22.4305 10.629 22.4305C10.928 22.4305 11.1983 22.3088 11.3935 22.1136C11.5886 21.9185 11.7104 21.6481 11.7104 21.3491C11.7104 21.0501 11.5904 20.7798 11.3935 20.5847ZM11.3935 1.88801C11.2932 1.78745 11.174 1.70769 11.0429 1.65331C10.9117 1.59893 10.771 1.571 10.629 1.57112C10.33 1.57112 10.0597 1.69287 9.86452 1.88801C9.66937 2.08316 9.54763 2.35351 9.54763 2.65249C9.54763 2.95148 9.66937 3.22183 9.86452 3.41697C9.9648 3.51753 10.084 3.59729 10.2152 3.65168C10.3463 3.70606 10.487 3.73399 10.629 3.73387C10.928 3.73387 11.1983 3.61212 11.3935 3.41697C11.494 3.31669 11.5738 3.19754 11.6282 3.06634C11.6826 2.93515 11.7105 2.79451 11.7104 2.65249C11.7104 2.35351 11.5904 2.08316 11.3935 1.88801ZM19.5253 15.9047C19.425 15.8041 19.3058 15.7244 19.1746 15.67C19.0434 15.6156 18.9028 15.5877 18.7608 15.5878C18.4618 15.5878 18.1914 15.7095 17.9963 15.9047C17.8957 16.005 17.816 16.1241 17.7616 16.2553C17.7072 16.3865 17.6793 16.5271 17.6794 16.6692C17.6794 16.9681 17.8011 17.2385 17.9963 17.4336C18.0966 17.5342 18.2157 17.614 18.3469 17.6683C18.4781 17.7227 18.6188 17.7507 18.7608 17.7505C19.0598 17.7505 19.3301 17.6288 19.5253 17.4336C19.6258 17.3334 19.7056 17.2142 19.76 17.083C19.8143 16.9518 19.8423 16.8112 19.8421 16.6692C19.8421 16.3702 19.7222 16.0998 19.5253 15.9047ZM3.30467 15.9047C3.10953 15.7095 2.83918 15.5878 2.54019 15.5878C2.24121 15.5878 1.97086 15.7095 1.77572 15.9047C1.67516 16.005 1.59539 16.1241 1.54101 16.2553C1.48663 16.3865 1.4587 16.5271 1.45882 16.6692C1.45882 16.9681 1.58057 17.2385 1.77572 17.4336C1.97086 17.6288 2.24121 17.7505 2.54019 17.7505C2.83918 17.7505 3.10953 17.6288 3.30467 17.4336C3.40523 17.3334 3.485 17.2142 3.53938 17.083C3.59376 16.9518 3.62169 16.8112 3.62157 16.6692C3.62099 16.3825 3.50708 16.1077 3.30467 15.9047ZM17.7976 7.80871C17.8119 7.82303 17.8226 7.84093 17.8334 7.85884C17.8441 7.87674 17.8513 7.89464 17.8584 7.91434C17.8996 7.97521 17.9462 8.0325 17.9963 8.08442C18.0966 8.18498 18.2157 8.26474 18.3469 8.31912C18.4781 8.3735 18.6188 8.40144 18.7608 8.40131C19.0598 8.40131 19.3301 8.27957 19.5253 8.08442C19.6258 7.98414 19.7056 7.86498 19.76 7.73379C19.8143 7.6026 19.8423 7.46196 19.8421 7.31994C19.8421 7.02095 19.7204 6.75061 19.5253 6.55546C19.425 6.4549 19.3058 6.37514 19.1746 6.32076C19.0434 6.26638 18.9028 6.23845 18.7608 6.23857C18.4618 6.23857 18.1914 6.36031 17.9963 6.55546C17.8957 6.65574 17.816 6.7749 17.7616 6.90609C17.7072 7.03728 17.6793 7.17792 17.6794 7.31994C17.6812 7.49719 17.7242 7.6619 17.7976 7.80871ZM7.22733 13.7992C7.26801 13.843 7.2948 13.8978 7.30432 13.9568L10.3712 15.7597V12.2004L7.22733 10.3295V13.7992ZM13.9519 10.3779L10.9065 12.2022V15.7632L13.9519 13.9639V10.3779ZM10.6254 8.15962L7.65344 9.93743L10.6415 11.7367L13.5437 9.97503L10.6254 8.15962Z" stroke="currentColor" stroke-width="1.3" mask="url(#path-1-outside-1_4081_10467)"/>
</svg>
