<svg width="12" height="14" viewBox="0 0 12 14" fill="none" xmlns="http://www.w3.org/2000/svg">
<path d="M0.5 2C0.223858 2 0 2.22386 0 2.5V3.5C0 3.77614 0.223858 4 0.5 4H7.5C7.77614 4 8 4.22386 8 4.5V5L7.99495 5.50002C7.9922 5.77222 7.77222 5.9922 7.50003 5.99495L7 6H6.5C6.22386 6 6 6.22386 6 6.5V7L5.99495 7.50002C5.9922 7.77222 5.77222 7.9922 5.50003 7.99495L5 8H4.5C4.22386 8 4 8.22386 4 8.5V9L3.99495 9.50002C3.9922 9.77222 3.77222 9.9922 3.50003 9.99495L3 10H2.5C2.22386 10 2 10.2239 2 10.5V11L1.99495 11.5C1.9922 11.7722 1.77222 11.9922 1.50003 11.9949L1 12H0.5C0.223858 12 0 12.2239 0 12.5V13.5C0 13.7761 0.223858 14 0.5 14H1.5C1.77614 14 2 13.7761 2 13.5V13L2.00505 12.5C2.0078 12.2278 2.22778 12.0078 2.49998 12.0051L3 12H3.5C3.77614 12 4 11.7761 4 11.5V11L4.00505 10.5C4.0078 10.2278 4.22778 10.0078 4.49998 10.0051L5 10H5.5C5.77614 10 6 9.77614 6 9.5V9L6.00505 8.49997C6.0078 8.22778 6.22778 8.0078 6.49998 8.00505L7 8H7.5C7.77614 8 8 7.77614 8 7.5V7L8.00505 6.49997C8.0078 6.22778 8.22778 6.0078 8.49998 6.00505L9 6H9.5C9.77614 6 10 6.22386 10 6.5V13.5C10 13.7761 10.2239 14 10.5 14H11.5C11.7761 14 12 13.7761 12 13.5V2.5C12 2.22386 11.7761 2 11.5 2H0.5Z" fill="#5E6167"/>
<path d="M0.5 0C0.223858 0 0 0.223858 0 0.5V1.5C0 1.77614 0.223858 2 0.5 2H7.5C7.77614 2 8 2.22386 8 2.5V3L7.99495 3.50002C7.9922 3.77222 7.77222 3.9922 7.50003 3.99495L7 4H6.5C6.22386 4 6 4.22386 6 4.5V5L5.99495 5.50002C5.9922 5.77222 5.77222 5.9922 5.50003 5.99495L5 6H4.5C4.22386 6 4 6.22386 4 6.5V7L3.99495 7.50002C3.9922 7.77222 3.77222 7.9922 3.50003 7.99495L3 8H2.5C2.22386 8 2 8.22386 2 8.5V9L1.99495 9.50002C1.9922 9.77222 1.77222 9.9922 1.50003 9.99495L1 10H0.5C0.223858 10 0 10.2239 0 10.5V11.5C0 11.7761 0.223858 12 0.5 12H1.5C1.77614 12 2 11.7761 2 11.5V11L2.00505 10.5C2.0078 10.2278 2.22778 10.0078 2.49998 10.0051L3 10H3.5C3.77614 10 4 9.77614 4 9.5V9L4.00505 8.49997C4.0078 8.22778 4.22778 8.0078 4.49998 8.00505L5 8H5.5C5.77614 8 6 7.77614 6 7.5V7L6.00505 6.49997C6.0078 6.22778 6.22778 6.0078 6.49998 6.00505L7 6H7.5C7.77614 6 8 5.77614 8 5.5V5L8.00505 4.49997C8.0078 4.22778 8.22778 4.0078 8.49998 4.00505L9 4H9.5C9.77614 4 10 4.22386 10 4.5V11.5C10 11.7761 10.2239 12 10.5 12H11.5C11.7761 12 12 11.7761 12 11.5V0.5C12 0.223858 11.7761 0 11.5 0H0.5Z" fill="currentColor"/>
</svg>
