<svg width="15" height="14" viewBox="0 0 15 14" fill="none" xmlns="http://www.w3.org/2000/svg">
<path d="M7.72994 13.215C7.87918 13.3642 8.12114 13.3642 8.27038 13.215L8.81082 12.6745C8.96006 12.5253 8.96006 12.2833 8.81082 12.1341L5.02774 8.35102C4.8785 8.20178 4.8785 7.95982 5.02774 7.81058L5.29796 7.54036L5.57093 7.27285C5.71951 7.12724 5.95729 7.12724 6.10588 7.27285L6.37884 7.54036L6.64906 7.81058C6.7983 7.95982 7.04026 7.95982 7.1895 7.81058L7.45972 7.54036L7.73269 7.27285C7.88128 7.12724 8.11905 7.12724 8.26764 7.27285L8.5406 7.54036L8.81082 7.81058C8.96006 7.95982 9.20202 7.95982 9.35126 7.81058L9.62148 7.54036L9.89445 7.27285C10.043 7.12724 10.2808 7.12724 10.4294 7.27285L10.7024 7.54036L10.9726 7.81058C11.1218 7.95982 11.3638 7.95982 11.513 7.81058L11.7832 7.54036L12.0562 7.27285C12.2048 7.12724 12.4426 7.12724 12.5912 7.27285L12.8641 7.54036L13.1343 7.81058C13.2836 7.95982 13.5255 7.95982 13.6748 7.81058L14.2152 7.27014C14.3645 7.1209 14.3645 6.87894 14.2152 6.7297L13.6748 6.18926C13.5255 6.04002 13.2836 6.04002 13.1343 6.18926L12.8641 6.45948L12.5912 6.72698C12.4426 6.8726 12.2048 6.8726 12.0562 6.72698L11.7832 6.45948L11.513 6.18926C11.3638 6.04002 11.1218 6.04002 10.9726 6.18926L10.7024 6.45948L10.4294 6.72698C10.2808 6.8726 10.043 6.8726 9.89445 6.72698L9.62148 6.45948L9.35126 6.18926C9.20202 6.04002 8.96006 6.04002 8.81082 6.18926L8.5406 6.45948L8.26764 6.72698C8.11905 6.8726 7.88127 6.8726 7.73269 6.72698L7.45972 6.45948L7.1895 6.18926C7.04026 6.04002 6.7983 6.04002 6.64906 6.18926L6.37884 6.45948L6.10588 6.72698C5.95729 6.8726 5.71951 6.8726 5.57093 6.72698L5.29795 6.45948L5.02774 6.18926C4.8785 6.04002 4.8785 5.79806 5.02774 5.64882L8.81081 1.86573C8.96005 1.71653 8.96005 1.47453 8.81081 1.32533L8.27037 0.784827C8.12113 0.635627 7.87917 0.635627 7.72993 0.784827L1.7851 6.7297C1.6359 6.87894 1.6359 7.1209 1.7851 7.27014L7.72994 13.215Z" fill="#212630"/>
<path d="M6.31588 13.4074C6.46512 13.5566 6.70708 13.5566 6.85632 13.4074L7.39676 12.8669C7.546 12.7177 7.546 12.4757 7.39676 12.3265L3.6137 8.5434C3.4644 8.39416 3.4644 8.1522 3.6137 8.00296L3.8839 7.73274L4.1569 7.46524C4.3055 7.31962 4.54319 7.31962 4.69181 7.46524L4.96478 7.73274L5.235 8.00296C5.38424 8.1522 5.62619 8.1522 5.77543 8.00296L6.04566 7.73274L6.31862 7.46524C6.46721 7.31962 6.70499 7.31962 6.85358 7.46524L7.12654 7.73274L7.39676 8.00296C7.546 8.1522 7.78796 8.1522 7.9372 8.00296L8.20742 7.73274L8.48038 7.46524C8.62897 7.31962 8.86675 7.31962 9.01534 7.46524L9.2883 7.73274L9.55852 8.00296C9.70776 8.1522 9.94972 8.1522 10.099 8.00296L10.3692 7.73274L10.6421 7.46524C10.7907 7.31962 11.0285 7.31962 11.1771 7.46524L11.4501 7.73274L11.7203 8.00296C11.8695 8.1522 12.1115 8.1522 12.2607 8.00296L12.8012 7.46252C12.9504 7.31328 12.9504 7.07132 12.8012 6.92208L12.2607 6.38164C12.1115 6.2324 11.8695 6.2324 11.7203 6.38164L11.4501 6.65186L11.1771 6.91936C11.0285 7.06498 10.7907 7.06498 10.6421 6.91936L10.3692 6.65186L10.099 6.38164C9.94972 6.2324 9.70776 6.2324 9.55852 6.38164L9.2883 6.65186L9.01534 6.91936C8.86675 7.06498 8.62897 7.06498 8.48038 6.91936L8.20741 6.65186L7.9372 6.38164C7.78796 6.2324 7.546 6.2324 7.39676 6.38164L7.12654 6.65186L6.85358 6.91936C6.70499 7.06498 6.46721 7.06498 6.31862 6.91936L6.04566 6.65186L5.77543 6.38164C5.62619 6.2324 5.38424 6.2324 5.235 6.38164L4.96478 6.65186L4.69181 6.91936C4.54319 7.06498 4.3055 7.06498 4.1569 6.91936L3.8839 6.65186L3.6137 6.38164C3.4644 6.2324 3.4644 5.99044 3.6137 5.8412L7.39675 2.05813C7.54599 1.90893 7.54599 1.66693 7.39675 1.51763L6.85631 0.977227C6.70707 0.828027 6.46511 0.828027 6.31587 0.977227L0.370995 6.92208C0.221795 7.07132 0.221795 7.31328 0.370995 7.46252L6.31588 13.4074Z" fill="white"/>
</svg>
