<svg width="22" height="22" viewBox="0 0 22 22" fill="none" xmlns="http://www.w3.org/2000/svg">
<path d="M18.4136 9.4137C18.275 9.41952 18.1369 9.43341 18 9.4553V6V4H16H12.5447C12.5666 3.86302 12.5805 3.72489 12.5863 3.5863C12.5863 2.63515 12.2085 1.72296 11.5359 1.0504C10.8633 0.377841 9.9511 0 9 0C8.0489 0 7.13666 0.377841 6.4641 1.0504C5.79154 1.72296 5.4137 2.63515 5.4137 3.5863C5.41952 3.72489 5.43341 3.86302 5.4553 4H2H0V11.7L2.23 11.4425L2.3844 11.4225L2.448 11.4144C2.86244 11.4237 3.25677 11.5949 3.54659 11.8913C3.8364 12.1877 3.99868 12.5858 3.99868 13.0003C3.99868 13.4148 3.8364 13.8129 3.54659 14.1093C3.25677 14.4057 2.86244 14.5769 2.448 14.5862L2.3844 14.5781L2.23 14.5581L0 14.3V22H7.7L7.4425 19.77L7.4225 19.6156L7.4144 19.5519C7.42371 19.1375 7.59488 18.7431 7.89128 18.4533C8.1877 18.1635 8.5858 18.0012 9.0003 18.0012C9.4148 18.0012 9.8129 18.1635 10.1093 18.4533C10.4057 18.7431 10.5769 19.1375 10.5862 19.5519L10.5781 19.6156L10.5581 19.77L10.3 22H18V20V16.5447C18.4846 16.6023 18.9759 16.5601 19.4436 16.4208C19.9113 16.2815 20.3456 16.0479 20.7197 15.7345C21.0938 15.4212 21.3999 15.0346 21.6191 14.5985C21.8382 14.1625 21.9659 13.6862 21.9941 13.199C22.0224 12.7118 21.9507 12.2239 21.7835 11.7654C21.6162 11.307 21.3569 10.8876 21.0216 10.533C20.6862 10.1785 20.2819 9.89625 19.8334 9.70376C19.3849 9.51127 18.9016 9.41256 18.4136 9.4137ZM18.4474 14.5859L18.3838 14.5778L18.2292 14.5578L16 14.3V20H12.5447C12.627 19.487 12.5969 18.9623 12.4566 18.4621C12.3163 17.9618 12.0692 17.498 11.7321 17.1026C11.3951 16.7073 10.9763 16.3897 10.5046 16.172C10.0329 15.9543 9.5195 15.8415 9 15.8415C8.4805 15.8415 7.96713 15.9543 7.49542 16.172C7.02372 16.3897 6.6049 16.7073 6.26787 17.1026C5.93085 17.498 5.68366 17.9618 5.54337 18.4621C5.40307 18.9623 5.37303 19.487 5.4553 20H2V16.5447C2.13698 16.5666 2.27511 16.5805 2.4137 16.5863C3.36485 16.5863 4.27704 16.2085 4.9496 15.5359C5.62216 14.8633 6 13.9511 6 13C6 12.0489 5.62216 11.1367 4.9496 10.4641C4.27704 9.79154 3.36485 9.4137 2.4137 9.4137C2.27511 9.41953 2.13698 9.43342 2 9.4553V6H7.7L7.4425 3.77L7.4225 3.6156L7.4144 3.5519C7.42371 3.13746 7.59488 2.74313 7.89128 2.45331C8.1877 2.1635 8.5858 2.00122 9.0003 2.00122C9.4148 2.00122 9.8129 2.1635 10.1093 2.45331C10.4057 2.74313 10.5769 3.13746 10.5862 3.5519L10.5781 3.6156L10.5581 3.77L10.3 6H16V11.7L18.2294 11.4425L18.384 11.4225L18.4476 11.4144C18.862 11.4237 19.2564 11.5949 19.5462 11.8913C19.836 12.1877 19.9983 12.5858 19.9983 13.0003C19.9983 13.4148 19.836 13.8129 19.5462 14.1093C19.2564 14.4057 18.8618 14.5766 18.4474 14.5859Z" fill="currentColor"/>
</svg>
