<svg width="23" height="20" viewBox="0 0 23 20" fill="none" xmlns="http://www.w3.org/2000/svg">
<path d="M21.1419 0.800608L1.05016 8.52412C0.37778 8.80723 0.0283244 9.11245 0.00178257 9.4398C-0.0247581 9.76714 0.245075 10.0193 0.811292 10.1962L5.9603 11.7887L17.8773 4.27752C18.1604 4.10057 18.3949 4.04307 18.5807 4.105C18.7665 4.16693 18.7532 4.29521 18.5409 4.48985L8.87984 13.2219L8.5348 18.5302C8.78253 18.5302 8.98158 18.4771 9.13198 18.3709C9.28238 18.2648 9.42836 18.1409 9.56992 17.9994L12.0648 15.5576L17.2669 19.406C17.7623 19.6715 18.1737 19.7334 18.5011 19.5918C18.8284 19.4503 19.054 19.0964 19.1779 18.5302L22.5751 2.41963C22.7521 1.71185 22.6725 1.212 22.3363 0.920044C22.0001 0.628088 21.602 0.588277 21.1419 0.800608Z" fill="currentColor"/>
</svg>
