<svg width="20" height="20" viewBox="0 0 20 20" fill="none" xmlns="http://www.w3.org/2000/svg">
<path d="M10.0275 19.0566L0.0664062 14.044L4.62367 7.09331L8.65709 0.94043H10.0264H11.3957L15.4297 7.09276L19.987 14.0434L10.0275 19.056V19.0566ZM10.2259 4.12454C10.2259 4.30646 10.3289 4.47248 10.4916 4.55303L14.2215 6.40454C14.2576 6.42262 14.2949 6.38098 14.2724 6.347L11.0944 1.49933H10.2259V4.12454ZM18.8253 14.0034L19.1765 13.827L15.5826 8.34536C15.5607 8.31248 15.5091 8.32783 15.5091 8.36728V12.1163C15.5091 12.2643 15.593 12.3991 15.725 12.4648L18.8253 14.0034ZM4.55298 12.2681L1.34586 13.8599C1.19846 13.9328 1.19791 14.1426 1.34476 14.2166L1.52284 14.3065C1.69106 14.3908 1.88942 14.3914 2.05764 14.3081L4.81161 12.941L10.0352 15.5339L15.3053 12.9174C15.5212 12.81 15.5212 12.5021 15.3053 12.3947L15.0878 12.2867C15.0335 12.2599 14.999 12.2045 14.999 12.1437V7.36728L10.3135 5.04125C10.2593 5.0144 10.2248 4.95906 10.2248 4.89824V4.71139C10.2248 4.56728 10.073 4.47303 9.94367 4.53714L4.98367 6.99961C4.71901 7.13111 4.55189 7.4007 4.55189 7.69605V12.2665L4.55298 12.2681ZM5.14202 7.58317V11.9678L9.7075 9.70152V5.31687L5.14202 7.58317ZM10.0264 14.8182L14.5327 12.5815L10.0264 10.3448L5.52065 12.5815L10.0264 14.8182Z" fill="white"/>
</svg>
