<svg width="15" height="14" viewBox="0 0 15 14" fill="none" xmlns="http://www.w3.org/2000/svg">
<path d="M6.85616 0.977251C6.70692 0.828013 6.46496 0.828013 6.31572 0.977251L5.77528 1.51769C5.62604 1.66693 5.62604 1.90889 5.77528 2.05813L9.55836 5.84121C9.7076 5.99045 9.7076 6.23241 9.55836 6.38165L9.28814 6.65187L9.01517 6.91938C8.86659 7.06499 8.62881 7.06499 8.48022 6.91938L8.20726 6.65187L7.93704 6.38165C7.7878 6.23241 7.54584 6.23241 7.3966 6.38165L7.12638 6.65187L6.85341 6.91938C6.70482 7.06499 6.46705 7.06499 6.31846 6.91938L6.0455 6.65187L5.77528 6.38165C5.62604 6.23241 5.38408 6.23241 5.23484 6.38165L4.96462 6.65187L4.69165 6.91938C4.54306 7.06499 4.30529 7.06499 4.1567 6.91938L3.88374 6.65187L3.61352 6.38165C3.46428 6.23241 3.22232 6.23241 3.07308 6.38165L2.80286 6.65187L2.52989 6.91938C2.3813 7.06499 2.14353 7.06499 1.99494 6.91938L1.72198 6.65187L1.45176 6.38165C1.30252 6.23241 1.06055 6.23241 0.911317 6.38165L0.370876 6.92209C0.221638 7.07133 0.221638 7.31329 0.370876 7.46253L0.911317 8.00297C1.06055 8.15221 1.30252 8.15221 1.45176 8.00297L1.72198 7.73275L1.99494 7.46525C2.14353 7.31963 2.3813 7.31963 2.52989 7.46525L2.80286 7.73275L3.07308 8.00297C3.22232 8.15221 3.46428 8.15221 3.61352 8.00297L3.88374 7.73275L4.1567 7.46525C4.30529 7.31963 4.54306 7.31963 4.69165 7.46525L4.96462 7.73275L5.23484 8.00297C5.38408 8.15221 5.62604 8.15221 5.77528 8.00297L6.0455 7.73275L6.31846 7.46525C6.46705 7.31963 6.70483 7.31963 6.85341 7.46525L7.12638 7.73275L7.3966 8.00297C7.54584 8.15221 7.7878 8.15221 7.93704 8.00297L8.20726 7.73275L8.48022 7.46525C8.62881 7.31963 8.86659 7.31963 9.01517 7.46525L9.28814 7.73275L9.55836 8.00297C9.7076 8.15221 9.7076 8.39417 9.55836 8.54341L5.77528 12.3265C5.62604 12.4757 5.62604 12.7177 5.77528 12.8669L6.31572 13.4074C6.46496 13.5566 6.70692 13.5566 6.85616 13.4074L12.801 7.46253C12.9502 7.31329 12.9502 7.07133 12.801 6.92209L6.85616 0.977251Z" fill="#212630"/>
<path d="M8.27022 0.784868C8.12098 0.63563 7.87902 0.63563 7.72978 0.784868L7.18934 1.32531C7.0401 1.47455 7.0401 1.71651 7.18934 1.86575L10.9724 5.64883C11.1217 5.79807 11.1217 6.04003 10.9724 6.18927L10.7022 6.45949L10.4292 6.72699C10.2806 6.87261 10.0429 6.87261 9.89428 6.72699L9.62132 6.45949L9.3511 6.18927C9.20186 6.04003 8.9599 6.04003 8.81066 6.18927L8.54044 6.45949L8.26748 6.72699C8.11889 6.87261 7.88111 6.87261 7.73252 6.72699L7.45956 6.45949L7.18934 6.18927C7.0401 6.04003 6.79814 6.04003 6.6489 6.18927L6.37868 6.45949L6.10572 6.72699C5.95713 6.87261 5.71935 6.87261 5.57076 6.72699L5.2978 6.45949L5.02758 6.18927C4.87834 6.04003 4.63638 6.04003 4.48714 6.18927L4.21692 6.45949L3.94396 6.72699C3.79537 6.87261 3.55759 6.87261 3.409 6.72699L3.13604 6.45949L2.86582 6.18927C2.71658 6.04003 2.47462 6.04003 2.32538 6.18927L1.78494 6.72971C1.6357 6.87895 1.6357 7.12091 1.78494 7.27015L2.32538 7.81059C2.47462 7.95983 2.71658 7.95983 2.86582 7.81059L3.13604 7.54037L3.409 7.27287C3.55759 7.12725 3.79537 7.12725 3.94396 7.27287L4.21692 7.54037L4.48714 7.81059C4.63638 7.95983 4.87834 7.95983 5.02758 7.81059L5.2978 7.54037L5.57076 7.27287C5.71935 7.12725 5.95713 7.12725 6.10572 7.27287L6.37868 7.54037L6.6489 7.81059C6.79814 7.95983 7.0401 7.95983 7.18934 7.81059L7.45956 7.54037L7.73252 7.27287C7.88111 7.12725 8.11889 7.12725 8.26748 7.27287L8.54044 7.54037L8.81066 7.81059C8.9599 7.95983 9.20186 7.95983 9.3511 7.81059L9.62132 7.54037L9.89428 7.27287C10.0429 7.12725 10.2806 7.12725 10.4292 7.27287L10.7022 7.54037L10.9724 7.81059C11.1217 7.95983 11.1217 8.20179 10.9724 8.35103L7.18934 12.1341C7.0401 12.2833 7.0401 12.5253 7.18934 12.6746L7.72978 13.215C7.87902 13.3642 8.12098 13.3642 8.27022 13.215L14.2151 7.27015C14.3643 7.12091 14.3643 6.87895 14.2151 6.72971L8.27022 0.784868Z" fill="white"/>
</svg>
