<svg width="20" height="23" viewBox="0 0 20 23" fill="none" xmlns="http://www.w3.org/2000/svg">
<path d="M14 5.5V2.5C14 1.83696 13.7366 1.20107 13.2678 0.73223C12.7989 0.26339 12.163 0 11.5 0H2.5C1.83696 0 1.20107 0.26339 0.73223 0.73223C0.26339 1.20107 0 1.83696 0 2.5V13L5 8H11.5C12.163 8 12.7989 7.73661 13.2678 7.26777C13.7366 6.79893 14 6.16304 14 5.5ZM4.1716 6L2 8.1716V2.5C2.00016 2.36744 2.05289 2.24036 2.14662 2.14662C2.24036 2.05289 2.36744 2.00016 2.5 2H11.5C11.6326 2.00016 11.7596 2.05289 11.8534 2.14662C11.9471 2.24036 11.9998 2.36744 12 2.5V5.5C11.9998 5.63256 11.9471 5.75964 11.8534 5.85338C11.7596 5.94711 11.6326 5.99984 11.5 6H4.1716ZM17.5 10H8.5C7.83696 10 7.20107 10.2634 6.73223 10.7322C6.26339 11.2011 6 11.837 6 12.5V15.5C6 16.163 6.26339 16.7989 6.73223 17.2678C7.20107 17.7366 7.83696 18 8.5 18H15L20 23V12.5C20 11.837 19.7366 11.2011 19.2678 10.7322C18.7989 10.2634 18.163 10 17.5 10ZM18 18.1716L15.8284 16H8.5C8.3674 15.9998 8.2404 15.9471 8.1466 15.8534C8.0529 15.7596 8.0002 15.6326 8 15.5V12.5C8.0002 12.3674 8.0529 12.2404 8.1466 12.1466C8.2404 12.0529 8.3674 12.0002 8.5 12H17.5C17.6326 12.0002 17.7596 12.0529 17.8534 12.1466C17.9471 12.2404 17.9998 12.3674 18 12.5V18.1716Z" fill="white"/>
</svg>
