<svg width="20" height="19" viewBox="0 0 20 19" fill="none" xmlns="http://www.w3.org/2000/svg">
<path d="M11.2989 11.0985L13.7829 6.94735L13 6.5L11.0228 9.76432L8.67738 8.00525L6 11.352L6.70407 11.9152L8.83552 9.25092L11.2989 11.0985Z" fill="white"/>
<path fill-rule="evenodd" clip-rule="evenodd" d="M0 13.1036L9.9611 18.1162L19.9205 13.103L11.3293 0H8.59068L0 13.1036ZM10.4252 3.6126C10.2625 3.53205 10.1595 3.36603 10.1595 3.18411V0.558904H11.0279L14.206 5.40657C14.2285 5.44055 14.1912 5.48219 14.1551 5.46411L10.4252 3.6126ZM19.1101 12.8866L18.7589 13.063L15.6586 11.5244C15.5266 11.4586 15.4427 11.3238 15.4427 11.1759V7.42685C15.4427 7.3874 15.4942 7.37205 15.5162 7.40493L19.1101 12.8866ZM1.27945 12.9195L4.48658 11.3277L4.48548 11.326V6.75562C4.48548 6.46027 4.6526 6.19068 4.91726 6.05918L9.87726 3.59671C10.0066 3.5326 10.1584 3.62685 10.1584 3.77096V3.95781C10.1584 4.01863 10.1929 4.07397 10.2471 4.10082L14.9326 6.42685V11.2033C14.9326 11.2641 14.9671 11.3195 15.0214 11.3463L15.2389 11.4542C15.4548 11.5616 15.4548 11.8696 15.2389 11.977L9.96877 14.5934L4.74521 12.0005L1.99123 13.3677C1.82301 13.451 1.62466 13.4504 1.45644 13.366L1.27836 13.2762C1.13151 13.2022 1.13205 12.9923 1.27945 12.9195Z" fill="white"/>
</svg>
