<svg width="24" height="17" viewBox="0 0 24 17" fill="none" xmlns="http://www.w3.org/2000/svg">
<path d="M17.5 7C18.1922 7 18.8689 6.79473 19.4445 6.41015C20.0201 6.02556 20.4687 5.47894 20.7336 4.83939C20.9985 4.19985 21.0678 3.49612 20.9327 2.81719C20.7977 2.13825 20.4644 1.51461 19.9749 1.02513C19.4854 0.535642 18.8617 0.202302 18.1828 0.0672524C17.5039 -0.0677976 16.8001 0.0015223 16.1606 0.266422C15.5211 0.531332 14.9744 0.979932 14.5899 1.55551C14.2053 2.13108 14 2.80777 14 3.5C14.0011 4.42792 14.3702 5.31751 15.0264 5.97365C15.6825 6.62978 16.5721 6.99889 17.5 7ZM17.5 2C17.7967 2 18.0867 2.08798 18.3334 2.2528C18.58 2.41762 18.7723 2.65189 18.8858 2.92598C18.9993 3.20007 19.0291 3.50167 18.9712 3.79264C18.9133 4.08361 18.7704 4.35088 18.5607 4.56066C18.3509 4.77044 18.0836 4.9133 17.7926 4.97118C17.5017 5.02906 17.2001 4.99935 16.926 4.88582C16.6519 4.77229 16.4176 4.58003 16.2528 4.33336C16.088 4.08668 16 3.79667 16 3.5C16.0005 3.10231 16.1586 2.72105 16.4398 2.43984C16.721 2.15863 17.1023 2.00045 17.5 2ZM23.762 11.2908C22.225 9.7561 20.1776 8.8396 18.0091 8.7155C15.8406 8.5914 13.7021 9.2683 12 10.6176C10.2979 9.2683 8.15937 8.5914 5.99087 8.7155C3.82237 8.8396 1.77504 9.7561 0.238 11.2908L0 11.5289V17H24V11.5289L23.762 11.2908ZM11 15H2V12.38C3.24907 11.297 4.84681 10.7008 6.5 10.7008C8.15319 10.7008 9.75093 11.297 11 12.38V15ZM22 15H13V12.38C14.2491 11.297 15.8468 10.7008 17.5 10.7008C19.1532 10.7008 20.7509 11.297 22 12.38V15ZM6.5 7C7.19223 7 7.86892 6.79473 8.4445 6.41015C9.02007 6.02556 9.46867 5.47894 9.73358 4.83939C9.99849 4.19985 10.0678 3.49612 9.93275 2.81719C9.7977 2.13825 9.46436 1.51461 8.97487 1.02513C8.48539 0.535642 7.86175 0.202302 7.18282 0.0672524C6.50388 -0.0677976 5.80015 0.0015223 5.16061 0.266422C4.52107 0.531332 3.97444 0.979932 3.58986 1.55551C3.20527 2.13108 3 2.80777 3 3.5C3.00111 4.42792 3.37022 5.31751 4.02635 5.97365C4.68249 6.62978 5.57208 6.99889 6.5 7ZM6.5 2C6.79667 2 7.08668 2.08798 7.33336 2.2528C7.58003 2.41762 7.77229 2.65189 7.88582 2.92598C7.99935 3.20007 8.02906 3.50167 7.97118 3.79264C7.9133 4.08361 7.77044 4.35088 7.56066 4.56066C7.35088 4.77044 7.08361 4.9133 6.79264 4.97118C6.50166 5.02906 6.20006 4.99935 5.92597 4.88582C5.65189 4.77229 5.41762 4.58003 5.2528 4.33336C5.08797 4.08668 5 3.79667 5 3.5C5.00045 3.10231 5.15863 2.72105 5.43984 2.43984C5.72104 2.15863 6.10231 2.00045 6.5 2Z" fill="white"/>
</svg>
