<svg width="20" height="20" viewBox="0 0 20 20" fill="none" xmlns="http://www.w3.org/2000/svg">
<path d="M10 0C8.0222 0 6.08879 0.58649 4.4443 1.6853C2.79981 2.78412 1.51809 4.3459 0.761211 6.17317C0.00433075 8.0004 -0.193699 10.0111 0.192151 11.9509C0.578001 13.8907 1.53041 15.6725 2.92894 17.0711C4.32746 18.4696 6.10929 19.422 8.0491 19.8079C9.9889 20.1937 11.9996 19.9957 13.8268 19.2388C15.6541 18.4819 17.2159 17.2002 18.3147 15.5557C19.4135 13.9112 20 11.9778 20 10C20 8.6868 19.7413 7.38642 19.2388 6.17317C18.7363 4.95991 17.9997 3.85752 17.0711 2.92893C16.1425 2.00035 15.0401 1.26375 13.8268 0.7612C12.6136 0.25866 11.3132 0 10 0ZM10 18C8.4178 18 6.87104 17.5308 5.55544 16.6518C4.23985 15.7727 3.21447 14.5233 2.60897 13.0615C2.00347 11.5997 1.84504 9.9911 2.15372 8.4393C2.4624 6.88743 3.22433 5.46197 4.34315 4.34315C5.46197 3.22433 6.88743 2.4624 8.4393 2.15372C9.9911 1.84504 11.5997 2.00346 13.0615 2.60896C14.5233 3.21447 15.7727 4.23984 16.6518 5.55544C17.5308 6.87103 18 8.4177 18 10C17.9976 12.121 17.154 14.1544 15.6542 15.6542C14.1544 17.154 12.121 17.9976 10 18ZM9.8794 12.85C9.652 12.85 9.4296 12.9174 9.2405 13.0438C9.0514 13.1702 8.904 13.3498 8.8169 13.5599C8.7299 13.77 8.7071 14.0013 8.7515 14.2244C8.7959 14.4474 8.9054 14.6523 9.0662 14.8132C9.2271 14.974 9.432 15.0835 9.6551 15.1279C9.8781 15.1723 10.1094 15.1495 10.3195 15.0625C10.5296 14.9754 10.7092 14.828 10.8356 14.6389C10.962 14.4498 11.0294 14.2274 11.0294 14C11.0294 13.695 10.9082 13.4025 10.6926 13.1868C10.4769 12.9712 10.1844 12.85 9.8794 12.85ZM10.1377 4.9717C9.6746 4.96829 9.2161 5.0629 8.7922 5.2493C8.3682 5.4357 7.98856 5.70968 7.67806 6.05324C7.36755 6.39681 7.13325 6.80218 6.99053 7.24272C6.84782 7.68327 6.79993 8.149 6.85 8.6094H8.75C8.75 7.4888 9.2432 6.8721 10.1377 6.8721C10.4428 6.845 10.7465 6.93845 10.9836 7.13244C11.2206 7.32643 11.3724 7.60554 11.4062 7.91C11.4062 8.471 11.2207 8.6268 10.6338 9.035C10.1073 9.3255 9.6707 9.7552 9.372 10.2771C9.0733 10.799 8.9238 11.393 8.94 11.9941H10.84C10.84 11.2051 11.133 11.001 11.718 10.5947C12.2011 10.3331 12.6041 9.9451 12.8839 9.4723C13.1637 8.9994 13.3098 8.4594 13.3066 7.91C13.274 7.10085 12.9223 6.33752 12.3285 5.78692C11.7347 5.23631 10.947 4.94321 10.1377 4.9717Z" fill="white"/>
</svg>
