<svg width="24" height="23" viewBox="0 0 24 23" fill="none" xmlns="http://www.w3.org/2000/svg">
<path d="M11.9865 0.666504C10.4239 0.666504 8.9501 0.968368 7.56505 1.57211C6.19777 2.15809 4.99919 2.96602 3.96929 3.99592C2.93938 5.02582 2.13145 6.2244 1.54547 7.59169C0.95949 8.97673 0.666504 10.4505 0.666504 12.0132C0.666504 13.2561 0.85295 14.4458 1.22585 15.5823C1.6165 16.7187 2.15364 17.7575 2.83728 18.6986C3.52093 19.6397 4.34218 20.4566 5.30105 21.1491C6.24217 21.8594 7.28094 22.4009 8.41739 22.7738C8.7015 22.8271 8.90126 22.7871 9.01668 22.654C9.1321 22.5208 9.18981 22.3743 9.18981 22.2145C9.18981 22.0902 9.18537 21.8549 9.17649 21.5086C9.16761 21.1624 9.16317 20.7584 9.16317 20.2967C7.5828 20.6341 6.55292 20.4654 6.07348 19.7907C5.59404 19.1159 5.35432 18.7785 5.35432 18.7785C5.08797 18.1215 4.8083 17.682 4.51531 17.4601C4.22232 17.2381 4.07583 17.1271 4.07583 17.1271C3.56087 16.772 3.44546 16.5678 3.72957 16.5145C4.01368 16.4613 4.15573 16.4346 4.15573 16.4346C4.72396 16.4701 5.159 16.6743 5.46086 17.0472C5.76273 17.4201 5.91366 17.6066 5.91366 17.6066C6.41086 18.4589 7.00127 18.8629 7.68491 18.8185C8.36856 18.7741 8.87018 18.6809 9.18981 18.5388C9.24308 18.1659 9.3363 17.8552 9.46948 17.6066C9.60266 17.358 9.74915 17.1627 9.90896 17.0206C8.66598 16.8785 7.49847 16.4524 6.40642 15.7421C5.31436 15.0318 4.76835 13.5935 4.76835 11.4272C4.76835 10.8057 4.87045 10.2419 5.07465 9.73583C5.27886 9.22976 5.55853 8.7814 5.91366 8.39075C5.86039 8.23094 5.78937 7.88468 5.70058 7.35197C5.6118 6.81926 5.72722 6.16226 6.04684 5.38096C6.04684 5.38096 6.29544 5.38984 6.79263 5.40759C7.28983 5.42535 8.08 5.79824 9.16317 6.52628C9.6071 6.40198 10.0688 6.30875 10.5482 6.2466C11.0277 6.18446 11.5071 6.15338 11.9865 6.15338C12.466 6.15338 12.9454 6.18446 13.4248 6.2466C13.9043 6.30875 14.3748 6.40198 14.8365 6.52628C15.9197 5.79824 16.7099 5.42535 17.207 5.40759C17.7042 5.38984 17.9528 5.38096 17.9528 5.38096C18.2547 6.16226 18.3612 6.81926 18.2725 7.35197C18.1837 7.88468 18.1126 8.23094 18.0594 8.39075C18.4145 8.7814 18.6942 9.22976 18.8984 9.73583C19.1026 10.2419 19.2047 10.8057 19.2047 11.4272C19.2047 13.5935 18.6587 15.0318 17.5666 15.7421C16.4746 16.4524 15.2982 16.8785 14.0374 17.0206C14.2505 17.1982 14.4325 17.4601 14.5835 17.8063C14.7344 18.1526 14.8099 18.5832 14.8099 19.0982C14.8099 19.8617 14.8099 20.5276 14.8099 21.0958C14.8099 21.664 14.8099 22.0369 14.8099 22.2145C14.8099 22.3743 14.8676 22.5208 14.983 22.654C15.0984 22.7871 15.2982 22.8271 15.5823 22.7738C16.701 22.3832 17.7397 21.8416 18.6986 21.1491C19.6397 20.4566 20.4521 19.6397 21.1358 18.6986C21.8194 17.7575 22.3565 16.7187 22.7472 15.5823C23.1378 14.4458 23.3332 13.2561 23.3332 12.0132C23.3332 10.4505 23.0313 8.97673 22.4276 7.59169C21.8416 6.2244 21.0337 5.02582 20.0038 3.99592C18.9739 2.96602 17.7753 2.15809 16.408 1.57211C15.0229 0.968368 13.5491 0.666504 11.9865 0.666504Z" fill="currentColor"/>
</svg>
