<svg width="14" height="14" viewBox="0 0 14 14" fill="none" xmlns="http://www.w3.org/2000/svg">
<path d="M13.6863 12.9798L9.77394 9.06753C10.6486 8.01119 11.0828 6.65859 10.9864 5.29056C10.89 3.92251 10.2703 2.64417 9.25621 1.72095C8.24208 0.797741 6.91128 0.300601 5.54023 0.332768C4.16918 0.364928 2.86318 0.923921 1.89343 1.89367C0.923677 2.86342 0.36469 4.16941 0.332523 5.54047C0.300363 6.91153 0.797503 8.24233 1.72072 9.25646C2.64393 10.2706 3.92228 10.8902 5.29032 10.9867C6.65834 11.0831 8.01094 10.6489 9.06728 9.77419L12.9796 13.6865L13.6863 12.9798ZM1.33297 5.66646C1.33297 4.80942 1.58712 3.97161 2.06327 3.259C2.53942 2.54639 3.2162 1.99097 4.00801 1.66299C4.79982 1.33501 5.67108 1.2492 6.51168 1.41641C7.35228 1.58361 8.12441 1.99632 8.73041 2.60235C9.33648 3.20837 9.74914 3.9805 9.91634 4.82108C10.0835 5.66167 9.99774 6.53293 9.66981 7.32479C9.34181 8.11659 8.78641 8.79333 8.07374 9.26953C7.36114 9.74566 6.52334 9.99979 5.6663 9.99979C4.51743 9.99853 3.41599 9.54153 2.60362 8.72919C1.79124 7.91679 1.33428 6.81533 1.33297 5.66646Z" fill="currentColor"/>
</svg>
