<svg width="24" height="16" viewBox="0 0 24 16" fill="none" xmlns="http://www.w3.org/2000/svg">
<path d="M12 0.621582C9.55805 0.622772 7.16659 1.31669 5.10332 2.62274C3.04005 3.9288 1.38963 5.7934 0.34375 8C1.38867 10.2073 3.03887 12.0725 5.10235 13.3787C7.16584 14.6849 9.5578 15.3784 12 15.3784C14.4421 15.3784 16.8341 14.6849 18.8975 13.3787C20.961 12.0725 22.6112 10.2073 23.6562 8C22.6103 5.7934 20.9599 3.9288 18.8966 2.62274C16.8333 1.31669 14.4419 0.622772 12 0.621582ZM12 13.3783C10.103 13.3702 8.24056 12.8704 6.59437 11.9278C4.94818 10.9852 3.57449 9.6319 2.60735 8C3.56832 6.3626 4.94065 5.00484 6.58822 4.06141C8.2358 3.11799 10.1014 2.62167 12 2.62167C13.8985 2.62167 15.7641 3.11799 17.4117 4.06141C19.0593 5.00484 20.4316 6.3626 21.3925 8C20.4254 9.6319 19.0517 10.9852 17.4055 11.9278C15.7593 12.8704 13.8969 13.3702 12 13.3783ZM12 4.33578C11.2752 4.33578 10.5668 4.55068 9.96423 4.95331C9.36166 5.35594 8.892 5.92821 8.61467 6.5978C8.33734 7.2673 8.26477 8.004 8.40616 8.7148C8.54754 9.4256 8.89652 10.0785 9.40897 10.591C9.92142 11.1034 10.5743 11.4524 11.2851 11.5938C11.9959 11.7352 12.7326 11.6626 13.4022 11.3853C14.0717 11.1079 14.644 10.6383 15.0466 10.0357C15.4492 9.4331 15.6642 8.7247 15.6642 8C15.6642 7.0282 15.2781 6.0962 14.5909 5.409C13.9038 4.72183 12.9718 4.33578 12 4.33578ZM12 9.6642C11.6708 9.6642 11.349 9.5666 11.0754 9.3837C10.8017 9.2008 10.5884 8.9409 10.4624 8.6368C10.3365 8.3328 10.3035 7.9981 10.3677 7.6753C10.4319 7.3525 10.5904 7.056 10.8232 6.8232C11.0559 6.5905 11.3525 6.432 11.6753 6.3678C11.9981 6.3035 12.3327 6.3365 12.6368 6.4625C12.9409 6.5884 13.2008 6.8017 13.3837 7.0754C13.5665 7.3491 13.6642 7.6708 13.6642 8C13.6636 8.4412 13.4882 8.8642 13.1762 9.1762C12.8642 9.4882 12.4412 9.6637 12 9.6642Z" fill="white"/>
</svg>
