<svg width="50" height="50" viewBox="0 0 50 50" fill="none" xmlns="http://www.w3.org/2000/svg">
<path d="M25 50C38.8071 50 50 38.8071 50 25C50 11.1929 38.8071 0 25 0C11.1929 0 0 11.1929 0 25C0 38.8071 11.1929 50 25 50Z" fill="#366EDD"/>
<path d="M25.0006 41.6672C15.795 41.6672 8.33398 34.2063 8.33398 25.0007C8.33398 15.795 15.795 8.33398 25.0006 8.33398C34.2063 8.33398 41.6673 15.795 41.6673 25.0007C41.6673 29.4209 39.9113 33.66 36.7857 36.7856C33.6601 39.9113 29.4209 41.6672 25.0006 41.6672ZM24.0077 18.8163C23.0958 18.8615 22.2338 19.246 21.5908 19.8942C20.9478 20.5424 20.5704 21.4075 20.5325 22.3198C20.5325 24.0361 21.5822 25.1567 23.8091 25.6248L25.3695 25.9936C26.8872 26.3482 27.5113 26.8588 27.5113 27.724C27.5113 28.5893 26.4191 29.4404 25.0006 29.4404C24.4968 29.4866 23.9902 29.39 23.5386 29.1617C23.0871 28.9335 22.709 28.5827 22.4475 28.1496C22.37 27.9853 22.2476 27.8461 22.0946 27.7483C21.9415 27.6504 21.7639 27.5978 21.5822 27.5964H20.7453C20.681 27.6083 20.6196 27.6329 20.5648 27.6686C20.5099 27.7043 20.4627 27.7505 20.4258 27.8046C20.3889 27.8586 20.363 27.9194 20.3497 27.9835C20.3364 28.0476 20.3359 28.1137 20.3482 28.178C20.552 29.01 21.026 29.7509 21.6959 30.2847C22.3658 30.8186 23.1938 31.1153 24.0503 31.1283V32.3197C24.0503 32.585 24.1556 32.8394 24.3432 33.0269C24.5307 33.2144 24.7851 33.3197 25.0503 33.3197C25.3155 33.3197 25.5699 33.2144 25.7574 33.0269C25.9449 32.8394 26.0503 32.585 26.0503 32.3197V31.1141C27.0188 31.1031 27.9447 30.7145 28.6309 30.031C29.3171 29.3474 29.7093 28.423 29.724 27.4545C29.724 25.6531 28.6886 24.6177 26.2347 24.0929L24.8162 23.7808C23.3978 23.4262 22.7311 22.9581 22.7311 22.1638C22.7311 21.3695 23.5822 20.49 25.0006 20.49C25.4474 20.4434 25.898 20.527 26.2982 20.7309C26.6985 20.9348 27.0311 21.2502 27.256 21.639C27.3471 21.8331 27.4915 21.9975 27.6722 22.113C27.853 22.2284 28.0627 22.2903 28.2772 22.2914H28.9439C29.0955 22.2544 29.2265 22.1593 29.3087 22.0267C29.3909 21.894 29.4178 21.7345 29.3836 21.5822C29.1915 20.814 28.7616 20.1262 28.1554 19.6167C27.5491 19.1073 26.7975 18.8024 26.0077 18.7453V17.7666C26.0077 17.5014 25.9024 17.247 25.7148 17.0595C25.5273 16.872 25.273 16.7666 25.0077 16.7666C24.7425 16.7666 24.4882 16.872 24.3006 17.0595C24.1131 17.247 24.0077 17.5014 24.0077 17.7666V18.8163ZM12.5042 25.0007C12.5058 27.6135 13.3283 30.1599 14.8554 32.28C16.3825 34.4 18.5371 35.9869 21.0148 36.8163H21.2134C21.3827 36.8163 21.545 36.7491 21.6648 36.6294C21.7845 36.5097 21.8517 36.3472 21.8517 36.1778V35.88C21.8522 35.616 21.7742 35.3578 21.6278 35.1381C21.4813 34.9185 21.2729 34.7472 21.029 34.646C19.0994 33.8672 17.4465 32.5294 16.2826 30.8045C15.1187 29.0795 14.4968 27.0461 14.4968 24.9652C14.4968 22.8843 15.1187 20.8509 16.2826 19.1259C17.4465 17.401 19.0994 16.0632 21.029 15.2844C21.2718 15.1857 21.4797 15.017 21.6262 14.7998C21.7728 14.5825 21.8513 14.3265 21.8517 14.0645V13.7382C21.8526 13.6425 21.8304 13.5479 21.787 13.4625C21.7436 13.3771 21.6802 13.3034 21.6023 13.2478C21.5243 13.1921 21.4341 13.156 21.3392 13.1426C21.2444 13.1292 21.1477 13.1389 21.0574 13.1709C18.5694 13.9937 16.4039 15.5795 14.8685 17.7031C13.3331 19.8267 12.5058 22.3801 12.5042 25.0007ZM37.497 25.0007C37.4926 22.3902 36.6688 19.847 35.1416 17.7298C33.6148 15.6125 31.462 14.0278 28.9865 13.1992H28.7737C28.5969 13.1992 28.4273 13.2695 28.3023 13.3945C28.1773 13.5195 28.107 13.6891 28.107 13.8659V14.0787C28.1128 14.3522 28.1975 14.6183 28.351 14.8448C28.5045 15.0713 28.7203 15.2486 28.9723 15.3553C30.8975 16.1364 32.546 17.4743 33.7063 19.1976C34.867 20.9209 35.4869 22.9514 35.4869 25.029C35.4869 27.1067 34.867 29.1371 33.7063 30.8605C32.546 32.5838 30.8975 33.9216 28.9723 34.7028C28.7251 34.8106 28.5138 34.9866 28.363 35.21C28.2123 35.4338 28.1284 35.6956 28.1212 35.9653V36.2063C28.1224 36.3116 28.1485 36.415 28.1973 36.5081C28.2461 36.6013 28.3162 36.6816 28.402 36.7422C28.4878 36.8031 28.5867 36.8428 28.6908 36.8581C28.7948 36.8735 28.901 36.8641 29.0006 36.8303C31.4779 35.9978 33.6313 34.4078 35.1557 32.285C36.6804 30.1624 37.4995 27.6142 37.497 25.0007Z" fill="white"/>
</svg>
