<svg width="24" height="24" viewBox="0 0 24 24" fill="none" xmlns="http://www.w3.org/2000/svg">
<g clip-path="url(#clip0_3424_864)">
<path d="M12 24C18.6274 24 24 18.6274 24 12C24 5.37258 18.6274 0 12 0C5.37258 0 0 5.37258 0 12C0 18.6274 5.37258 24 12 24Z" fill="#06FC99"/>
<path d="M8.69973 6.21875V8.2249H6.71973V15.5834H8.69973V17.4695C8.7105 17.5095 8.71665 17.5495 8.72126 17.5911H17.2797V6.21875H8.69973ZM15.2997 15.9188H10.3505V13.9126H8.3705V10.2326H10.3505V13.9111H15.2997V15.9172V15.9188ZM15.2997 10.2326H10.3505V8.22644H15.2997V10.2326Z" fill="black"/>
</g>
<defs>
<clipPath id="clip0_3424_864">
<rect width="24" height="24" fill="white"/>
</clipPath>
</defs>
</svg>
