<svg width="24" height="24" viewBox="0 0 24 24" fill="none" xmlns="http://www.w3.org/2000/svg">
<circle cx="12" cy="12" r="12" fill="#002D74"/>
<path d="M12.0067 3L4 7.62281V16.8684L12.0067 21.4913L20 16.8684V7.62281L12.0067 3ZM17.6286 15.4963L11.9933 18.7469L6.37136 15.4963V8.995L12.0067 5.74438L17.6286 8.995V15.4963Z" fill="#002D74"/>
<path d="M12.0065 21.4913L19.9998 16.8684V7.62281L12.0065 3V5.74438L17.6285 8.995V15.5096L11.9932 18.7602V21.4913H12.0065Z" fill="white"/>
<path d="M11.9933 3L4 7.62281V16.8684L11.9933 21.4913V18.7469L6.37136 15.4963V8.98168L11.9933 5.74438V3Z" fill="white"/>
<path d="M15.7365 14.4043L12.0062 16.5625L8.2627 14.4043V10.0879L12.0062 7.92969L15.7365 10.0879L14.1778 10.9938L11.9929 9.72819L9.8214 10.9938V13.5117L12.0062 14.7773L14.1911 13.5117L15.7365 14.4043Z" fill="white"/>
</svg>
