<svg width="50" height="50" viewBox="0 0 50 50" fill="none" xmlns="http://www.w3.org/2000/svg">
<g clip-path="url(#clip0_3933_13480)">
<path fill-rule="evenodd" clip-rule="evenodd" d="M24.9999 0.0488281C38.7805 0.0488281 49.952 11.2202 49.952 25.0008C49.952 38.7814 38.7805 49.953 24.9999 49.953C11.2192 49.953 0.0478516 38.7814 0.0478516 25.0008C0.0478516 11.2202 11.2192 0.0488281 24.9999 0.0488281Z" fill="#171717"/>
<path fill-rule="evenodd" clip-rule="evenodd" d="M24.9521 10.6055C32.9024 10.6055 39.3475 17.0505 39.3475 25.0009C39.3475 32.9512 32.9024 39.3963 24.9521 39.3963C17.0017 39.3963 10.5566 32.9512 10.5566 25.0009C10.5566 17.0505 17.0017 10.6055 24.9521 10.6055Z" fill="black"/>
<path opacity="0.67" fill-rule="evenodd" clip-rule="evenodd" d="M25.392 4.31672C25.1938 4.13431 25.0915 4.13086 25.0743 4.13086C25.0571 4.13086 24.9548 4.13431 24.7566 4.31672C24.5532 4.50397 24.31 4.82704 24.0479 5.32554C23.5248 6.32051 23.0242 7.82441 22.5927 9.76494C22.1075 11.9472 21.7241 14.6145 21.4822 17.6002C22.6505 18.1656 23.8519 18.7801 25.074 19.44C26.2963 18.78 27.4979 18.1654 28.6664 17.6C28.4246 14.6143 28.0412 11.9471 27.5559 9.76494C27.1245 7.82441 26.6238 6.32051 26.1008 5.32554C25.8387 4.82704 25.5955 4.50397 25.392 4.31672ZM24.0515 20.0001C23.154 19.5232 22.2698 19.0721 21.404 18.6483C21.3384 19.6095 21.2872 20.6003 21.2518 21.6156C21.7097 21.3414 22.1743 21.0682 22.6451 20.7965C23.116 20.5249 23.585 20.2593 24.0515 20.0001ZM20.5396 17.1515C21.2408 8.96392 23.0067 3.1543 25.0743 3.1543C27.1419 3.1543 28.9079 8.96377 29.609 17.1512C37.0544 13.6645 42.9716 12.2882 44.0054 14.0777C45.0392 15.8672 40.8879 20.3003 34.1436 25.0008C40.8879 29.7014 45.0392 34.1345 44.0054 35.924C42.9716 37.7135 37.0544 36.3372 29.609 32.8504C28.9079 41.0379 27.1419 46.8474 25.0743 46.8474C23.0067 46.8474 21.2408 41.0377 20.5396 32.8502C13.0939 36.3371 7.17646 37.7135 6.14262 35.924C5.10878 34.1345 9.2601 29.7014 16.0044 25.0008C9.2601 20.3003 5.10878 15.8672 6.14262 14.0777C7.17646 12.2881 13.0939 13.6646 20.5396 17.1515ZM16.865 24.4092C14.3983 22.7068 12.2785 21.0412 10.6299 19.53C9.16401 18.1863 8.11108 17.001 7.51034 16.0508C7.20942 15.5747 7.05112 15.2027 6.99062 14.9331C6.93168 14.6706 6.97983 14.5807 6.98822 14.5662C6.99662 14.5516 7.05068 14.4648 7.30795 14.3844C7.57206 14.3019 7.97377 14.2529 8.53691 14.2753C9.66083 14.3201 11.2145 14.6388 13.112 15.2356C15.2457 15.9068 17.7488 16.9086 20.4572 18.1922C20.3629 19.4858 20.2948 20.8327 20.2556 22.2202C19.0725 22.948 17.9392 23.6806 16.865 24.4092ZM16.865 25.5924C14.3983 27.2948 12.2785 28.9604 10.6299 30.4716C9.16401 31.8154 8.11108 33.0007 7.51034 33.9509C7.20942 34.427 7.05112 34.799 6.99062 35.0686C6.93168 35.3311 6.97983 35.421 6.98822 35.4354C6.99657 35.45 7.05058 35.5368 7.30795 35.6172C7.57206 35.6998 7.97377 35.7487 8.53691 35.7263C9.66083 35.6815 11.2145 35.3628 13.112 34.766C15.2457 34.0948 17.7488 33.093 20.4572 31.8095C20.3629 30.5158 20.2948 29.1689 20.2556 27.7814C19.0725 27.0536 17.9392 26.321 16.865 25.5924ZM20.2297 26.6165C19.3675 26.0781 18.5344 25.5383 17.734 25.0008C18.5344 24.4633 19.3675 23.9236 20.2297 23.3852C20.221 23.9187 20.2166 24.4574 20.2166 25.0008C20.2166 25.5442 20.221 26.083 20.2297 26.6165ZM21.2183 27.2254C21.2017 26.4945 21.1932 25.7524 21.1932 25.0008C21.1932 24.2493 21.2017 23.5071 21.2183 22.7762C21.8433 22.3964 22.482 22.0181 23.1331 21.6424C23.7846 21.2665 24.4322 20.9027 25.074 20.5516C25.7159 20.9027 26.3634 21.2665 27.0148 21.6424C27.6662 22.0182 28.3052 22.3967 28.9303 22.7766C28.9469 23.5074 28.9555 24.2494 28.9555 25.0008C28.9555 25.7522 28.9469 26.4943 28.9303 27.225C28.3052 27.6049 27.6662 27.9834 27.0148 28.3593C26.3634 28.7352 25.7159 29.0989 25.074 29.4501C24.4322 29.0989 23.7846 28.7352 23.1332 28.3593C22.482 27.9836 21.8433 27.6052 21.2183 27.2254ZM21.2518 28.3861C21.2872 29.4013 21.3384 30.3921 21.404 31.3534C22.2698 30.9295 23.154 30.4784 24.0515 30.0015C23.585 29.7423 23.116 29.4768 22.6451 29.2051C22.1743 28.9334 21.7097 28.6603 21.2518 28.3861ZM25.074 30.5616C23.8519 31.2215 22.6505 31.8361 21.4822 32.4014C21.7241 35.3872 22.1075 38.0545 22.5927 40.2367C23.0242 42.1772 23.5248 43.6812 24.0479 44.6761C24.31 45.1746 24.5532 45.4977 24.7566 45.6849C24.9548 45.8673 25.0571 45.8708 25.0743 45.8708C25.0915 45.8708 25.1938 45.8673 25.392 45.6849C25.5955 45.4977 25.8387 45.1746 26.1008 44.6761C26.6238 43.6812 27.1245 42.1772 27.5559 40.2367C28.0412 38.0545 28.4246 35.3874 28.6664 32.4017C27.4979 31.8363 26.2963 31.2216 25.074 30.5616ZM29.6914 31.8098C32.3996 33.0932 34.9025 34.0949 37.036 34.766C38.9335 35.3628 40.4872 35.6815 41.6111 35.7263C42.1742 35.7487 42.5759 35.6998 42.8401 35.6172C43.0975 35.5368 43.1514 35.45 43.1598 35.4354C43.1682 35.421 43.2163 35.3312 43.1574 35.0686C43.0969 34.799 42.9386 34.427 42.6376 33.9509C42.037 33.0007 40.984 31.8154 39.5181 30.4716C37.8696 28.9604 35.7497 27.2948 33.283 25.5924C32.2091 26.3209 31.0759 27.0534 29.8931 27.7811C29.8539 29.1688 29.7857 30.5159 29.6914 31.8098ZM33.283 24.4092C35.7497 22.7068 37.8696 21.0412 39.5181 19.53C40.984 18.1863 42.037 17.001 42.6376 16.0508C42.9386 15.5747 43.0969 15.2027 43.1574 14.9331C43.2163 14.6705 43.1682 14.5806 43.1598 14.5662C43.1514 14.5517 43.0975 14.4648 42.8401 14.3844C42.5759 14.3019 42.1742 14.2529 41.6111 14.2753C40.4872 14.3201 38.9335 14.6388 37.036 15.2356C34.9025 15.9068 32.3996 16.9085 29.6914 18.1919C29.7857 19.4857 29.8539 20.8329 29.8931 22.2206C31.0759 22.9483 32.2091 23.6808 33.283 24.4092ZM29.9189 23.3855C30.7809 23.9238 31.6139 24.4635 32.414 25.0008C31.6139 25.5382 30.7809 26.0778 29.9189 26.6161C29.9276 26.0828 29.932 25.5441 29.932 25.0008C29.932 24.4576 29.9276 23.9189 29.9189 23.3855ZM28.8969 21.616C28.8614 20.6005 28.8102 19.6095 28.7446 18.648C27.8787 19.0719 26.9942 19.5231 26.0965 20.0001C26.5631 20.2593 27.0321 20.5249 27.5029 20.7965C27.974 21.0683 28.4388 21.3416 28.8969 21.616ZM28.7446 31.3537C27.8787 30.9297 26.9942 30.4785 26.0965 30.0015C26.5631 29.7423 27.0321 29.4768 27.5029 29.2051C27.974 28.9333 28.4388 28.6601 28.8969 28.3857C28.8614 29.4012 28.8102 30.3922 28.7446 31.3537Z" fill="white"/>
<path d="M37.0633 15.1562C37.0633 14.3073 36.3751 13.6191 35.5263 13.6191C34.6774 13.6191 33.9893 14.3073 33.9893 15.1562C33.9893 16.005 34.6774 16.6932 35.5263 16.6932C36.3751 16.6932 37.0633 16.005 37.0633 15.1562Z" fill="white"/>
<path d="M12.6467 20.4198C12.6467 19.5709 11.9589 18.8828 11.1104 18.8828C10.262 18.8828 9.57422 19.5709 9.57422 20.4198C9.57422 21.2687 10.262 21.9568 11.1104 21.9568C11.9589 21.9568 12.6467 21.2687 12.6467 20.4198Z" fill="white"/>
<path d="M21.9784 37.7422C22.8273 37.7422 23.5154 38.43 23.5154 39.2785C23.5154 40.1269 22.8273 40.8147 21.9784 40.8147C21.1295 40.8147 20.4414 40.1269 20.4414 39.2785C20.4414 38.43 21.1295 37.7422 21.9784 37.7422Z" fill="white"/>
<path d="M27.5912 24.989C27.5912 23.5518 26.4261 22.3867 24.989 22.3867C23.5518 22.3867 22.3867 23.5518 22.3867 24.989C22.3867 26.4261 23.5518 27.5912 24.989 27.5912C26.4261 27.5912 27.5912 26.4261 27.5912 24.989Z" fill="white"/>
</g>
<defs>
<clipPath id="clip0_3933_13480">
<rect width="50" height="50" fill="white"/>
</clipPath>
</defs>
</svg>
