<svg width="50" height="50" viewBox="0 0 50 50" fill="none" xmlns="http://www.w3.org/2000/svg">
<circle cx="25" cy="25" r="25" fill="white"/>
<path fill-rule="evenodd" clip-rule="evenodd" d="M24.9363 50C32.3631 50 39.0355 46.7779 43.6251 41.6588C41.4901 39.8081 38.2727 39.6956 35.9998 41.5249L35.5656 41.8745C31.4041 45.2239 25.3401 44.7293 21.7795 40.7499C19.8374 38.5796 16.5115 38.358 14.2973 40.2513L9.29106 44.5324C13.5789 47.954 19.0181 50 24.9363 50ZM33.0627 37.8943C37.0265 34.7039 42.5979 34.8184 46.4102 37.8996C48.689 34.1336 50 29.7195 50 25.0001C50 19.7558 48.3813 14.8888 45.615 10.869C43.8316 10.4902 41.8986 10.9326 40.4313 12.2296L40.0136 12.5988C36.0114 16.1362 29.9312 15.9213 26.1901 12.1101C24.1499 10.0315 20.8171 9.9632 18.6929 11.9565L12.867 17.4236L9.66213 14.0257L15.488 8.55859C19.4671 4.82456 25.7102 4.95243 29.5322 8.84625C31.5293 10.8808 34.7751 10.9955 36.9116 9.10709L37.3293 8.73797C38.6261 7.59165 40.1265 6.81886 41.6976 6.41242C37.2571 2.42603 31.3807 0 24.9363 0C12.213 0 1.70396 9.45639 0.0880194 21.7073C3.95261 19.8575 8.71957 20.5693 11.8705 23.7879C13.8598 25.8198 17.0628 26.0342 19.3065 24.2859L22.5638 21.7475C26.6577 18.5574 32.4446 18.7118 36.3616 22.1157L42.7033 27.6269L39.6309 31.1444L33.2892 25.6333C31.062 23.6977 27.7712 23.6098 25.4434 25.4239L22.1861 27.9623C18.0638 31.1745 12.179 30.7805 8.5242 27.0474C6.39898 24.8766 2.92313 24.8008 0.704895 26.877L0 27.5368C0.527524 32.7583 2.66593 37.5058 5.91199 41.277L11.2531 36.7096C15.4007 33.1626 21.6311 33.5777 25.269 37.6434C27.1698 39.7678 30.4069 40.0317 32.6284 38.2437L33.0627 37.8943Z" fill="#C1384A"/>
</svg>
