<svg width="24" height="24" viewBox="0 0 24 24" fill="none" xmlns="http://www.w3.org/2000/svg">
<g clip-path="url(#clip0_3424_870)">
<path d="M12 24C18.6274 24 24 18.6274 24 12C24 5.37258 18.6274 0 12 0C5.37258 0 0 5.37258 0 12C0 18.6274 5.37258 24 12 24Z" fill="url(#paint0_linear_3424_870)"/>
<path fill-rule="evenodd" clip-rule="evenodd" d="M15.4691 14.5883L18.8627 12.6288C19.0424 12.5249 19.1536 12.332 19.1536 12.1243V8.20572C19.1536 7.99859 19.0419 7.80512 18.8627 7.70128L15.4691 5.74176C15.2894 5.63792 15.0666 5.63841 14.8868 5.74176L11.4932 7.70128C11.3135 7.80512 11.2023 7.99859 11.2023 8.20572V15.2088L8.82255 16.5826L6.44278 15.2088V12.4608L8.82255 11.087L10.3922 11.9931V10.1496L9.11349 9.41155C9.02532 9.36061 8.92443 9.33367 8.82206 9.33367C8.71969 9.33367 8.61879 9.36061 8.53112 9.41155L5.13757 11.3711C4.95786 11.4749 4.84668 11.6679 4.84668 11.8755V15.7941C4.84668 16.0013 4.95835 16.1947 5.13757 16.2986L8.53112 18.2581C8.71039 18.3614 8.93373 18.3614 9.11349 18.2581L12.507 16.2991C12.6868 16.1952 12.798 16.0018 12.798 15.7946V8.79152L12.8411 8.76703L15.1777 7.41774L17.5575 8.79152V11.5396L15.1777 12.9133L13.6105 12.0083V13.8517L14.8868 14.5888C15.0666 14.6921 15.2894 14.6921 15.4691 14.5888V14.5883Z" fill="white"/>
</g>
<defs>
<linearGradient id="paint0_linear_3424_870" x1="-5.91268" y1="1.03828" x2="21.1717" y2="17.6129" gradientUnits="userSpaceOnUse">
<stop stop-color="#A229C5"/>
<stop offset="1" stop-color="#7B3FE4"/>
</linearGradient>
<clipPath id="clip0_3424_870">
<rect width="24" height="24" fill="white"/>
</clipPath>
</defs>
</svg>
