<svg width="50" height="50" viewBox="0 0 50 50" fill="none" xmlns="http://www.w3.org/2000/svg">
<circle cx="25" cy="25" r="25" fill="white"/>
<path fill-rule="evenodd" clip-rule="evenodd" d="M12.8004 10H38.7199C39.3384 10 39.9097 10.3205 40.2181 10.8404L47.7697 23.5698C48.1612 24.2299 48.045 25.0631 47.4864 25.5984L26.7008 45.5184C26.0275 46.1636 24.9443 46.1636 24.271 45.5184L3.51365 25.6253C2.9421 25.0776 2.83507 24.2201 3.25536 23.5558L11.3272 10.7996C11.6416 10.3028 12.1994 10 12.8004 10ZM35.3732 15.6832V19.2549H27.9899V21.7312C33.1754 21.9959 37.066 23.0828 37.0949 24.3855L37.0947 27.1014C37.0659 28.4041 33.1754 29.491 27.9899 29.7556V35.8329H23.0871V29.7556C17.9015 29.491 14.0109 28.4041 13.9821 27.1014L13.9823 24.3855C14.0111 23.0828 17.9015 21.9959 23.0871 21.7312V19.2549H15.7037V15.6832H35.3732ZM25.5385 27.8898C31.0725 27.8898 35.6979 26.9708 36.8299 25.7434C35.87 24.7026 32.3978 23.8836 27.9899 23.6586V26.2513C27.1998 26.2917 26.3796 26.3129 25.5385 26.3129C24.6973 26.3129 23.8772 26.2917 23.0871 26.2513V23.6586C18.6791 23.8836 15.207 24.7026 14.2471 25.7434C15.3791 26.9708 20.0045 27.8898 25.5385 27.8898Z" fill="#009393"/>
</svg>
