<svg width="50" height="51" viewBox="0 0 50 51" fill="none" xmlns="http://www.w3.org/2000/svg">
<g clip-path="url(#clip0_3930_2622)">
<path d="M50 25.5C50 11.6929 38.8071 0.5 25 0.5C11.1929 0.5 0 11.6929 0 25.5C0 39.3071 11.1929 50.5 25 50.5C38.8071 50.5 50 39.3071 50 25.5Z" fill="#0033AD"/>
<path d="M17.37 25.4559C17.2979 26.7081 18.2619 27.7801 19.5141 27.8522C19.5591 27.8522 19.6042 27.8522 19.6492 27.8522C20.9104 27.8522 21.9284 26.8342 21.9194 25.573C21.9194 24.3117 20.9014 23.2938 19.6402 23.3028C18.433 23.3028 17.4331 24.2487 17.37 25.4559Z" fill="white"/>
<path d="M8.88392 24.8708C8.47851 24.8437 8.12719 25.159 8.10915 25.5644C8.09115 25.9698 8.39743 26.3212 8.80284 26.3392C9.20821 26.3662 9.55054 26.0509 9.57757 25.6455C9.60459 25.2401 9.28929 24.8978 8.88392 24.8708Z" fill="white"/>
<path d="M17.2257 12.2483C17.5861 12.0681 17.7302 11.6177 17.55 11.2574C17.3699 10.897 16.9195 10.7529 16.5591 10.933C16.1987 11.1132 16.0546 11.5547 16.2348 11.915C16.415 12.2843 16.8564 12.4375 17.2257 12.2483Z" fill="white"/>
<path d="M19.532 16.2757C20.0905 15.9964 20.3157 15.3118 20.0365 14.7532C19.7572 14.1947 19.0725 13.9695 18.514 14.2488C17.9554 14.528 17.7302 15.2127 18.0095 15.7712C18.2888 16.3298 18.9734 16.555 19.532 16.2757Z" fill="white"/>
<path d="M11.7664 19.0411C12.1988 19.3204 12.7753 19.2032 13.0636 18.7708C13.3429 18.3384 13.2258 17.7619 12.7934 17.4736C12.3609 17.1943 11.7844 17.3114 11.4961 17.7438C11.2078 18.1763 11.334 18.7618 11.7664 19.0411Z" fill="white"/>
<path d="M13.1444 24.4648C12.5138 24.4288 11.9823 24.9063 11.9462 25.5369C11.9102 26.1674 12.3877 26.699 13.0183 26.735C13.6489 26.771 14.1804 26.2936 14.2164 25.663C14.2525 25.0414 13.775 24.5008 13.1444 24.4648Z" fill="white"/>
<path d="M11.892 32.0948C11.4326 32.3291 11.2434 32.8876 11.4776 33.356C11.7119 33.8155 12.2704 34.0047 12.7389 33.7704C13.1983 33.5362 13.3875 32.9777 13.1532 32.5092C12.919 32.0498 12.3515 31.8606 11.892 32.0948Z" fill="white"/>
<path d="M16.3072 22.1139C16.9288 22.5193 17.7576 22.3481 18.1539 21.7265C18.5593 21.1049 18.3882 20.2762 17.7666 19.8798C17.145 19.4744 16.3162 19.6455 15.9198 20.2671C15.5144 20.8797 15.6856 21.7085 16.3072 22.1139Z" fill="white"/>
<path d="M30.3161 16.1861C30.8386 16.5285 31.5503 16.3843 31.8926 15.8618C32.2349 15.3393 32.0908 14.6276 31.5683 14.2853C31.0458 13.943 30.3341 14.0871 29.9918 14.6096C29.6404 15.1411 29.7846 15.8438 30.3161 16.1861Z" fill="white"/>
<path d="M32.6395 12.1778C32.9818 12.403 33.4323 12.3039 33.6575 11.9616C33.8827 11.6193 33.7836 11.1688 33.4413 10.9436C33.0989 10.7184 32.6485 10.8175 32.4233 11.1508C32.2071 11.4932 32.3062 11.9526 32.6395 12.1778Z" fill="white"/>
<path d="M30.486 23.285C29.2338 23.213 28.1528 24.1769 28.0897 25.4291C28.0177 26.6813 28.9816 27.7623 30.2338 27.8254C30.2788 27.8254 30.3239 27.8254 30.3599 27.8254C31.6121 27.8254 32.6301 26.8074 32.6301 25.5462C32.6391 24.3481 31.6932 23.3481 30.486 23.285Z" fill="white"/>
<path d="M20.2795 21.9508C20.6669 22.7165 21.4506 23.203 22.3154 23.203C23.5676 23.203 24.5856 22.1851 24.5856 20.9238C24.5856 20.5725 24.5045 20.2212 24.3424 19.8968C23.7748 18.7708 22.4055 18.3203 21.2885 18.8879C20.1624 19.4644 19.7119 20.8337 20.2795 21.9508Z" fill="white"/>
<path d="M38.1081 19.0407C38.5676 18.8065 38.7476 18.2389 38.5135 17.7795C38.2794 17.32 37.7118 17.1398 37.2524 17.3741C36.7929 17.6083 36.6128 18.1668 36.8378 18.6263C37.0811 19.0857 37.6399 19.2749 38.1081 19.0407Z" fill="white"/>
<path d="M32.3421 19.7621C31.6844 20.0954 31.4142 20.8972 31.7475 21.5548C32.0808 22.2124 32.8826 22.4827 33.5402 22.1494C34.1978 21.816 34.4681 21.0143 34.1346 20.3566C33.8015 19.699 32.9997 19.4378 32.3421 19.7621Z" fill="white"/>
<path d="M24.9105 11.8341C25.424 11.8612 25.8654 11.4648 25.9015 10.9513C25.9375 10.4378 25.5321 9.99636 25.0186 9.96032C24.5051 9.93329 24.0637 10.3207 24.0277 10.8342C24.0007 11.3567 24.397 11.7981 24.9105 11.8341Z" fill="white"/>
<path d="M24.9006 17.7179C25.6393 17.763 26.2699 17.1954 26.3059 16.4567C26.351 15.718 25.7834 15.0874 25.0447 15.0513C24.306 15.0063 23.6754 15.5738 23.6393 16.3125C23.6033 17.0513 24.1618 17.6819 24.9006 17.7179Z" fill="white"/>
<path d="M17.6574 31.374C18.315 31.0407 18.5853 30.2389 18.2519 29.5813C17.9186 28.9237 17.1169 28.6534 16.4592 28.9867C15.8016 29.3201 15.5313 30.1218 15.8647 30.7794C16.198 31.4371 16.9998 31.7074 17.6574 31.374Z" fill="white"/>
<path d="M25.7655 19.6715C25.0808 20.7255 25.3691 22.1309 26.4231 22.8155C27.4771 23.5002 28.8824 23.2119 29.5671 22.1579C30.2517 21.1039 29.9635 19.6986 28.9095 19.0139C28.5401 18.7706 28.1077 18.6445 27.6663 18.6445C26.9005 18.6445 26.1889 19.0319 25.7655 19.6715Z" fill="white"/>
<path d="M29.7203 29.1859C29.1528 28.0598 27.7835 27.6094 26.6664 28.177C25.5403 28.7445 25.0899 30.1138 25.6574 31.2309C26.2249 32.357 27.5943 32.8074 28.7113 32.2399C29.8284 31.6813 30.2878 30.33 29.7293 29.204C29.7293 29.1949 29.7293 29.1949 29.7203 29.1859Z" fill="white"/>
<path d="M33.6933 29.0223C33.0717 28.617 32.2429 28.7881 31.8465 29.4097C31.4412 30.0313 31.6123 30.8601 32.2339 31.2565C32.8555 31.6619 33.6843 31.4907 34.0806 30.8691C34.486 30.2565 34.3151 29.4277 33.6933 29.0223Z" fill="white"/>
<path d="M38.0531 25.6083C38.0893 24.9777 37.6119 24.4461 36.9811 24.4101C36.3507 24.3741 35.819 24.8515 35.7832 25.4821C35.747 26.1128 36.2244 26.6442 36.8551 26.6803C37.4768 26.7163 38.0173 26.2298 38.0531 25.6083Z" fill="white"/>
<path d="M41.1973 24.7985C40.7919 24.7715 40.4406 25.0868 40.4226 25.4921C40.4044 25.8975 40.7108 26.2489 41.1162 26.2669C41.5216 26.2939 41.8639 25.9786 41.8909 25.5732C41.9088 25.1678 41.6027 24.8255 41.1973 24.7985Z" fill="white"/>
<path d="M38.2338 32.0947C37.8014 31.8154 37.2247 31.9325 36.9365 32.3649C36.6571 32.7973 36.7744 33.3739 37.2068 33.6622C37.6392 33.9414 38.2156 33.8243 38.5041 33.3919C38.7923 32.9595 38.6663 32.3739 38.2338 32.0947Z" fill="white"/>
<path d="M17.3513 38.9591C17.009 38.7341 16.5585 38.8331 16.3333 39.1666C16.1081 39.5088 16.2072 39.9591 16.5405 40.1845C16.8828 40.4098 17.3332 40.3105 17.5585 39.9774C17.7927 39.6439 17.6936 39.1845 17.3513 38.9591Z" fill="white"/>
<path d="M32.7749 38.8879C32.4146 39.068 32.2704 39.5186 32.4506 39.8788C32.6308 40.2392 33.0812 40.3835 33.4416 40.2031C33.802 40.023 33.946 39.5815 33.7659 39.2213C33.5857 38.8521 33.1443 38.6987 32.7749 38.8879Z" fill="white"/>
<path d="M24.2344 31.4653C24.919 30.4113 24.6308 29.006 23.5768 28.3123C22.5227 27.6277 21.1174 27.9159 20.4237 28.9699C19.7301 30.024 20.0274 31.4293 21.0813 32.123C21.4507 32.3662 21.8831 32.4923 22.3246 32.4923C23.0993 32.5014 23.811 32.114 24.2344 31.4653Z" fill="white"/>
<path d="M19.6851 34.9512C19.1626 34.609 18.4509 34.7532 18.1085 35.2755C17.7662 35.7982 17.9103 36.5097 18.4328 36.8522C18.9553 37.1945 19.667 37.0502 20.0094 36.5279C20.3607 36.0053 20.2165 35.2938 19.6851 34.9512Z" fill="white"/>
<path d="M24.9912 39.3021C24.4777 39.2751 24.0363 39.6713 24.0003 40.1849C23.9642 40.6984 24.3696 41.1399 24.8831 41.1757C25.3966 41.2028 25.838 40.8156 25.8741 40.3021C25.9011 39.7795 25.5047 39.3379 24.9912 39.3021Z" fill="white"/>
<path d="M24.9997 33.4185C24.261 33.3735 23.6303 33.941 23.5943 34.6796C23.5493 35.4185 24.1168 36.0492 24.8555 36.085C25.5942 36.1212 26.2248 35.5627 26.2609 34.8239C26.3059 34.0942 25.7384 33.4545 24.9997 33.4185Z" fill="white"/>
<path d="M30.4688 34.8602C29.9103 35.1484 29.6851 35.8332 29.9734 36.3917C30.2616 36.9501 30.9463 37.1755 31.5048 36.8869C32.0633 36.6079 32.2886 35.9231 32.0093 35.3646C31.721 34.8062 31.0364 34.5717 30.4688 34.8602Z" fill="white"/>
</g>
<defs>
<clipPath id="clip0_3930_2622">
<rect width="50" height="50" fill="white" transform="translate(0 0.5)"/>
</clipPath>
</defs>
</svg>
