<svg width="48" height="48" viewBox="0 0 48 48" fill="none" xmlns="http://www.w3.org/2000/svg">
<circle cx="24" cy="24" r="24" fill="#EC4D32"/>
<path d="M19.7974 12.7663C13.2324 15.2207 12.6312 21.5319 10.7315 24.4772C8.83171 27.4224 4.45503 29.082 5.05622 30.6014C5.65741 32.1208 10.0341 30.4845 13.4969 31.4663C16.9598 32.448 21.6731 36.7023 28.2381 34.2479C29.8297 33.651 31.269 32.7252 32.4564 31.5346C33.6439 30.3441 34.5513 28.9171 35.1158 27.3523C35.1732 27.2252 35.1763 27.0811 35.1244 26.9518C35.0726 26.8225 34.97 26.7185 34.8392 26.6627C34.7085 26.6069 34.5603 26.6039 34.4272 26.6543C34.2942 26.7047 34.1872 26.8044 34.1298 26.9315C33.4516 28.261 32.4473 29.4078 31.2055 30.271C29.9637 31.1341 28.5225 31.6871 27.0089 31.8811C25.4954 32.0751 23.956 31.9042 22.5265 31.3834C21.0969 30.8627 19.8211 30.0081 18.8115 28.895C18.2273 28.2575 17.7413 27.541 17.3686 26.7679C17.2484 26.5575 17.1522 26.3238 17.056 26.1134C16.9598 25.903 16.8877 25.6459 16.8155 25.4121C18.8115 24.5239 21.072 23.5655 23.6691 22.6072C26.2662 21.6488 28.5027 20.8774 30.5467 20.2697C31.9415 19.8489 33.216 19.4983 34.3463 19.2178L34.6108 19.171C34.6937 19.1487 34.7822 19.1581 34.8583 19.1972C34.9342 19.2363 34.992 19.3022 35.0196 19.3814C35.0624 19.4711 35.0947 19.5652 35.1158 19.6619C35.3509 20.2841 35.528 20.9256 35.6448 21.5787C35.6559 21.6412 35.6821 21.7003 35.7214 21.751C35.7608 21.8016 35.812 21.8424 35.8709 21.8699C35.9297 21.8974 35.9945 21.9107 36.0598 21.9088C36.125 21.907 36.1889 21.8899 36.246 21.8592C37.1839 21.3683 38.0496 20.8774 38.8191 20.4333C41.7049 18.7035 43.292 17.2309 42.9554 16.4128C42.6185 15.5947 40.4544 15.5246 37.1358 16.1089C36.0777 16.2959 34.8993 16.553 33.6489 16.8803L32.9996 17.0439C31.9174 17.3244 30.8112 17.6283 29.657 17.9789C27.4927 18.6334 25.16 19.4282 22.7553 20.3164C20.3505 21.2047 18.4027 22.0228 16.4307 22.8876C16.4211 21.4042 16.785 19.9411 17.4907 18.6257C18.1964 17.3104 19.2224 16.1829 20.4793 15.3415C21.7362 14.5001 23.1858 13.9704 24.7017 13.7986C26.2176 13.6268 27.7537 13.8181 29.176 14.3558C29.2796 14.3903 29.3911 14.3954 29.4976 14.3705C29.604 14.3457 29.701 14.2919 29.7772 14.2156C29.8351 14.1575 29.878 14.0869 29.9026 14.0097C29.9272 13.9324 29.9327 13.8506 29.9186 13.7709C29.9045 13.6912 29.8713 13.6158 29.8217 13.551C29.7721 13.4861 29.7074 13.4335 29.6329 13.3974C28.1397 12.6022 26.4859 12.1337 24.787 12.0247C23.0881 11.9157 21.3852 12.1688 19.7974 12.7663Z" fill="#FEFEFE"/>
</svg>
