<svg width="24" height="25" viewBox="0 0 24 25" fill="none" xmlns="http://www.w3.org/2000/svg">
<g clip-path="url(#clip0_3930_2746)">
<path d="M12.0032 24.442C18.6076 24.442 23.9615 19.0881 23.9615 12.4837C23.9615 5.8793 18.6076 0.525391 12.0032 0.525391C5.39884 0.525391 0.0449219 5.8793 0.0449219 12.4837C0.0449219 19.0881 5.39884 24.442 12.0032 24.442Z" fill="#B4F9BA"/>
<path d="M9.15071 5.50289L11.8843 3.92431C11.9621 3.8794 12.0587 3.8794 12.1365 3.92431L19.3409 8.08379C19.4188 8.12871 19.4667 8.21177 19.4674 8.30162L19.4772 11.1624C19.4772 11.253 19.4293 11.3368 19.3507 11.3817L16.6209 12.9581C16.4532 13.0554 16.2429 12.9341 16.2421 12.7403L16.2331 10.1729C16.2331 10.0831 16.1845 9.99997 16.1066 9.95504L9.15071 5.94005C8.98231 5.84276 8.98231 5.60023 9.15071 5.50289Z" fill="#010101"/>
<path d="M7.38468 18.4618L4.65189 16.884C4.5733 16.8391 4.52539 16.756 4.52539 16.6655V8.34648C4.52539 8.25668 4.5733 8.17357 4.65114 8.1279L7.1242 6.68855C7.20279 6.64288 7.29939 6.64288 7.37724 6.68855L10.107 8.26491C10.2747 8.3622 10.2754 8.60399 10.1078 8.70202L7.88917 9.99321C7.81137 10.0381 7.76347 10.1212 7.76347 10.2118V18.2441C7.76347 18.4386 7.55312 18.5591 7.38468 18.4618Z" fill="#010101"/>
<path d="M19.4796 16.6632V13.5075L19.4788 13.5068C19.4788 13.3122 19.2685 13.1909 19.1001 13.2882L12.1442 17.3047C12.0663 17.3489 11.9705 17.3496 11.8927 17.3047L9.66511 16.0285C9.49671 15.9327 9.28711 16.0539 9.28711 16.2478V19.3998C9.28711 19.4903 9.33575 19.5742 9.41435 19.6191L11.8972 21.0413C11.975 21.0862 12.0708 21.0862 12.1487 21.0413L19.3531 16.8818C19.4317 16.8369 19.4796 16.7538 19.4796 16.6632Z" fill="#010101"/>
</g>
<defs>
<clipPath id="clip0_3930_2746">
<rect width="24" height="24" fill="white" transform="translate(0 0.5)"/>
</clipPath>
</defs>
</svg>
