<svg width="24" height="25" viewBox="0 0 24 25" fill="none" xmlns="http://www.w3.org/2000/svg">
<g clip-path="url(#clip0_3930_2804)">
<path d="M12 24.5C18.6274 24.5 24 19.1274 24 12.5C24 5.87258 18.6274 0.5 12 0.5C5.37258 0.5 0 5.87258 0 12.5C0 19.1274 5.37258 24.5 12 24.5Z" fill="#1969FF"/>
<path d="M11.2723 4.31609C11.6766 4.10297 12.2918 4.10297 12.6961 4.31609L16.8214 6.49097C17.065 6.61934 17.1987 6.81061 17.2226 7.00807H17.2266V17.9401C17.2212 18.1555 17.0862 18.3694 16.8214 18.509L12.6961 20.6839C12.2918 20.897 11.6766 20.897 11.2724 20.6839L7.14696 18.509C6.88331 18.37 6.7568 18.1546 6.75054 17.9401C6.74986 17.9217 6.74986 17.9033 6.75052 17.885V7.08171C6.7499 7.06659 6.7499 7.05144 6.75052 7.03631V7.0081H6.75239C6.7707 6.80845 6.89836 6.62208 7.14696 6.49099L11.2723 4.31609ZM16.5703 13.0859L12.6948 15.1358C12.2911 15.3493 11.6768 15.3493 11.2731 15.1358L7.40625 13.0905V17.9063L11.2731 19.9407C11.5016 20.063 11.7393 20.1821 11.9706 20.1873L11.984 20.1875C12.2149 20.1882 12.4391 20.0708 12.6664 19.9597L16.5703 17.8887V13.0859ZM6.10369 17.7031C6.10369 18.1222 6.15197 18.3976 6.24783 18.5917C6.32726 18.7525 6.44646 18.8754 6.6641 19.025L6.67652 19.0335C6.72429 19.066 6.77691 19.1 6.84096 19.14L6.9165 19.1867L7.14844 19.3279L6.81577 19.8828L6.55617 19.7246L6.51253 19.6976C6.43748 19.6508 6.37526 19.6107 6.31723 19.5712C5.69691 19.1493 5.46558 18.6893 5.46101 17.7323L5.46094 17.7031H6.10369ZM11.6719 10.1797C11.6419 10.19 11.6137 10.202 11.5881 10.2155L7.46899 12.3974C7.46466 12.3997 7.46055 12.402 7.45662 12.4042L7.45312 12.4062L7.45959 12.41L7.46897 12.4151L11.5881 14.5969C11.615 14.6111 11.6431 14.623 11.6719 14.6328V10.1797ZM12.3281 10.1797V14.6328C12.3569 14.623 12.385 14.6111 12.4119 14.5969L16.531 12.4151C16.5353 12.4128 16.5394 12.4105 16.5434 12.4083L16.5469 12.4062L16.5404 12.4025L16.531 12.3974L12.4119 10.2155C12.385 10.2014 12.3569 10.1894 12.3281 10.1797ZM16.5703 7.78906L12.8672 9.73437L16.5703 11.6797V7.78906ZM7.40625 7.78906V11.6797L11.1094 9.73437L7.40625 7.78906ZM12.4083 4.8975C12.1939 4.78416 11.8061 4.78416 11.5917 4.8975L7.46902 7.07712C7.46468 7.07942 7.46053 7.08167 7.45662 7.08392L7.45312 7.08593L7.45959 7.08963L7.46899 7.09474L11.5916 9.27434C11.8061 9.3877 12.1939 9.3877 12.4083 9.27434L16.531 7.09474C16.5353 7.09245 16.5394 7.0902 16.5434 7.08795L16.5469 7.08593L16.5404 7.08223L16.531 7.07712L12.4083 4.8975ZM17.1842 5.11718L17.4438 5.27538L17.4875 5.30238C17.5625 5.34914 17.6247 5.38931 17.6828 5.42878C18.3031 5.85073 18.5344 6.31074 18.539 7.26771L18.5391 7.29687H17.8963C17.8963 6.87776 17.848 6.60235 17.7522 6.40828C17.6728 6.24745 17.5536 6.12453 17.3359 5.97497L17.3235 5.96649C17.2694 5.9299 17.2145 5.89439 17.159 5.85996L17.0835 5.81328L16.8516 5.67206L17.1842 5.11718Z" fill="white"/>
</g>
<defs>
<clipPath id="clip0_3930_2804">
<rect width="24" height="24" fill="white" transform="translate(0 0.5)"/>
</clipPath>
</defs>
</svg>
