<svg width="48" height="48" viewBox="0 0 48 48" fill="none" xmlns="http://www.w3.org/2000/svg">
<g clip-path="url(#clip0_3964_301)">
<circle cx="24" cy="24" r="24" fill="#00EC97"/>
<path d="M34.3744 10.8169C33.3979 10.8169 32.4913 11.3232 31.9797 12.1555L26.4684 20.338C26.2889 20.6077 26.3617 20.9713 26.6314 21.1508C26.85 21.2965 27.1392 21.2785 27.3382 21.1072L32.7632 16.4019C32.8533 16.3208 32.9923 16.329 33.0734 16.4192C33.1102 16.4605 33.1298 16.5138 33.1298 16.5686V31.3007C33.1298 31.4224 33.0314 31.52 32.9097 31.52C32.8443 31.52 32.7827 31.4915 32.7414 31.4411L16.3425 11.8115C15.8085 11.1812 15.0242 10.8177 14.1987 10.8169H13.6256C12.0744 10.8169 10.8169 12.0744 10.8169 13.6256V34.3744C10.8169 35.9256 12.0744 37.1831 13.6256 37.1831C14.6021 37.1831 15.5087 36.6768 16.0203 35.8445L21.5317 27.662C21.7112 27.3923 21.6383 27.0287 21.3686 26.8492C21.1501 26.7035 20.8609 26.7215 20.6618 26.8928L15.2368 31.5981C15.1467 31.6792 15.0077 31.671 14.9266 31.5808C14.8898 31.5395 14.8702 31.4862 14.871 31.4314V16.6956C14.871 16.5739 14.9694 16.4762 15.0911 16.4762C15.1557 16.4762 15.218 16.5048 15.2593 16.5551L31.656 36.1885C32.19 36.8188 32.9743 37.1824 33.7998 37.1831H34.373C35.9241 37.1839 37.1824 35.9272 37.1839 34.376V13.6256C37.1839 12.0744 35.9264 10.8169 34.3752 10.8169H34.3744Z" fill="black"/>
</g>
<defs>
<clipPath id="clip0_3964_301">
<rect width="48" height="48" fill="white"/>
</clipPath>
</defs>
</svg>
