<svg width="50" height="51" viewBox="0 0 50 51" fill="none" xmlns="http://www.w3.org/2000/svg">
<g clip-path="url(#clip0_3930_10537)">
<path d="M25 50.5C38.8071 50.5 50 39.3071 50 25.5C50 11.6929 38.8071 0.5 25 0.5C11.1929 0.5 0 11.6929 0 25.5C0 39.3071 11.1929 50.5 25 50.5Z" fill="white"/>
<path d="M40.9373 12.5H36.3123L28.9942 19.7121C27.9288 20.7582 26.493 21.3446 24.997 21.3446C23.5011 21.3446 22.0653 20.7582 20.9998 19.7121L13.6873 12.5H9.05859L18.6873 21.994C22.1755 25.4304 27.8267 25.4304 31.3123 21.994L40.9373 12.5Z" fill="#23292F"/>
<path d="M9 38.8994H13.6281L21.0056 31.6288C22.0711 30.5827 23.5069 29.9963 25.0028 29.9963C26.4987 29.9963 27.9346 30.5827 29 31.6288L36.375 38.8994H41L31.3125 29.3468C27.8244 25.9104 22.1731 25.9104 18.6875 29.3468L9 38.8994Z" fill="#23292F"/>
</g>
<defs>
<clipPath id="clip0_3930_10537">
<rect width="50" height="50" fill="white" transform="translate(0 0.5)"/>
</clipPath>
</defs>
</svg>
