<svg width="50" height="51" viewBox="0 0 50 51" fill="none" xmlns="http://www.w3.org/2000/svg">
<g clip-path="url(#clip0_3930_2755)">
<path d="M25 50.5C38.8071 50.5 50 39.3071 50 25.5C50 11.6929 38.8071 0.5 25 0.5C11.1929 0.5 0 11.6929 0 25.5C0 39.3071 11.1929 50.5 25 50.5Z" fill="black"/>
<path fill-rule="evenodd" clip-rule="evenodd" d="M14.4375 34.1884C13.7437 33.7642 13.3193 33.0084 13.3193 32.197V27.6655C13.3193 27.4919 13.3658 27.3247 13.4525 27.176C13.722 26.7115 14.3198 26.5535 14.7844 26.8261L25.012 32.7885C25.6098 33.1384 25.9786 33.7765 25.9786 34.4701V39.1661C25.9786 39.3796 25.9196 39.5934 25.8081 39.7762C25.4705 40.3272 24.752 40.5009 24.2006 40.1634L14.4375 34.1884ZM29.6831 25.584C30.2809 25.934 30.6494 26.5722 30.6494 27.266V36.7934C30.6494 37.0755 30.4975 37.3353 30.2529 37.4715L28.0136 38.7323C27.9856 38.7478 27.9546 38.7603 27.9237 38.7694V33.4792C27.9237 32.7948 27.5644 32.1597 26.9759 31.8065L17.9933 26.4326V20.461C17.9933 20.2875 18.0398 20.1203 18.1265 19.9716C18.396 19.507 18.9938 19.349 19.4584 19.6216L29.6831 25.584ZM34.1589 18.5468C34.7596 18.8937 35.1282 19.538 35.1282 20.2318V34.1483C35.1282 34.4333 34.9704 34.6965 34.7194 34.833L32.5977 35.9789V26.2903C32.5977 25.6057 32.2383 24.9739 31.6531 24.6207L22.4722 19.1136V13.4486C22.4722 13.2751 22.5187 13.1078 22.6023 12.9592C22.8718 12.4946 23.4696 12.3366 23.9342 12.6061L34.1589 18.5468Z" fill="#00D395"/>
</g>
<defs>
<clipPath id="clip0_3930_2755">
<rect width="50" height="50" fill="white" transform="translate(0 0.5)"/>
</clipPath>
</defs>
</svg>
