<svg width="24" height="24" viewBox="0 0 24 24" fill="none" xmlns="http://www.w3.org/2000/svg">
<g clip-path="url(#clip0_3424_852)">
<path d="M12 0.75C5.7868 0.75 0.75 5.7868 0.75 12C0.75 16.6697 3.59502 20.6747 7.64625 22.3765C7.51605 22.6137 7.37777 22.8326 7.23366 23.0159C8.6949 23.6492 10.3069 24.0001 12.0009 24.0001C13.5 24 14.7324 23.7424 15.8865 23.3495C15.6935 23.4152 15.4842 23.3537 15.3569 23.2017C15.2216 23.0428 15.1253 22.9088 15.0887 22.8207C19.8001 21.4784 23.25 17.1421 23.25 12C23.25 5.7868 18.2132 0.75 12 0.75Z" fill="#313144"/>
<path d="M23.9974 11.7523C23.8619 5.06912 18.2871 -0.226528 11.5834 0.00746601C5.03567 0.233249 -0.136816 5.70952 0.00275951 12.2614C0.109493 17.1013 3.0652 21.2065 7.23193 23.0168C7.8231 22.2656 8.3157 20.915 8.562 20.1637C8.8083 19.548 9.0669 18.9487 9.33787 18.3657C10.5571 18.7885 12.1909 18.3862 13.0858 17.4133L13.1228 17.3764H13.1187C12.0349 16.9002 10.5406 17.1465 9.55545 17.91C9.89205 17.2162 10.2451 16.543 10.6186 15.8944C11.8174 16.3747 13.4677 16.0463 14.4036 15.1185L14.4406 15.0816H14.4364C13.3938 14.5643 11.92 14.7286 10.9019 15.4141C11.2714 14.7983 11.6573 14.2031 12.0596 13.6366C13.2994 14.0225 14.9332 13.5463 15.7912 12.5282L15.824 12.4871H15.8199C14.81 12.0971 13.48 12.327 12.5358 12.988C12.5686 12.9428 12.6015 12.8977 12.6343 12.8525C12.8765 12.5364 13.1228 12.2326 13.3732 11.933C14.8387 11.5183 16.1442 10.024 16.3536 8.48047L16.3618 8.4189H16.3576C14.8429 8.72272 13.4389 10.2129 13.1598 11.7892C12.9175 12.0766 12.6835 12.3681 12.4495 12.6719C12.8272 11.6455 12.7615 10.3976 12.2074 9.5355V9.5232L12.1745 9.56423C11.3412 10.6193 11.2057 12.3352 11.8543 13.4724C11.4725 14.0101 11.1072 14.5726 10.7542 15.1514C10.9758 13.9855 10.6023 12.6308 9.7812 11.8673L9.77715 11.8631L9.7566 11.9124C9.21472 13.1276 9.50617 14.8066 10.397 15.7548C10.044 16.3665 9.71145 16.9987 9.39127 17.6555C9.58417 16.4445 9.15315 15.0405 8.28285 14.2811L8.27872 14.277L8.25825 14.3263C7.76557 15.6029 8.14327 17.3312 9.10387 18.2549C8.89455 18.7023 8.6934 19.1621 8.50042 19.626C8.45527 19.5767 8.3937 19.5397 8.32387 19.5193C8.07352 19.4454 7.72867 19.314 7.34688 19.0882C7.09646 18.9363 6.82963 18.8132 6.55048 18.7229C5.46672 18.3698 5.62681 17.8444 5.06031 16.8017C5.02336 16.7318 4.5759 16.268 4.48148 16.1818C4.45685 16.1612 4.17359 15.997 4.02581 15.6892C3.89444 15.41 3.81645 15.1473 3.79181 14.8927C3.75487 14.552 3.61529 14.3303 3.28278 14.2154C1.69819 13.6694 2.40838 11.6045 2.46585 11.3295C2.51101 11.0955 2.30986 10.5823 2.23186 10.3032C2.22364 10.2704 2.21544 10.2293 2.20723 10.1759C2.09228 9.62175 2.3509 9.15375 2.53975 8.96077C2.73268 8.76787 3.39361 8.46 3.53319 8.27932C3.66866 8.10285 3.7795 7.89758 3.91907 7.72515C4.1038 7.49527 4.67442 7.03959 5.43798 6.62908C5.90186 6.38277 5.98396 5.73415 6.16049 5.533C6.46427 5.19227 6.91994 5.19227 7.26067 4.88439C7.43308 4.72839 7.6794 4.65039 7.83952 4.49029C8.6277 3.68158 9.68685 3.35317 10.7336 3.16022C11.4397 3.02886 12.2238 3.23001 12.9586 3.35727C13.0654 3.37369 13.168 3.40243 13.2706 3.43117C14.925 3.48863 16.916 3.83347 17.6344 4.53134C18.0818 4.97059 18.3035 5.44679 18.4102 5.77521C18.5293 6.14467 18.6935 6.49361 18.8988 6.82202L19.3421 7.54042C19.6213 7.99612 19.7157 8.54205 19.5925 9.06345C19.5227 9.35903 19.4899 9.67103 19.5761 9.84338C19.7157 10.1144 20.1385 10.5536 20.393 10.8041C20.5162 10.9272 20.6517 11.0339 20.7994 11.1242C21.1402 11.3377 21.7847 11.7523 21.7847 11.7892C21.7847 11.8385 21.838 12.0438 21.5507 12.2901C21.2633 12.5364 20.7297 12.9305 20.7297 12.9305C20.7297 12.9305 20.7584 13.1111 20.8323 13.2548C20.9062 13.3984 21.095 13.612 21.0376 13.809C20.9801 14.006 20.586 14.1579 20.6968 14.3714C20.8117 14.589 21.0909 14.6546 21.0088 14.8517C20.9267 15.0487 20.5367 15.3813 20.5737 15.5291C20.6147 15.6728 20.9308 17.011 20.196 17.245C19.6418 17.4215 18.1229 17.5201 17.4086 17.557C17.1007 17.5734 16.8216 17.7458 16.6738 18.0168C16.5629 18.218 16.4521 18.5012 16.3987 18.8707C16.2592 19.8189 15.3232 21.9946 15.3232 21.9946C15.3232 21.9946 15.2944 22.048 15.2534 22.1425C15.1713 22.3395 15.0563 22.6474 15.0727 22.7705C15.0851 22.8526 15.1918 23.0086 15.356 23.2015C15.4833 23.3535 15.6926 23.4151 15.8856 23.3494C20.6927 21.7155 24.1082 17.1054 23.9974 11.7523Z" fill="#00DACC"/>
</g>
<defs>
<clipPath id="clip0_3424_852">
<rect width="24" height="24" fill="white"/>
</clipPath>
</defs>
</svg>
