<svg width="24" height="24" viewBox="0 0 24 24" fill="none" xmlns="http://www.w3.org/2000/svg">
<g clip-path="url(#clip0_3424_831)">
<path d="M23.9979 11.3522V12.6721C23.987 12.696 23.979 12.7212 23.9739 12.747C23.898 13.9691 23.6366 15.1726 23.1987 16.3161C21.647 20.409 17.8196 23.3956 13.474 23.9099C12.0744 24.0757 10.6873 24.0168 9.31513 23.6987C6.88878 23.1366 4.8134 21.9499 3.14883 20.1003C0.620135 17.2889 -0.371547 13.9816 0.126696 10.2371C0.323207 8.76058 0.823372 7.37972 1.55344 6.08102C3.4753 2.66058 7.06655 0.357707 10.9744 0.0444431C11.1008 0.0341131 11.224 0.0148944 11.3487 0H12.6448C12.8172 0.0180175 12.9897 0.0362752 13.1622 0.0538122C14.5318 0.189755 15.8683 0.557589 17.1145 1.14159C20.9611 2.93757 23.614 6.75055 23.9532 10.9786C23.9638 11.1031 23.983 11.2275 23.9979 11.3522ZM6.47702 17.6588C6.98895 17.6588 7.50137 17.6739 8.01283 17.6554C8.98529 17.6201 9.76196 17.199 10.2549 16.3582C11.5716 14.1107 12.8736 11.8549 14.1611 9.59082C14.6416 8.74496 14.6332 7.85634 14.1683 7.00159C13.6513 6.05075 13.1017 5.11768 12.5636 4.17837C12.5045 4.07507 12.4413 3.96601 12.3543 3.88865C12.2467 3.79256 12.1215 3.69647 11.9872 3.65466C11.6942 3.56194 11.4616 3.70271 11.2846 3.92493C11.1659 4.07339 11.0722 4.24348 10.9775 4.40972C8.70542 8.39326 6.43554 12.3778 4.1679 16.3632C4.09385 16.4908 4.03644 16.6273 3.99709 16.7695C3.89619 17.1493 4.07204 17.4729 4.44561 17.5896C4.5909 17.6328 4.7416 17.655 4.89316 17.6557C5.42095 17.6634 5.94898 17.6588 6.47702 17.6588ZM16.4378 17.6588H18.7414C18.8413 17.6587 18.9411 17.6524 19.0402 17.6401C19.3838 17.5968 19.6274 17.3967 19.6889 17.1056C19.7391 16.8653 19.6673 16.6448 19.5507 16.4396C18.7572 15.0437 17.9611 13.6493 17.1626 12.2564C17.0814 12.1192 16.976 11.9978 16.8515 11.8983C16.6079 11.7018 16.31 11.7061 16.0698 11.9069C15.9447 12.0122 15.8383 12.1378 15.7551 12.2785C14.9532 13.6559 14.1561 15.0359 13.364 16.4185C13.295 16.5398 13.2433 16.6701 13.2105 16.8057C13.1271 17.1507 13.2845 17.4544 13.6189 17.573C13.7815 17.6277 13.9519 17.6557 14.1234 17.6559C14.8941 17.6634 15.6652 17.6588 16.4378 17.6588Z" fill="#E74142"/>
<path d="M6.47702 17.658C5.94851 17.658 5.41999 17.6625 4.89316 17.6549C4.74184 17.6541 4.59139 17.6319 4.44633 17.5888C4.07277 17.472 3.89692 17.1484 3.99781 16.7686C4.03717 16.6265 4.09457 16.49 4.16862 16.3624C6.43578 12.3769 8.70542 8.39244 10.9775 4.40889C11.0722 4.24265 11.1659 4.07257 11.2846 3.9241C11.4616 3.70285 11.6942 3.56111 11.9872 3.65384C12.1215 3.69636 12.2467 3.79197 12.3543 3.88783C12.4413 3.96518 12.5045 4.07425 12.5636 4.17755C13.1017 5.11686 13.6513 6.04992 14.1683 7.00077C14.6322 7.85479 14.6423 8.74366 14.1611 9.59C12.8736 11.8543 11.5716 14.11 10.2549 16.3571C9.76197 17.1979 8.98529 17.6193 8.01283 17.6544C7.50137 17.6731 6.98896 17.658 6.47702 17.658Z" fill="#FEFEFE"/>
<path d="M16.4381 17.6585C15.6664 17.6585 14.8943 17.6631 14.1227 17.6547C13.9512 17.6545 13.7808 17.6265 13.6182 17.5718C13.2831 17.4541 13.1257 17.1495 13.2098 16.8045C13.2426 16.6689 13.2943 16.5385 13.3633 16.4173C14.1566 15.0353 14.9536 13.6553 15.7544 12.2773C15.8376 12.1366 15.944 12.0109 16.0691 11.9057C16.3093 11.7039 16.6072 11.7005 16.8508 11.897C16.9753 11.9966 17.0807 12.118 17.1619 12.2552C17.9627 13.647 18.7587 15.0414 19.55 16.4384C19.6666 16.6436 19.7384 16.8638 19.6882 17.1043C19.6276 17.3955 19.384 17.5956 19.0395 17.6388C18.9404 17.6512 18.8406 17.6575 18.7407 17.6576C17.9736 17.6593 17.206 17.6597 16.4381 17.6585Z" fill="#FEFDFD"/>
</g>
<defs>
<clipPath id="clip0_3424_831">
<rect width="24" height="24" fill="white"/>
</clipPath>
</defs>
</svg>
