<svg width="50" height="50" viewBox="0 0 50 50" fill="none" xmlns="http://www.w3.org/2000/svg">
<g clip-path="url(#clip0_3933_11658)">
<mask id="mask0_3933_11658" style="mask-type:alpha" maskUnits="userSpaceOnUse" x="0" y="0" width="50" height="50">
<path d="M50 25C50 11.1929 38.8071 0 25 0C11.1929 0 0 11.1929 0 25C0 38.8071 11.1929 50 25 50C38.8071 50 50 38.8071 50 25Z" fill="#3D8130"/>
</mask>
<g mask="url(#mask0_3933_11658)">
<path d="M50 25C50 11.1929 38.8071 0 25 0C11.1929 0 0 11.1929 0 25C0 38.8071 11.1929 50 25 50C38.8071 50 50 38.8071 50 25Z" fill="#3D8130"/>
<path d="M13.9582 14.6313C13.9582 14.6313 10.5593 18.9378 8.9193 22.1678C7.27927 25.3977 6.55317 26.9 5.84586 29.3287C5.84586 29.3287 4.81929 32.64 4.44373 36.9466C4.06191 41.2469 3.63138 40.4833 4.53903 43.031C5.44667 45.5786 6.43424 45.7288 8.56875 46.9556C10.7033 48.1825 15.7985 48.8022 20.5934 48.6269C25.3882 48.4579 29.3945 48.4705 30.333 45.9416C30.333 45.9416 30.0268 47.3062 33.1001 48.7396C36.1734 50.173 39.8348 50.292 42.2638 49.1214C42.2638 49.1214 44.949 48.0573 44.4047 46.7491C43.8599 45.4408 40.9433 40.7587 39.5407 40.164C38.1388 39.5694 37.3251 39.2063 37.2684 38.3738C37.2684 38.3738 39.2026 37.197 38.4015 35.3442C38.4015 35.3442 39.9855 33.9921 39.2339 32.5148C39.2339 32.5148 40.7612 30.831 40.6991 29.9734C40.6991 29.9734 40.323 28.5149 39.8788 28.8968C39.8788 28.8968 39.8288 26.9751 38.4642 26.3992C38.4642 26.3992 38.2762 26.5745 38.8024 26.0487C39.3279 25.5229 40.0042 24.5088 39.5347 22.4745L39.616 20.5716C39.616 20.5716 40.4171 21.0223 39.4593 19.7829L37.9634 19.063C37.9634 19.063 37.9387 18.5184 37.181 17.7861C36.4234 17.0537 35.5852 16.434 35.5852 16.434L13.952 14.625L13.9582 14.6313Z" fill="#3D8130"/>
<path d="M37.6466 18.2998L38.8412 18.0705C38.8412 18.0705 41.4763 18.9634 41.5884 19.0823C41.7011 19.2012 43.5859 19.8608 43.5859 19.8608L44.2458 19.6959L44.5134 19.1305L43.9366 18.1832L42.0272 16.7811L39.8489 15.7294L38.4844 15.26L37.7442 8.41139L36.8504 6.66559L35.1358 5.26346L32.8085 4.35581L30.6225 4.13672L26.6606 4.45104L22.3348 5.45754L21.9611 4.88501C21.6544 4.80358 21.4773 4.63753 21.1643 4.59998C20.9327 4.59998 18.8295 5.25092 18.8295 5.25092L17.7611 5.84208L17.2709 6.69693L15.744 7.49L14.8077 8.33382L13.9658 9.47901L13.1083 11.3665C13.1083 11.3665 12.6826 13.1568 12.6826 13.2757C12.6826 13.3946 12.9518 14.2365 13.1083 14.3117C13.2647 14.3868 14.4353 14.828 14.4353 14.828L16.0064 15.6042L18.2849 16.925L21.1268 17.8577C21.1268 17.8577 23.8121 17.6636 24.0812 17.6636C24.3504 17.6636 28.4003 17.238 28.632 17.238C28.8636 17.238 33.2016 16.731 33.3204 16.731C33.4391 16.731 36.1809 16.8499 36.1809 16.8499L37.2325 17.7826L37.4501 18.0875L37.6466 18.2998Z" fill="#C82727"/>
<path d="M27.5407 21.6582C27.5407 21.6582 24.8678 22.0839 22.3765 21.9148L18.8398 22.3468L20.6113 23.5173C20.6113 23.5173 22.1699 24.6377 22.9398 24.9194C23.7098 25.2011 26.7457 25.8897 28.6924 25.4703C28.6924 25.4703 29.9879 25.0947 30.0379 24.8067C30.0379 24.8067 29.8192 24.45 29.3936 23.4046C29.3936 23.4046 28.5798 21.8648 27.7159 21.6645" fill="white"/>
<path d="M33.3956 21.9096C33.3956 21.9096 33.2582 21.7656 32.5192 22.6169C31.7809 23.4682 31.4114 24.7452 31.793 24.9643C32.1751 25.1833 32.8321 25.6215 34.328 25.5714C35.8246 25.5214 37.2137 25.4087 37.7773 25.102C38.3402 24.7952 39.1919 24.1318 39.298 23.6811C39.4046 23.2304 39.8989 23.6122 39.2546 22.9299C39.2546 22.9299 37.095 21.8282 36.0307 21.7656L33.3956 21.9033V21.9096Z" fill="white"/>
<path d="M39.1345 32.5708C39.1345 32.5708 40.5557 33.8289 37.4131 36.026C37.4131 36.026 36.0927 36.5894 30.3903 36.5331C24.694 36.4767 20.9445 34.555 20.9445 34.555L16.1247 31.7007C16.1247 31.7007 15.2107 30.5301 16.4627 29.7978C16.5941 29.7226 16.7506 29.7102 16.8946 29.754C18.0275 30.092 23.1792 31.6193 25.201 31.8321C27.4732 32.0762 29.7267 32.7711 34.9969 32.5708C34.9969 32.5708 38.2708 32.6083 39.1345 30.6366C39.9982 28.6648 39.9795 28.5646 40.2236 28.9841C40.4677 29.4034 41.2187 29.9167 39.9982 31.5442C39.3225 32.4393 39.1345 32.5708 39.1345 32.5708Z" fill="#993D20"/>
<path d="M25.7305 21.9062C25.7305 21.9062 27.0325 23.6777 25.4677 25.4179C25.4677 25.4179 21.9247 25.1174 20.9482 23.6276C20.9482 23.6276 21.3676 22.0753 22.0813 22.0064C22.7948 21.9375 25.7305 21.9062 25.7305 21.9062Z" fill="#1B1D1C"/>
<path d="M36.4808 25.35C36.4808 25.35 35.2225 25.9008 32.9881 25.35C32.9881 25.35 32.606 24.7115 32.5873 24.2859C32.5686 23.8602 32.7374 22.3266 33.1382 22.0074C33.539 21.6882 34.3401 21.7883 34.3401 21.7883C34.3401 21.7883 36.3868 21.8071 36.4808 21.9135C36.5748 22.0199 37.0944 23.3657 36.881 24.2921C36.881 24.2921 36.6055 25.0683 36.4808 25.3562V25.35Z" fill="#1B1D1C"/>
<path fill-rule="evenodd" clip-rule="evenodd" d="M24.995 24.1199C25.4424 23.9868 25.7147 23.5754 25.6033 23.2009C25.4918 22.8265 25.0389 22.6309 24.5916 22.764C24.1443 22.8971 23.8719 23.3085 23.9834 23.6829C24.0948 24.0573 24.5477 24.253 24.995 24.1199ZM22.7964 24.0732C22.9934 24.0732 23.1532 23.9134 23.1532 23.7164C23.1532 23.5193 22.9934 23.3596 22.7964 23.3596C22.5993 23.3596 22.4396 23.5193 22.4396 23.7164C22.4396 23.9134 22.5993 24.0732 22.7964 24.0732ZM22.5833 22.9714C22.7804 22.9714 22.9401 22.8117 22.9401 22.6146C22.9401 22.4175 22.7804 22.2578 22.5833 22.2578C22.3863 22.2578 22.2266 22.4175 22.2266 22.6146C22.2266 22.8117 22.3863 22.9714 22.5833 22.9714ZM34.0194 24.4925C34.196 24.4925 34.3389 24.3496 34.3389 24.1733C34.3389 23.997 34.196 23.854 34.0194 23.854C33.8434 23.854 33.7006 23.997 33.7006 24.1733C33.7006 24.3496 33.8434 24.4925 34.0194 24.4925ZM33.9821 23.2906C34.1792 23.2906 34.3389 23.1309 34.3389 22.9339C34.3389 22.7368 34.1792 22.5771 33.9821 22.5771C33.785 22.5771 33.6252 22.7368 33.6252 22.9339C33.6252 23.1309 33.785 23.2906 33.9821 23.2906ZM35.8975 24.2798C36.2501 24.2798 36.5356 23.9939 36.5356 23.6413C36.5356 23.2887 36.2501 23.0028 35.8975 23.0028C35.5449 23.0028 35.2592 23.2887 35.2592 23.6413C35.2592 23.9939 35.5449 24.2798 35.8975 24.2798Z" fill="white"/>
<path fill-rule="evenodd" clip-rule="evenodd" d="M13.9511 14.8151C13.9881 14.7788 13.9885 14.7193 13.9522 14.6823L13.9511 14.8151ZM13.9511 14.8151L13.951 14.8152L13.9506 14.8157L13.9487 14.8175C13.947 14.8192 13.9444 14.8218 13.9408 14.8254C13.9338 14.8325 13.9231 14.8433 13.909 14.8578C13.8808 14.8869 13.8386 14.931 13.7834 14.9906C13.673 15.1098 13.5106 15.2907 13.3037 15.537C12.8896 16.0294 12.2971 16.783 11.5849 17.8253C10.161 19.9092 8.259 23.1475 6.34992 27.7615L6.34944 27.7631C6.34817 27.7675 6.3463 27.7741 6.34377 27.7829C6.33877 27.8006 6.33136 27.8269 6.32171 27.8615C6.30236 27.9307 6.2741 28.0328 6.23829 28.1645C6.16663 28.4279 6.06495 28.8096 5.9447 29.2826C5.70428 30.2286 5.38989 31.5396 5.09413 32.9994C4.50171 35.9231 3.9871 39.4287 4.28232 41.7967C4.57446 44.1399 6.09328 45.5969 7.9137 46.5377C9.73623 47.4796 11.8486 47.8972 13.3013 48.1633C14.7438 48.4275 18.34 48.6265 21.792 48.5178C23.5171 48.4635 25.2021 48.3324 26.5607 48.0953C27.2402 47.9768 27.8355 47.8321 28.3123 47.6584C28.7914 47.4839 29.1405 47.2838 29.3384 47.0603C29.3427 47.0555 29.3475 47.0512 29.3526 47.0473L29.3528 47.0472L29.3539 47.0463C29.3549 47.0456 29.3565 47.0444 29.3586 47.0428C29.3629 47.0395 29.3693 47.0346 29.3776 47.028C29.3942 47.0149 29.4186 46.9954 29.4488 46.97C29.5094 46.9192 29.5933 46.8453 29.6861 46.7532C29.8729 46.568 30.0917 46.3135 30.2323 46.0294C30.2552 45.9829 30.3116 45.9639 30.3581 45.9869C30.4045 46.0099 30.4236 46.0662 30.4005 46.1126C30.247 46.4232 30.012 46.6945 29.8184 46.8865C29.7211 46.9829 29.6332 47.0604 29.5695 47.1138C29.5377 47.1406 29.5118 47.1614 29.4937 47.1756C29.4847 47.1827 29.4776 47.1882 29.4727 47.1919C29.2428 47.4474 28.8609 47.6585 28.3766 47.8349C27.8855 48.0138 27.2784 48.1607 26.593 48.2803C25.222 48.5195 23.5272 48.651 21.7979 48.7055C18.3409 48.8143 14.7293 48.6158 13.2674 48.348C11.8156 48.082 9.67771 47.6608 7.82745 46.7045C5.97502 45.7471 4.39847 44.2464 4.09596 41.8199C3.79652 39.4181 4.31788 35.8848 4.91012 32.9621C5.20666 31.4986 5.52177 30.1845 5.76274 29.2363C5.88323 28.7622 5.98521 28.3795 6.05705 28.1152C6.09298 27.983 6.12142 27.8805 6.14083 27.811C6.1506 27.7762 6.15807 27.7497 6.16313 27.7318C6.16446 27.7269 6.16567 27.7228 6.16669 27.7192L6.17079 27.7048C6.17079 27.7047 6.17085 27.7047 6.26108 27.7306L6.17085 27.7047C6.17181 27.7013 6.17296 27.698 6.17434 27.6946C8.08909 23.0659 9.99824 19.8146 11.4298 17.7194C12.1456 16.6718 12.742 15.9133 13.1599 15.4161C13.3689 15.1676 13.5332 14.9844 13.6456 14.863C13.7018 14.8023 13.745 14.7572 13.7743 14.727C13.7889 14.7119 13.8001 14.7006 13.8076 14.693C13.8114 14.6892 13.8143 14.6863 13.8162 14.6844L13.8185 14.6821L13.8191 14.6815L13.8193 14.6813C13.8194 14.6813 13.8194 14.6812 13.8852 14.7482L13.8194 14.6812C13.8564 14.6449 13.9158 14.6454 13.9522 14.6823" fill="#1B1D1C"/>
<path fill-rule="evenodd" clip-rule="evenodd" d="M37.1324 38.3579C37.2114 38.4567 37.2588 38.5579 37.2876 38.6454C37.3111 38.7171 37.322 38.7794 37.3268 38.8233C37.3298 38.8451 37.3304 38.8623 37.331 38.8736C37.331 38.8792 37.3316 38.8833 37.3316 38.8858C37.3316 38.8871 37.3316 38.888 37.3316 38.8884C37.331 38.9032 37.334 38.918 37.3407 38.9314C37.4196 39.0961 37.5384 39.1949 37.6366 39.2521C37.6854 39.2806 37.73 39.299 37.7626 39.3104C37.7789 39.3161 37.7921 39.3201 37.8024 39.3227C37.803 39.323 37.8036 39.3232 37.8042 39.3233L36.9302 38.1655L36.9308 38.1656C36.935 38.1701 36.9393 38.1743 36.9447 38.178C37.0061 38.2228 37.0578 38.2708 37.1014 38.3199C37.1023 38.3227 37.1036 38.3253 37.105 38.3279C37.1118 38.3405 37.121 38.3509 37.1324 38.3579ZM37.3312 38.312C37.3959 38.4074 37.4382 38.5024 37.466 38.5869C37.4944 38.6726 37.5076 38.7475 37.5137 38.8017C37.5167 38.8288 37.5179 38.8508 37.5185 38.8665C37.5191 38.867 37.5191 38.8675 37.5191 38.868C37.5775 38.9806 37.6607 39.0489 37.7312 39.0898C37.768 39.1113 37.8012 39.125 37.8247 39.1332C37.8361 39.1372 37.8452 39.1399 37.8512 39.1414C37.8542 39.1422 37.856 39.1428 37.8572 39.143L37.8578 39.1431C37.8669 39.1451 37.8759 39.1484 37.8837 39.1528L39.5786 40.0846C40.0957 40.3438 40.6382 40.849 41.1578 41.4512C41.6797 42.0559 42.1854 42.7662 42.6272 43.4434C43.0696 44.1208 43.4487 44.7666 43.7169 45.2429C43.8513 45.4812 43.958 45.6771 44.031 45.8136C44.0677 45.8819 44.0961 45.9352 44.1147 45.9716C44.1244 45.9898 44.1316 46.0037 44.1364 46.0131L44.1425 46.0238L44.1431 46.0259C44.5674 46.7765 44.6072 47.2485 44.518 47.5428C44.4734 47.6903 44.398 47.7875 44.3311 47.8484C44.2986 47.8786 44.2678 47.8996 44.2443 47.9134C44.2365 47.9181 44.2299 47.9219 44.2238 47.9251C43.3499 48.8688 42.2607 49.3652 41.3922 49.6258C40.9552 49.7569 40.5731 49.8288 40.2995 49.868C40.1627 49.8876 40.0529 49.899 39.977 49.9056C39.939 49.9088 39.9095 49.9109 39.8896 49.9121C39.8794 49.9127 39.8715 49.9132 39.8661 49.9134C39.8637 49.9135 39.8619 49.9136 39.8601 49.9137L39.8589 49.9138H39.8583H39.8577C39.8577 49.9138 39.8577 49.9138 39.8541 49.82L39.8577 49.9138L39.8565 49.9138C37.5721 49.9734 36.1135 49.7948 34.9792 49.4889C34.0783 49.2459 33.3834 48.9226 32.6496 48.5813C32.4612 48.4936 32.2702 48.4047 32.0725 48.3156C31.0739 47.8662 30.6069 47.187 30.3917 46.617C30.2845 46.333 30.2402 46.0773 30.2226 45.8922C30.2139 45.7995 30.2118 45.7243 30.212 45.6718C30.212 45.6455 30.2126 45.6249 30.2133 45.6106C30.2136 45.6034 30.2139 45.5979 30.2142 45.5939C30.2143 45.592 30.2144 45.5904 30.2145 45.5892L30.2145 45.5879L30.2146 45.5873C30.2146 45.5872 30.2146 45.5871 30.3082 45.5948L30.2146 45.5871C30.2152 45.58 30.2166 45.5729 30.2188 45.5661C30.3663 45.1066 30.1886 44.5592 29.9565 44.1097C29.8419 43.888 29.7174 43.6964 29.6213 43.56C29.5734 43.4919 29.5327 43.4378 29.5041 43.4009C29.4898 43.3825 29.4786 43.3683 29.471 43.3589C29.4684 43.3557 29.4663 43.353 29.4645 43.3509C28.5733 42.584 28.241 41.9514 28.1377 41.4993C28.086 41.2729 28.0922 41.0941 28.1128 40.9696C28.1231 40.9075 28.1368 40.8592 28.1485 40.8256C28.1544 40.8087 28.1597 40.7956 28.1638 40.7862C28.1658 40.7814 28.1676 40.7777 28.1689 40.7748C28.1696 40.7734 28.1702 40.7722 28.1706 40.7713L28.1712 40.7701L28.1715 40.7696L28.1716 40.7694C28.1717 40.7693 28.1717 40.7692 28.255 40.8125L28.1717 40.7692C28.1733 40.766 28.1752 40.763 28.1771 40.7601C28.419 40.4006 28.6921 40.2119 28.9709 40.1406C29.2481 40.0696 29.5185 40.1179 29.7509 40.2086C29.9832 40.2992 30.1831 40.4342 30.3238 40.5451C30.3945 40.6008 30.451 40.651 30.49 40.6874C30.5046 40.7011 30.5168 40.7129 30.5264 40.7223C30.5294 40.7161 30.5325 40.7101 30.5357 40.7043C30.5509 40.6765 30.5687 40.6503 30.5894 40.6288C30.6094 40.6081 30.6376 40.5861 30.6743 40.5773C30.7105 40.5685 30.7847 40.5325 30.8859 40.4734C30.983 40.4166 31.0946 40.345 31.2007 40.2743C31.3066 40.2036 31.4063 40.1345 31.4795 40.083C31.5161 40.0572 31.546 40.0359 31.5668 40.021C31.5758 40.0145 31.583 40.0094 31.5884 40.0055C31.7547 39.795 32.0289 39.5489 32.3416 39.3001C32.6613 39.0458 33.027 38.7842 33.3719 38.5488C33.7169 38.3132 34.0421 38.1033 34.2809 37.9523C34.4003 37.8768 34.4981 37.8159 34.5663 37.774C34.6003 37.753 34.6269 37.7367 34.645 37.7256C34.6541 37.7201 34.661 37.7159 34.6657 37.7131L34.6729 37.7087C34.6729 37.7087 34.6729 37.7087 34.7214 37.7891L34.6729 37.7087C34.6737 37.7082 34.6746 37.7077 34.6754 37.7072C35.3623 37.3213 35.963 37.4024 36.3902 37.5821C36.6023 37.6714 36.7711 37.7846 36.8868 37.8755C36.9447 37.921 36.9893 37.961 37.02 37.9901C37.0357 38.0046 37.0471 38.0164 37.0556 38.0247C37.058 38.0273 37.0604 38.0295 37.0622 38.0314C37.119 38.0734 37.1687 38.1178 37.2115 38.1636C38.1949 37.6119 38.4624 36.9257 38.4919 36.3811C38.5069 36.099 38.4587 35.8504 38.4063 35.6719C38.3798 35.5829 38.3527 35.5118 38.3328 35.4633C38.3225 35.4392 38.3141 35.4207 38.3081 35.4084C38.305 35.4023 38.3032 35.3978 38.3014 35.395C38.3008 35.3935 38.3002 35.3925 38.3002 35.3919L38.2996 35.3914V35.3914C38.2755 35.3454 38.2936 35.2887 38.3394 35.2647C38.3852 35.2406 38.4419 35.2583 38.466 35.3042L38.3828 35.3478C38.466 35.3042 38.466 35.3043 38.466 35.3043L38.4666 35.3045V35.3049L38.4672 35.3063C38.4678 35.3074 38.4684 35.309 38.4696 35.311C38.4714 35.3149 38.4744 35.3206 38.478 35.3279C38.4846 35.3425 38.4943 35.3636 38.5058 35.3906C38.5287 35.4445 38.5582 35.5222 38.5865 35.6189C38.6432 35.8119 38.6962 36.0824 38.6793 36.3912C38.6466 36.9965 38.3465 37.732 37.3312 38.312ZM31.6322 40.205C31.618 40.215 31.6034 40.2253 31.5876 40.2365C31.5135 40.2886 31.4125 40.3588 31.3049 40.4305C31.1974 40.5022 31.0824 40.5761 30.9806 40.6355C30.8864 40.6906 30.7927 40.7398 30.7259 40.7578C30.7255 40.7583 30.725 40.7587 30.7245 40.7593C30.7188 40.7652 30.7104 40.7762 30.7007 40.7941C30.6812 40.8297 30.6617 40.8831 30.6477 40.9503C30.6199 41.0847 30.6171 41.2616 30.6711 41.4384C30.7246 41.6138 30.8338 41.7896 31.0322 41.9266C31.2309 42.0638 31.5251 42.1662 31.9549 42.1833C31.9559 42.1833 31.9573 42.1832 31.959 42.1832C31.9638 42.183 31.9713 42.1826 31.9813 42.182C32.0014 42.1807 32.0315 42.1783 32.0704 42.1737C32.1483 42.1646 32.2612 42.1471 32.399 42.1133C32.6748 42.0457 33.0494 41.9133 33.4426 41.6542C33.4772 41.6314 33.5121 41.6083 33.5475 41.585C33.9238 41.3368 34.3406 41.0619 34.7145 40.8519C34.9189 40.737 35.1136 40.6399 35.284 40.5768C35.4501 40.5154 35.6101 40.4798 35.7369 40.508C35.7707 40.5155 35.8068 40.5234 35.8446 40.5316C36.0236 40.5703 36.2415 40.6175 36.4378 40.6809C36.5571 40.7194 36.6728 40.7652 36.7693 40.8211C36.8651 40.8763 36.9513 40.9461 37.0007 41.0368C37.02 41.0726 37.0146 41.1169 36.9863 41.1464V41.1465L36.9857 41.1469L36.9845 41.1484C36.9833 41.1499 36.9808 41.152 36.9784 41.1549C36.973 41.1606 36.9652 41.1691 36.9549 41.1802C36.9344 41.2024 36.9055 41.2348 36.8705 41.2754C36.8 41.3566 36.7054 41.4698 36.6102 41.5984C36.5149 41.7272 36.4197 41.8698 36.3468 42.0098C36.2725 42.1513 36.225 42.2827 36.217 42.3905C36.2169 42.3914 36.2169 42.3923 36.2166 42.393C36.4639 42.2235 36.7076 42.0488 36.9471 41.8682C37.2014 41.6771 37.4534 41.4818 37.7011 41.2817C37.803 41.2004 37.9036 41.1184 38.0031 41.0346C38.0224 41.0189 38.0471 41.0111 38.0718 41.0129C38.0965 41.0153 38.1194 41.0274 38.1351 41.0461C38.1513 41.0653 38.1592 41.0901 38.1568 41.1148C38.155 41.1395 38.1429 41.1624 38.1236 41.1787C38.023 41.263 37.9211 41.3462 37.8186 41.4282C37.5691 41.6295 37.316 41.826 37.0598 42.0183C36.7385 42.2606 36.4101 42.4926 36.0743 42.7138C35.908 42.8235 35.7386 42.9284 35.5668 43.0284C35.4107 43.12 35.2504 43.205 35.0871 43.2822C34.9412 43.3503 34.8086 43.4425 34.6935 43.5552C34.576 43.6703 34.4753 43.8017 34.3945 43.9452C34.3114 44.0929 34.2475 44.2496 34.2047 44.4135C34.1613 44.5768 34.139 44.7456 34.1384 44.915C34.1378 45.0705 34.1583 45.2254 34.1992 45.3761C34.2396 45.5243 34.3029 45.6654 34.3861 45.7944C34.4735 45.9276 34.5826 46.0451 34.7086 46.1415C34.852 46.2494 35.0123 46.3326 35.1829 46.3886C35.2239 46.4025 35.2655 46.414 35.3083 46.4218C35.424 46.4453 35.5415 46.4574 35.6597 46.4568C35.9309 46.4556 36.1997 46.3989 36.4486 46.291C36.4715 46.2814 36.4975 46.2808 36.5204 46.2898C36.5258 46.2919 36.531 46.2945 36.5362 46.2972C36.5378 46.2911 36.5396 46.285 36.5415 46.279C36.5957 46.0969 36.6674 45.9209 36.7554 45.7528C36.844 45.5816 36.9441 45.4164 37.0544 45.2579C37.1617 45.1042 37.2756 44.9554 37.3955 44.8119C37.5944 44.575 37.8072 44.3496 38.032 44.1369C38.126 44.047 38.2225 43.9597 38.3225 43.8765C38.3418 43.8602 38.3665 43.853 38.3912 43.8548C38.4159 43.8572 38.4388 43.8692 38.4551 43.8885C38.4708 43.9072 38.4786 43.9319 38.4762 43.9566C38.4738 43.982 38.4624 44.0049 38.4431 44.0205C38.346 44.1013 38.2526 44.1857 38.1616 44.2731C37.9416 44.4804 37.7343 44.701 37.5396 44.9325C37.4226 45.0717 37.3123 45.2163 37.2087 45.3652C37.1026 45.5171 37.0068 45.675 36.9218 45.8396C36.8392 45.9969 36.7723 46.1626 36.7211 46.3332C36.6735 46.4917 36.6481 46.6563 36.6463 46.8214L36.6487 46.8992C36.6518 46.9643 36.6614 47.0281 36.6777 47.0908C36.6915 47.1439 36.712 47.1945 36.7379 47.2427C36.785 47.3271 36.8525 47.3988 36.9338 47.4513C37.0218 47.5061 37.1189 47.5447 37.2207 47.5658C37.3358 47.5899 37.4534 47.6013 37.5709 47.6001C37.7264 47.5989 37.8807 47.5857 38.0338 47.5598C38.1755 47.5368 38.3165 47.5073 38.4551 47.4705C38.5576 47.444 38.6594 47.4139 38.7601 47.3807C38.7905 47.3712 38.8209 47.3606 38.8514 47.3498C38.8547 47.3122 38.8612 47.2749 38.871 47.2385C38.8861 47.1794 38.906 47.1216 38.9301 47.0655C38.9566 47.004 38.9867 46.9432 39.0193 46.8847C39.0554 46.8208 39.0934 46.7581 39.1332 46.6966C39.2212 46.564 39.3152 46.4351 39.4147 46.3115C39.5177 46.1825 39.625 46.0559 39.7353 45.9336C39.9276 45.719 40.1265 45.5111 40.332 45.3098C40.4212 45.2212 40.5122 45.135 40.6038 45.05C40.6225 45.0331 40.6466 45.0241 40.6714 45.0253C40.6967 45.0265 40.7202 45.0373 40.737 45.0554C40.7539 45.0735 40.7624 45.0982 40.7618 45.1229C40.7606 45.1476 40.7497 45.1711 40.7316 45.188C40.6406 45.2718 40.5514 45.3568 40.464 45.4436C40.2609 45.6419 40.0644 45.8474 39.8751 46.059C39.7667 46.1789 39.6624 46.3025 39.5611 46.4284C39.4653 46.5484 39.3749 46.6719 39.2905 46.8003C39.2525 46.8576 39.217 46.916 39.1832 46.9763C39.1537 47.0294 39.1266 47.0842 39.1024 47.1403C39.082 47.1873 39.0651 47.2361 39.0524 47.2861C39.0422 47.3253 39.0367 47.3651 39.0361 47.4061C39.0355 47.4356 39.0404 47.4645 39.0506 47.4922C39.0597 47.5164 39.0741 47.5375 39.0928 47.5549C39.1549 47.6152 39.2206 47.6719 39.2893 47.7255C39.3478 47.7707 39.411 47.8111 39.4767 47.846C39.5376 47.8774 39.6021 47.9015 39.6684 47.9178C39.7377 47.9346 39.8088 47.9431 39.8806 47.9425C39.9589 47.9419 40.0367 47.934 40.1138 47.9196C40.2085 47.9015 40.3013 47.8774 40.3923 47.8473C40.505 47.8099 40.6159 47.7677 40.725 47.7213C40.8498 47.6676 40.9727 47.6116 41.0939 47.5519C41.1222 47.5007 41.1517 47.4501 41.1819 47.4C41.2656 47.2578 41.3536 47.1186 41.4453 46.9817C41.5592 46.8106 41.6821 46.6454 41.8135 46.4881C41.8786 46.4097 41.9473 46.335 42.0197 46.2639C42.0866 46.1976 42.1583 46.1367 42.2342 46.0819C42.2541 46.0674 42.2794 46.0614 42.3041 46.0656C42.3289 46.0692 42.3506 46.0831 42.365 46.103C42.3795 46.1234 42.3855 46.1488 42.3819 46.1729C42.3777 46.1976 42.3644 46.2199 42.3439 46.2344C42.2758 46.2832 42.2119 46.338 42.1523 46.3971C42.0842 46.4646 42.0191 46.5351 41.9576 46.608C41.8304 46.7611 41.7117 46.9203 41.6014 47.086C41.5116 47.2198 41.4254 47.3566 41.3428 47.4959C41.3042 47.561 41.2662 47.6267 41.2301 47.6936C41.0884 47.7647 40.945 47.8316 40.7991 47.8937C40.6852 47.9425 40.5689 47.9865 40.4514 48.0257C40.3525 48.0582 40.2512 48.0847 40.1494 48.104C40.0608 48.1209 39.9716 48.1299 39.8818 48.1305C39.795 48.1305 39.7082 48.1209 39.6238 48.1004C39.543 48.0805 39.4647 48.051 39.3906 48.0124C39.314 47.9726 39.2417 47.9262 39.1742 47.8738C39.1 47.8165 39.0295 47.7556 38.9626 47.6905C38.924 47.6538 38.8939 47.6086 38.8746 47.5585C38.8727 47.5532 38.8709 47.5479 38.8694 47.5425C38.8523 47.5483 38.8352 47.554 38.818 47.5598C38.7137 47.5935 38.6088 47.6248 38.5027 47.6526C38.3581 47.6905 38.2122 47.7213 38.0645 47.7454C37.9018 47.7725 37.7373 47.787 37.5727 47.7882C37.4413 47.7894 37.3105 47.7767 37.1828 47.7496C37.0586 47.7243 36.9405 47.6773 36.8338 47.6104C36.7253 47.5411 36.6361 47.4458 36.5734 47.3331C36.5402 47.2716 36.5137 47.2066 36.4963 47.1384C36.4764 47.0631 36.4649 46.9853 36.4607 46.9076C36.4607 46.907 36.4607 46.9064 36.4607 46.9052L36.4589 46.825C36.4589 46.8238 36.4589 46.8226 36.4589 46.8214C36.46 46.7054 36.4715 46.5898 36.4929 46.476C36.2292 46.586 35.9464 46.6431 35.6603 46.6448C35.5301 46.6448 35.3999 46.6322 35.2721 46.6062C35.2215 46.5966 35.1714 46.5833 35.1226 46.5665C34.9334 46.5044 34.755 46.411 34.5952 46.291C34.4518 46.1813 34.3276 46.0481 34.2288 45.8968C34.1628 45.7948 34.1081 45.686 34.066 45.5721C34.0469 45.5775 34.0266 45.5771 34.0076 45.5707C33.9588 45.5533 33.9117 45.5334 33.8653 45.5111C33.746 45.4556 33.6303 45.3923 33.5194 45.3212C33.1583 45.0928 32.8479 44.7926 32.6092 44.4388C32.5026 44.2767 32.4164 44.1019 32.3525 43.9187C32.2898 43.7403 32.2422 43.5576 32.209 43.372C32.1554 43.0767 32.1289 42.7765 32.1301 42.4757C32.1295 42.4357 32.1298 42.3956 32.1304 42.3555C32.1167 42.3573 32.1041 42.3589 32.0922 42.3602C32.0499 42.3652 32.0165 42.3679 31.9933 42.3693C31.9817 42.3701 31.9727 42.3706 31.9664 42.3708C31.9633 42.3709 31.9608 42.371 31.9591 42.371L31.9569 42.3711H31.9563H31.9561H31.956C31.9559 42.3711 31.9559 42.3712 31.9543 42.2773L31.9559 42.3712C31.9541 42.3712 31.9524 42.3712 31.9507 42.3711C31.4934 42.3534 31.1611 42.2439 30.9255 42.0811C30.689 41.9178 30.5561 41.7052 30.4914 41.4932C30.4273 41.2827 30.4304 41.0735 30.4638 40.9123C30.4643 40.9097 30.4649 40.9071 30.4654 40.9046C30.447 40.901 30.4294 40.8918 30.4154 40.8771L30.4154 40.877L30.4149 40.8765L30.4125 40.874C30.4103 40.8718 30.4069 40.8683 30.4024 40.8638C30.3933 40.8548 30.3796 40.8413 30.3617 40.8246C30.3259 40.7912 30.2735 40.7445 30.2076 40.6926C30.0753 40.5883 29.8917 40.4651 29.6827 40.3835C29.4738 40.3021 29.245 40.2643 29.0175 40.3225C28.793 40.3799 28.5572 40.534 28.3368 40.8592C28.3366 40.8597 28.3363 40.8603 28.336 40.861C28.3337 40.8662 28.3302 40.875 28.326 40.8871C28.3175 40.9115 28.3065 40.9494 28.2981 41.0003C28.2813 41.1017 28.2747 41.2559 28.3207 41.4574C28.4128 41.8603 28.7177 42.462 29.5931 43.2138C29.5971 43.2171 29.6007 43.2209 29.604 43.2249L29.5319 43.285C29.604 43.2249 29.604 43.2249 29.604 43.2249L29.6043 43.2253L29.6051 43.2261L29.6077 43.2293C29.6099 43.232 29.6131 43.236 29.6172 43.2411C29.6256 43.2514 29.6376 43.2665 29.6526 43.2859C29.6827 43.3248 29.7251 43.3812 29.7749 43.4519C29.8744 43.5931 30.0038 43.7923 30.1233 44.0236C30.3575 44.477 30.5666 45.0791 30.4012 45.6122C30.4012 45.6125 30.4012 45.6129 30.4012 45.6134C30.401 45.615 30.401 45.6169 30.4009 45.6189C30.4004 45.6308 30.3998 45.6488 30.3997 45.6724C30.3996 45.7194 30.4015 45.7885 30.4096 45.8745C30.4259 46.0465 30.4672 46.2853 30.5674 46.5507C30.7669 47.0791 31.2013 47.7176 32.1496 48.1444C32.3513 48.2353 32.545 48.3253 32.7349 48.4137C33.4667 48.7541 34.1443 49.0692 35.0281 49.3076C36.1394 49.6073 37.5788 49.7854 39.851 49.7261H39.8516L39.8522 49.7261L39.8571 49.7258C39.8595 49.7257 39.8625 49.7255 39.8667 49.7254C39.8697 49.7252 39.8739 49.7249 39.8782 49.7247C39.8968 49.7235 39.9246 49.7216 39.9607 49.7185C40.0337 49.7122 40.1397 49.7012 40.2729 49.6821C40.5388 49.644 40.9118 49.5739 41.338 49.446C42.1914 49.19 43.2522 48.7039 44.0979 47.7846C44.1069 47.7746 44.1184 47.7667 44.131 47.7615C44.131 47.7614 44.131 47.7614 44.131 47.7614V47.7615C44.131 47.7614 44.1322 47.7609 44.1334 47.7602C44.1364 47.7587 44.1419 47.7561 44.1485 47.752C44.1624 47.7439 44.1822 47.7303 44.2045 47.7098C44.2491 47.6691 44.3046 47.6001 44.3384 47.4885C44.4059 47.2651 44.3926 46.8487 43.9791 46.1167C43.9785 46.1157 43.9779 46.1146 43.9773 46.1135L43.9839 46.1101C43.9773 46.1135 43.9773 46.1135 43.9773 46.1135V46.1133L43.9767 46.1127L43.9755 46.1101L43.9701 46.0997C43.9653 46.0905 43.958 46.0768 43.949 46.0589C43.9297 46.023 43.902 45.9701 43.8658 45.9023C43.7929 45.7669 43.6868 45.5721 43.5536 45.3351C43.286 44.8612 42.9093 44.2191 42.4699 43.546C42.0311 42.8726 41.5302 42.1699 41.0161 41.5739C40.4996 40.9761 39.9764 40.4936 39.493 40.2517C39.4918 40.2512 39.4906 40.2506 39.4894 40.25L37.8042 39.3233L36.9302 38.1655V38.1653L36.929 38.1637C36.9272 38.1621 36.9248 38.1596 36.9218 38.1562C36.9151 38.1495 36.9049 38.1394 36.891 38.1266C36.8639 38.101 36.8235 38.0647 36.7705 38.0232C36.6644 37.9399 36.5101 37.8364 36.3172 37.7552C35.9338 37.5938 35.3957 37.5184 34.7687 37.8702L34.7631 37.8736C34.7585 37.8764 34.7517 37.8805 34.7428 37.8859C34.7249 37.8969 34.6986 37.913 34.6648 37.9338C34.5972 37.9755 34.5 38.0359 34.3812 38.111C34.1437 38.2612 33.8206 38.4699 33.4778 38.7039C33.1349 38.9379 32.7733 39.1966 32.4586 39.447C32.1708 39.676 31.9269 39.8943 31.7715 40.078C31.8105 40.1142 31.8514 40.1484 31.8938 40.1805C31.9716 40.2396 32.0535 40.2939 32.1385 40.3433C32.2567 40.4114 32.3784 40.4723 32.5038 40.5253C32.5423 40.5416 32.5791 40.5615 32.6135 40.585C32.6442 40.6061 32.6719 40.6314 32.6954 40.6603C32.7388 40.714 32.7617 40.7809 32.7617 40.8496C32.7611 40.8978 32.7515 40.9454 32.7334 40.99C32.7159 41.0346 32.693 41.0768 32.6659 41.116C32.6117 41.1943 32.549 41.2667 32.4785 41.3318C32.4212 41.386 32.3603 41.4378 32.2976 41.4861C32.2705 41.5071 32.2428 41.5276 32.2145 41.5469C32.194 41.5614 32.1687 41.5662 32.1439 41.562C32.1192 41.5572 32.0975 41.5433 32.0837 41.5228C32.0698 41.5023 32.0644 41.477 32.0686 41.4523C32.0734 41.4282 32.0873 41.4065 32.1078 41.392C32.1331 41.3745 32.1584 41.3565 32.1825 41.3372C32.241 41.2926 32.297 41.245 32.3507 41.1943C32.411 41.1389 32.4646 41.0768 32.5116 41.0093C32.5309 40.9816 32.5466 40.9514 32.5592 40.9201C32.5683 40.8972 32.5737 40.8725 32.5743 40.8484C32.5737 40.823 32.5653 40.7983 32.5496 40.7784C32.5375 40.7634 32.5231 40.7507 32.5074 40.7399C32.4833 40.7236 32.458 40.7097 32.4314 40.6989C32.2988 40.6428 32.1693 40.5777 32.0445 40.5054C31.9529 40.4524 31.8649 40.3939 31.7805 40.33C31.7288 40.2912 31.6793 40.2496 31.6322 40.205ZM36.0958 42.4737C36.0548 42.4609 36.0264 42.4213 36.0297 42.3767C36.0405 42.2311 36.1016 42.0729 36.1801 41.9228C36.2595 41.7711 36.3606 41.6199 36.4595 41.4867C36.5583 41.3531 36.656 41.2359 36.7283 41.1523C36.7548 41.1218 36.7783 41.0957 36.797 41.0747C36.7681 41.0444 36.7277 41.0139 36.6759 40.9838C36.5951 40.9372 36.4932 40.8962 36.3799 40.8596C36.213 40.8056 36.03 40.7641 35.8657 40.7283C35.8704 40.731 35.875 40.7338 35.8794 40.7372C35.9209 40.7682 35.9294 40.827 35.8984 40.8686L35.8232 40.8124L35.748 40.7562C35.748 40.7561 35.748 40.7562 35.8232 40.8124C35.8984 40.8686 35.8985 40.8686 35.8984 40.8686L35.8968 40.8707L35.8923 40.8767C35.8883 40.882 35.8825 40.8898 35.8748 40.9C35.8593 40.9204 35.8366 40.9503 35.8074 40.9884C35.7489 41.0648 35.6641 41.1743 35.5591 41.3072C35.349 41.5727 35.0575 41.9316 34.7319 42.3052C34.4065 42.6784 34.046 43.0674 33.698 43.3924C33.3522 43.7152 33.0107 43.9826 32.7237 44.1038C32.6892 44.1183 32.6508 44.1107 32.6253 44.0865C32.666 44.1723 32.7129 44.2551 32.7654 44.3346C32.9902 44.6667 33.2807 44.9487 33.62 45.1627C33.7243 45.2296 33.8328 45.2893 33.9455 45.3411C33.9645 45.3504 33.9838 45.3591 34.003 45.3677C33.9678 45.2193 33.9504 45.067 33.9509 44.9144C33.9509 44.7293 33.9756 44.5443 34.0233 44.3653C34.0703 44.1863 34.1402 44.0145 34.2306 43.8536C34.3204 43.6944 34.4319 43.5486 34.5621 43.4208C34.6923 43.2936 34.8424 43.1894 35.0069 43.1122C35.1654 43.0375 35.3209 42.9555 35.4722 42.8663C35.641 42.7681 35.8073 42.665 35.9707 42.5571C36.0125 42.5295 36.0543 42.5017 36.0958 42.4737ZM35.822 40.7188C35.8172 40.7178 35.8127 40.7168 35.8082 40.7158C35.7694 40.7074 35.7319 40.6992 35.6961 40.6914C35.6259 40.6757 35.5104 40.6933 35.3491 40.753C35.1921 40.8111 35.0073 40.9028 34.8064 41.0156C34.4388 41.2221 34.0277 41.4933 33.65 41.7424C33.615 41.7655 33.5803 41.7884 33.5459 41.811C33.1315 42.0841 32.7361 42.224 32.4437 42.2956C32.4001 42.3064 32.3588 42.3155 32.3201 42.3234C32.3179 42.3741 32.3171 42.4247 32.3175 42.4757C32.3169 42.765 32.3422 43.0537 32.3935 43.3388C32.4248 43.5148 32.4706 43.6878 32.5297 43.8566C32.549 43.9121 32.5705 43.9668 32.5945 44.0205C32.5921 43.9826 32.6138 43.9463 32.6507 43.9308C32.9049 43.8234 33.2261 43.576 33.5698 43.2551C33.9113 42.9363 34.2671 42.5526 34.5904 42.1818C34.9134 41.8112 35.203 41.4546 35.4118 41.1907C35.5162 41.0587 35.6003 40.9499 35.6583 40.8742C35.6873 40.8364 35.7098 40.8068 35.725 40.7867C35.7326 40.7767 35.7384 40.769 35.7422 40.7639L35.7466 40.7581L35.7479 40.7563L35.748 40.7562C35.7661 40.7319 35.7938 40.7189 35.822 40.7188ZM44.1316 47.7612C44.131 47.7613 44.131 47.7613 44.131 47.7614L44.1316 47.7612Z" fill="#1B1D1C"/>
<path fill-rule="evenodd" clip-rule="evenodd" d="M39.6637 23.3225C39.6763 23.4356 39.6826 23.5493 39.6832 23.6633C39.682 24.0424 39.6145 24.4179 39.4831 24.7735C39.3716 25.0731 39.2233 25.3576 39.0407 25.6198C38.9087 25.8121 38.7604 25.9917 38.5971 26.1586C38.5507 26.2062 38.5018 26.2532 38.4518 26.2978C38.4024 26.3437 38.3494 26.3846 38.2933 26.422C38.4747 26.5335 38.6459 26.6613 38.8038 26.8041C38.9147 26.9036 39.0178 27.0115 39.1124 27.1266C39.2739 27.3225 39.4072 27.5395 39.5084 27.7715C39.5892 27.9572 39.6476 28.1512 39.6832 28.3501C39.7091 28.4912 39.7218 28.6346 39.7224 28.7787C39.7224 28.8281 39.7206 28.8775 39.717 28.9264C39.7157 28.9432 39.7139 28.9595 39.7115 28.9758C39.7079 29.0005 39.7145 29.0258 39.729 29.0457C39.7441 29.0656 39.7664 29.0788 39.7911 29.0825C39.8158 29.0855 39.8411 29.0794 39.861 29.0644C39.8809 29.0493 39.8935 29.027 39.8972 29.0023C39.9002 28.9818 39.9026 28.9613 39.9038 28.9408C39.908 28.8866 39.9104 28.8323 39.9104 28.7781C39.9098 28.6232 39.8954 28.4689 39.8682 28.3164C39.8297 28.1036 39.767 27.8957 39.6808 27.6968C39.5723 27.4485 39.4301 27.2164 39.2577 27.0073C39.157 26.8849 39.0473 26.7704 38.9298 26.6643C38.8279 26.5733 38.7218 26.4871 38.6103 26.4075C38.6519 26.3696 38.6923 26.3298 38.7315 26.2894C38.9021 26.1158 39.057 25.9272 39.195 25.7271C39.3867 25.4516 39.5428 25.1533 39.6591 24.8386C39.7983 24.4625 39.87 24.0647 39.8706 23.6633C39.8694 23.2987 39.8116 22.9358 39.6995 22.5887C39.638 22.3928 39.559 22.2023 39.4638 22.0203C39.377 21.8569 39.2745 21.7026 39.1576 21.5598C38.9418 21.2994 38.676 21.0854 38.3759 20.9293C38.23 20.854 38.0781 20.7901 37.922 20.7395C37.7647 20.6889 37.6038 20.6479 37.4404 20.6183C37.2747 20.5882 37.1077 20.5671 36.9396 20.5544C36.7696 20.5412 36.599 20.5352 36.4285 20.5352C36.153 20.5364 35.8782 20.549 35.6039 20.5719C35.3339 20.5948 35.0651 20.6226 34.7963 20.6539C34.7041 20.6949 34.6142 20.7407 34.5262 20.7901C34.3069 20.9107 34.0947 21.0439 33.8904 21.1891C33.615 21.3839 33.3539 21.5982 33.11 21.8305C33.0883 21.8401 33.0672 21.8511 33.0465 21.863C32.8844 22.0263 32.7283 22.1951 32.5776 22.3687C32.3956 22.5772 32.2244 22.7954 32.0647 23.0214C31.9833 23.1383 31.9062 23.2577 31.8345 23.3806C31.7639 23.4994 31.7013 23.6217 31.6446 23.7477C31.5916 23.8658 31.5482 23.9888 31.5156 24.1142C31.4849 24.2311 31.468 24.3516 31.4668 24.4728C31.4668 24.5511 31.4752 24.6295 31.4927 24.706C31.5132 24.7958 31.5518 24.8802 31.6048 24.9556C31.6573 25.0297 31.7211 25.0948 31.7941 25.1496C31.8688 25.2063 31.9496 25.2545 32.034 25.2949C32.1226 25.3371 32.2142 25.3733 32.3076 25.4028C32.4034 25.4335 32.4999 25.4595 32.5981 25.4812C32.6946 25.5028 32.7922 25.5215 32.8898 25.5372C33.0616 25.5643 33.234 25.5866 33.4076 25.6047C33.4468 25.6089 33.4859 25.6138 33.5257 25.6186C33.7909 25.6499 34.0573 25.6752 34.3237 25.6945C34.5956 25.7138 34.8674 25.7241 35.1398 25.7247C35.3659 25.7247 35.5913 25.7168 35.8161 25.6999C36.0409 25.6831 36.2645 25.6559 36.4863 25.618C36.7075 25.5806 36.9263 25.53 37.1421 25.4673C37.3579 25.4046 37.5688 25.3275 37.7744 25.2364C37.8853 25.187 37.9931 25.1328 38.0986 25.0737C38.1559 25.0406 38.2119 25.0056 38.2668 24.9682C38.2832 24.9571 38.2995 24.9459 38.3157 24.9344C38.4187 24.8683 38.5173 24.7951 38.6106 24.7154C38.7454 24.6079 38.8758 24.495 39.0009 24.3763C39.0865 24.2956 39.1691 24.2106 39.248 24.1226C39.3228 24.0388 39.3927 23.9502 39.4572 23.858C39.5156 23.7736 39.5651 23.6832 39.6048 23.5886C39.6408 23.5042 39.6607 23.414 39.6637 23.3225ZM39.6433 23.1719C39.6179 22.9934 39.5765 22.8174 39.5211 22.6453C39.4626 22.4597 39.3879 22.2801 39.2975 22.1083C39.2173 21.9558 39.1215 21.8123 39.0124 21.6797C38.8129 21.4386 38.5669 21.2403 38.2891 21.0963C38.1529 21.0252 38.0106 20.9655 37.8642 20.9185C37.7147 20.8697 37.5616 20.8311 37.4067 20.8034C37.2476 20.7744 37.0866 20.7539 36.9257 20.7413C36.7606 20.7286 36.5948 20.7226 36.4291 20.7232C36.159 20.7244 35.889 20.7365 35.6196 20.7594C35.3616 20.7811 35.1043 20.807 34.8475 20.8371C34.7691 20.8727 34.6926 20.9119 34.6173 20.9541C34.4039 21.0716 34.1978 21.2012 33.9989 21.3422C33.8848 21.423 33.773 21.5074 33.664 21.5951C33.6177 21.6322 33.5719 21.67 33.5266 21.7084C33.5222 21.712 33.5179 21.7157 33.5136 21.7194C33.5356 21.7142 33.5577 21.709 33.58 21.7038C33.6445 21.6876 33.7095 21.6731 33.7746 21.6617C33.9326 21.6351 34.0899 21.6068 34.2472 21.5767C34.284 21.5688 34.3207 21.5622 34.3575 21.5562C34.3762 21.5526 34.3949 21.5502 34.4135 21.5496C34.4383 21.5483 34.4636 21.5477 34.4883 21.5477C34.5775 21.5483 34.6673 21.5514 34.7565 21.5574C34.8728 21.5646 34.9885 21.5731 35.1043 21.5833C35.3429 21.6032 35.5816 21.6285 35.8191 21.6605C35.987 21.6828 36.1542 21.7089 36.3206 21.7397C36.4142 21.7441 36.508 21.7488 36.6014 21.7539C36.7328 21.7876 36.8636 21.8226 36.9938 21.8587C37.0818 21.8835 37.1686 21.91 37.2548 21.9395C37.311 21.9587 37.3668 21.9793 37.4221 22.0014C37.425 22.0023 37.4279 22.0031 37.4308 22.004C37.4875 22.0209 37.5441 22.0384 37.6008 22.0552C37.7683 22.1047 37.9347 22.1565 38.1004 22.2101C38.2788 22.268 38.4542 22.3331 38.6266 22.4054C38.7984 22.4759 38.9641 22.5597 39.1227 22.6556C39.1986 22.702 39.2721 22.7526 39.3421 22.8074C39.4096 22.8605 39.4734 22.9183 39.5319 22.981C39.5753 23.0268 39.6091 23.0805 39.632 23.1389C39.6361 23.1499 39.6399 23.1608 39.6433 23.1719ZM39.4546 23.4505C39.3944 23.4869 39.3286 23.5474 39.2969 23.6812C39.2838 23.7368 39.2593 23.7957 39.2242 23.857C39.1876 23.9055 39.1487 23.9521 39.1082 23.9972C39.0329 24.0816 38.9539 24.1624 38.8719 24.2401C38.714 24.3896 38.5477 24.5294 38.3741 24.6602C38.3042 24.7127 38.233 24.7639 38.1607 24.8133C38.1101 24.8477 38.0588 24.8802 38.0058 24.9104C37.9057 24.9664 37.8033 25.0183 37.6984 25.0647C37.5007 25.1527 37.297 25.2268 37.0897 25.2871C36.9243 25.3354 36.7567 25.376 36.5878 25.4091C36.1625 25.4675 35.6698 25.5077 35.1454 25.5366C35.1438 25.5366 35.1421 25.5366 35.1404 25.5366C34.8722 25.536 34.6046 25.5264 34.337 25.5071C34.0736 25.4884 33.8102 25.4631 33.5474 25.4317C33.5076 25.4269 33.4673 25.4227 33.4275 25.4185C33.2575 25.4004 33.0881 25.3781 32.9188 25.3522C32.8253 25.3365 32.7319 25.319 32.6391 25.2979C32.5463 25.2774 32.4553 25.2527 32.3649 25.2238C32.2793 25.1967 32.1955 25.1635 32.1147 25.1249C32.0412 25.0906 31.9719 25.0484 31.9068 24.9996C31.8495 24.9562 31.7995 24.9049 31.7579 24.8471C31.7187 24.7916 31.691 24.7295 31.6753 24.6639C31.6615 24.6018 31.6548 24.5379 31.6548 24.474C31.6557 24.4024 31.6623 24.3313 31.6753 24.2613C31.6846 24.2165 31.6954 24.1706 31.7077 24.1237C31.7104 24.1138 31.7131 24.1039 31.7159 24.094C31.7188 24.0849 31.7216 24.0758 31.7242 24.0667C31.7502 23.9842 31.7811 23.9031 31.8164 23.8242C31.8694 23.7049 31.9297 23.5886 31.996 23.4759C32.0653 23.3577 32.14 23.242 32.2184 23.1293C32.3745 22.9081 32.5415 22.6953 32.7193 22.4916C32.8609 22.3283 33.0086 22.1692 33.1605 22.0143C33.1882 21.9998 33.2171 21.9871 33.2467 21.9763C33.2623 21.9709 33.281 21.9666 33.2997 21.9636C33.3533 21.9546 33.4064 21.9425 33.4588 21.9275C33.5041 21.9154 33.5502 21.9037 33.5964 21.8929L35.3935 21.799C35.5272 21.8129 35.6608 21.8286 35.7944 21.8461C36.062 21.8823 36.3284 21.9281 36.593 21.9829C36.8564 22.0384 37.118 22.1053 37.3759 22.1836C37.4332 22.2005 37.4899 22.218 37.5471 22.2349C37.7129 22.2843 37.878 22.3355 38.0426 22.3892C38.1117 22.4116 38.1805 22.4351 38.2488 22.4605C38.5871 22.6076 38.877 22.7451 39.044 22.8275C39.1068 22.867 39.1676 22.9096 39.2263 22.9557C39.2866 23.0027 39.3433 23.054 39.3957 23.11C39.4222 23.1377 39.4427 23.1709 39.4566 23.2065C39.4698 23.2408 39.4765 23.277 39.4759 23.3137C39.4747 23.36 39.4678 23.4061 39.4546 23.4505Z" fill="#1B1D1C"/>
<path fill-rule="evenodd" clip-rule="evenodd" d="M38.9988 32.5823C38.9757 32.5684 38.9513 32.5566 38.9259 32.5471C38.9947 32.5435 39.0604 32.514 39.1092 32.4651C39.1556 32.4211 39.2002 32.3747 39.243 32.3265C39.3334 32.2265 39.4208 32.124 39.5052 32.0191C39.648 31.8437 39.7872 31.6647 39.9235 31.4839C40.0374 31.3332 40.1435 31.1765 40.2405 31.0144C40.3176 30.886 40.3851 30.7528 40.4436 30.6148C40.4894 30.5069 40.5256 30.3942 40.5509 30.2796C40.5714 30.188 40.5816 30.0946 40.5822 30.0012C40.5828 29.9192 40.5732 29.8378 40.5545 29.7583C40.537 29.6878 40.5129 29.619 40.4822 29.5533C40.4527 29.4919 40.4189 29.4322 40.3815 29.3755C40.346 29.3213 40.3086 29.2683 40.27 29.2158C40.2248 29.1555 40.182 29.0929 40.1429 29.0278C40.1272 29.0006 40.1109 28.9735 40.094 28.9464C40.082 28.9271 40.0693 28.909 40.0555 28.8909C40.053 28.8879 40.05 28.8843 40.0476 28.8813C40.0422 28.8867 40.0374 28.8922 40.0332 28.8982C40.0151 28.9211 39.9988 28.9452 39.9843 28.9705C39.9626 29.0079 39.9415 29.0465 39.9223 29.0856C39.8626 29.205 39.8065 29.3261 39.7529 29.4485C39.6709 29.6335 39.5902 29.8192 39.51 30.0054C39.4142 30.2272 39.3171 30.449 39.2207 30.6702C39.1152 30.9095 38.9724 31.1301 38.797 31.3242C38.627 31.5116 38.4335 31.6762 38.222 31.8148C38.0122 31.9522 37.7904 32.0697 37.559 32.1662C37.3341 32.2602 37.1039 32.3392 36.8688 32.403C36.4662 32.5115 36.0558 32.5857 35.6411 32.6255C35.5012 32.6393 35.3614 32.6496 35.2216 32.6556C35.1511 32.6586 35.0805 32.6604 35.01 32.661C35.0064 32.661 35.0022 32.661 34.9986 32.661C34.3922 32.6845 33.7859 32.696 33.1795 32.6966C32.5207 32.6972 31.8626 32.6809 31.205 32.6478C30.6529 32.6194 30.1014 32.5778 29.5511 32.5224C29.0822 32.4742 28.6145 32.4175 28.1479 32.3512C27.7399 32.2927 27.3331 32.2313 26.9262 32.1662C26.6315 32.1192 26.3361 32.074 26.0408 32.0306C25.7581 31.989 25.4748 31.9528 25.191 31.9215C25.0511 31.9064 24.9113 31.8883 24.7727 31.8666C24.6123 31.8413 24.452 31.8142 24.2929 31.784C23.9234 31.7141 23.5551 31.637 23.1887 31.5526C22.7776 31.4592 22.3684 31.3603 21.9603 31.2573C21.536 31.1506 21.1123 31.0403 20.6904 30.927C19.4108 30.5828 18.1366 30.22 16.8673 29.8402C16.8215 29.8258 16.7744 29.8191 16.7262 29.8185C16.6503 29.8185 16.5755 29.8378 16.5092 29.8758C16.4008 29.9379 16.3001 30.012 16.2091 30.0976C16.1368 30.1657 16.0741 30.2441 16.0222 30.3297C15.9794 30.4026 15.9463 30.4815 15.9252 30.5635C15.9059 30.6395 15.8963 30.7172 15.8969 30.7956C15.8975 30.9047 15.9131 31.0126 15.9433 31.1168C15.9698 31.2102 16.0048 31.3013 16.0482 31.3881C16.0795 31.4519 16.1145 31.514 16.153 31.5737C16.1645 31.5918 16.1765 31.6087 16.1886 31.6255L20.9893 34.4686C21.0448 34.4963 21.0996 34.5228 21.1557 34.5488C21.3208 34.6247 21.4872 34.697 21.6547 34.7651C21.9218 34.8748 22.1912 34.9773 22.4624 35.0737C22.8246 35.2021 23.1899 35.3203 23.5576 35.4287C24.5322 35.7156 25.5237 35.9411 26.526 36.1038C27.8044 36.3117 29.0966 36.4226 30.3913 36.4353C30.6529 36.4377 30.9145 36.4395 31.1755 36.4395C31.7468 36.4395 32.3176 36.4323 32.8884 36.4172C33.3495 36.4052 33.8106 36.3859 34.2711 36.3594C34.6327 36.3389 34.9943 36.3117 35.3554 36.278C35.6278 36.2527 35.9002 36.2213 36.1715 36.1846C36.3656 36.1587 36.559 36.1273 36.7513 36.0918C36.8767 36.0682 37.0008 36.0417 37.125 36.011C37.1919 35.9947 37.2582 35.976 37.3233 35.9543C37.3384 35.9501 37.3534 35.9447 37.3685 35.9393C37.5553 35.8085 37.738 35.6717 37.9158 35.5288C38.0701 35.4046 38.2196 35.2744 38.3636 35.1382C38.486 35.0225 38.6029 34.9008 38.7138 34.7742C38.8072 34.6669 38.8946 34.5548 38.976 34.4379C39.0441 34.3396 39.1056 34.2372 39.1604 34.1305C39.2068 34.0407 39.2466 33.9478 39.2791 33.852C39.3322 33.7013 39.3593 33.5428 39.3611 33.3831C39.3623 33.1866 39.3111 32.9931 39.2134 32.8225C39.1909 32.7831 39.1654 32.7454 39.1371 32.7095C39.1025 32.749 39.0672 32.7877 39.0308 32.8256C38.8765 32.9865 38.7108 33.136 38.5342 33.2716C38.2937 33.459 38.0327 33.6175 37.756 33.7453C37.5993 33.8171 37.4378 33.8767 37.2727 33.9237C37.0967 33.9738 36.9158 34.0075 36.7338 34.025C36.2161 34.0726 35.6977 34.1076 35.1788 34.1305C34.5284 34.1606 33.8775 34.1763 33.2271 34.1763C32.7124 34.1775 32.1983 34.166 31.6848 34.1419C31.1959 34.1208 30.7083 34.0817 30.2225 34.025C29.8567 33.9804 29.492 33.9267 29.1292 33.8635C28.8363 33.8116 28.5433 33.7562 28.2516 33.6971C28.0853 33.664 27.9183 33.6314 27.7519 33.6001C27.5946 33.5705 27.4367 33.5446 27.2782 33.5211C26.9551 33.4741 26.6297 33.45 26.303 33.4494C26.1318 33.4494 25.9606 33.456 25.7895 33.4681C25.7039 33.4741 25.6183 33.4765 25.5321 33.4765C25.4043 33.4759 25.2765 33.4717 25.1488 33.4639C25.0005 33.4548 24.8528 33.4434 24.7046 33.4283C24.3592 33.3927 24.0144 33.3469 23.6715 33.2909C23.2821 33.2282 22.894 33.1565 22.5082 33.0751C22.1008 32.9895 21.6957 32.8949 21.2931 32.79C20.8935 32.6869 20.4969 32.5724 20.1039 32.4464C19.7369 32.3295 19.3746 32.1981 19.0178 32.0523C18.8557 31.986 18.6953 31.9148 18.5374 31.8395C18.3928 31.7708 18.2511 31.6967 18.1119 31.6171C17.9877 31.5466 17.8666 31.4694 17.7503 31.3856C17.6478 31.3127 17.5514 31.2319 17.461 31.1446C17.4435 31.1271 17.4332 31.103 17.4332 31.0783C17.4326 31.0535 17.4423 31.0294 17.4597 31.0113C17.4772 30.9939 17.5007 30.9836 17.5254 30.983C17.5508 30.983 17.5749 30.9927 17.5923 31.0101C17.6755 31.0909 17.7647 31.1656 17.8594 31.2332C17.9709 31.3127 18.086 31.3862 18.2053 31.4544C18.3403 31.5309 18.4778 31.6032 18.6182 31.6701C18.7731 31.7437 18.9304 31.8136 19.0889 31.8787C19.4409 32.0221 19.7983 32.1517 20.1606 32.2674C20.5505 32.3922 20.9441 32.5061 21.3401 32.6086C21.7403 32.7122 22.1424 32.8063 22.5468 32.8913C22.9301 32.972 23.3147 33.0431 23.7016 33.1058C24.0409 33.1607 24.3821 33.2059 24.7238 33.2414C24.8691 33.2559 25.0144 33.268 25.1602 33.2764C25.2844 33.2842 25.4085 33.2879 25.5327 33.2885C25.6141 33.2891 25.6954 33.286 25.7768 33.2806C25.9516 33.268 26.1276 33.2619 26.303 33.2613C26.6387 33.2625 26.9732 33.2873 27.3053 33.3355C27.4663 33.359 27.6266 33.3855 27.7863 33.4156C27.9539 33.447 28.1214 33.4795 28.2884 33.5133C28.5789 33.5717 28.87 33.6272 29.1617 33.6784C29.5216 33.7411 29.8826 33.7947 30.2448 33.8381C30.7258 33.8948 31.2092 33.9334 31.6932 33.9545C32.2037 33.978 32.7154 33.9894 33.2265 33.9888C33.8751 33.9882 34.5224 33.9732 35.1697 33.943C35.6863 33.9201 36.2016 33.8852 36.7157 33.8381C36.8869 33.8219 37.0563 33.7899 37.2214 33.7429C37.3775 33.6989 37.53 33.6423 37.6777 33.5748C37.9411 33.453 38.19 33.3017 38.419 33.1233C38.5884 32.9931 38.7475 32.8503 38.8952 32.696C38.9307 32.659 38.9654 32.6211 38.9988 32.5823ZM17.8166 28.6899C17.8167 28.6899 17.8167 28.6899 17.7897 28.7799L17.8167 28.6899C17.8664 28.7048 17.8946 28.7572 17.8797 28.8069C17.8648 28.8565 17.8126 28.8847 17.763 28.8699H17.7629C17.7629 28.8699 17.7628 28.8699 17.7628 28.8698L17.7603 28.8691C17.758 28.8685 17.7544 28.8675 17.7494 28.8662C17.7394 28.8637 17.724 28.86 17.7036 28.8558C17.6627 28.8474 17.6018 28.8369 17.524 28.8294C17.3683 28.8144 17.1452 28.8111 16.8792 28.859C16.3489 28.9545 15.6411 29.2547 14.9513 30.0855C14.9182 30.1254 14.859 30.1309 14.8191 30.0978C14.7792 30.0646 14.7737 30.0055 14.8068 29.9656C15.5254 29.1001 16.2729 28.7774 16.8459 28.6742C17.1314 28.6227 17.3721 28.626 17.5421 28.6425C17.6271 28.6508 17.6946 28.6622 17.7413 28.6719C17.7648 28.6767 17.783 28.681 17.7957 28.6842C17.802 28.6858 17.807 28.6872 17.8105 28.6882C17.8123 28.6887 17.8137 28.689 17.8147 28.6893L17.816 28.6898L17.8164 28.6899H17.8166ZM17.2681 27.7215L17.2674 27.7215L17.2651 27.7218L17.2559 27.7229C17.2477 27.7238 17.2357 27.7252 17.2202 27.7271C17.1891 27.731 17.1445 27.7367 17.0902 27.7443C16.9814 27.7595 16.8342 27.7822 16.6801 27.8119C16.5257 27.8417 16.3665 27.8782 16.2327 27.9209C16.1658 27.9423 16.107 27.9646 16.0591 27.9877C16.0101 28.0113 15.9778 28.0331 15.9596 28.0513C15.923 28.088 15.8635 28.088 15.8268 28.0513C15.7901 28.0147 15.7901 27.9552 15.8268 27.9186C15.8665 27.8788 15.9203 27.8461 15.9776 27.8185C16.036 27.7904 16.1037 27.765 16.1756 27.742C16.3194 27.6961 16.4868 27.6579 16.6446 27.6275C16.8027 27.5969 16.9533 27.5738 17.0641 27.5583C17.1196 27.5505 17.1653 27.5447 17.1971 27.5408C17.2131 27.5388 17.2256 27.5373 17.2341 27.5363L17.244 27.5352L17.2465 27.5349L17.2474 27.5348C17.2474 27.5348 17.2475 27.5348 17.2578 27.6281L17.2475 27.5348C17.299 27.5291 17.3454 27.5663 17.3511 27.6178C17.3568 27.6693 17.3196 27.7157 17.2681 27.7215ZM39.6904 20.5371C39.6944 20.5388 39.6984 20.5409 39.7023 20.5431C39.7535 20.5739 39.812 20.5914 39.8722 20.5944C39.8722 20.5944 39.8722 20.5944 39.8722 20.5938C39.8716 20.5817 39.8704 20.5697 39.868 20.5576C39.8638 20.5383 39.8578 20.519 39.8511 20.4998C39.8276 20.4377 39.7993 20.3774 39.7668 20.3195C39.7215 20.2406 39.6655 20.1689 39.6004 20.1056C39.5226 20.0278 39.4389 19.9573 39.3503 19.8928C39.2526 19.8223 39.152 19.756 39.0483 19.6951C38.944 19.633 38.8373 19.5746 38.7289 19.5197C38.5456 19.4263 38.3582 19.3401 38.1677 19.2611C38.0874 19.2273 38.0059 19.1951 37.9234 19.1651C37.9211 19.1646 37.9185 19.1642 37.9158 19.1636C37.8965 19.1598 37.8682 19.1543 37.8308 19.1478C37.756 19.1345 37.6476 19.1167 37.5113 19.0983C37.2395 19.0616 36.8598 19.0231 36.4282 19.0157C35.5616 19.0009 34.5002 19.1122 33.6812 19.6025C33.6367 19.6292 33.579 19.6147 33.5524 19.5702C33.5257 19.5257 33.5402 19.4681 33.5847 19.4414C34.4491 18.9239 35.5534 18.813 36.4312 18.828C36.8718 18.8354 37.2594 18.8748 37.5367 18.9122C37.6581 18.9286 37.7587 18.9447 37.8305 18.9572C37.8295 18.9538 37.8283 18.9504 37.8272 18.9471C37.8055 18.885 37.7802 18.8242 37.7512 18.7651C37.7102 18.6807 37.6644 18.5981 37.6144 18.5192C37.5475 18.4137 37.4752 18.3125 37.3974 18.2148C37.2986 18.0912 37.1937 17.9725 37.0828 17.8598C36.946 17.72 36.8025 17.5874 36.6525 17.4614C36.471 17.3083 36.283 17.163 36.0889 17.0262C36.0684 17.0118 36.0545 16.9901 36.0503 16.9654C36.0461 16.9406 36.0515 16.9153 36.066 16.8954C36.0805 16.8749 36.1022 16.8611 36.1269 16.8569C36.151 16.8526 36.1763 16.8581 36.1968 16.8725C36.3957 17.0124 36.588 17.1612 36.7736 17.3173C36.9279 17.4475 37.0756 17.5844 37.2172 17.7284C37.3323 17.8459 37.4414 17.9689 37.5445 18.0979C37.6265 18.2003 37.7024 18.3076 37.7729 18.4185C37.8272 18.5041 37.876 18.5921 37.9206 18.6831C37.9519 18.7488 37.9803 18.8157 38.0044 18.8844C38.0182 18.9248 38.0303 18.9664 38.0399 19.008C38.1074 19.0333 38.1743 19.0598 38.24 19.0882C38.4347 19.1683 38.6264 19.2563 38.8144 19.3522C38.9259 19.4088 39.0362 19.4697 39.1441 19.5336C39.2526 19.5975 39.3581 19.6668 39.46 19.7409C39.557 19.8102 39.6474 19.8874 39.7324 19.9712C39.8095 20.0471 39.8758 20.1327 39.9295 20.2267C39.9675 20.293 40 20.3629 40.0271 20.4347C40.0368 20.4618 40.0452 20.4895 40.0512 20.5172C40.0567 20.5413 40.0597 20.5661 40.0597 20.5908C40.0603 20.6179 40.0555 20.6456 40.0458 20.6709C40.0356 20.6987 40.0187 20.7228 39.9958 20.7414C39.9578 20.7704 39.9108 20.7848 39.8626 20.7818C39.818 20.78 39.7734 20.7722 39.7306 20.7589L39.5341 22.2013C39.5311 22.226 39.5178 22.2483 39.4979 22.2633C39.478 22.2784 39.4533 22.285 39.4286 22.2814C39.4039 22.2784 39.3816 22.2651 39.3665 22.2453C39.3515 22.2254 39.3448 22.2007 39.3485 22.1759L39.5519 20.6795C39.5173 20.6636 39.4824 20.6481 39.4473 20.633C39.3021 20.5697 39.1556 20.51 39.0073 20.4539C38.8048 20.3774 38.5993 20.3081 38.3913 20.2466C38.1641 20.1779 37.9326 20.1243 37.6988 20.0845C37.521 20.0561 37.3426 20.0369 37.163 20.0266C36.9442 20.0127 36.7248 20.0061 36.5054 20.0067C36.2583 20.0067 36.0118 20.014 35.7652 20.029C35.5187 20.0435 35.2728 20.067 35.0275 20.0989C34.8027 20.1273 34.5797 20.1677 34.3585 20.2189C34.262 20.2418 34.1662 20.2683 34.071 20.2984C33.9884 20.325 33.907 20.3551 33.8269 20.3901C33.4465 20.5612 33.0855 20.7734 32.7516 21.0235C32.6497 21.0995 32.5503 21.179 32.4544 21.2622C32.4195 21.2917 32.3851 21.3231 32.352 21.355C32.3345 21.3719 32.3104 21.3815 32.2851 21.3809C32.2604 21.3803 32.2369 21.3701 32.2194 21.3526C32.2019 21.3345 32.1929 21.3104 32.1935 21.2857C32.1935 21.2604 32.2043 21.2369 32.2218 21.2194C32.2574 21.1851 32.2941 21.1519 32.3321 21.12C32.4315 21.0338 32.534 20.9512 32.6395 20.8734C32.9842 20.6143 33.3573 20.3949 33.7509 20.2189C33.8371 20.1809 33.9251 20.1478 34.0143 20.1194C34.1138 20.0881 34.2144 20.0604 34.3157 20.0363C34.5429 19.9832 34.7725 19.9422 35.004 19.9127C35.2529 19.8801 35.503 19.8566 35.7544 19.8416C36.0045 19.8265 36.2546 19.8187 36.5054 19.8187C36.7284 19.8181 36.9514 19.8253 37.1744 19.8392C37.3601 19.85 37.5451 19.8699 37.7289 19.8988C37.9706 19.9398 38.2099 19.9959 38.445 20.0664C38.6571 20.1291 38.8669 20.1996 39.0736 20.2786C39.2249 20.3352 39.3744 20.3961 39.522 20.4606C39.5785 20.4853 39.6345 20.5106 39.6904 20.5371ZM39.2677 32.573C39.3081 32.6218 39.3442 32.6737 39.3762 32.7285C39.4907 32.928 39.5504 33.1547 39.5492 33.3849C39.5474 33.5651 39.516 33.7435 39.4569 33.9135C39.4214 34.0178 39.378 34.119 39.3274 34.2167C39.2689 34.3306 39.2026 34.4403 39.1303 34.5451C39.0453 34.6675 38.9531 34.7856 38.8548 34.8977C38.7403 35.0291 38.6198 35.1545 38.4926 35.2744C38.3449 35.4143 38.1918 35.5475 38.0333 35.6753C37.8471 35.8247 37.6548 35.9682 37.4583 36.105C37.433 36.1159 37.4065 36.1255 37.3799 36.1339C37.3106 36.1562 37.2407 36.1761 37.1696 36.193C37.0424 36.225 36.9146 36.2521 36.7857 36.2762C36.5904 36.3123 36.3939 36.3443 36.1968 36.3708C35.9231 36.4082 35.6483 36.4395 35.3729 36.4648C35.0094 36.4992 34.646 36.5263 34.2819 36.5468C33.819 36.5733 33.3561 36.5932 32.8932 36.6053C32.3206 36.6203 31.748 36.6276 31.1755 36.627C30.9133 36.627 30.6517 36.6258 30.3895 36.6234C29.0852 36.6107 27.7833 36.4986 26.4965 36.2888C25.4857 36.1255 24.4864 35.8983 23.5045 35.609C23.1332 35.4999 22.765 35.3799 22.3997 35.2509C22.1255 35.1533 21.853 35.0496 21.5836 34.9393C21.4137 34.8694 21.2449 34.7965 21.0773 34.7193C21.0189 34.6922 20.9598 34.6645 20.9019 34.635C20.9001 34.6337 20.8983 34.6331 20.8965 34.6319L16.0771 31.7774C16.0662 31.7714 16.0572 31.7636 16.05 31.7539C16.0307 31.7286 16.0126 31.7027 15.9951 31.6756C15.9529 31.6099 15.9137 31.5418 15.8794 31.4712C15.8312 31.3742 15.7926 31.2729 15.7631 31.1687C15.7281 31.0481 15.7094 30.9227 15.7088 30.7968C15.7088 30.7021 15.7203 30.6087 15.7432 30.5171C15.7691 30.4177 15.8089 30.3218 15.8613 30.2332C15.9216 30.1326 15.9951 30.041 16.0807 29.9608C16.1826 29.865 16.2953 29.7818 16.4164 29.7125C16.5111 29.6588 16.6177 29.6305 16.7268 29.6311C16.7931 29.6311 16.8588 29.6407 16.9215 29.66C18.1891 30.0397 19.4614 30.402 20.7386 30.7455C21.1605 30.8589 21.583 30.9686 22.0061 31.0752C22.413 31.1783 22.821 31.2765 23.2303 31.37C23.5943 31.4538 23.9602 31.5303 24.3272 31.5996C24.4852 31.6291 24.6431 31.6563 24.8016 31.681C24.9378 31.7021 25.074 31.7202 25.2108 31.7352C25.4971 31.7666 25.7828 31.8027 26.0679 31.8449C26.3639 31.8883 26.6598 31.9335 26.9557 31.9811C27.3614 32.0456 27.7676 32.1071 28.1745 32.1656C28.6386 32.2313 29.1039 32.2879 29.5698 32.3355C30.1171 32.3904 30.6655 32.432 31.2146 32.4603C31.8692 32.4935 32.5238 32.5091 33.1789 32.5085C33.7847 32.5085 34.3904 32.4965 34.9955 32.473C35.0004 32.473 35.0052 32.473 35.0094 32.473C35.0775 32.473 35.145 32.4712 35.2131 32.4681C35.35 32.4621 35.4862 32.4519 35.623 32.4386C36.0268 32.4 36.4276 32.3271 36.82 32.2216C37.0466 32.1602 37.2696 32.0836 37.4866 31.9926C37.7072 31.901 37.9194 31.7889 38.1189 31.6575C38.3178 31.5279 38.4986 31.3736 38.6577 31.1982C38.8193 31.0192 38.9513 30.8155 39.0483 30.5949C39.1453 30.3737 39.2418 30.1525 39.3376 29.9307C39.4178 29.7444 39.4991 29.5588 39.5811 29.3731C39.6354 29.2478 39.6932 29.1242 39.7541 29.0018C39.7752 28.9591 39.7981 28.9175 39.8222 28.8759C39.8403 28.8439 39.8608 28.8138 39.8837 28.7843C39.9024 28.7596 39.9247 28.7373 39.95 28.7186C39.9783 28.6975 40.0127 28.686 40.0482 28.6854C40.0826 28.686 40.1163 28.6975 40.1447 28.718C40.167 28.7342 40.1875 28.7541 40.2043 28.7764C40.2218 28.7993 40.2387 28.8228 40.2538 28.8475C40.2712 28.8759 40.2881 28.9036 40.3044 28.9325C40.3406 28.9916 40.3791 29.0483 40.4207 29.1037C40.4611 29.1586 40.5009 29.2146 40.5382 29.2719C40.5804 29.3364 40.6184 29.4033 40.6516 29.4726C40.6883 29.5503 40.7167 29.6311 40.7372 29.7143C40.7595 29.8083 40.7703 29.9047 40.7703 30.0018C40.7697 30.1091 40.7576 30.2157 40.7341 30.3206C40.7058 30.4466 40.6666 30.5695 40.6166 30.6883C40.5545 30.8335 40.4828 30.9752 40.4014 31.1108C40.3008 31.2784 40.1911 31.4411 40.0729 31.5966C39.9361 31.7798 39.7951 31.96 39.651 32.1372C39.5648 32.2445 39.475 32.3494 39.3828 32.4519C39.346 32.4935 39.3075 32.5338 39.2677 32.573ZM18.701 22.2487C19.0549 22.2075 19.4089 22.1627 19.7628 22.1151C20.0497 22.0771 20.336 22.0361 20.6217 21.9909C20.7428 21.9722 20.8634 21.9511 20.9833 21.9288C21.0695 21.9132 21.1551 21.8945 21.2401 21.8722C21.2907 21.8589 21.3425 21.8487 21.3944 21.8414C21.4534 21.833 21.5131 21.8264 21.5734 21.8215C21.7126 21.8119 21.8518 21.8071 21.9911 21.8083C22.1616 21.8089 22.3316 21.8125 22.5016 21.8191C22.6734 21.8264 22.8457 21.8342 23.0175 21.8432C23.1501 21.8499 23.2827 21.8565 23.4153 21.8619C23.525 21.8667 23.6347 21.8698 23.7444 21.8704C23.7685 21.8704 23.792 21.8698 23.8155 21.8692C23.9252 21.8661 24.0343 21.8607 24.1434 21.8529C24.3122 21.842 24.4809 21.8294 24.6491 21.8167C25.071 21.7836 25.4923 21.7486 25.9136 21.7118C26.4535 21.6648 26.9934 21.6165 27.5327 21.5665C27.4066 21.4833 27.2777 21.4041 27.1468 21.3285C26.8985 21.1851 26.6453 21.0513 26.3874 20.9271C26.1836 20.8288 25.9799 20.7312 25.7756 20.6348C25.6129 20.5576 25.4489 20.4829 25.2844 20.4099C25.1524 20.3515 25.0192 20.296 24.8842 20.2448C24.7727 20.202 24.6593 20.1634 24.5448 20.1297C24.3411 20.0712 24.1326 20.0326 23.9216 20.014C23.8053 20.0037 23.689 19.9977 23.5726 19.9947C23.4334 19.9911 23.2948 19.9892 23.1561 19.9898C23.0452 19.9898 22.9343 19.9904 22.8234 19.9911C22.6709 19.9917 22.5191 19.9923 22.3672 19.9923C22.2659 19.9923 22.1653 19.9917 22.0646 19.9917L22.0272 19.9911C21.5264 19.9898 21.0267 20.0489 20.5397 20.1664C20.1666 20.2575 19.8038 20.3864 19.4572 20.5516C19.227 20.6613 19.007 20.7897 18.7978 20.9355C18.7412 20.9753 18.6863 21.0169 18.6321 21.0609C18.6176 21.0729 18.6031 21.085 18.5887 21.0977C18.5549 21.1519 18.5193 21.2055 18.482 21.258C18.3873 21.393 18.2855 21.5226 18.1764 21.6461C18.1172 21.7127 18.0557 21.777 17.9918 21.8389C18.1411 21.9242 18.2904 22.01 18.4392 22.0964C18.5266 22.147 18.6139 22.1977 18.701 22.2487ZM27.6734 21.6594C27.6729 21.6801 27.6656 21.7003 27.6519 21.7167C27.6362 21.7359 27.6133 21.748 27.5886 21.7498C27.0359 21.801 26.4826 21.8511 25.9299 21.8987C25.508 21.9361 25.0861 21.971 24.6636 22.0036C24.4948 22.0168 24.3254 22.0289 24.1567 22.0403C24.0446 22.0482 23.9325 22.0542 23.8203 22.0572C23.795 22.0578 23.7697 22.0578 23.7444 22.0578C23.6317 22.0572 23.5196 22.0548 23.4075 22.0494C23.2743 22.0439 23.1411 22.0379 23.0079 22.0307C22.8367 22.0216 22.6649 22.0138 22.4937 22.0072C22.3262 21.9999 22.158 21.9963 21.9905 21.9957C21.8561 21.9951 21.721 21.9993 21.5866 22.009C21.5312 22.0132 21.4757 22.0192 21.4209 22.0271C21.3757 22.0337 21.3317 22.0427 21.2877 22.0542C21.1985 22.0771 21.1081 22.097 21.0171 22.1133C20.8953 22.1362 20.7736 22.1573 20.6512 22.1765C20.3637 22.2217 20.0756 22.2633 19.7875 22.3013C19.5154 22.3378 19.2429 22.3727 18.9704 22.4054C19.1513 22.5128 19.3322 22.6203 19.5126 22.7286C19.714 22.8492 19.9147 22.9721 20.1148 23.0957C20.3034 23.212 20.4909 23.3314 20.6765 23.4519C20.8314 23.5526 20.9845 23.6568 21.134 23.7647C21.1925 23.8069 21.2497 23.8503 21.3052 23.8955C21.3492 23.9299 21.3907 23.9667 21.4299 24.0058C21.4962 24.0715 21.5679 24.1318 21.6445 24.1848C21.7464 24.2566 21.8524 24.3223 21.9615 24.3813C22.099 24.4555 22.24 24.5236 22.3834 24.5851C22.5576 24.6604 22.7348 24.7285 22.9138 24.79C23.1254 24.8623 23.34 24.9286 23.5558 24.9871C23.8065 25.0558 24.059 25.1167 24.3128 25.1709C24.6033 25.233 24.8956 25.2872 25.1891 25.3336C25.5206 25.3867 25.854 25.4319 26.1879 25.4693C26.5381 25.5096 26.8894 25.5301 27.242 25.5307C27.4735 25.5313 27.7049 25.5211 27.9352 25.4994C28.1293 25.4807 28.3221 25.453 28.5138 25.4156C28.6723 25.3843 28.8296 25.3451 28.9839 25.2975C29.1093 25.2589 29.2329 25.2143 29.3534 25.1631C29.4468 25.1233 29.5384 25.0787 29.6276 25.0293C29.6915 24.9937 29.7536 24.9557 29.8139 24.9141C29.8501 24.8888 29.885 24.8623 29.9188 24.834C29.9215 24.8319 29.9241 24.8297 29.9266 24.8275C29.8858 24.7838 29.8497 24.7359 29.8175 24.6851C29.7669 24.6037 29.7241 24.5169 29.6897 24.4271C29.6554 24.3361 29.624 24.2445 29.5951 24.1517C29.5686 24.0673 29.5402 23.9835 29.5101 23.8997C29.477 23.8087 29.4396 23.7189 29.398 23.6309C29.357 23.5459 29.3154 23.461 29.272 23.3772C29.2226 23.2807 29.1696 23.1867 29.1129 23.0945C28.9701 22.8637 28.8037 22.6473 28.6169 22.4502C28.4987 22.3248 28.374 22.2061 28.2426 22.094C28.0877 21.9608 27.9261 21.836 27.7592 21.7185C27.7307 21.6986 27.7022 21.6789 27.6734 21.6594ZM33.0348 26.7813C32.8579 26.6571 32.6772 26.5381 32.4936 26.424C32.3773 26.3504 32.2592 26.2799 32.1386 26.213C32.1169 26.201 32.0916 26.198 32.0675 26.2046C32.0434 26.2112 32.0229 26.2275 32.0108 26.2492C31.9988 26.2709 31.9958 26.2968 32.0024 26.3203C32.0096 26.3444 32.0253 26.3649 32.047 26.377C32.1645 26.4427 32.2803 26.5114 32.3942 26.5831C32.5766 26.6967 32.7562 26.8149 32.9319 26.9384C32.9363 26.9429 32.9416 26.9462 32.9474 26.949C33.0423 27.0143 33.1358 27.0817 33.2283 27.1503C33.3995 27.2768 33.5665 27.4082 33.7292 27.5438C33.9028 27.6885 34.0704 27.8398 34.2325 27.9971C34.3964 28.1556 34.5519 28.3232 34.6978 28.498C34.8406 28.6673 34.9702 28.8476 35.0866 29.0356C35.0992 29.0567 35.1203 29.0724 35.1444 29.0778C35.1691 29.0838 35.1945 29.0796 35.2155 29.0663C35.2366 29.0531 35.2517 29.0326 35.2577 29.0079C35.2632 28.9838 35.2595 28.9585 35.2463 28.9374C35.1251 28.7409 34.9901 28.554 34.8419 28.3774C34.6912 28.1972 34.5314 28.0254 34.3633 27.8621C34.1981 27.7018 34.0264 27.5475 33.8498 27.3998C33.722 27.2934 33.5918 27.1896 33.4595 27.0885C33.4829 27.0928 33.5063 27.0969 33.5297 27.1008C33.6985 27.1298 33.8696 27.1442 34.0414 27.1442C34.3862 27.146 34.7285 27.0834 35.051 26.9604C35.1456 26.9242 35.2372 26.8821 35.3258 26.8332C35.3602 26.8151 35.394 26.7953 35.4259 26.773C35.4464 26.7591 35.4609 26.7374 35.4651 26.7127C35.4699 26.6886 35.4645 26.6633 35.4506 26.6428C35.4367 26.6223 35.415 26.6078 35.3903 26.603C35.3662 26.5988 35.3409 26.6036 35.3204 26.6181C35.2933 26.6361 35.2656 26.653 35.2366 26.6681C35.1553 26.7127 35.0709 26.7519 34.9841 26.785C34.6833 26.9001 34.3639 26.958 34.042 26.9562C33.8805 26.9562 33.7196 26.9429 33.5611 26.9158C33.382 26.8854 33.2059 26.8408 33.0348 26.7813ZM38.7933 25.9334C38.8114 25.9159 38.8349 25.9062 38.8603 25.9068C38.885 25.9068 38.9091 25.9171 38.9259 25.9352C38.9434 25.9526 38.9531 25.9768 38.9531 26.0015C38.9525 26.0268 38.9422 26.0503 38.9247 26.0678C38.8892 26.1027 38.8512 26.1353 38.812 26.166C38.7144 26.2438 38.6107 26.3137 38.5016 26.3752C38.3473 26.4626 38.184 26.5331 38.0146 26.5843C37.8067 26.6476 37.5903 26.6795 37.3733 26.6795C37.1322 26.6789 36.8929 26.6404 36.6645 26.5656C36.6404 26.5578 36.6211 26.5409 36.6097 26.5192C36.5982 26.4969 36.5964 26.471 36.6042 26.4475C36.6121 26.4234 36.6289 26.4041 36.6506 26.3926C36.6729 26.3812 36.6989 26.3794 36.7224 26.3872C36.9327 26.4559 37.1521 26.4909 37.3733 26.4921C37.5722 26.4915 37.7699 26.4626 37.9598 26.4047C38.1165 26.3571 38.2672 26.2926 38.4094 26.2118C38.5101 26.1552 38.6059 26.0901 38.6963 26.0183C38.7301 25.9918 38.7626 25.9635 38.7933 25.9334ZM38.3473 26.5638C38.3576 26.5415 38.3763 26.5234 38.3992 26.5144C38.4221 26.5053 38.448 26.5053 38.4709 26.5156C38.4938 26.5252 38.5119 26.5439 38.5209 26.5674C38.53 26.5903 38.5294 26.6162 38.5197 26.6392C38.4926 26.7006 38.4624 26.7603 38.4281 26.8182C38.3497 26.9562 38.2575 27.0858 38.1526 27.2051C38.087 27.2799 38.0158 27.3498 37.9405 27.4137C37.8579 27.4836 37.7693 27.5451 37.6753 27.5975C37.574 27.6541 37.4661 27.6981 37.3546 27.7289C37.2329 27.762 37.1069 27.7789 36.9803 27.7789C36.8544 27.7783 36.729 27.7632 36.6066 27.7337C36.4656 27.6994 36.3276 27.6505 36.1962 27.5878C36.1739 27.577 36.1564 27.5577 36.148 27.5342C36.1401 27.5107 36.1413 27.4848 36.1522 27.4625C36.1624 27.4402 36.1817 27.4227 36.2052 27.4143C36.2287 27.4058 36.2547 27.4076 36.277 27.4179C36.3969 27.4751 36.5223 27.5197 36.6512 27.5511C36.7591 27.577 36.8694 27.5903 36.9809 27.5909C37.09 27.5915 37.1991 27.5764 37.3052 27.5481C37.4022 27.5209 37.4957 27.4824 37.5837 27.4335C37.6668 27.3871 37.7458 27.3323 37.8187 27.2702C37.8874 27.2123 37.9519 27.1491 38.011 27.0816C38.108 26.9713 38.193 26.8513 38.266 26.7235C38.2961 26.6723 38.3238 26.6187 38.3473 26.5638ZM19.1996 24.0169C19.2269 23.9728 19.2849 23.9592 19.3289 23.9866L19.2794 24.0664L19.2299 24.1461C19.1858 24.1188 19.1723 24.0609 19.1996 24.0169ZM28.5705 17.3083C28.5548 17.289 28.5476 17.2637 28.5506 17.239C28.553 17.2143 28.5656 17.192 28.5849 17.1763C28.6048 17.1606 28.6295 17.1534 28.6542 17.1564C28.6789 17.1594 28.7019 17.1721 28.7169 17.1914C28.7814 17.2721 28.8447 17.3535 28.9068 17.4355C29.0502 17.6229 29.1895 17.8128 29.3245 18.0057C29.401 18.1154 29.4752 18.2263 29.5475 18.3384C29.6168 18.4444 29.6819 18.5529 29.744 18.6632C29.7976 18.7573 29.8452 18.8543 29.8862 18.9544C29.9025 18.9959 29.917 19.0387 29.9278 19.0815C29.9386 19.1201 29.9441 19.1593 29.9447 19.1991C29.9453 19.2232 29.9423 19.2473 29.9362 19.2702C29.9007 19.4052 29.8603 19.539 29.8157 19.671C29.8018 19.7132 29.7862 19.7548 29.7693 19.7958C29.7596 19.8193 29.7416 19.8374 29.7187 19.8464C29.6951 19.856 29.6692 19.856 29.6463 19.8464C29.6234 19.8368 29.6053 19.8187 29.5957 19.7958C29.5867 19.7723 29.5867 19.7463 29.5963 19.7234C29.6114 19.6873 29.6252 19.6499 29.6373 19.6119C29.6807 19.4836 29.7199 19.354 29.7548 19.2232C29.756 19.2159 29.7572 19.2093 29.7572 19.2021C29.7566 19.178 29.753 19.1533 29.7464 19.1298C29.7373 19.0942 29.7259 19.0592 29.712 19.0255C29.6741 18.9327 29.6301 18.8429 29.5806 18.7555C29.5204 18.6488 29.4571 18.5433 29.3902 18.4402C29.319 18.3299 29.2455 18.2208 29.1702 18.1135C29.037 17.9225 28.8989 17.7344 28.7579 17.5494C28.6958 17.468 28.6337 17.3879 28.5705 17.3083ZM28.5445 26.6634C28.5369 26.6619 28.5289 26.6603 28.5201 26.6586C28.4767 26.6498 28.414 26.6374 28.3367 26.6226C28.1821 26.5931 27.9685 26.554 27.7331 26.5159C27.2654 26.4401 26.7007 26.3664 26.3422 26.3825C25.9955 26.3981 25.3935 26.4214 24.7329 26.3896C24.0709 26.3577 23.3572 26.2706 22.7847 26.0685C22.5262 25.9773 22.2944 25.9 22.0877 25.8311C21.821 25.7421 21.5965 25.6673 21.4114 25.5947C21.2486 25.5309 21.1249 25.472 21.0362 25.4115C20.948 25.3511 20.9024 25.2945 20.8831 25.238C20.8628 25.1783 20.8182 25.1169 20.7671 25.0591C20.7142 24.9994 20.6469 24.9352 20.5716 24.8697C20.421 24.7385 20.2322 24.5966 20.049 24.4664C19.8652 24.3359 19.6853 24.216 19.5515 24.1288C19.4845 24.0852 19.429 24.0497 19.3901 24.0251C19.3707 24.0128 19.3555 24.0032 19.345 23.9967C19.3398 23.9934 19.3358 23.9909 19.3331 23.9892L19.3289 23.9866C19.3289 23.9866 19.3289 23.9866 19.2794 24.0664C19.2299 24.1461 19.2299 24.1461 19.2299 24.1461L19.2338 24.1486C19.2364 24.1502 19.2402 24.1526 19.2453 24.1558C19.2555 24.1622 19.2705 24.1716 19.2896 24.1837C19.3279 24.208 19.3828 24.2431 19.449 24.2862C19.5815 24.3725 19.7592 24.4909 19.9402 24.6195C20.1215 24.7482 20.3044 24.8861 20.4483 25.0113C20.5203 25.074 20.581 25.1322 20.6265 25.1836C20.6736 25.2368 20.6974 25.2752 20.7053 25.2984C20.7425 25.4078 20.8236 25.4936 20.9303 25.5665C21.0367 25.6392 21.1762 25.7043 21.3429 25.7695C21.5307 25.8431 21.7638 25.9209 22.0362 26.0118C22.243 26.0809 22.4726 26.1575 22.7222 26.2456C23.3204 26.4567 24.0557 26.5449 24.7238 26.5771C25.3934 26.6094 26.0026 26.5858 26.3507 26.5701C26.687 26.555 27.2334 26.6252 27.7031 26.7012C27.9363 26.739 28.1481 26.7778 28.3015 26.8071C28.3231 26.8112 28.3435 26.8151 28.3622 26.8188C28.3162 26.8625 28.2717 26.9082 28.2293 26.9556C28.1781 27.011 28.1323 27.0713 28.0913 27.1352C28.0551 27.1906 28.0268 27.2515 28.0087 27.3154C27.9864 27.4016 27.9551 27.4848 27.9141 27.5631C27.8689 27.6469 27.8152 27.7253 27.7538 27.797C27.6742 27.8886 27.5886 27.9748 27.4976 28.055C27.3758 28.1628 27.2505 28.2671 27.1215 28.3678C27.0805 28.3991 27.0371 28.4281 26.9925 28.454C26.9322 28.4895 26.8708 28.5227 26.8081 28.554C26.6471 28.6342 26.4832 28.7083 26.3175 28.777C26.1198 28.8596 25.9203 28.9386 25.7201 29.0139C25.5092 29.0935 25.297 29.1706 25.0843 29.246C24.7118 29.378 24.3369 29.5051 23.9608 29.6281C23.7974 29.6817 23.6341 29.7342 23.4702 29.7854C23.4467 29.7932 23.4268 29.8095 23.4153 29.8318C23.4039 29.8541 23.4015 29.8794 23.4087 29.9035C23.4165 29.927 23.4328 29.9469 23.4551 29.9584C23.4774 29.9698 23.5027 29.9722 23.5268 29.965C23.6914 29.9132 23.8553 29.8601 24.0192 29.8065C24.3966 29.6835 24.7727 29.5558 25.147 29.4232C25.3609 29.3472 25.5743 29.2695 25.7865 29.1893C25.9884 29.1134 26.1897 29.0338 26.3892 28.9506C26.5591 28.8801 26.7273 28.8042 26.8919 28.7222C26.9582 28.689 27.0233 28.6541 27.0871 28.6161C27.139 28.586 27.189 28.5528 27.2366 28.516C27.3686 28.4136 27.497 28.3063 27.6218 28.1954C27.7194 28.1098 27.811 28.0176 27.896 27.9193C27.9665 27.8368 28.0286 27.747 28.0798 27.6511C28.1275 27.5601 28.1642 27.4643 28.1901 27.3648C28.2028 27.3196 28.2227 27.2768 28.2486 27.2377C28.2842 27.1822 28.3245 27.1298 28.3685 27.081C28.4204 27.0231 28.4758 26.9682 28.5343 26.9164C28.5982 26.8598 28.6639 26.8061 28.7326 26.7561C28.8682 26.6548 29.0141 26.5668 29.1678 26.4945C29.2347 26.4632 29.304 26.4366 29.3745 26.4149C29.4318 26.3975 29.4914 26.386 29.5517 26.3824C29.6108 26.3782 29.6692 26.3667 29.7259 26.348C29.788 26.3275 29.8488 26.3022 29.9067 26.2721C30.0345 26.2064 30.1538 26.125 30.2623 26.0298C30.3172 25.9822 30.369 25.9309 30.4178 25.8767C30.4648 25.8243 30.5076 25.7688 30.5456 25.7097C30.5818 25.6543 30.6119 25.5952 30.6348 25.5331C30.6571 25.4741 30.6686 25.4114 30.6698 25.3481C30.6704 25.2685 30.6469 25.1902 30.6035 25.1233C30.5794 25.0877 30.5504 25.0564 30.5179 25.0287C30.4817 24.9991 30.4425 24.9732 30.4009 24.9527C30.3069 24.9063 30.2195 24.8478 30.1412 24.7791C30.0773 24.7225 30.0224 24.6574 29.9766 24.5857C29.9326 24.5139 29.8953 24.4386 29.8657 24.3602C29.8326 24.2734 29.8018 24.1848 29.7741 24.0956C29.747 24.0088 29.7181 23.922 29.6867 23.8365C29.6518 23.7388 29.612 23.6436 29.5674 23.5502C29.5258 23.4634 29.483 23.3766 29.439 23.291C29.3872 23.1903 29.3317 23.0921 29.2726 22.9957C29.1232 22.754 28.949 22.5279 28.7537 22.3212C28.6307 22.191 28.5011 22.0675 28.3649 21.9511C28.2052 21.8143 28.0389 21.6853 27.8665 21.5648C27.664 21.4231 27.4548 21.2899 27.2408 21.1658C26.9883 21.0205 26.7309 20.8843 26.4687 20.7583C26.265 20.6595 26.0607 20.5618 25.8558 20.4648C25.6918 20.387 25.5267 20.3117 25.3603 20.2382C25.2253 20.1785 25.0891 20.1218 24.9511 20.0694C24.8347 20.0248 24.7166 19.985 24.5973 19.9495C24.3821 19.8874 24.1615 19.8464 23.9379 19.8271C23.8179 19.8163 23.6974 19.8096 23.5768 19.8066C23.4364 19.803 23.296 19.8018 23.1555 19.8024C23.0446 19.8024 22.9337 19.8024 22.8222 19.803C22.6703 19.8036 22.5185 19.8042 22.3666 19.8042C22.2665 19.8042 22.1659 19.8042 22.0658 19.8036C22.0652 19.8036 22.0652 19.8036 22.0652 19.8036H22.0278C21.5119 19.8018 20.9972 19.8627 20.4951 19.9844C20.1093 20.0778 19.7344 20.211 19.3764 20.3822C19.1371 20.4961 18.9075 20.6299 18.6899 20.7818C18.6302 20.824 18.5712 20.8686 18.5145 20.9144C18.4898 20.9343 18.4657 20.9548 18.4428 20.9765C18.4066 21.0356 18.3687 21.0934 18.3289 21.1495C18.2379 21.2791 18.1402 21.4032 18.0354 21.5214C17.9721 21.5937 17.9052 21.6624 17.8358 21.7287C17.7641 21.7974 17.6888 21.8613 17.6092 21.9204C17.5321 21.9782 17.4507 22.0289 17.3651 22.0729C17.2844 22.1139 17.1994 22.1452 17.1108 22.1657C17.0794 22.1735 17.0469 22.1771 17.0143 22.1778C16.9836 22.1784 16.9529 22.1717 16.9257 22.1585C16.9052 22.147 16.8878 22.1307 16.8757 22.1108C16.8588 22.0825 16.8474 22.0512 16.8413 22.0192C16.8329 21.9752 16.8287 21.9312 16.8293 21.8866C16.8305 21.7968 16.8395 21.7064 16.857 21.6178C16.8739 21.528 16.8956 21.4388 16.9209 21.3508C16.9456 21.2622 16.9746 21.1748 17.0065 21.0886C17.1035 20.9892 17.2018 20.8915 17.3006 20.7945C17.5369 20.5624 17.7786 20.3364 18.0251 20.1164C18.1637 19.9923 18.3054 19.8717 18.4494 19.7542C18.5832 19.6439 18.7213 19.539 18.8629 19.4396C18.925 19.3956 18.9883 19.354 19.0528 19.3148C19.1088 19.2804 19.1661 19.2485 19.2245 19.2196C19.2716 19.1961 19.3204 19.1762 19.3704 19.1599C19.4072 19.1472 19.4451 19.1406 19.4843 19.14C19.5512 19.1267 19.6181 19.1147 19.685 19.1032C19.8562 19.0743 20.0274 19.0478 20.1992 19.0243C20.4408 18.9911 20.6837 18.9634 20.9266 18.9417C21.2039 18.9164 21.4818 18.9013 21.7596 18.8959C22.0055 18.8923 22.2508 18.8911 22.4962 18.8917C23.0561 18.8917 23.6166 18.8959 24.1766 18.9025C24.5288 18.9066 24.8811 18.9122 25.2333 18.9202C25.2412 18.9384 25.2547 18.9538 25.2717 18.964C25.6358 19.1816 26.0016 19.3956 26.3693 19.6059C26.6441 19.7638 26.9214 19.9181 27.2011 20.0676C27.3095 20.1261 27.4198 20.1815 27.5314 20.2352C27.5729 20.255 27.6145 20.2737 27.6573 20.2912C27.6887 20.3051 27.7212 20.3165 27.7544 20.3262C27.7646 20.3286 27.7743 20.3328 27.7833 20.3376C27.8002 20.3467 27.817 20.3569 27.8327 20.3684C27.8809 20.4021 27.9273 20.4383 27.9713 20.4775C28.0316 20.5305 28.0907 20.5847 28.1479 20.6408C28.2167 20.7083 28.2854 20.777 28.3523 20.8463C28.509 21.0091 28.6639 21.1748 28.8158 21.3424C28.9797 21.5226 29.143 21.704 29.3052 21.8854C29.4818 22.0837 29.6602 22.2802 29.8392 22.4761C29.9133 22.5575 29.9887 22.6376 30.0652 22.7166C30.1255 22.7799 30.1876 22.842 30.2515 22.9016C30.3449 22.9896 30.4257 23.0909 30.4901 23.2024C30.548 23.3024 30.5938 23.4091 30.627 23.5194C30.6776 23.6888 30.7035 23.8642 30.7029 24.0408C30.7035 24.0818 30.7017 24.1228 30.6975 24.1631C30.6951 24.1879 30.7023 24.2126 30.7186 24.2325C30.7343 24.2517 30.7566 24.2638 30.7819 24.2662C30.8066 24.2686 30.8313 24.2614 30.8506 24.2457C30.8699 24.23 30.8819 24.2071 30.8843 24.1824C30.8892 24.1348 30.8916 24.0872 30.891 24.0396C30.891 23.8449 30.8626 23.6514 30.8066 23.4658C30.7692 23.341 30.7174 23.2211 30.6529 23.1084C30.5794 22.9812 30.4871 22.8655 30.3798 22.7648C30.3184 22.7069 30.2587 22.6479 30.2008 22.587C30.1255 22.5086 30.0514 22.4291 29.9778 22.3495C29.7988 22.1542 29.6216 21.9578 29.4456 21.7607C29.2829 21.5786 29.1189 21.3966 28.9544 21.2158C28.8013 21.047 28.6458 20.8801 28.4873 20.7161C28.4192 20.645 28.3493 20.5751 28.2787 20.5064C28.2197 20.4485 28.1582 20.3919 28.0955 20.337C28.0461 20.293 27.9942 20.252 27.9406 20.2141C27.9189 20.199 27.896 20.1851 27.8725 20.1725C27.8514 20.161 27.8291 20.152 27.8056 20.1453C27.7797 20.1381 27.755 20.1291 27.7303 20.1182C27.6905 20.102 27.6513 20.0845 27.6127 20.0658C27.5036 20.014 27.3957 19.9591 27.2897 19.9018C27.0118 19.7536 26.7364 19.6005 26.4633 19.4432C26.1664 19.2735 25.8707 19.1015 25.5764 18.9271C25.7432 18.9313 25.9101 18.9357 26.077 18.9405C26.3639 18.9483 26.6508 18.9586 26.9371 18.9712C27.1733 18.9809 27.409 18.9941 27.6453 19.011C27.7369 19.017 27.8279 19.0249 27.9195 19.0339C27.9894 19.0411 28.0593 19.0496 28.1287 19.0598C28.1727 19.0659 28.2155 19.0743 28.2582 19.0864C28.2631 19.0876 28.2679 19.0894 28.2721 19.0912C28.2781 19.0996 28.2848 19.1087 28.292 19.1165C28.3041 19.131 28.3167 19.1448 28.3306 19.1581C28.3649 19.1918 28.4011 19.2238 28.4385 19.2545C28.5457 19.3431 28.6542 19.4293 28.7639 19.5143C28.9237 19.6385 29.0816 19.7638 29.2383 19.8916C29.4155 20.0357 29.5879 20.1857 29.7554 20.3406C29.9236 20.4955 30.0827 20.6595 30.2316 20.8331C30.3009 20.9144 30.3666 20.9988 30.4281 21.0856C30.4823 21.1622 30.5311 21.2417 30.5757 21.3243L30.8174 22.7485C30.8216 22.7732 30.8349 22.7955 30.8554 22.8094C30.8759 22.8239 30.9012 22.8299 30.9253 22.8257C30.95 22.8215 30.9717 22.8076 30.9862 22.7877C31.0007 22.7672 31.0067 22.7419 31.0025 22.7172L30.7584 21.2779C30.7566 21.2676 30.7535 21.258 30.7487 21.2495C30.6987 21.1555 30.6426 21.0645 30.5812 20.9777C30.5167 20.8855 30.4474 20.7963 30.3744 20.7107C30.2207 20.5323 30.0568 20.3623 29.8832 20.2026C29.7126 20.0447 29.5372 19.8928 29.357 19.7457C29.1991 19.6174 29.04 19.4908 28.8791 19.3654C28.7706 19.2822 28.6633 19.1967 28.5578 19.1099C28.5246 19.0821 28.4921 19.0532 28.4614 19.0231C28.4517 19.014 28.4427 19.0044 28.4342 18.9941C28.4306 18.9899 28.4276 18.9857 28.4252 18.9809C28.4107 18.9568 28.389 18.9375 28.3631 18.926C28.345 18.917 28.327 18.9104 28.3077 18.9049C28.2576 18.8911 28.207 18.8808 28.1552 18.8742C28.0828 18.8633 28.0105 18.8543 27.9376 18.8471C27.8448 18.838 27.7513 18.8302 27.6585 18.8236C27.4211 18.8067 27.183 18.7934 26.9455 18.7832C26.6574 18.7711 26.3699 18.7609 26.0824 18.7524C25.4477 18.735 24.8136 18.7223 24.179 18.7151C23.6178 18.7078 23.0573 18.7042 22.4962 18.7042C22.2496 18.7036 22.0031 18.7048 21.7566 18.7084C21.4739 18.7133 21.1912 18.7289 20.9098 18.7549C20.6639 18.7766 20.4185 18.8043 20.1738 18.838C20.0003 18.8621 19.8267 18.8887 19.6537 18.9182C19.5898 18.929 19.5259 18.9405 19.4626 18.9525C19.4108 18.9556 19.3602 18.9652 19.3113 18.9815C19.2529 19.0002 19.1956 19.0237 19.1408 19.0514C19.0769 19.0827 19.0148 19.1171 18.9545 19.1545C18.8864 19.1961 18.8201 19.24 18.755 19.2859C18.6092 19.3883 18.4675 19.4962 18.3301 19.6089C18.1842 19.7283 18.0408 19.8506 17.9003 19.976C17.6514 20.1984 17.4073 20.4262 17.1692 20.6601C17.0601 20.7674 16.9516 20.8753 16.8456 20.985C16.8052 21.088 16.7702 21.1929 16.7401 21.2996C16.7136 21.393 16.6907 21.487 16.6726 21.5823C16.6533 21.6823 16.6424 21.783 16.6412 21.8848C16.6406 21.9415 16.6461 21.9987 16.6569 22.0542C16.6672 22.1084 16.687 22.1603 16.7148 22.2079C16.7449 22.2567 16.7877 22.2971 16.8383 22.3248C16.8938 22.3531 16.9553 22.367 17.0173 22.3658C17.0632 22.3652 17.109 22.3592 17.1542 22.3489C17.2566 22.3248 17.3567 22.2881 17.4507 22.2398C17.5453 22.1916 17.6363 22.1344 17.7219 22.0705C17.766 22.0377 17.8091 22.0034 17.8506 21.9671C17.8567 21.9759 17.8651 21.9829 17.8744 21.9885C18.0317 22.0777 18.1884 22.1681 18.3452 22.2585C18.7038 22.4659 19.0606 22.6762 19.4156 22.8896C19.6169 23.0101 19.817 23.1319 20.0159 23.2554C20.2034 23.3712 20.3896 23.4893 20.5741 23.6098C20.7265 23.7087 20.8766 23.8111 21.0243 23.9172C21.0803 23.9576 21.1346 23.9992 21.1882 24.042C21.2262 24.0727 21.263 24.1047 21.2979 24.139C21.3715 24.2126 21.4516 24.2795 21.5366 24.3385C21.6445 24.4145 21.7566 24.4838 21.8723 24.5465C22.0146 24.6236 22.161 24.6941 22.3099 24.758C22.4883 24.8346 22.6691 24.9045 22.853 24.9672C23.0687 25.0413 23.2863 25.1082 23.5063 25.1685C23.7601 25.2378 24.0162 25.2999 24.2736 25.3547C24.5677 25.4168 24.8631 25.4723 25.1596 25.5193C25.4941 25.5729 25.8298 25.6181 26.1668 25.6555C26.5236 25.6965 26.8822 25.7176 27.2414 25.7188C27.4789 25.7194 27.7164 25.7085 27.9527 25.6862C28.1534 25.6676 28.3523 25.6386 28.55 25.5994C28.7151 25.5675 28.8784 25.5265 29.0394 25.4771C29.1708 25.4367 29.2998 25.3897 29.4263 25.3361C29.5264 25.2933 29.6234 25.2462 29.7181 25.1938C29.788 25.1552 29.8549 25.1136 29.9206 25.0684C29.9616 25.0401 30.0007 25.0106 30.0387 24.9786C30.0468 24.9719 30.0546 24.965 30.0625 24.958C30.1412 25.0209 30.2265 25.0755 30.3172 25.1209C30.3461 25.1353 30.3726 25.1528 30.3979 25.1733C30.4166 25.189 30.4329 25.2071 30.4468 25.2276C30.4697 25.2625 30.4817 25.3041 30.4817 25.3463C30.4811 25.3879 30.4733 25.4289 30.4588 25.4674C30.4407 25.5169 30.4172 25.5633 30.3883 25.6073C30.3557 25.6579 30.3184 25.7061 30.278 25.7513C30.2346 25.7995 30.1882 25.8454 30.1388 25.8882C30.0417 25.9731 29.935 26.0467 29.8205 26.1057C29.7711 26.1311 29.7199 26.1527 29.6674 26.1696C29.6258 26.1835 29.5824 26.1919 29.539 26.1949C29.4643 26.1998 29.3908 26.2136 29.3196 26.2353C29.2401 26.2594 29.1623 26.2896 29.0876 26.3245C28.9231 26.4023 28.7663 26.4963 28.6211 26.6048C28.5952 26.6238 28.5696 26.6433 28.5445 26.6634Z" fill="#1B1D1C"/>
<path fill-rule="evenodd" clip-rule="evenodd" d="M27.5436 4.2664C29.1066 4.0417 30.5412 3.93219 31.5769 4.04465C33.6375 4.26869 35.0161 4.94495 35.9503 5.69704C36.8839 6.44864 37.3679 7.27185 37.6457 7.77983C37.7217 7.91851 37.788 8.14032 37.8476 8.41263C37.9073 8.6876 37.9628 9.0232 38.0128 9.3955C38.1134 10.1402 38.196 11.0373 38.2611 11.9014C38.3262 12.7658 38.3738 13.5986 38.4052 14.2151C38.4208 14.5234 38.4329 14.7777 38.4407 14.955C38.4443 15.0436 38.4474 15.113 38.4492 15.1602C38.4492 15.1606 38.4492 15.161 38.4492 15.1614C38.4853 15.1718 38.5378 15.1882 38.6167 15.2144C38.8343 15.287 39.255 15.4362 40.0693 15.743C40.8902 16.0523 41.728 16.4873 42.4416 16.936C43.1535 17.3838 43.7472 17.8496 44.075 18.2226C44.4065 18.5995 44.5458 19.0078 44.5126 19.3309C44.4963 19.4931 44.4355 19.6374 44.3288 19.7403C44.2209 19.8443 44.0744 19.8987 43.9015 19.8932C43.8147 19.8905 43.6851 19.8638 43.5302 19.8231C43.3729 19.7817 43.1824 19.7237 42.9702 19.6543C42.5459 19.5156 42.0324 19.3305 41.5219 19.1393C40.5015 18.7571 39.4907 18.3498 39.2297 18.2397C39.1152 18.1915 38.9663 18.1691 38.8012 18.1654C38.6372 18.1617 38.4642 18.1765 38.3045 18.1985C38.1454 18.2203 38.0019 18.2489 37.8983 18.2721C37.8464 18.2836 37.8049 18.2938 37.7759 18.3011C37.7615 18.3047 37.7506 18.3076 37.7434 18.3096C37.7398 18.3106 37.7367 18.3113 37.7349 18.3118L37.7331 18.3123L37.7325 18.3125V18.3125C37.6825 18.3263 37.6307 18.2971 37.6168 18.2471C37.6029 18.1971 37.6325 18.1454 37.6825 18.1315L37.6849 18.1408C37.6825 18.1315 37.6825 18.1315 37.6825 18.1315L37.6831 18.1313L37.6855 18.1306C37.6879 18.13 37.6909 18.1292 37.6952 18.1281C37.6988 18.1271 37.7036 18.1257 37.7096 18.1243C37.7157 18.1227 37.7223 18.121 37.7301 18.119C37.7603 18.1114 37.8036 18.1008 37.8573 18.0888C37.9646 18.0649 38.1135 18.0351 38.2792 18.0124C38.4444 17.9897 38.6282 17.9737 38.8054 17.9776C38.9814 17.9816 39.1574 18.0054 39.3026 18.0667C39.5612 18.1756 40.569 18.582 41.5876 18.9635C42.0969 19.1542 42.608 19.3384 43.0287 19.4758C43.2391 19.5446 43.4259 19.6014 43.5778 19.6415C43.7327 19.6822 43.8442 19.7036 43.9075 19.7055C44.0353 19.7096 44.1311 19.67 44.1986 19.6052C44.2667 19.5394 44.3131 19.4399 44.3258 19.3118C44.3523 19.0544 44.2414 18.6959 43.934 18.3466C43.6236 17.9935 43.0474 17.5392 42.3416 17.095C41.637 16.6518 40.8101 16.2229 40.003 15.9187C39.1893 15.6121 38.7716 15.464 38.5571 15.3926C38.4498 15.3568 38.3949 15.3408 38.3678 15.3338C38.3594 15.3315 38.3545 15.3305 38.3521 15.3299C38.3359 15.3288 38.3202 15.3236 38.3063 15.3144C38.281 15.2977 38.2659 15.2699 38.2647 15.2398L38.2888 15.2388C38.2647 15.2397 38.2647 15.2398 38.2647 15.2398V15.2395L38.2635 15.2215C38.2635 15.2094 38.2623 15.1914 38.2617 15.1679C38.2599 15.1208 38.2569 15.0516 38.2527 14.9632C38.2454 14.7863 38.2334 14.5325 38.2177 14.2247C38.1864 13.6091 38.1388 12.778 38.0737 11.9155C38.0092 11.0528 37.9266 10.16 37.8272 9.42063C37.7771 9.05092 37.7223 8.72087 37.6638 8.45277C37.6047 8.18197 37.5427 7.98319 37.4812 7.86993C37.2075 7.37009 36.7374 6.57208 35.8325 5.84332C34.928 5.11504 33.5838 4.45174 31.5566 4.23132C30.5455 4.12156 29.1304 4.228 27.5703 4.45228C26.0122 4.67625 24.3166 5.01662 22.7475 5.3712C21.1786 5.72567 19.7374 6.09411 18.6883 6.3739C18.1639 6.51379 17.7375 6.63151 17.4423 6.71426C17.2947 6.75561 17.1798 6.78822 17.102 6.81052C17.063 6.82161 17.0333 6.83017 17.0134 6.83595L16.9908 6.84246L16.9903 6.84258C16.9894 6.84306 16.9883 6.84355 16.9873 6.84403C16.9846 6.84536 16.9814 6.84686 16.9776 6.84873C16.9647 6.85488 16.9456 6.86428 16.9207 6.87676C16.8711 6.90177 16.7986 6.93938 16.7086 6.98917C16.5284 7.08874 16.2779 7.23713 15.9973 7.43175C15.4352 7.82178 14.7575 8.39419 14.2817 9.12789C13.8021 9.86732 13.2664 11.0503 12.9997 12.1075C12.8663 12.6366 12.8022 13.1266 12.8421 13.5106C12.882 13.8954 13.0223 14.1499 13.2748 14.2543C13.3825 14.2989 13.4944 14.345 13.609 14.3922C14.1288 14.6063 14.703 14.8428 15.1941 15.0621C15.4938 15.1957 15.7643 15.3239 15.9737 15.4371C16.0782 15.4938 16.1691 15.5475 16.2412 15.5972C16.3111 15.6453 16.3716 15.6949 16.4074 15.7448C16.4233 15.767 16.4745 15.8143 16.5703 15.8844C16.6623 15.9517 16.7866 16.0338 16.938 16.1258C17.2408 16.3098 17.6487 16.5311 18.118 16.7505C19.0583 17.1898 20.2365 17.6168 21.3041 17.7217C21.8358 17.774 22.7356 17.7326 23.8273 17.6396C24.9165 17.5467 26.1888 17.4031 27.4615 17.2532C27.8058 17.2127 28.1503 17.1717 28.4913 17.131C30.6658 16.8721 32.6979 16.6302 33.6271 16.6384C34.6974 16.6478 36.1273 16.7246 37.4492 16.8548C38.7674 16.9845 39.9891 17.1683 40.6371 17.3947C41.2784 17.6191 41.7889 17.8736 42.1397 18.0723C42.3145 18.1716 42.4501 18.2571 42.5423 18.3179C42.5881 18.3484 42.6231 18.3727 42.6472 18.3894C42.6586 18.3979 42.6677 18.4044 42.6743 18.4089C42.6773 18.4111 42.6797 18.4129 42.6809 18.4141L42.6827 18.4155L42.6833 18.4159L42.6839 18.416V18.4161C42.7255 18.4472 42.734 18.5061 42.7026 18.5475C42.6713 18.589 42.6128 18.5974 42.5712 18.5663M42.5712 18.5663L42.5706 18.5661L42.5694 18.5651C42.5688 18.5644 42.5676 18.5636 42.5658 18.5625L42.5634 18.5607C42.5598 18.5579 42.555 18.5544 42.5483 18.5499C42.5453 18.5478 42.5423 18.5453 42.5387 18.5428C42.5164 18.527 42.4826 18.5038 42.4386 18.4745C42.35 18.4158 42.218 18.3327 42.0469 18.2356C41.7045 18.0415 41.2042 17.7921 40.575 17.572C39.9512 17.354 38.7505 17.1716 37.4306 17.0416C36.1138 16.912 34.6895 16.8355 33.6255 16.8261C32.7094 16.818 30.6924 17.0582 28.514 17.3175C28.1732 17.358 27.8285 17.3991 27.4834 17.4397C26.2107 17.5895 24.9358 17.7335 23.8432 17.8267C22.7533 17.9196 21.837 17.9628 21.2857 17.9086C20.1876 17.8007 18.9871 17.3638 18.0385 16.9206C17.5635 16.6986 17.1495 16.474 16.8405 16.2863C16.6861 16.1925 16.5571 16.1074 16.4595 16.0359C16.3655 15.9672 16.2906 15.9041 16.2548 15.8543C16.239 15.8322 16.2014 15.7977 16.1348 15.7519C16.0703 15.7075 15.9858 15.6573 15.8843 15.6023C15.6812 15.4924 15.4158 15.3666 15.1176 15.2335C14.6293 15.0155 14.0581 14.7803 13.5385 14.5663C13.4236 14.5189 13.3113 14.4726 13.203 14.4279C12.8576 14.285 12.6983 13.9448 12.6553 13.53C12.6122 13.1143 12.6819 12.5996 12.8176 12.0616C13.0894 10.9842 13.6334 9.78233 14.1241 9.02573C14.6185 8.2634 15.3179 7.67459 15.8903 7.27751C16.177 7.07855 16.4331 6.92684 16.6177 6.8248C16.7101 6.77375 16.7846 6.73506 16.8363 6.70908C16.8621 6.69606 16.8822 6.68617 16.896 6.67954C16.9029 6.67623 16.9082 6.6737 16.9118 6.67201L16.916 6.67002L16.9171 6.66954L16.9174 6.66936L16.9175 6.6693C16.9176 6.6693 16.9176 6.6693 16.9571 6.75446C16.9308 6.66436 16.9308 6.6643 16.931 6.6643L16.9613 6.6555C16.9814 6.64971 17.0113 6.64115 17.0503 6.62994C17.1285 6.60758 17.2436 6.57491 17.3916 6.53344C17.6875 6.45051 18.1146 6.33255 18.6399 6.19242C19.6906 5.91221 21.1342 5.54316 22.7061 5.18803C24.2778 4.8329 25.9787 4.49134 27.5436 4.2664M16.9571 6.75446L16.9308 6.66436C16.9263 6.66568 16.9218 6.66731 16.9175 6.6693L16.9571 6.75446Z" fill="#1B1D1C"/>
<path fill-rule="evenodd" clip-rule="evenodd" d="M42.0623 16.8617C42.0864 16.8683 42.1069 16.884 42.1189 16.9057C42.1316 16.9274 42.1346 16.9533 42.128 16.9768C42.1214 17.0009 42.1057 17.0214 42.084 17.0341C42.0629 17.0461 42.037 17.0497 42.0129 17.0431C41.9484 17.0256 41.8833 17.0081 41.8182 16.9919C41.635 16.9449 41.4517 16.899 41.2673 16.8557C40.623 16.7026 39.9744 16.5651 39.3235 16.4428C38.4296 16.2734 37.5298 16.136 36.6257 16.0299C36.1296 15.9727 35.6324 15.9268 35.1339 15.8943C34.6306 15.8605 34.1262 15.8437 33.6217 15.8425C33.1407 15.8419 32.6603 15.8605 32.1805 15.9003C31.7183 15.9401 31.2566 15.9859 30.7949 16.0384C30.3392 16.0896 29.8841 16.1456 29.4297 16.2059C28.9873 16.2644 28.5449 16.3259 28.1031 16.3897L26.8337 16.5766C26.3962 16.6423 25.9592 16.7062 25.5216 16.7689C25.1226 16.8267 24.7236 16.8798 24.3246 16.9292C23.9726 16.9732 23.62 17.0099 23.2662 17.0395C22.9684 17.0648 22.6689 17.0787 22.3699 17.0805C22.2596 17.0805 22.1499 17.0781 22.0396 17.072C21.9414 17.0666 21.8425 17.0582 21.7449 17.0455C21.3133 16.9907 20.883 16.9244 20.4551 16.8484C20.2556 16.8123 20.0573 16.7725 19.8596 16.7285C19.6763 16.6881 19.4937 16.6429 19.3129 16.5923C19.1489 16.5465 18.9868 16.494 18.8271 16.4355C18.6854 16.3843 18.5468 16.324 18.413 16.2565C18.2961 16.1975 18.1846 16.1282 18.0809 16.0486C17.9381 15.9407 17.8229 15.8003 17.7446 15.6393C17.8965 15.6556 18.0484 15.6677 18.2002 15.6743C18.4438 15.6864 18.6873 15.6924 18.9314 15.6924C19.2068 15.6924 19.4829 15.6852 19.7583 15.6701C20.0784 15.6532 20.3984 15.6249 20.7166 15.5857C21.0572 15.5435 21.3959 15.485 21.731 15.4103C22.0686 15.3356 22.4013 15.2379 22.7255 15.118C22.8654 15.0661 23.007 15.0191 23.1505 14.9769C23.3108 14.9299 23.4717 14.8871 23.6345 14.8486C24.0021 14.7618 24.3728 14.687 24.7459 14.6256C25.16 14.5562 25.5758 14.496 25.9929 14.4447C26.4311 14.3911 26.8699 14.3441 27.3087 14.3037C28.1616 14.2253 29.0162 14.1663 29.8715 14.1265C30.241 14.109 30.611 14.0952 30.9805 14.0855C31.2819 14.0771 31.5826 14.0729 31.884 14.0722C31.9304 14.0722 31.9768 14.0729 32.0226 14.0729C32.5705 14.0777 33.1184 14.1024 33.6645 14.1476C34.2636 14.1952 34.8609 14.2639 35.4552 14.3549C35.7487 14.3995 36.0404 14.4514 36.3315 14.5092C36.6082 14.5641 36.883 14.6274 37.1555 14.6985C37.4062 14.763 37.6533 14.8377 37.898 14.9227C38.1132 14.9968 38.3242 15.0842 38.5291 15.1843C38.5514 15.1951 38.5689 15.2144 38.5767 15.2379C38.5851 15.2614 38.5833 15.2874 38.5725 15.3097C38.5616 15.332 38.5424 15.3494 38.5188 15.3573C38.4953 15.3651 38.4694 15.3639 38.4471 15.353C38.2488 15.256 38.0451 15.1716 37.8366 15.0999C37.5967 15.0167 37.3544 14.9438 37.1085 14.8799C36.839 14.81 36.5678 14.7479 36.2948 14.6937C36.0067 14.6358 35.7174 14.5852 35.4268 14.5406C34.8368 14.4502 34.2443 14.3821 33.6494 14.335C33.1075 14.2904 32.5651 14.2657 32.0214 14.2609C31.9756 14.2603 31.9298 14.2603 31.884 14.2603C31.5844 14.2609 31.2855 14.2651 30.9859 14.2736C30.6171 14.2832 30.2488 14.2965 29.8805 14.3139C29.0277 14.3537 28.176 14.4122 27.3262 14.4905C26.8886 14.5309 26.4522 14.5773 26.0158 14.6316C25.6018 14.6822 25.1883 14.7419 24.7766 14.8106C24.4078 14.8721 24.0413 14.945 23.6779 15.0312C23.5187 15.0692 23.3602 15.1114 23.2035 15.1572C23.0643 15.1981 22.9269 15.2434 22.7912 15.294C22.4585 15.4169 22.118 15.517 21.7714 15.5935C21.4309 15.6701 21.0861 15.7292 20.7395 15.7719C20.4171 15.8117 20.0928 15.8407 19.7679 15.8575C19.4895 15.8726 19.2104 15.8804 18.9314 15.8798C18.6842 15.8804 18.4377 15.8744 18.1918 15.8624C18.1761 15.8611 18.1611 15.8605 18.1454 15.8599C18.1617 15.8738 18.1779 15.8871 18.1942 15.8991C18.2895 15.9721 18.3907 16.0353 18.4974 16.0884C18.6252 16.1535 18.7566 16.2101 18.8916 16.2596C19.0465 16.3162 19.2044 16.3668 19.3635 16.4114C19.5407 16.4609 19.7197 16.5055 19.8999 16.5452C20.0952 16.5886 20.2911 16.6278 20.4882 16.6634C20.9131 16.7393 21.3405 16.8044 21.7684 16.8593C21.8618 16.8713 21.9559 16.8798 22.0499 16.8846C22.156 16.89 22.2626 16.893 22.3693 16.8924C22.6635 16.8912 22.9576 16.8773 23.2505 16.8526C23.6013 16.8231 23.9515 16.7869 24.3011 16.7429C24.6995 16.6935 25.0973 16.6405 25.4945 16.5832C25.9321 16.5205 26.369 16.456 26.806 16.3909L28.0766 16.2041C28.519 16.1402 28.962 16.0787 29.405 16.0197C29.8606 15.9594 30.3169 15.9033 30.7738 15.8515C31.2373 15.7991 31.7008 15.7533 32.1649 15.7135C32.6495 15.6731 33.1359 15.6538 33.6223 15.655C34.131 15.6556 34.6391 15.6731 35.1466 15.7068C35.648 15.74 36.1483 15.7858 36.6474 15.8437C37.5557 15.9497 38.4598 16.0878 39.3578 16.2583C40.0124 16.3807 40.6634 16.5193 41.3107 16.673C41.4957 16.717 41.6802 16.7622 41.8646 16.8098C41.9303 16.8267 41.9966 16.8442 42.0623 16.8617ZM17.486 6.58033C17.4993 6.60142 17.5035 6.62734 17.4981 6.65145C17.492 6.67556 17.4776 6.69665 17.4559 6.70991C17.4348 6.72317 17.4095 6.72739 17.3854 6.72197C17.3613 6.71594 17.3402 6.70148 17.3269 6.67978C17.298 6.63397 17.2835 6.58093 17.2853 6.52668C17.2859 6.47726 17.2949 6.42844 17.3106 6.38143C17.3245 6.33924 17.342 6.29825 17.3619 6.25847C17.383 6.21568 17.4065 6.17529 17.433 6.13612C17.5451 5.94023 17.6915 5.76664 17.8663 5.6238C17.958 5.54966 18.055 5.48215 18.1569 5.42309C18.2672 5.3592 18.3805 5.30194 18.4974 5.25131C18.6264 5.19586 18.7578 5.14523 18.891 5.10063C19.0399 5.0506 19.1905 5.00479 19.3418 4.96321C19.5112 4.9168 19.6818 4.8728 19.8529 4.83181C20.044 4.7854 20.2357 4.7414 20.4279 4.69861C20.5563 4.66907 20.6859 4.64677 20.8161 4.6305C20.9258 4.61664 21.0367 4.61001 21.1476 4.6094C21.2609 4.6088 21.3742 4.61784 21.4857 4.63713C21.5767 4.6534 21.6665 4.67872 21.7527 4.71247C21.8859 4.7643 22.0059 4.84507 22.1041 4.94814C22.1692 5.01866 22.2217 5.10002 22.2584 5.18863C22.2747 5.226 22.2868 5.26578 22.294 5.30556C22.2982 5.33027 22.2922 5.35558 22.2783 5.37607C22.2638 5.39657 22.2422 5.41043 22.2174 5.41465C22.1927 5.41887 22.1674 5.41344 22.1475 5.39898C22.127 5.38451 22.1132 5.36281 22.1089 5.3381C22.1041 5.31219 22.0963 5.28627 22.0854 5.26216C22.0577 5.19405 22.0173 5.13137 21.9673 5.07712C21.8877 4.99394 21.7913 4.92885 21.684 4.88726C21.6099 4.85773 21.5327 4.83603 21.4538 4.82217C21.3525 4.80529 21.2507 4.79685 21.1482 4.79745C21.0451 4.79745 20.9415 4.80408 20.839 4.81674C20.7148 4.83241 20.5913 4.85411 20.4689 4.88184C20.2779 4.92403 20.0868 4.96863 19.8963 5.01444C19.7276 5.05482 19.5594 5.09822 19.3918 5.14463C19.2436 5.18501 19.0965 5.23021 18.9513 5.27904C18.8229 5.32183 18.6963 5.37005 18.5721 5.42369C18.4618 5.47131 18.3546 5.52555 18.2515 5.58522C18.1581 5.64007 18.0689 5.70155 17.9851 5.76966C17.8266 5.89924 17.6934 6.05716 17.5927 6.23557C17.5692 6.26992 17.5481 6.30548 17.53 6.34225C17.5137 6.37419 17.4999 6.40674 17.489 6.4411C17.4788 6.47003 17.4734 6.50077 17.4728 6.53151C17.4722 6.54899 17.477 6.56586 17.486 6.58033Z" fill="#1B1D1C"/>
</g>
</g>
<defs>
<clipPath id="clip0_3933_11658">
<rect width="50" height="50" fill="white"/>
</clipPath>
</defs>
</svg>
