<svg width="50" height="51" viewBox="0 0 50 51" fill="none" xmlns="http://www.w3.org/2000/svg">
<g clip-path="url(#clip0_3930_10505)">
<path d="M50 25.5C50 11.6929 38.8071 0.5 25 0.5C11.1929 0.5 0 11.6929 0 25.5C0 39.3071 11.1929 50.5 25 50.5C38.8071 50.5 50 39.3071 50 25.5Z" fill="#170659"/>
<path d="M18.3444 20.4512C18.1665 20.2426 17.8966 20.1268 17.6083 20.1268H11.6642C11.6151 20.1268 11.5722 20.1094 11.5354 20.0804C11.5047 20.0514 11.4863 20.0167 11.4863 19.9761V16.1928C11.4863 16.1522 11.5047 16.1175 11.5354 16.0885C11.5722 16.0537 11.6151 16.0364 11.6642 16.0421H17.9457C19.5283 16.0421 20.8962 16.6563 22.0494 17.8788L23.5769 19.6401L20.6018 23.0642L18.3444 20.4512ZM29.3246 17.8614C30.4717 16.6505 31.8458 16.0421 33.4468 16.0421H39.71C39.7529 16.0364 39.7958 16.0537 39.8265 16.0769C39.8569 16.1059 39.8694 16.1464 39.863 16.1928V19.9761C39.863 20.0167 39.8509 20.0514 39.8265 20.0804C39.7958 20.1152 39.7529 20.1325 39.71 20.1268H33.7658C33.4836 20.121 33.2137 20.2426 33.0297 20.4512L28.6498 25.486L33.0481 30.5556C33.226 30.7468 33.4897 30.8626 33.7596 30.8568H39.7036C39.7465 30.8511 39.7958 30.8742 39.8201 30.9032C39.8448 30.9379 39.863 30.9843 39.8569 31.0249V34.8083C39.8569 34.8488 39.8448 34.8836 39.8201 34.9126C39.7897 34.9471 39.7465 34.9647 39.7036 34.9589H33.4468C31.8458 34.9589 30.484 34.3447 29.343 33.1222L25.6993 28.9217L22.0556 33.1222C20.9085 34.3447 19.5344 34.9589 17.9334 34.9589H11.6642C11.6213 34.9647 11.5722 34.9414 11.5477 34.9126C11.517 34.8778 11.5047 34.8312 11.5109 34.7907V31.0075C11.5109 30.9669 11.5231 30.9322 11.5477 30.9032C11.5784 30.8684 11.6213 30.8511 11.6642 30.8568H17.6083C17.8904 30.8568 18.1603 30.7352 18.3444 30.5324L22.6444 25.5729L29.3246 17.8614Z" fill="#00D1FF"/>
</g>
<defs>
<clipPath id="clip0_3930_10505">
<rect width="50" height="50" fill="white" transform="translate(0 0.5)"/>
</clipPath>
</defs>
</svg>
