<svg width="50" height="50" viewBox="0 0 50 50" fill="none" xmlns="http://www.w3.org/2000/svg">
<path d="M25 50C38.8071 50 50 38.8071 50 25C50 11.1929 38.8071 0 25 0C11.1929 0 0 11.1929 0 25C0 38.8071 11.1929 50 25 50Z" fill="#6FBCF0"/>
<path fill-rule="evenodd" clip-rule="evenodd" d="M12.8896 37.9638C15.3896 42.2998 19.8818 44.8974 24.8818 44.8974C29.8818 44.8974 34.374 42.2998 36.874 37.9638C39.374 33.6279 39.374 28.4521 36.874 24.1162L26.3271 5.83496C25.6826 4.72168 24.081 4.72168 23.4365 5.83496L12.8896 24.1162C10.3701 28.4521 10.3701 33.6279 12.8896 37.9638ZM21.9131 14.5263L24.1591 10.6201C24.4716 10.0732 25.292 10.0732 25.6045 10.6201L34.2568 25.6201C35.8388 28.374 36.1513 31.5576 35.1552 34.4873C35.0576 34.0185 34.9013 33.5302 34.706 33.042C33.5146 30.0146 30.7998 27.6904 26.6591 26.1279C23.8076 25.0537 21.9912 23.4521 21.2685 21.4013C20.331 18.7451 21.3271 15.8545 21.9131 14.5263ZM18.0654 21.167L15.5068 25.6201C13.5537 29.0185 13.5537 33.0615 15.5068 36.4599C17.4599 39.8584 20.9756 41.8701 24.8818 41.8701C27.4795 41.8701 29.9013 40.9716 31.8154 39.3896C32.0693 38.7646 32.831 36.4795 31.874 34.1162C30.9951 31.9287 28.8857 30.1904 25.5849 28.9404C21.874 27.5341 19.4521 25.3271 18.3974 22.3974C18.2607 21.9873 18.163 21.5771 18.0654 21.167Z" fill="white"/>
</svg>
