<svg width="48" height="48" viewBox="0 0 48 48" fill="none" xmlns="http://www.w3.org/2000/svg">
<path fill-rule="evenodd" clip-rule="evenodd" d="M-9.11314e-07 24C-9.11314e-07 37.255 10.7449 48 23.9996 48C37.2544 48 48 37.255 48 24C48 10.745 37.2544 0 23.9996 0C10.7449 0 -9.11314e-07 10.745 -9.11314e-07 24Z" fill="white"/>
<path d="M25.8796 21.6437L35.067 12.5357L31.5817 9.08057L24.1373 16.4608L16.6927 9.08057L13.2073 12.5357L22.3945 21.6437C22.8757 22.1206 23.5064 22.3592 24.1371 22.3592C24.7677 22.3592 25.3984 22.1208 25.8796 21.6437ZM39.1793 31.3736L31.7349 23.9933L39.1793 16.6129L35.694 13.1578L26.5071 22.2658C25.5448 23.2199 25.5448 24.7667 26.5071 25.7209L35.694 34.8289L39.1793 31.3736ZM24.1243 31.5382L31.5687 38.9184L35.0538 35.4633L25.8668 26.3553C24.9042 25.4012 23.3442 25.4012 22.3815 26.3553L13.1946 35.4633L16.6799 38.9184L24.1243 31.5382ZM21.7543 25.7334C22.2166 25.2751 22.4761 24.6538 22.4761 24.0058C22.4761 23.3579 22.2166 22.7364 21.7543 22.2783L12.5673 13.1703L9.08203 16.6254L16.5264 24.0056L9.08203 31.3861L12.5673 34.8412L21.7545 25.7332L21.7543 25.7334Z" fill="black"/>
</svg>
