<svg width="50" height="51" viewBox="0 0 50 51" fill="none" xmlns="http://www.w3.org/2000/svg">
<g clip-path="url(#clip0_3930_10541)">
<path d="M25.1008 50.4296C38.8153 50.4296 49.9331 39.2525 49.9331 25.4648C49.9331 11.6771 38.8153 0.5 25.1008 0.5C11.3863 0.5 0.268555 11.6771 0.268555 25.4648C0.268555 39.2525 11.3863 50.4296 25.1008 50.4296Z" fill="black"/>
<path d="M40.6162 13.6722V16.3492L9.79492 32.1385V29.4601L10.9151 28.886C11.332 28.6724 11.6767 28.3396 11.906 27.9295C12.1352 27.5194 12.2387 27.0504 12.2034 26.5813C12.1782 26.25 12.1656 25.9175 12.1656 25.5836C12.1653 23.1663 12.8299 20.7961 14.0858 18.7347C15.3417 16.6734 17.1401 15.0013 19.2822 13.9032C21.4243 12.8052 23.8266 12.3239 26.2237 12.5127C28.6208 12.7014 30.9194 13.5528 32.8653 14.9727L30.4242 16.2233C28.8004 15.3116 26.9678 14.8422 25.108 14.8616C23.2482 14.881 21.4257 15.3885 19.821 16.3338C18.2163 17.2792 16.8851 18.6297 15.9594 20.2514C15.0335 21.8731 14.5452 23.7099 14.5428 25.5797C14.543 26.0483 14.5734 26.5164 14.634 26.9811L40.6162 13.6722Z" fill="white"/>
<path d="M16.2862 31.4815L40.6162 19.0273V21.6965L39.4948 22.2707C39.0783 22.4845 38.734 22.8174 38.5048 23.2274C38.276 23.6375 38.1726 24.1064 38.2078 24.5753C38.2327 24.9083 38.2458 25.2452 38.2458 25.5821C38.2448 27.9991 37.5793 30.3688 36.3229 32.4294C35.0666 34.49 33.2679 36.1613 31.1258 37.2585C28.9837 38.356 26.5816 38.8366 24.1849 38.6472C21.7881 38.4581 19.4901 37.6064 17.5446 36.1866L19.8474 35.0067L19.9778 34.9372C21.602 35.8528 23.4361 36.3254 25.2981 36.3078C27.1601 36.2905 28.9852 35.7838 30.5922 34.8382C32.1992 33.8925 33.5322 32.5407 34.4589 30.917C35.3857 29.2933 35.8736 27.4541 35.875 25.5821C35.8746 25.1105 35.8444 24.6393 35.7837 24.1715L9.79492 37.4845V34.8087L16.2862 31.4815Z" fill="white"/>
</g>
<defs>
<clipPath id="clip0_3930_10541">
<rect width="50" height="50" fill="white" transform="translate(0 0.5)"/>
</clipPath>
</defs>
</svg>
