<svg width="50" height="50" viewBox="0 0 50 50" fill="none" xmlns="http://www.w3.org/2000/svg">
<circle cx="25" cy="25" r="25" fill="white"/>
<path d="M50 25C50 11.18 38.7931 0 25 0C11.18 0 0 11.18 0 25C0 38.7931 11.18 50 25 50C38.7931 50 50 38.7931 50 25Z" fill="url(#paint0_radial_3923_2688)"/>
<path d="M41.3729 18.0213C41.2651 18.6409 41.1574 18.9372 40.9957 19.2605C40.8341 19.6377 40.6724 20.0418 40.5108 20.9038C40.4569 21.2271 40.4031 21.4965 40.3761 21.712V21.739C40.3222 22.0892 40.2953 22.3316 40.1606 22.7357C40.0528 23.0859 39.8643 23.6517 39.4063 24.2443C39.0291 24.7293 38.4095 25.5644 37.5744 25.6721C37.4936 25.6721 37.3589 25.6721 37.2781 25.6452C34.9074 24.4329 32.8869 23.5439 32.1865 23.3553C31.3783 23.1129 31.486 21.3349 31.5668 19.7724C31.6207 19.0719 31.6477 18.3984 31.6207 17.8327C31.513 15.8392 31.1627 13.684 29.4386 12.6334C28.4149 12.0137 27.0679 11.8252 25.8018 11.8252C26.0442 11.7174 26.2867 11.5558 26.583 11.3941C27.3373 10.9631 28.2533 10.4243 29.1962 10.3165C29.4925 10.2896 29.7888 10.2627 30.0852 10.2088C31.944 9.99326 33.5604 9.80469 35.2576 10.3974C36.0388 10.6668 37.6013 11.5288 38.0054 12.364C38.3018 12.9297 38.7867 13.3877 39.7296 14.2767C40.2414 14.7346 40.5647 15.004 40.8071 15.2196C41.1574 15.489 41.2112 15.5698 41.319 15.7584C41.6423 16.4049 41.5345 17.0784 41.3729 18.0213Z" fill="white"/>
<path d="M32.7792 26.1833C32.887 26.2103 32.9409 26.345 32.8601 26.4527C32.6176 26.8299 32.3213 27.3687 31.971 27.9883C31.8094 28.2846 31.6478 28.581 31.5131 28.7965C31.0551 29.5777 31.0282 30.2512 31.0012 30.7631C30.9743 31.3288 30.9473 31.5713 30.5971 31.7868C30.3277 31.9754 30.0314 32.0292 28.0917 32.3256C27.7415 32.3794 27.6068 32.4333 27.4721 32.5141C27.4452 32.5411 27.3913 32.5411 27.3644 32.568C27.2566 32.6219 27.1488 32.5141 27.1488 32.4064C27.1758 32.137 27.1758 31.7868 27.1758 31.3288V31.248C27.1758 30.8708 27.1758 30.5475 27.1488 30.3051C27.1219 29.8202 27.1219 29.6047 27.2566 29.3891C27.4182 29.1197 27.5529 29.0389 27.7415 28.9042C28.0379 28.7157 28.4419 28.4732 29.0077 27.665C29.331 27.234 29.3848 26.9915 29.4387 26.8029C29.4657 26.7221 29.4657 26.6952 29.7081 26.5066C29.9506 26.318 30.7318 25.7254 31.7286 25.887C32.0519 25.9409 32.4021 26.0486 32.7792 26.1833Z" fill="white"/>
<path d="M25.0472 35.1286C24.9933 35.1825 24.9664 35.2095 24.8856 35.2095C24.67 35.2095 24.5353 35.1556 24.4545 35.0478C24.266 34.8054 24.2929 34.3204 24.3198 34.0241L25.155 33.8086C25.2088 34.2666 25.2358 34.8862 25.0472 35.1286Z" fill="white"/>
<path d="M25.1016 32.1647C25.0746 32.2724 25.0746 32.4071 25.0746 32.5688C25.0746 32.6226 25.0746 32.6765 25.0746 32.7304C25.0746 32.8651 25.0746 33.0806 25.0746 33.1884C24.8052 33.2692 24.5897 33.2692 24.3203 33.2692C24.3203 33.1884 24.3203 33.0537 24.3203 32.9729C24.3203 32.919 24.3203 32.8382 24.3203 32.7843C24.3203 32.7035 24.3203 32.6496 24.3203 32.5688C24.3203 32.4071 24.3203 32.1647 24.3473 32.0839C24.4281 32.0839 24.5089 32.0569 24.5897 32.03C24.7513 32.003 24.9938 31.9492 25.1285 31.9761C25.1285 32.03 25.1285 32.1108 25.1016 32.1647Z" fill="white"/>
<path d="M23.5924 34.8848C23.5655 35.3158 23.4308 35.8277 23.0267 35.9085C22.8381 35.9354 22.7573 35.8815 22.7034 35.8277C22.434 35.5852 22.4071 34.8309 22.434 34.2921C22.6226 34.2921 22.8381 34.2652 23.1075 34.2113C23.2691 34.1843 23.4308 34.1305 23.5655 34.1035C23.5924 34.319 23.6194 34.5884 23.5924 34.8848Z" fill="white"/>
<path d="M23.4046 33.3763L22.5156 33.6996C22.5695 33.3494 22.6234 32.8645 22.6503 32.5412C22.6773 32.3257 22.7311 32.2449 22.7581 32.2179C22.7581 32.2179 22.785 32.191 22.812 32.191C22.812 32.191 22.812 32.191 22.8389 32.191H22.8658L23.4316 32.1641C23.4046 32.4335 23.4046 33.0261 23.4046 33.3763Z" fill="white"/>
<path d="M21.9492 33.107C21.8953 33.2417 21.8414 33.6189 21.8145 33.8883L20.71 33.8614C20.7638 33.5111 20.8716 33.1609 20.9524 32.8915C21.0602 32.6221 21.141 32.4066 21.2488 32.3527C21.3565 32.2989 21.599 32.2719 21.7606 32.4066C22.0031 32.5683 22.0569 32.8107 21.9492 33.107Z" fill="white"/>
<path d="M21.545 36.5287C21.4642 36.6364 21.3564 36.7173 21.2487 36.7173C21.114 36.7442 21.0332 36.6903 20.9523 36.6364C20.6021 36.3132 20.6291 35.2625 20.656 34.7507C21.114 34.6429 21.6258 34.5621 21.8683 34.5352C21.8683 34.9393 21.8952 36.0438 21.545 36.5287Z" fill="white"/>
<path d="M20.0903 33.807C20.0364 33.9417 19.9825 34.0764 19.9556 34.2111C19.8209 34.2649 19.4168 34.2111 19.0127 34.1302L19.2821 32.3792C19.7401 32.2445 20.2789 32.2175 20.3866 32.3522C20.5752 32.5408 20.225 33.4298 20.0903 33.807Z" fill="white"/>
<path d="M19.5792 36.7722C19.3637 37.0416 19.0404 37.1763 18.5824 37.1493C18.2591 37.1493 18.1514 37.0146 18.0975 36.9338C17.855 36.5297 18.0975 35.5868 18.34 34.9941L19.8486 35.075C19.8755 35.1827 19.8755 35.3174 19.8755 35.4521C19.9025 35.9101 19.8486 36.4489 19.5792 36.7722Z" fill="white"/>
<path d="M32.079 24.029C30.705 23.6518 30.8397 21.6583 30.9475 19.7186C30.9744 19.0451 31.0283 18.3986 31.0014 17.8598C30.8936 16.0548 30.5973 14.0882 29.1425 13.1992C27.58 12.2563 25.0208 12.4718 23.4583 12.6604C22.8925 12.8221 22.3537 12.9568 21.9227 12.9298C21.0068 12.8759 20.2794 12.4988 19.6328 12.1486C19.1479 11.8792 18.7169 11.6367 18.2859 11.6367C18.2589 11.6367 18.232 11.6367 18.232 11.6367C17.0197 11.7175 16.454 12.0139 15.9421 12.4718C15.8074 12.5796 15.6458 12.9029 15.1339 14.3846C14.8645 15.1389 14.8376 15.543 14.7837 15.9201C14.7298 16.2703 14.7029 16.6475 14.5143 17.2132C14.3796 17.5904 14.2719 17.9137 14.191 18.2369C13.9486 19.0721 13.7331 19.7456 13.1404 20.5537C13.0596 20.6346 12.9788 20.7962 12.871 20.9309C12.7363 21.1464 12.5747 21.4158 12.3322 21.7121C12.1706 21.9277 11.8203 22.7359 11.8473 22.9783C11.8742 23.3824 12.0089 23.6249 12.1436 23.8943C12.2783 24.1637 12.4669 24.4869 12.4938 24.9449V25.0257C12.5477 25.7262 12.44 26.0764 11.1199 27.2617C10.2848 28.016 9.66517 28.7434 9.26108 29.2822C9.23414 29.3361 9.26108 29.39 9.3419 29.39C9.36884 29.39 9.36884 29.39 9.36884 29.39C9.39578 29.39 9.42272 29.39 9.44966 29.39C9.4766 29.39 9.50354 29.39 9.53048 29.39C9.55742 29.39 9.58435 29.39 9.61129 29.39C9.93457 29.4169 10.2578 29.5516 10.4734 29.794C10.5003 29.8479 10.5811 29.8479 10.635 29.821C10.8505 29.7402 11.093 29.7402 11.3085 29.7671C11.5779 29.794 11.8742 29.8749 12.0628 30.0634C12.1167 30.1173 12.1975 30.1443 12.2783 30.1173C12.4938 30.0634 12.7363 30.0634 12.9518 30.1443C13.1134 30.1981 13.2751 30.3059 13.3828 30.4406C13.4637 30.5214 13.5984 30.5484 13.7061 30.4945C13.76 30.4675 13.8408 30.4137 13.9216 30.3867C14.218 30.279 14.5413 30.3328 14.8106 30.4406C14.9453 30.4945 15.08 30.5214 15.2147 30.6292C15.4303 30.7908 15.5919 31.0063 15.6727 31.2488C15.7266 31.3835 15.9152 31.4374 16.0229 31.3296C16.2384 31.168 16.4001 31.141 16.5617 31.1949C16.6425 31.2218 16.6964 31.2757 16.7503 31.3565C16.8311 31.4643 16.9658 31.5721 17.0736 31.5182C17.5316 31.3835 18.0703 31.4643 18.4744 31.6798C18.6091 31.7606 18.7708 31.8684 18.8516 32.03V31.9492C18.8516 31.9223 18.8785 31.8953 18.9055 31.8684L18.9863 31.8415C19.2018 31.7606 20.3333 31.4374 20.7643 31.8953C20.7913 31.9223 20.8182 31.9223 20.8451 31.8953C20.899 31.8415 20.9529 31.7876 20.9798 31.7876C21.2762 31.6259 21.7611 31.599 22.0844 31.8953C22.1382 31.9492 22.246 31.9223 22.2999 31.8684C22.3268 31.8145 22.3538 31.7876 22.4076 31.7606C22.5154 31.6529 22.677 31.6259 22.8387 31.6259L23.4583 31.599C23.6199 31.599 24.1048 31.5451 24.2395 31.5182H24.2665C24.3203 31.5182 24.4012 31.4912 24.482 31.4643C24.7783 31.4104 25.1285 31.3296 25.3979 31.4643C25.6673 31.599 25.6404 31.8953 25.6134 32.1647C25.6134 32.2725 25.5865 32.3803 25.5865 32.488C25.5865 32.5419 25.5865 32.5958 25.5865 32.6496C25.5865 32.8921 25.5865 33.1076 25.5596 33.2693L25.5865 33.404C25.5865 33.404 25.5865 33.404 25.5865 33.4309C25.6134 33.5387 25.7481 33.6195 25.829 33.5387C26.0445 33.404 26.26 33.2423 26.3408 33.1346V33.1076C26.3408 33.0807 26.3678 33.0268 26.3947 32.919C26.4216 32.6766 26.4755 32.2186 26.4755 31.2757C26.4755 31.2218 26.4755 31.1949 26.4755 31.168C26.4755 30.8178 26.4755 30.5214 26.4486 30.279C26.4216 29.7671 26.3947 29.363 26.6641 28.9589C26.9066 28.5548 27.149 28.4201 27.3915 28.2585C27.6609 28.0968 27.9572 27.9083 28.4691 27.2078C28.7115 26.8576 28.7384 26.7229 28.7654 26.6152C28.8193 26.3458 28.9001 26.1841 29.3042 25.9147C29.6275 25.6723 30.5703 24.9449 31.8634 25.1604C32.2945 25.2412 32.968 25.4568 33.6684 25.7262C33.6953 25.7262 33.7223 25.7531 33.7492 25.7531H33.7762C34.3958 25.9956 34.9615 26.265 35.3656 26.4805C35.4464 26.5343 35.5542 26.5074 35.635 26.4266C35.7697 26.265 35.9044 26.1841 36.0391 26.0764C36.093 26.0494 36.1469 26.0225 36.1738 25.9956C36.2007 25.9956 36.2007 25.9686 36.2007 25.9686C36.3085 25.8878 36.3085 25.6723 36.1738 25.6184C34.3688 24.7294 32.6447 24.1906 32.079 24.029ZM19.0941 24.4331C18.663 26.265 15.8074 28.3124 14.5143 28.3124H14.4874C14.4604 28.3124 14.4335 28.3124 14.4335 28.3124C14.4066 28.3124 14.3796 28.3124 14.3527 28.2854C14.3257 28.2854 14.3257 28.2854 14.2988 28.2854C14.0563 28.2046 13.7331 28.043 13.4906 27.8005C13.329 27.6389 13.1943 27.4234 13.1404 27.2348C13.1404 27.2078 13.1134 27.154 13.1134 27.127C13.0326 26.8037 12.9518 26.4266 13.2212 25.78C13.2481 25.6992 13.302 25.6184 13.329 25.5376C13.329 25.5106 13.3559 25.4837 13.3559 25.4568C13.3828 25.3759 13.4098 25.3221 13.4367 25.2682C13.4637 25.1604 13.5175 25.0796 13.5445 25.0257C13.5445 24.9988 13.5714 24.9718 13.5714 24.9449C13.6522 24.7294 13.6522 24.6486 13.6792 24.5678C13.6792 24.5139 13.7061 24.4061 13.7331 24.2984C13.8139 23.9481 13.8678 23.6518 13.8947 23.4093C13.9486 22.9514 14.0294 22.5473 14.2719 22.1701C14.3257 22.1162 14.3527 22.0624 14.4066 22.0085C14.4335 21.9815 14.4335 21.9815 14.4604 21.9546C14.4874 21.9277 14.4874 21.9277 14.5143 21.9007C14.5682 21.8468 14.649 21.8199 14.7029 21.793C14.7298 21.793 14.7568 21.766 14.7837 21.766C14.8376 21.7391 14.8915 21.7391 14.9453 21.7121C15.1878 21.6583 15.4572 21.6583 15.7805 21.6852C16.1307 21.7122 16.454 21.766 16.7234 21.8468C16.9658 21.9007 17.1813 21.9815 17.343 22.0624C17.3699 22.0624 17.3699 22.0893 17.3969 22.0893C17.4238 22.1162 17.4507 22.1162 17.5046 22.1432C17.5585 22.1701 17.5854 22.1701 17.6393 22.1971C17.6932 22.224 17.7471 22.2509 17.8009 22.2779L17.8548 22.3048C18.0434 22.3856 18.232 22.4934 18.3667 22.6012C18.4475 22.655 18.5014 22.7089 18.5553 22.7628C18.5822 22.7897 18.6091 22.7897 18.6091 22.8167C18.6361 22.8436 18.6361 22.8436 18.663 22.8706C19.2287 23.3555 19.2018 24.029 19.0941 24.4331ZM20.441 17.4557L20.3872 17.779C20.2525 18.5333 19.9561 19.557 18.8785 19.8264C17.8279 20.0688 17.5854 20.1227 16.8581 20.1766C16.8311 20.1766 16.8311 20.1766 16.8042 20.1766C16.2654 20.1766 15.2147 19.8264 15.0262 18.9912C14.9184 18.4525 15.1609 18.0484 15.538 17.4018C15.5919 17.294 15.6727 17.1863 15.7535 17.0516C16.2923 16.1626 16.4809 15.516 16.6425 15.0042C16.8042 14.4923 16.9389 14.0882 17.2891 13.738C17.3699 13.6572 17.4507 13.5764 17.5585 13.5225C17.6124 13.4686 17.6932 13.4417 17.774 13.3878C17.8818 13.3339 17.9895 13.307 18.0973 13.2531C18.3397 13.1723 18.6091 13.1453 18.8516 13.1453C19.3634 13.1453 19.8753 13.28 20.2255 13.5764C20.3872 13.7111 20.6296 13.9535 20.7643 14.7348C20.8182 15.1389 20.7104 15.8662 20.441 17.4557ZM28.1727 19.6109C27.7956 20.2574 27.607 20.6076 27.2837 20.877C26.6372 21.4158 25.9098 21.5236 25.2902 21.5236C24.8591 21.5236 24.482 21.4428 24.2395 21.4158C23.593 21.3081 22.4346 21.0925 22.0305 20.1496C21.9497 19.9611 21.9497 19.8533 21.9497 19.6917C21.9497 19.557 21.9497 19.2876 21.8688 18.7218V18.6949C21.8419 18.4255 21.815 18.1292 21.8688 17.752V17.6981C22.0844 16.5667 22.1652 16.405 22.1921 16.2973C22.2999 16.0818 22.5693 15.974 22.8117 16.1087C23.0272 16.2165 23.1081 16.4859 23.0272 16.7014C23.0003 16.7553 22.9464 16.9977 22.7578 17.8867V17.9406C22.704 18.1831 22.7309 18.3716 22.7578 18.6141V18.641C22.8387 19.2876 22.8387 19.557 22.8387 19.7186C22.8387 19.7456 22.8387 19.7725 22.8387 19.7994V19.8264C22.9195 20.015 23.0811 20.1227 23.2697 20.2305C23.4044 20.2843 23.5391 20.1766 23.5122 20.0419C23.3236 19.0451 23.3236 17.8867 23.7007 17.1593C23.8354 16.9169 24.0509 16.5397 24.2665 16.1626C24.2934 16.1356 24.3203 16.0818 24.3203 16.0548C24.3473 16.0279 24.3473 16.0009 24.3742 15.974C24.482 15.8124 24.5628 15.6777 24.6436 15.543C24.6436 15.516 24.6706 15.516 24.6706 15.4891L24.6975 15.4621C24.7244 15.4352 24.7244 15.4083 24.7514 15.3813C24.7514 15.3813 24.7514 15.3544 24.7783 15.3544L24.8053 15.3275C24.8053 15.3005 24.8322 15.3005 24.8322 15.2736C24.913 15.1658 24.9938 15.0581 25.0477 14.9503C25.1555 14.8156 25.0208 14.654 24.8861 14.7078C24.5089 14.8695 24.2665 15.0581 24.2126 15.085C24.024 15.2466 23.7277 15.2197 23.566 15.0042C23.4044 14.8156 23.4313 14.5193 23.6469 14.3576C23.8893 14.169 25.1285 13.28 26.6102 13.6841C27.6878 13.9805 28.2266 14.8156 28.4421 15.1119C28.6038 15.3544 29.1425 16.1087 29.1156 17.1863C29.1156 17.9675 28.7923 18.5602 28.1727 19.6109Z" fill="white"/>
<path d="M18.5284 14.0879C18.4476 14.2765 18.3668 14.492 18.259 14.7344C18.0435 15.3002 17.7741 15.9467 17.6394 16.1892C17.4239 16.5933 17.2622 16.8627 17.1275 17.0513C16.9659 17.2937 16.8582 17.4823 16.7504 17.7517C16.5888 18.2097 16.5618 18.7215 16.6696 19.2872C16.3732 19.2603 15.9153 19.0717 15.8614 18.8023C15.8344 18.6138 15.9422 18.4252 16.2655 17.8594C16.3194 17.7517 16.4002 17.617 16.481 17.5092C17.0467 16.5394 17.2892 15.812 17.4508 15.2732C17.6394 14.7075 17.7202 14.465 18.0166 14.2495C18.2051 14.1687 18.3668 14.1148 18.5284 14.0879Z" fill="white"/>
<path d="M17.962 34.4539C17.6387 35.1004 17.2616 35.6931 17.0191 35.9894C16.8036 35.4506 16.4534 34.1845 16.5611 33.1877C16.5611 33.1608 16.5611 33.1338 16.5611 33.1069C16.5881 32.7836 16.6689 32.5142 16.8305 32.2718C16.9383 32.1101 17.2077 32.0293 17.504 32.0293C17.7195 32.0293 17.962 32.0832 18.1775 32.1909C18.2853 32.2448 18.4469 32.3795 18.4469 32.7297C18.5008 33.2146 18.2583 33.8612 17.962 34.4539Z" fill="white"/>
<path d="M35.2034 27.2609C35.2303 27.2879 35.2303 27.3148 35.2303 27.3417C35.1495 27.5303 35.0148 27.665 34.8801 27.8267C34.7184 28.0152 34.5299 28.2308 34.3682 28.581C34.1258 29.0659 34.045 29.4969 34.018 30.6284C33.9641 31.9484 34.018 32.6758 34.0719 33.2146C34.0988 33.7264 34.1258 34.0497 34.045 34.5616C33.8564 35.5853 33.4253 36.2588 32.8596 37.1208C32.1592 38.1984 31.4587 39.303 30.2734 39.6532C30.1656 39.6801 30.1656 39.6801 29.8424 39.6801C29.573 39.6801 29.115 39.6801 28.2799 39.707C26.7174 39.7609 25.9361 39.7879 25.2896 39.9226C24.5891 40.0573 24.2389 40.2189 23.8618 40.3536C23.5385 40.4883 23.2422 40.5961 22.6764 40.7308C22.3262 40.8116 21.8144 40.8654 20.0633 40.8924C18.2314 40.8924 17.1269 40.8924 15.699 40.7308C13.7055 40.5152 12.7087 40.3805 12.0353 40.0303C10.4728 39.1952 9.79927 37.6866 8.72168 35.2081C8.72168 35.1812 8.74862 35.1542 8.77556 35.1542C8.82944 35.1812 8.88332 35.2081 8.9372 35.2351C8.99108 35.262 9.04496 35.262 9.07189 35.262C9.17965 35.2889 9.28741 35.2889 9.39517 35.262C9.42211 35.262 9.42211 35.262 9.44905 35.2351C9.47599 35.2351 9.50293 35.2351 9.50293 35.262C9.58375 35.4506 9.69151 35.6122 9.88008 35.72C10.0687 35.8277 10.2842 35.8277 10.4728 35.8277C10.6883 35.8277 10.9038 35.8008 11.1193 35.7739C11.2271 35.7739 11.3348 35.8277 11.3887 35.9086C11.5773 36.3935 11.8197 36.7167 12.1969 36.7706C12.2238 36.7706 12.2508 36.7706 12.2777 36.7706C12.3585 36.7706 12.4932 36.7437 12.6549 36.6359C12.7896 36.5282 13.0051 36.609 13.1128 36.7437C13.1937 36.8784 13.3014 36.9592 13.4092 37.04C13.7863 37.4172 14.7023 37.6058 15.4566 37.6058C15.8607 37.6058 16.2378 37.5519 16.4534 37.4441C16.7766 37.2825 16.7766 37.067 16.7497 36.9592C16.7228 36.7976 16.6958 36.609 16.6689 36.4473C16.6689 36.4204 16.6958 36.4204 16.6958 36.4473C16.7497 36.5551 16.8036 36.6629 16.9383 36.6898C16.9652 36.6898 16.9652 36.6898 16.9922 36.6898C17.2077 36.6898 17.5309 36.7706 17.5848 36.9592C17.6118 37.067 17.6656 37.1478 17.7195 37.2555C17.8542 37.4441 18.0967 37.6866 18.6085 37.7135H18.6355C19.2281 37.7135 19.6861 37.5249 19.9825 37.1478C20.0094 37.1208 20.0094 37.0939 20.0363 37.067C20.1441 36.9053 20.4674 36.9053 20.6021 37.04C20.7637 37.1747 20.9523 37.2555 21.1678 37.2555C21.1947 37.2555 21.2486 37.2555 21.2756 37.2555C21.545 37.2286 21.7605 37.0939 21.9491 36.8514C22.0568 36.6898 22.1376 36.5012 22.1915 36.2857C22.2184 36.2318 22.2993 36.2049 22.3531 36.2588C22.4609 36.3665 22.6495 36.4743 22.9189 36.4743C22.9728 36.4743 23.0536 36.4743 23.1344 36.4473C23.6462 36.3396 23.9156 35.9086 24.0234 35.4506C24.0234 35.4236 24.0503 35.4236 24.0503 35.4506C24.185 35.6122 24.4275 35.8008 24.8316 35.8008C24.8585 35.8008 24.8855 35.8008 24.8855 35.8008C25.101 35.8008 25.2896 35.693 25.4243 35.5314C25.5859 35.3159 25.6398 34.9926 25.6667 34.6963C25.6667 34.6154 25.7206 34.5346 25.8284 34.4808C26.2594 34.2922 26.7982 33.8881 26.9598 33.6187C26.9598 33.6187 26.9598 33.5917 26.9868 33.5917C27.0137 33.5109 27.0945 33.457 27.1484 33.457C27.4986 33.4032 27.6333 33.3223 27.768 33.2685C27.8758 33.2146 27.9566 33.1876 28.226 33.1338C30.1926 32.8374 30.5697 32.7566 31.0008 32.4872C31.6473 32.0562 31.6743 31.4635 31.7012 30.8978C31.7281 30.4129 31.7551 29.8741 32.1322 29.2275C32.2669 28.9851 32.4286 28.7157 32.5902 28.3924C32.8866 27.8536 33.2906 27.0993 33.587 26.6952C33.6409 26.6144 33.7486 26.5874 33.8294 26.6413C34.5029 26.8838 35.0956 27.1532 35.2034 27.2609Z" fill="white"/>
<path d="M16.0768 33.1352C15.996 33.8087 15.9421 34.7247 16.0498 35.91C16.0768 36.2333 16.1307 36.5835 16.1845 36.9337C16.1037 36.9876 15.8074 37.0684 15.3225 37.0415C14.622 37.0145 13.9216 36.8529 13.7061 36.6105L13.6791 36.5835C13.5175 36.4488 13.3828 36.3411 13.3828 36.0986C13.3828 36.0178 13.4098 35.937 13.4906 35.8023C13.5445 35.7484 13.5983 35.6676 13.6522 35.5598C13.76 35.3982 13.9216 35.2096 14.0832 34.9402C14.5412 34.1859 14.7029 33.9434 14.9184 33.6471C14.9453 33.6202 14.9453 33.5932 14.9723 33.5663C15.107 33.4046 15.2416 33.1891 15.4841 32.8389C15.6457 32.5964 15.7804 32.3809 15.9151 32.2193C16.1037 31.9499 16.2384 31.8152 16.3192 31.7344C16.3192 31.8421 16.2923 32.0038 16.2654 32.1654C16.1576 32.4887 16.1037 32.785 16.0768 33.1352Z" fill="white"/>
<path d="M15.7269 22.5207C15.7269 22.5476 15.7269 22.5476 15.7269 22.5207C15.6191 22.6554 15.5113 22.817 15.3766 23.0864C15.0264 23.8407 15.0264 24.2718 15.0264 24.622C15.0264 24.8105 15.0264 24.9452 14.9726 25.1069C14.9456 25.2146 14.8917 25.3493 14.8109 25.484C14.6223 25.942 14.3529 26.5347 14.4607 27.3429C14.2991 27.2621 14.0566 27.0735 14.0027 26.9927C14.0027 26.9388 13.9758 26.9118 13.9758 26.858C13.9219 26.6155 13.895 26.4539 14.0297 26.0767C14.4607 25.1069 14.5146 24.8644 14.5415 24.595C14.5415 24.5411 14.5685 24.4873 14.5685 24.4065C14.6493 24.0293 14.7032 23.706 14.7301 23.4366C14.784 23.0325 14.8379 22.7631 14.9726 22.5746C15.0264 22.4937 15.1611 22.4668 15.3497 22.4668C15.4305 22.4668 15.5113 22.4668 15.6191 22.4937H15.646C15.7269 22.5207 15.7269 22.5207 15.7269 22.5207Z" fill="white"/>
<path d="M15.1878 32.1377C15.1609 31.8953 15.134 31.6798 15.0262 31.4373C15.0262 31.4373 14.9993 31.3834 14.9993 31.3565C14.9723 31.3295 14.9723 31.3026 14.9454 31.2757L14.9184 31.2487C14.8915 31.2218 14.8915 31.2218 14.8646 31.2218L14.8376 31.1948C14.8107 31.1948 14.8107 31.1679 14.7837 31.1679H14.7568C14.6221 31.114 14.4874 31.0601 14.3258 31.0332C14.2988 31.0332 14.2719 31.0332 14.2719 31.0332C14.2449 31.0332 14.2449 31.0332 14.218 31.0332H14.1911C14.1641 31.0332 14.1372 31.0601 14.0833 31.0601C14.0564 31.0601 14.0564 31.0871 14.0294 31.0871L14.0025 31.114C13.9756 31.141 13.9756 31.141 13.9486 31.1679L13.9217 31.1948V31.2218C13.8678 31.3026 13.8139 31.3834 13.76 31.4642C13.6253 31.6528 13.4906 31.8683 13.3559 32.0569C13.2212 32.2455 13.1135 32.4071 12.9788 32.5957C12.898 32.7035 12.8441 32.7843 12.7633 32.892C12.7633 32.919 12.7363 32.919 12.7363 32.9459C12.8171 32.9729 12.898 32.9729 12.9788 32.9998C13.1674 33.0267 13.3559 33.0537 13.5176 33.0806C13.8947 33.1345 14.2988 33.1614 14.676 33.1345C14.7029 33.1345 14.7029 33.1345 14.7299 33.1345C14.8107 32.9998 14.9454 32.8382 15.0801 32.6226C15.1609 32.5149 15.2417 32.4071 15.2956 32.2994C15.2148 32.2724 15.1878 32.1916 15.1878 32.1377Z" fill="white"/>
<path d="M13.8138 33.7272C13.7868 34.0235 13.4635 34.7778 12.9517 35.5052C12.5207 36.0979 12.2513 36.2595 12.1974 36.2595C11.9819 36.2326 11.7933 35.7207 11.6317 35.2088C11.5778 34.9933 11.497 34.8048 11.47 34.6162C11.3623 34.239 11.3353 33.7002 11.3623 33.377C11.7933 33.6194 12.5476 33.6733 13.6252 33.6733C13.6791 33.7002 13.7599 33.7002 13.8138 33.7272Z" fill="white"/>
<path d="M13.0591 31.3021C12.8706 31.5984 12.682 31.8678 12.4934 32.1372C12.3856 32.2719 12.3048 32.4066 12.1971 32.5413C12.1432 32.6221 12.0624 32.7029 12.0085 32.7837C11.8468 32.7568 11.7121 32.7029 11.5505 32.676C11.4158 32.649 11.3081 32.5952 11.1734 32.5413C11.1464 32.5413 11.1195 32.5143 11.0925 32.5143C11.0656 32.4874 11.0387 32.4335 11.0117 32.4066C11.0656 32.3258 11.0925 32.218 11.1464 32.1372C11.2272 31.9756 11.3081 31.8139 11.4158 31.6523C11.5775 31.3829 11.766 31.0865 12.0624 30.898C12.0893 30.898 12.0893 30.871 12.1162 30.871C12.224 30.8171 12.3318 30.7633 12.4665 30.7363C12.4934 30.7363 12.5742 30.7363 12.6281 30.7363H12.655C12.655 30.7363 12.655 30.7363 12.682 30.7363C12.7089 30.7363 12.7359 30.7633 12.7897 30.7633C12.7897 30.7633 12.8167 30.7633 12.8167 30.7902C12.8436 30.8171 12.8706 30.8171 12.8975 30.8441C12.8436 30.8171 12.9514 30.9249 12.9514 30.898C13.0053 31.0596 13.0322 31.1404 13.0591 31.3021Z" fill="white"/>
<path d="M11.6045 30.5204C11.2543 30.7898 11.0119 31.1669 10.8233 31.571C10.7155 31.7866 10.6078 32.0021 10.5 32.2176C10.5 32.2445 10.4731 32.2715 10.4731 32.2715C10.3653 32.2445 10.2575 32.2176 10.1767 32.1906C10.069 32.1637 9.96121 32.1098 9.85345 32.0829C9.79957 32.0559 9.77263 32.029 9.71875 32.0021C9.82651 31.8135 9.93427 31.6249 10.069 31.4363C10.2306 31.1939 10.4192 30.9245 10.6078 30.709C10.6886 30.6281 10.7694 30.5204 10.8502 30.4665C10.958 30.4126 11.0657 30.4126 11.2004 30.4396C11.3351 30.4396 11.4698 30.4396 11.5776 30.4934C11.5506 30.4934 11.5776 30.5204 11.6045 30.5204Z" fill="white"/>
<path d="M11.0655 35.1009C11.0385 35.1278 11.0385 35.1278 11.0116 35.1548H10.9846C10.9038 35.1548 10.823 35.1817 10.7422 35.1817C10.5805 35.1817 10.4189 35.2086 10.2573 35.1817C10.1765 35.1817 10.0956 35.1548 10.0418 35.1009C9.98788 35.0201 9.96094 34.8584 9.934 34.7507C9.82624 34.158 9.82624 33.5653 9.88012 32.9727C10.1765 33.0804 10.4997 33.1612 10.823 33.2151C10.7422 33.7539 10.8769 34.5352 10.9308 34.7507C11.0116 34.8584 11.0385 34.9931 11.0655 35.1009Z" fill="white"/>
<path d="M10.0964 30.3322C9.82705 30.6554 9.58459 31.0056 9.36907 31.3828C9.28825 31.5175 9.1805 31.6791 9.09968 31.8408C8.99192 31.8138 8.88416 31.76 8.80334 31.7061C8.72252 31.6522 8.6417 31.5983 8.58782 31.5444C8.56088 31.5175 8.507 31.4906 8.48006 31.4636C8.48006 31.4636 8.45312 31.4636 8.45312 31.4367C8.48006 31.3559 8.53394 31.302 8.53394 31.2481C8.58782 31.1134 8.6417 31.0056 8.72252 30.8979C8.85722 30.6824 8.99192 30.4668 9.15356 30.2513C9.20743 30.1705 9.26131 30.0897 9.36907 30.0628C9.44989 30.0358 9.55765 30.0628 9.63847 30.0628C9.80011 30.0897 9.96175 30.1975 10.0964 30.3322Z" fill="white"/>
<path d="M8.02167 31.7604C8.04861 31.7335 8.02167 31.7335 8.02167 31.7604C8.12942 31.8682 8.21024 31.949 8.318 32.0298C8.37188 32.0568 8.39882 32.1107 8.4527 32.1376C8.4527 32.1376 8.4527 32.1376 8.4527 32.1645C8.34494 32.6225 8.26412 33.1074 8.26412 33.5923C8.26412 33.6193 8.23718 33.6193 8.23718 33.5923C8.10249 33.0266 7.94085 32.1107 8.02167 31.7604Z" fill="white"/>
<path d="M9.34146 32.7565C9.28758 33.1606 9.26064 33.5647 9.28758 33.9688C9.28758 34.1843 9.31452 34.3999 9.34146 34.6423C9.28758 34.6423 9.23371 34.6423 9.17983 34.6423H9.15289H9.12595C9.07207 34.6154 9.07207 34.6154 9.01819 34.5884C8.96431 34.5615 8.91043 34.4807 8.85655 34.3999C8.74879 34.2113 8.72185 33.9958 8.72185 33.7802C8.69491 33.3761 8.74879 32.9451 8.82961 32.541C8.88349 32.568 8.96431 32.5949 9.04513 32.6218C9.15289 32.6757 9.2337 32.7296 9.34146 32.7565Z" fill="white"/>
<mask id="mask0_3923_2688" style="mask-type:luminance" maskUnits="userSpaceOnUse" x="0" y="0" width="50" height="50">
<path d="M50 25C50 11.18 38.7931 0 25 0C11.18 0 0 11.18 0 25C0 38.7931 11.18 50 25 50C38.7931 50 50 38.7931 50 25Z" fill="white"/>
</mask>
<g mask="url(#mask0_3923_2688)">
<g opacity="0.8">
<path opacity="0.8" d="M20.5816 52.9362C18.7497 52.9362 17.0256 52.8284 15.5709 52.7206L15.1668 52.6937L14.7627 52.6398C14.5741 52.6129 14.3586 52.5859 14.1161 52.559C12.7153 52.3974 10.1021 52.128 7.21957 50.781L6.7616 50.5655L6.35751 50.323C0.807937 47.198 -1.23948 42.5374 -2.37094 40.0321C-2.45176 39.8704 -2.53258 39.6818 -2.6134 39.4933C-3.17913 38.3349 -3.52935 37.3112 -3.82568 36.3413L-3.87956 36.1258L-3.93344 35.9103C-4.74163 33.0547 -4.93021 30.6032 -4.57999 28.1517C-4.20284 25.7002 -3.31383 23.4911 -1.72439 21.1474L-0.916201 19.8273C-0.754563 19.5579 -0.646805 19.2616 -0.565986 18.9652C0.0536263 15.8941 1.45449 13.712 2.15492 12.6614C2.3435 11.3952 2.66677 10.156 3.09781 8.9437L3.15169 8.75512L3.23251 8.56654C3.23251 8.5396 3.25944 8.48572 3.28638 8.4049C3.60966 7.46201 4.33703 5.2799 6.19587 2.96309L6.8963 2.1549L7.62367 1.50835C9.45557 -0.161907 11.6646 -1.40113 14.0353 -2.10156C15.3553 -2.50566 16.7293 -2.74811 18.1301 -2.82893H18.2648H18.4534C18.6959 -2.82893 18.9383 -2.85587 19.1538 -2.85587C20.0159 -2.85587 20.878 -2.77505 21.74 -2.64036C22.2788 -2.55954 22.8176 -2.61342 23.3295 -2.82893C24.8112 -3.44855 26.3467 -3.85264 27.9362 -4.06816C28.0709 -4.0951 28.1786 -4.0951 28.2864 -4.12204C28.5288 -4.14898 28.9329 -4.20286 29.4178 -4.25673C30.253 -4.33755 31.5461 -4.44531 32.92 -4.44531C35.6409 -4.44531 37.9847 -4.0951 40.086 -3.36773L40.2745 -3.31385L40.4362 -3.25997C45.0698 -1.50889 47.4135 0.942618 49.1107 3.07085L49.1916 3.17861L49.434 3.39413C50.9696 4.57947 52.2627 6.06115 53.2864 7.70447L53.6097 8.21633L53.8791 8.75512C56.142 13.3618 55.4146 17.6452 55.1452 19.2346L55.1183 19.3155C54.9297 20.5008 54.6064 21.6592 54.2023 22.7907C54.0407 23.8683 53.7982 24.9459 53.448 25.9696C52.8553 27.8015 51.9663 29.5525 50.8349 31.115C50.1883 32.031 49.434 32.92 48.6258 33.7012C48.3295 33.9706 48.1409 34.3478 48.087 34.7519C48.0601 34.9943 48.0062 35.2368 47.9793 35.4793C47.3058 39.0353 45.7702 41.5137 45.1237 42.5105L43.211 45.2583C40.8941 48.1409 38.1463 50.0267 34.8327 51.0504L34.0245 51.2928L33.1625 51.4545C32.1657 51.643 31.1689 51.7239 30.1452 51.7239C30.0105 51.7239 29.8758 51.7239 29.7142 51.7239H29.6603H29.4987H29.3101C28.9329 51.7239 28.5558 51.8047 28.1786 51.9124C25.9696 52.6129 23.545 52.9362 20.5816 52.9362Z" stroke="url(#paint1_linear_3923_2688)" stroke-width="1.0554" stroke-miterlimit="10"/>
<path opacity="0.8" d="M20.5813 51.0232C18.8302 51.0232 17.133 50.9154 15.7322 50.8076L15.4089 50.7807L15.0856 50.7268C14.8701 50.6999 14.6276 50.6729 14.3852 50.646C13.0113 50.5113 10.7483 50.2419 8.216 49.0566L7.83885 48.868L7.48863 48.6794C2.55867 45.9585 0.753716 41.8906 -0.32387 39.4661C-0.404689 39.3044 -0.485508 39.0889 -0.593266 38.9003C-1.10512 37.8766 -1.4284 36.9068 -1.69779 36.0447L-1.75167 35.8561L-1.80555 35.6945C-2.50598 33.1352 -2.69456 30.9801 -2.37128 28.8518C-2.04801 26.7505 -1.23982 24.7839 0.161044 22.7365L1.21169 21.0393C1.40027 20.743 1.53497 20.3928 1.58885 20.0426C2.1007 17.1331 3.47462 15.0857 4.09423 14.1428L4.17505 14.035L4.20199 13.9811C4.20199 13.9542 4.22893 13.9273 4.22893 13.9003C4.25587 13.7656 4.30975 13.6579 4.33669 13.5501C4.49833 12.3648 4.79466 11.1794 5.19876 10.048L5.25264 9.88631L5.30652 9.72468C5.33346 9.6708 5.33346 9.61692 5.38734 9.45528C5.68367 8.56627 6.30329 6.70744 7.91966 4.7139L8.51234 4.01347L9.10501 3.47468C10.6944 2.01993 12.6072 0.942349 14.6546 0.349677C15.8399 -0.000538888 17.0253 -0.216056 18.2645 -0.269935H18.3723H18.5339C18.7494 -0.269935 18.938 -0.296875 19.1266 -0.296875C20.0156 -0.296875 20.8776 -0.539332 21.7397 -0.377694C22.4132 -0.242996 23.0867 -0.323815 23.7063 -0.593211C24.8647 -1.10506 26.4272 -1.29364 28.2052 -1.5361C28.3399 -1.56304 28.4477 -1.56304 28.5285 -1.58998C28.771 -1.61692 29.1481 -1.6708 29.5791 -1.69774C30.3604 -1.77856 31.5727 -1.85938 32.8927 -1.85938C35.3712 -1.85938 37.4725 -1.5361 39.3313 -0.916487L39.4929 -0.862608L39.6276 -0.808728C43.7225 0.753772 45.7429 2.80118 47.3324 4.82166C47.4132 4.92942 47.521 5.03718 47.5479 5.09106L47.5748 5.118L47.8712 5.38739L47.8981 5.44127C49.272 6.49192 50.4304 7.78502 51.3194 9.23976L51.5888 9.6708L51.8044 10.1288C53.744 14.0889 53.1513 17.7258 52.8819 19.2613L52.855 19.3421C52.6664 20.4736 52.3701 21.5512 51.966 22.6288C51.8313 23.6525 51.5888 24.6762 51.2656 25.646C50.7268 27.2624 49.9455 28.798 48.9488 30.1988C48.2753 31.1686 47.4671 32.0577 46.605 32.8389C46.2009 33.2161 45.9315 33.701 45.8776 34.2667C45.8238 34.6708 45.7699 35.048 45.716 35.452C45.1233 38.604 43.7763 40.7592 43.1298 41.729L41.5673 43.9919C39.4929 46.6589 37.0414 48.3831 34.0781 49.299L33.4046 49.5145L32.6772 49.6492C31.8151 49.8109 30.9261 49.8917 30.0641 49.8648C29.9294 49.8648 29.7947 49.8648 29.66 49.8648H29.633H29.5522C29.5522 49.8648 29.5253 49.8648 29.4714 49.8648H29.3098H29.1481H28.8518C28.4477 49.8917 28.0436 49.9456 27.6395 50.0803C25.6729 50.7268 23.383 51.0232 20.5813 51.0232Z" stroke="url(#paint2_linear_3923_2688)" stroke-width="1.0554" stroke-miterlimit="10"/>
<path opacity="0.8" d="M20.5813 48.7875C18.9111 48.7875 17.2677 48.6798 15.8938 48.572L15.6244 48.5451L15.355 48.5181C15.1126 48.4912 14.8432 48.4642 14.5738 48.4373C13.2807 48.3026 11.3141 48.0871 9.10503 47.0364L8.80869 46.9017L8.5393 46.7401C4.30977 44.3694 2.74727 40.8673 1.72356 38.5504C1.64274 38.3619 1.53499 38.1194 1.45417 37.9308C0.996193 37.0149 0.699856 36.1528 0.4574 35.3446L0.40352 35.2099L0.376581 35.0752C-0.243032 32.8662 -0.404669 30.9804 -0.135273 29.2024C0.134124 27.3974 0.861494 25.7002 2.10072 23.8953L2.26236 23.6798L2.42399 23.4642C2.53175 23.3295 2.61257 23.1948 2.72033 23.0871L3.33994 21.9287C3.55546 21.5515 3.69016 21.1474 3.74404 20.7164C4.14813 18.1302 5.38736 16.2713 5.95309 15.4093C5.98003 15.3554 6.03391 15.3015 6.06085 15.2746L6.19555 15.086C6.24943 14.9782 6.3033 14.8435 6.35718 14.6819C6.41106 14.5203 6.49188 14.2778 6.54576 14.0623C6.68046 12.9578 6.94986 11.8802 7.32701 10.8295L7.38089 10.6948L7.43477 10.5601C7.46171 10.4524 7.51559 10.3716 7.56947 10.183C7.83886 9.34786 8.35072 7.8123 9.72464 6.14204L10.1826 5.57631L10.6675 5.14527C12.0145 3.90605 13.6309 3.01704 15.382 2.47825C16.4057 2.18191 17.4294 1.99333 18.507 1.93945H18.5878H18.7225C18.8841 1.93945 19.0458 1.93945 19.2343 1.93945C20.1503 1.93945 21.0393 2.04721 21.9283 2.28967C22.6826 2.47825 23.4908 2.39743 24.1912 2.04721C25.3227 1.50842 26.8313 0.915746 28.5824 0.700229C28.6902 0.673289 28.7979 0.673289 28.8787 0.64635C29.0943 0.61941 29.4445 0.565531 29.8755 0.538591C30.6029 0.457772 31.7613 0.376953 32.9736 0.376953C35.1826 0.376953 37.0415 0.64635 38.6848 1.21208L38.7925 1.26596L38.9003 1.31984C42.6718 2.74764 44.3421 4.60648 45.6352 6.2498C45.9315 6.60001 45.9585 6.65389 46.1471 6.84247L46.3895 7.05799L46.4703 7.16575C47.0899 7.65066 48.3561 8.64743 49.4606 10.4524L49.6761 10.8026L49.8647 11.1528C51.508 14.4664 50.9962 17.4836 50.7537 18.9384L50.7268 19.0192C50.5652 20.0698 50.2688 21.1205 49.8378 22.1173V22.1981C49.73 23.141 49.5145 24.0838 49.2182 24.9729C48.7602 26.4007 48.0867 27.7207 47.1977 28.933C46.4703 29.9836 45.5813 30.9265 44.5846 31.7347C44.3421 31.9233 44.1535 32.1657 44.0188 32.4351C43.8841 32.7045 43.8033 33.0009 43.7764 33.2972C43.7494 33.8899 43.6686 34.4826 43.5608 35.0752C43.049 37.7961 41.8636 39.6819 41.271 40.6248L40.0587 42.4028C38.2537 44.8274 36.0986 46.3899 33.4854 47.1981L32.9466 47.3597L32.354 47.4675C31.6266 47.6022 30.8723 47.656 30.118 47.656C30.0102 47.656 29.8755 47.656 29.7408 47.656H29.7139H29.5792C29.5522 47.656 29.4983 47.656 29.3636 47.656H29.229H29.1212L28.5016 47.683C28.0705 47.7099 27.6395 47.7638 27.2354 47.9254C25.3766 48.5181 23.2483 48.7875 20.5813 48.7875Z" stroke="url(#paint3_linear_3923_2688)" stroke-width="0.9894" stroke-miterlimit="10"/>
<path opacity="0.8" d="M20.5814 46.5511C18.9919 46.5511 17.4025 46.4434 16.0824 46.3356L15.8939 46.3087L15.7053 46.2817C15.4359 46.2548 15.1396 46.2009 14.8702 46.174C13.6579 46.0393 11.9876 45.8507 10.1018 44.9886L9.88632 44.8809L9.6708 44.7731C6.08783 42.7526 4.76779 39.7893 3.79796 37.6341C3.6902 37.4186 3.58244 37.1761 3.50162 36.9606C3.09753 36.1255 2.82813 35.3442 2.61261 34.6707L2.58567 34.563L2.50485 34.4822C1.45421 30.7645 1.8583 28.1513 3.90572 25.161L4.01347 24.9994L4.12123 24.8378C4.25593 24.6761 4.39063 24.4875 4.52533 24.3259C4.71391 24.0834 4.90248 23.814 5.118 23.5716C5.2527 23.41 5.36046 23.2214 5.44128 23.0328L5.68373 22.4401C5.79149 22.1707 5.84537 21.9013 5.87231 21.6319C6.08783 19.2343 7.24623 17.5102 7.81197 16.6481C7.86585 16.5942 7.91972 16.4865 7.94666 16.4595L8.08136 16.244L8.13524 16.1901C8.21606 16.0554 8.35076 15.7322 8.45852 15.4089C8.5124 15.1934 8.62016 14.8431 8.72791 14.5468V14.5199C8.83567 13.5231 9.07813 12.5263 9.42835 11.5834L9.45528 11.5026L9.48222 11.4218C9.5361 11.2602 9.58998 11.1255 9.64386 10.9369C9.88632 10.2095 10.2904 8.9703 11.3949 7.59638L11.7452 7.16534L12.0954 6.84207C14.7085 4.47138 17.618 4.2828 18.5878 4.20198H18.6417H18.7495C18.8842 4.20198 19.0189 4.20198 19.1536 4.20198C20.312 4.20198 21.4434 4.44444 22.521 4.90241C22.7096 4.98323 22.9251 5.01017 23.1137 5.01017C23.3292 5.01017 23.5178 4.95629 23.7064 4.84853C24.7031 4.2828 26.5081 3.23215 28.8249 2.96276C28.9327 2.93582 29.0404 2.93582 29.1212 2.93582C29.3367 2.90888 29.66 2.88194 30.0372 2.82806C30.7376 2.77418 31.7883 2.69336 32.9197 2.69336C34.8863 2.69336 36.5027 2.93582 37.8766 3.39379L37.9574 3.42073L38.0383 3.44767C41.271 4.65995 42.6449 6.19551 43.8033 7.65026C44.0997 8.05435 44.2613 8.21599 44.5846 8.53926L44.7732 8.7009L44.9079 8.86254L45.0156 8.94336C45.5544 9.37439 46.5781 10.1556 47.4941 11.6373L47.6557 11.9067L47.7904 12.1761C49.1105 14.8701 48.6794 17.2947 48.4639 18.5878V18.6686C48.3023 19.6115 48.0329 20.5543 47.6557 21.4434L47.6288 21.5242C47.6288 21.5511 47.6288 21.5511 47.6018 21.605C47.5749 21.6858 47.5749 21.7666 47.5749 21.8475L47.548 21.9552C47.4671 22.7634 47.2786 23.5447 47.0092 24.299C46.6051 25.5112 46.0393 26.6427 45.285 27.6664C44.5577 28.7171 43.7225 29.5791 42.8066 30.2526C42.4025 30.549 42.0792 30.9261 41.8367 31.3841C41.5943 31.8421 41.4865 32.327 41.4865 32.8388C41.4865 33.4584 41.4057 34.105 41.298 34.7246C40.8669 37.0414 39.8971 38.6039 39.2775 39.5468L38.3885 40.8668C36.826 43.049 34.9671 44.4498 32.7311 45.1503L32.6234 45.1772C32.4348 45.2311 32.2462 45.285 32.0577 45.3119L31.923 45.3388C31.3033 45.4466 30.6837 45.5005 30.0641 45.5005C29.9564 45.5005 29.8486 45.5005 29.7408 45.5005H29.7139C29.66 45.5005 29.6061 45.5005 29.5523 45.5005C29.4984 45.5005 29.3906 45.5005 29.1751 45.5005H29.0943H29.0135C28.7171 45.5005 28.34 45.5274 28.0167 45.5274C27.5587 45.5543 27.1277 45.6352 26.6967 45.7968C25.0803 46.2817 23.1137 46.5511 20.5814 46.5511Z" stroke="url(#paint4_linear_3923_2688)" stroke-width="0.9235" stroke-miterlimit="10"/>
<path opacity="0.8" d="M20.5814 44.3151C19.0458 44.3151 17.5372 44.2073 16.2441 44.0995H16.1094L15.9747 44.0726C15.6784 44.0187 15.3551 43.9918 15.0588 43.9648C13.9273 43.8301 12.5264 43.6954 11.0178 42.9681L10.8562 42.8873L10.7215 42.8064C7.78504 41.1631 6.68052 38.6847 5.81845 36.6911C5.71069 36.4487 5.60293 36.2062 5.49517 35.9368C5.14496 35.2364 4.9025 34.536 4.71392 33.9433L4.68698 33.8625L4.66004 33.7817C3.79798 30.7105 4.09431 28.7709 5.76457 26.3463L5.84539 26.2385L5.92621 26.1308C6.06091 25.9422 6.19561 25.7806 6.3303 25.592C6.76134 25.0263 7.19237 24.4605 7.81198 23.787C7.94668 23.6523 8.0275 23.4368 8.05444 23.2483L8.08138 22.6286L8.05444 22.3862V22.1437C8.10832 20.1502 9.10509 18.6685 9.64388 17.8603C9.69776 17.7795 9.77858 17.6717 9.80552 17.6179L9.88634 17.4832L9.96716 17.3754C10.0749 17.2138 10.3174 16.648 10.5329 16.1362C10.6137 15.9207 10.7215 15.4896 10.8562 15.1394C10.8831 15.0317 10.8831 15.0047 10.91 14.7623C10.9909 13.9271 11.2064 13.092 11.4758 12.3107L11.5027 12.2569L11.5297 12.203C11.6105 11.9875 11.6644 11.8258 11.7452 11.6103C11.9607 10.9638 12.284 10.0209 13.1191 8.97023L13.3616 8.6739L13.604 8.45838C15.4359 6.81506 17.4025 6.49178 18.7495 6.41096H18.8034H18.8572C18.965 6.41096 19.0458 6.41096 19.1536 6.41096C20.285 6.41096 21.659 6.94976 22.3863 7.29997C22.548 7.38079 22.7366 7.43467 22.9251 7.43467C23.1137 7.43467 23.3023 7.40773 23.4909 7.35385C23.9488 7.19221 24.3799 7.00364 24.784 6.78812C25.6999 6.24933 27.2085 5.38726 29.0943 5.17174C29.2021 5.1448 29.2829 5.1448 29.3637 5.1448C29.5523 5.11786 29.8486 5.09092 30.2258 5.03704C30.8723 4.98316 31.8422 4.90234 32.8928 4.90234C34.59 4.90234 35.9909 5.09092 37.1223 5.49502L37.1762 5.52196L37.2301 5.5489C39.9241 6.5726 41.0016 7.73101 42.0253 9.05105C42.3486 9.48208 42.5911 9.77842 43.076 10.2095L43.1838 10.3172L43.2915 10.425C43.3993 10.5327 43.507 10.6136 43.6148 10.6944C44.0728 11.0446 44.854 11.6642 45.5275 12.7957L45.6353 12.9573L45.7161 13.1459C46.7128 15.1664 46.3896 17.0791 46.201 18.2105V18.2914C46.0663 19.0726 45.8508 19.8269 45.5275 20.5543C45.4467 20.7429 45.3928 20.9314 45.3389 21.147C45.312 21.2817 45.285 21.4164 45.285 21.5241L45.2581 21.6319C45.1773 22.2784 45.0426 22.925 44.8271 23.5446C44.5038 24.5414 44.0189 25.4842 43.4262 26.3194C42.5103 27.6125 41.4596 28.5284 40.1934 29.1211C39.8971 29.2558 39.6277 29.4713 39.4391 29.7676C39.2506 30.037 39.1428 30.3873 39.1159 30.7105C39.1159 30.8452 39.1159 30.953 39.1159 31.0338C39.1697 32.0036 39.2506 33.1082 39.035 34.2666C38.6848 36.1523 37.8766 37.4185 37.284 38.3614C37.284 38.3614 34.5361 42.1868 32.0307 42.9681L31.7613 43.0489L31.465 43.1028C30.9801 43.1836 30.4952 43.2375 29.9833 43.2375C29.9025 43.2375 29.7947 43.2375 29.687 43.2375C29.6331 43.2375 29.5523 43.2375 29.4715 43.2375C29.3637 43.2375 29.2021 43.2375 28.9596 43.2644H28.9057H28.8519C27.882 43.2914 26.993 43.3183 26.7236 43.3722C26.5889 43.3991 26.4542 43.426 26.3195 43.4799C24.9995 44.0457 23.1406 44.3151 20.5814 44.3151Z" stroke="url(#paint5_linear_3923_2688)" stroke-width="0.8575" stroke-miterlimit="10"/>
<path opacity="0.8" d="M20.5816 42.1067C19.1269 42.1067 17.6722 41.999 16.4329 41.9182H16.379H16.3252C15.975 41.8643 15.6517 41.8373 15.3553 41.8104C14.3047 41.7027 13.2002 41.568 12.0148 41.0292L11.934 41.0022L11.8532 40.9753C9.56332 39.6822 8.70125 37.7695 7.89306 35.9106C7.7853 35.6412 7.6506 35.3718 7.5159 35.1024C7.24651 34.5636 7.03099 33.971 6.86935 33.4052V33.3783V33.3514C6.16892 30.8999 6.3575 29.6606 7.6506 27.7749L7.67754 27.721L7.70448 27.6671C7.86612 27.4785 8.00082 27.2899 8.13552 27.1283C8.75513 26.3201 9.29392 25.6197 10.5062 24.4882C10.587 24.4074 10.6678 24.2996 10.6948 24.1649C10.7217 24.0572 10.7217 23.9225 10.6678 23.8147L10.4523 23.1951C10.3984 23.0065 10.3715 22.791 10.3715 22.6024V22.4408V22.3061C10.4254 20.9591 11.1258 19.9085 11.5838 19.208C11.6646 19.1003 11.7185 18.9925 11.7724 18.9117L11.8262 18.8309L11.8801 18.7501C12.1226 18.4268 12.5267 17.4839 12.7422 16.9182C12.7961 16.7296 12.9308 16.2716 13.0655 15.9214C13.1463 15.652 13.2002 15.3826 13.2271 15.1132C13.3079 14.4397 13.4426 13.7662 13.6851 13.1466V13.1197V13.0927C13.7928 12.8233 13.8737 12.6078 13.9275 12.3923C14.1161 11.8266 14.3316 11.18 14.9243 10.4527L15.0321 10.318L15.1398 10.2102C16.4329 9.02485 17.8607 8.80933 18.9383 8.72852H18.9653H18.9922C19.0461 8.72852 19.1269 8.72852 19.1808 8.72852C20.2584 8.72852 21.0665 9.15955 21.6053 9.45589L21.74 9.50977H21.767C21.9286 9.59058 22.0364 9.6714 22.1711 9.72528C22.4944 9.88692 22.8984 9.9408 23.2487 9.83304C24.003 9.64446 25.1614 9.18649 25.9157 8.75546H25.9426C26.7508 8.27054 27.99 7.57011 29.4448 7.40847C29.5256 7.38153 29.6334 7.38153 29.7142 7.38153C29.8758 7.35459 30.1722 7.32765 30.4954 7.30071C31.0881 7.24683 32.004 7.16602 32.9469 7.16602C34.4017 7.16602 35.5601 7.32765 36.4491 7.62399H36.476H36.503C38.6581 8.43218 39.4663 9.29425 40.3284 10.4257C40.6786 10.8837 41.0288 11.3147 41.6754 11.8805L41.7293 11.9343L41.7831 11.9882C41.9448 12.1499 42.1334 12.3115 42.3489 12.4731C42.726 12.7695 43.2648 13.1736 43.7228 13.9548L43.7767 14.0356L43.8306 14.1164C44.504 15.5173 44.2885 16.8374 44.1269 17.8341V17.9149C44.0191 18.5346 43.8575 19.1272 43.5881 19.7199C43.4534 20.0432 43.3456 20.3934 43.2918 20.7436C43.2648 20.9591 43.2379 21.1208 43.2109 21.2555L43.184 21.3632C43.1301 21.8751 43.0224 22.36 42.8607 22.8449C42.6183 23.6261 42.2411 24.3535 41.7562 25.027C40.948 26.2124 40.0321 26.9397 38.8198 27.3169C38.2271 27.5055 37.7422 27.8826 37.4189 28.3945L37.3112 28.5292L37.2034 28.6639C36.9071 29.0141 36.9879 30.3611 37.0418 31.1692C37.0956 32.0583 37.1495 32.9742 36.9879 33.8363C36.7185 35.318 36.0719 36.3147 35.5062 37.1768C35.5062 37.1768 33.4049 40.221 31.4922 40.7867L31.3575 40.8406L31.2228 40.8675C30.8726 40.9214 30.4954 40.9753 30.1183 40.9753C30.0375 40.9753 29.9566 40.9753 29.8489 40.9753C29.7681 40.9753 29.6872 40.9753 29.5795 40.9753C29.4448 40.9753 29.2562 40.9753 28.9329 41.0022H28.906H28.879C27.6129 41.0561 26.8316 41.083 26.4006 41.1639C26.1043 41.2177 25.8349 41.2986 25.5655 41.4063C24.4071 41.8643 22.8446 42.1067 20.5816 42.1067Z" stroke="url(#paint6_linear_3923_2688)" stroke-width="0.8575" stroke-miterlimit="10"/>
</g>
</g>
<defs>
<radialGradient id="paint0_radial_3923_2688" cx="0" cy="0" r="1" gradientUnits="userSpaceOnUse" gradientTransform="translate(25.001 27.6119) rotate(90) scale(28.0834)">
<stop offset="0.1667" stop-color="#073183"/>
<stop offset="1" stop-color="#0054F9"/>
</radialGradient>
<linearGradient id="paint1_linear_3923_2688" x1="-3.50138" y1="-5.6212" x2="53.7798" y2="54.4987" gradientUnits="userSpaceOnUse">
<stop offset="0.2057" stop-color="#89D0FF"/>
<stop offset="0.3984" stop-color="#EBBF9A"/>
<stop offset="0.6015" stop-color="#EB8280"/>
<stop offset="0.8411" stop-color="#A281FF"/>
</linearGradient>
<linearGradient id="paint2_linear_3923_2688" x1="-1.2805" y1="-3.03467" x2="51.5265" y2="52.616" gradientUnits="userSpaceOnUse">
<stop offset="0.2057" stop-color="#89D0FF"/>
<stop offset="0.3984" stop-color="#EBBF9A"/>
<stop offset="0.6015" stop-color="#EB80DA"/>
<stop offset="0.8411" stop-color="#A281FF"/>
</linearGradient>
<linearGradient id="paint3_linear_3923_2688" x1="0.962923" y1="-0.797725" x2="49.2947" y2="50.3826" gradientUnits="userSpaceOnUse">
<stop offset="0.2057" stop-color="#89D0FF"/>
<stop offset="0.3984" stop-color="#EBBF9A"/>
<stop offset="0.6015" stop-color="#EB8280"/>
<stop offset="0.8411" stop-color="#A281FF"/>
</linearGradient>
<linearGradient id="paint4_linear_3923_2688" x1="3.20329" y1="1.44624" x2="47.05" y2="48.1424" gradientUnits="userSpaceOnUse">
<stop offset="0.2057" stop-color="#89D0FF"/>
<stop offset="0.3984" stop-color="#EBBF9A"/>
<stop offset="0.6015" stop-color="#EB80E7"/>
<stop offset="0.8411" stop-color="#A281FF"/>
</linearGradient>
<linearGradient id="paint5_linear_3923_2688" x1="5.43057" y1="3.69485" x2="44.8006" y2="45.9034" gradientUnits="userSpaceOnUse">
<stop offset="0.2057" stop-color="#89D0FF"/>
<stop offset="0.3984" stop-color="#EBBF9A"/>
<stop offset="0.6015" stop-color="#EB80D3"/>
<stop offset="0.8411" stop-color="#A281FF"/>
</linearGradient>
<linearGradient id="paint6_linear_3923_2688" x1="7.68702" y1="5.91723" x2="42.5765" y2="43.6552" gradientUnits="userSpaceOnUse">
<stop offset="0.2057" stop-color="#89D0FF"/>
<stop offset="0.3984" stop-color="#EBBF9A"/>
<stop offset="0.6015" stop-color="#A280EB"/>
<stop offset="0.8411" stop-color="#A281FF"/>
</linearGradient>
</defs>
</svg>
