<svg width="50" height="51" viewBox="0 0 50 51" fill="none" xmlns="http://www.w3.org/2000/svg">
<g clip-path="url(#clip0_3930_10516)">
<path d="M25 50.5C38.8071 50.5 50 39.3071 50 25.5C50 11.6929 38.8071 0.5 25 0.5C11.1929 0.5 0 11.6929 0 25.5C0 39.3071 11.1929 50.5 25 50.5Z" fill="#DC6BE5"/>
<path fill-rule="evenodd" clip-rule="evenodd" d="M19.2495 18.2493C19.6123 18.5695 19.841 18.7714 19.9164 18.8749C20.1614 19.2116 20.0692 19.5143 19.6495 19.7516C19.416 19.8834 18.936 20.017 18.6957 20.017C18.4239 20.017 18.3306 19.9128 18.3306 19.9128C18.3115 19.8948 18.2934 19.8794 18.2749 19.8636C18.1408 19.7492 17.986 19.6172 17.2749 18.3624C16.1513 16.6296 15.211 15.1921 15.1853 15.168C15.126 15.1124 15.1269 15.1142 17.1603 18.7302C17.4215 19.3296 17.3086 19.6273 17.2514 19.778C17.2366 19.8168 17.2256 19.8459 17.2256 19.8678C17.2256 20.0861 17.1657 20.2009 16.8946 20.5014C16.4429 21.0023 16.2408 21.5652 16.0951 22.73C15.9317 24.036 15.4721 24.9584 14.1985 26.5371C13.4529 27.4613 13.3309 27.6306 13.1428 28.0031C12.9058 28.4721 12.8407 28.7349 12.8143 29.3271C12.7864 29.9534 12.8407 30.3581 13.0332 30.9567C13.2017 31.481 13.3777 31.8271 13.8274 32.5193C14.2154 33.1167 14.4389 33.5609 14.4389 33.7345C14.4389 33.8727 14.4654 33.8728 15.0668 33.7378C16.5061 33.4149 17.6747 32.8467 18.332 32.1505C18.7388 31.7195 18.8342 31.4816 18.8374 30.8911C18.8393 30.5049 18.8257 30.4239 18.7207 30.2017C18.5496 29.84 18.2383 29.5393 17.5522 29.0732C16.6532 28.4624 16.2692 27.9706 16.1631 27.2943C16.0761 26.7395 16.1771 26.348 16.6743 25.3118C17.1892 24.2395 17.3167 23.7825 17.4031 22.7016C17.4588 22.0032 17.536 21.7278 17.7378 21.5067C17.9483 21.2761 18.1379 21.1981 18.659 21.1274C19.5085 21.012 20.0495 20.7936 20.494 20.3864C20.8797 20.0331 21.0411 19.6927 21.0658 19.1803L21.0847 18.7918L20.8692 18.5421C20.0886 17.6375 12.5483 11.1484 12.5003 11.1484C12.49 11.1484 12.7469 11.4684 13.0711 11.8595C15.9635 15.3488 18.1845 17.3092 19.2495 18.2493ZM14.8771 30.0359C15.0536 29.725 14.9599 29.3259 14.6646 29.1306C14.3857 28.9464 13.9524 29.0332 13.9524 29.2734C13.9524 29.3467 13.9932 29.4 14.085 29.4471C14.2399 29.5261 14.2511 29.6153 14.1293 29.7971C14.006 29.9814 14.016 30.1434 14.1574 30.2534C14.3854 30.4309 14.7081 30.3332 14.8771 30.0359Z" fill="white"/>
<path d="M20.1889 13.095C19.8406 13.0413 19.8258 13.035 19.9897 13.01C20.3039 12.962 21.0454 13.0274 21.5564 13.1482C22.7495 13.43 23.835 14.152 24.9938 15.4344L25.3017 15.7749L25.742 15.7047C27.5972 15.4083 29.4847 15.6438 31.0633 16.3687C31.4976 16.568 32.1824 16.9649 32.2679 17.067C32.2951 17.0995 32.3451 17.3087 32.379 17.532C32.4963 18.3045 32.4376 18.8968 32.2 19.339C32.0706 19.5797 32.0633 19.6559 32.1504 19.8619C32.2199 20.0263 32.4133 20.1479 32.605 20.1477C32.9972 20.1472 33.4195 19.5169 33.6151 18.6398L33.6929 18.2915L33.8468 18.4648C34.6913 19.4156 35.3546 20.7126 35.4685 21.6356L35.4982 21.8763L35.3563 21.6574C35.1121 21.2811 34.8665 21.0247 34.5522 20.818C33.9856 20.4454 33.3865 20.3186 31.8 20.2355C30.367 20.1605 29.556 20.0388 28.7518 19.7781C27.3836 19.3348 26.6939 18.7443 25.0686 16.6249C24.3468 15.6837 23.9006 15.1629 23.4568 14.7434C22.4483 13.7904 21.4574 13.2905 20.1889 13.095Z" fill="white"/>
<path d="M32.5914 15.1963C32.6275 14.5656 32.7134 14.1495 32.8866 13.7696C32.955 13.6192 33.0192 13.4961 33.0292 13.4961C33.0389 13.4961 33.0092 13.6071 32.9628 13.7428C32.8371 14.1115 32.8164 14.6159 32.9031 15.2027C33.0131 15.9472 33.0756 16.0547 33.8675 16.859C34.2388 17.2362 34.6709 17.712 34.8273 17.9162L35.1121 18.2877L34.8273 18.0222C34.4792 17.6976 33.6784 17.0645 33.5016 16.9741C33.3828 16.9134 33.3653 16.9144 33.2921 16.9868C33.2248 17.0536 33.2104 17.1537 33.2011 17.6275C33.1866 18.3658 33.0853 18.8397 32.841 19.3136C32.7088 19.5698 32.6878 19.5151 32.8075 19.2259C32.8967 19.0098 32.9059 18.915 32.9053 18.2002C32.9038 16.764 32.7323 16.4188 31.7264 15.8273C31.4716 15.6775 31.0516 15.4615 30.7932 15.3472C30.5349 15.2329 30.3296 15.1333 30.3371 15.1258C30.3656 15.0977 31.3466 15.3823 31.7416 15.5333C32.3289 15.7577 32.4259 15.7869 32.4971 15.7598C32.545 15.7416 32.5682 15.6033 32.5914 15.1963Z" fill="white"/>
<path d="M19.8155 14.0951C19.721 15.2038 20.1583 16.687 20.8653 17.6544C21.4133 18.4042 22.2629 18.987 22.89 19.0433C23.3007 19.0802 23.4241 18.9524 23.2383 18.6827C22.9804 18.3083 22.6632 17.7319 22.5793 17.4851C22.5271 17.3317 22.4137 16.8788 22.3273 16.4786C22.0325 15.1122 21.7426 14.5801 21.073 14.176C20.829 14.0287 20.308 13.8359 20.0058 13.7811L19.8448 13.752L19.8155 14.0951Z" fill="white"/>
<path d="M31.7341 24.854C28.4302 23.5319 27.2666 22.3843 27.2666 20.4479C27.2666 20.1629 27.2765 19.9297 27.2885 19.9297C27.3006 19.9297 27.4284 20.0237 27.5726 20.1387C28.2426 20.6727 28.9927 20.9009 31.0697 21.202C32.2919 21.3793 32.9797 21.5225 33.6141 21.7315C35.6305 22.3962 36.8781 23.7451 37.1758 25.5825C37.2622 26.1164 37.2115 27.1175 37.0713 27.6451C36.9608 28.0619 36.623 28.813 36.5333 28.8419C36.5085 28.85 36.4842 28.7552 36.4777 28.6266C36.4438 27.9366 36.0931 27.265 35.5041 26.7619C34.8342 26.1898 33.9344 25.7344 31.7341 24.854Z" fill="white"/>
<path d="M29.255 24.7086C29.3014 24.8459 29.3732 25.1586 29.4146 25.4034C29.6792 26.9687 28.8525 28.2333 27.2444 28.7234C27.074 28.7752 26.4035 28.9057 25.7542 29.0133C24.4396 29.2308 23.8528 29.3847 23.2635 29.6669C22.8454 29.8672 22.3393 30.1669 22.3694 30.1968C22.3792 30.2063 22.4746 30.1836 22.5814 30.1463C23.3247 29.8869 24.152 29.7527 25.4088 29.6877C25.9075 29.6619 26.4747 29.6208 26.6693 29.5966C27.789 29.4563 28.565 29.1184 29.1685 28.5079C29.5043 28.1682 29.7046 27.8518 29.8658 27.4054C29.9681 27.1225 29.9819 27.0172 29.9828 26.5157C29.9836 26.0047 29.9711 25.9111 29.8604 25.5966C29.7153 25.1847 29.544 24.8754 29.3274 24.6336L29.1707 24.459L29.255 24.7086Z" fill="white"/>
<path d="M30.9294 28.0767C30.4904 27.1388 30.3897 26.2332 30.6301 25.3888C30.656 25.2985 30.6972 25.2246 30.7222 25.2246C30.7471 25.2246 30.8507 25.2803 30.9524 25.3482C31.1546 25.4836 31.5604 25.7116 32.6411 26.2972C33.9899 27.0281 34.7589 27.5941 35.2818 28.2406C35.7399 28.8068 36.0232 29.4518 36.1596 30.2384C36.2368 30.6836 36.1915 31.7556 36.0765 32.2041C35.7139 33.6185 34.8711 34.7295 33.669 35.3778C33.4929 35.4728 33.3349 35.5507 33.3178 35.5511C33.3006 35.5514 33.3649 35.3892 33.4604 35.1907C33.8646 34.3506 33.9107 33.5334 33.605 32.6236C33.4178 32.0667 33.0361 31.387 32.2656 30.2384C31.3694 28.9029 31.1499 28.5475 30.9294 28.0767Z" fill="white"/>
<path d="M22.6605 31.1531C21.271 31.3776 19.7454 32.1084 18.5194 33.1373L18.1543 33.4437L18.4751 33.4934C20.1492 33.7531 20.5999 33.9834 21.7611 35.1723C22.4293 35.8564 22.655 36.0087 23.2092 36.1494C24.0233 36.3559 24.8257 35.9764 25.101 35.2545C25.2239 34.9321 25.2076 34.3981 25.0665 34.1299C24.7308 33.4914 23.753 33.2851 23.2803 33.7527C22.8865 34.1423 23.0012 34.7292 23.491 34.8301C23.6032 34.8532 23.6 34.8484 23.4625 34.7866C23.248 34.6901 23.155 34.5567 23.1537 34.3442C23.1511 33.8459 23.7249 33.5659 24.2586 33.8053C24.6494 33.9806 24.8047 34.2098 24.8047 34.6112C24.8047 35.2295 24.2753 35.6955 23.659 35.6192C23.3297 35.5784 22.9269 35.3692 22.711 35.1264C22.1675 34.5156 22.3792 33.552 23.1379 33.1821C23.7155 32.9006 24.4835 32.9701 25.0787 33.3576C25.7629 33.8028 26.0539 34.2098 26.6432 35.5455C26.835 35.9805 27.0818 36.4699 27.1917 36.6334C27.7497 37.4639 28.4186 37.8712 29.2242 37.8712C29.6683 37.8712 30.0026 37.7905 30.423 37.5817C30.7355 37.4266 31.1785 37.132 31.1465 37.1005C31.1374 37.0914 31.0078 37.1314 30.8586 37.1894C29.979 37.5303 29.0849 37.507 28.5657 37.1292C28.2387 36.8912 27.9749 36.4177 27.8393 35.8251C27.8158 35.7226 27.7385 35.2698 27.6672 34.8187C27.4867 33.6753 27.3133 33.1614 26.9092 32.5717C26.4955 31.9684 25.7004 31.462 24.8115 31.2359C24.2569 31.0948 23.2593 31.0564 22.6605 31.1531Z" fill="white"/>
<path fill-rule="evenodd" clip-rule="evenodd" d="M20.7144 22.3124C20.8344 21.8718 21.2221 21.4518 21.6208 21.33C21.8744 21.2526 22.3986 21.3021 22.6451 21.4265C23.1226 21.6679 23.4694 22.2178 23.3942 22.6144C23.3024 23.0983 22.5129 23.4855 21.6047 23.4918C21.1408 23.495 20.9696 23.433 20.7924 23.198C20.6828 23.0524 20.6412 22.5811 20.7144 22.3124ZM22.5232 21.599C22.7612 21.7436 22.8226 21.9574 22.6825 22.1551C22.5861 22.2914 22.2874 22.4207 22.0692 22.4207C21.7412 22.4207 21.3836 22.1894 21.3836 21.9775C21.3836 21.5515 22.0696 21.3237 22.5232 21.599Z" fill="white"/>
</g>
<defs>
<clipPath id="clip0_3930_10516">
<rect width="50" height="50" fill="white" transform="translate(0 0.5)"/>
</clipPath>
</defs>
</svg>
