<svg width="50" height="50" viewBox="0 0 50 50" fill="none" xmlns="http://www.w3.org/2000/svg">
<path d="M25 50C38.807 50 50 38.807 50 25C50 11.1929 38.807 0 25 0C11.1929 0 0 11.1929 0 25C0 38.807 11.1929 50 25 50Z" fill="white"/>
<path d="M33.6862 16.5488C31.802 16.5488 29.7388 17.5734 27.5625 19.5945C26.5356 20.5439 25.6312 21.5779 24.9717 22.3957C24.9717 22.3957 26.0269 23.6083 27.1856 24.9149C27.8169 24.1253 28.7119 23.0537 29.7576 22.0855C31.6889 20.2807 32.9513 19.9141 33.6768 19.9141C36.39 19.9141 38.5946 22.1889 38.5946 24.9995C38.5946 27.782 36.39 30.0568 33.6768 30.085C33.5448 30.085 33.3941 30.0662 33.2057 30.0286C33.9971 30.3952 34.8544 30.6584 35.6552 30.6584C40.6295 30.6584 41.6094 27.2273 41.6657 26.9829C41.8073 26.3532 41.8918 25.6951 41.8918 25.0183C41.8826 20.3465 38.2083 16.5488 33.6862 16.5488Z" fill="url(#paint0_linear_3923_2801)"/>
<path d="M16.3044 33.4514C18.1886 33.4514 20.2518 32.4268 22.4281 30.4058C23.455 29.4563 24.3594 28.4223 25.0189 27.6045C25.0189 27.6045 23.9637 26.3919 22.8049 25.0853C22.1737 25.8749 21.2787 26.9465 20.233 27.9147C18.3017 29.7007 17.0298 30.0861 16.3138 30.0861C13.6005 30.0861 11.396 27.8113 11.396 25.0007C11.396 22.2183 13.6005 19.9434 16.3138 19.9152C16.4457 19.9152 16.5964 19.934 16.7849 19.9716C15.9935 19.605 15.1362 19.3418 14.3354 19.3418C9.36106 19.3324 8.38127 22.7635 8.32472 23.0173C8.18342 23.6471 8.09863 24.3051 8.09863 24.9819C8.09863 29.6538 11.7729 33.4514 16.3044 33.4514Z" fill="url(#paint1_linear_3923_2801)"/>
<path fill-rule="evenodd" clip-rule="evenodd" d="M20.0922 22.1607C19.5457 21.6343 16.889 19.4817 14.3453 19.4065C9.80436 19.2937 8.47598 22.5837 8.35352 23.0067C9.22968 19.3219 12.4705 16.5676 16.3143 16.5488C19.4515 16.5488 22.6264 19.6227 24.9723 22.3957L24.9817 22.3863C24.9817 22.3863 26.0369 23.5989 27.1957 24.9055C27.1957 24.9055 28.5146 26.4565 29.9089 27.8196C30.4553 28.346 33.1027 30.4704 35.6462 30.5456C40.31 30.6772 41.6005 27.1991 41.6663 26.9359C40.8093 30.649 37.5589 33.4126 33.6962 33.4314C30.559 33.4314 27.3841 30.3576 25.0288 27.5846C25.0288 27.594 25.0194 27.594 25.0194 27.6034C25.0194 27.6034 23.9642 26.3908 22.8055 25.0841C22.8149 25.0841 21.4959 23.5237 20.0922 22.1607ZM8.35352 23.0443C8.35352 23.0349 8.35352 23.0255 8.36292 23.0161C8.35352 23.0255 8.35352 23.0349 8.35352 23.0443Z" fill="#29ABE2"/>
<defs>
<linearGradient id="paint0_linear_3923_2801" x1="29.2757" y1="17.888" x2="40.864" y2="29.5977" gradientUnits="userSpaceOnUse">
<stop offset="0.21" stop-color="#F15A24"/>
<stop offset="0.6841" stop-color="#FBB03B"/>
</linearGradient>
<linearGradient id="paint1_linear_3923_2801" x1="20.7178" y1="32.1141" x2="9.12951" y2="20.4044" gradientUnits="userSpaceOnUse">
<stop offset="0.21" stop-color="#ED1E79"/>
<stop offset="0.8929" stop-color="#522785"/>
</linearGradient>
</defs>
</svg>
