<svg width="48" height="48" viewBox="0 0 48 48" fill="none" xmlns="http://www.w3.org/2000/svg">
<g clip-path="url(#clip0_3964_769)">
<path d="M24.0749 47.8176C37.2782 47.8176 47.9816 37.1143 47.9816 23.911C47.9816 10.7077 37.2782 0.00439453 24.0749 0.00439453C10.8717 0.00439453 0.168335 10.7077 0.168335 23.911C0.168335 37.1143 10.8717 47.8176 24.0749 47.8176Z" fill="url(#paint0_linear_3964_769)"/>
<path d="M30.5947 24.7683C30.5947 23.7452 31.4132 22.9268 32.4363 22.9268C33.4596 22.9268 34.278 23.7452 34.278 24.7683C34.278 25.7913 33.4596 26.6097 32.4363 26.6097C31.4132 26.6097 30.5947 25.7573 30.5947 24.7683Z" fill="white"/>
<path d="M41.7133 29.2359C41.6449 29.8156 41.5768 30.3954 41.4062 30.9411C40.8947 32.8848 39.7692 34.6582 37.9275 35.6472C35.4036 36.943 32.4024 36.4656 29.8786 35.4767C27.7982 36.943 27.7982 36.943 27.7982 36.943C27.3208 37.25 26.7069 36.7385 26.9795 36.2269C26.3998 36.3293 26.2293 35.7835 26.3998 35.3403C25.9224 35.7153 25.513 35.0333 25.7859 34.624C25.9564 34.3514 26.2293 34.0443 26.434 33.8056C23.5009 32.1346 20.8406 30.0885 18.1463 28.0764C19.6811 29.0314 25.8201 32.1688 27.3208 32.8167C28.8894 33.4988 30.4583 34.1808 32.0954 34.5559C33.4597 34.8627 35.1991 35.0333 36.4609 34.249C37.6206 33.5669 38.064 32.1688 38.2345 30.9069C38.6437 28.1788 37.6888 25.1096 36.2564 22.7906C34.7557 20.3695 32.3001 18.1869 29.5034 17.4708C28.4802 17.198 27.4571 17.198 26.5022 17.3685C24.2854 17.7436 22.2731 19.1077 20.7382 20.8127C18.5214 23.2682 16.9867 26.3032 15.5884 29.3043C14.6334 31.3162 13.3033 36.2269 10.1656 34.283C8.76725 33.3964 7.88051 31.8619 7.26661 30.3614C6.58449 28.7585 6.10701 26.6101 6.55038 24.8709C7.50534 21.222 12.6212 24.4617 14.3606 25.6211C14.2582 25.5872 10.1656 23.7114 8.66494 25.1778C7.98282 25.8598 8.01692 27.0875 8.11924 27.9743C8.32388 29.5769 9.1083 31.9641 10.6089 32.8508C12.553 33.9761 13.542 30.4637 14.0536 29.2359C14.9062 27.1558 15.7248 25.0756 16.6797 23.0293C17.737 20.7788 18.9988 18.562 20.7382 16.7546C20.3632 16.3113 19.8175 15.7657 19.7833 15.1859C19.7151 14.538 20.3632 13.8219 21.0453 14.1629C20.2608 13.2762 21.3182 11.9462 22.3413 12.4578C21.8637 11.7075 22.6142 10.7527 23.3986 10.7868C23.842 10.7868 24.2854 11.1619 24.6264 11.4006C25.513 11.9804 26.3998 12.5942 27.3208 13.1739C35.813 11.844 42.4635 21.4948 41.7133 29.2359Z" fill="white"/>
</g>
<defs>
<linearGradient id="paint0_linear_3964_769" x1="0.168267" y1="23.911" x2="47.9816" y2="23.911" gradientUnits="userSpaceOnUse">
<stop stop-color="#030332"/>
<stop offset="1" stop-color="#171753"/>
</linearGradient>
<clipPath id="clip0_3964_769">
<rect width="48" height="48" fill="white"/>
</clipPath>
</defs>
</svg>
