<svg width="32" height="32" viewBox="0 0 50 52" fill="none" xmlns="http://www.w3.org/2000/svg">
<g clip-path="url(#clip0_3930_2692)">
<path d="M25 50.5C38.8071 50.5 50 39.3071 50 25.5C50 11.6929 38.8071 0.5 25 0.5C11.1929 0.5 0 11.6929 0 25.5C0 39.3071 11.1929 50.5 25 50.5Z" fill="white"/>
<path d="M31.7654 10.525C32.1722 10.525 32.5478 10.3581 32.8294 10.066L34.9575 7.84404C35.2183 7.56238 35.5939 7.4059 35.9798 7.4059H36.0633C36.4701 7.4059 36.8457 7.58325 37.1169 7.88577L38.9112 9.91999C39.2555 10.306 39.7458 10.525 40.2569 10.525H45.066C40.4864 4.43282 33.205 0.5 25.0055 0.5C16.806 0.5 9.51417 4.43282 4.93457 10.525H31.7654Z" fill="black"/>
<path d="M34.3 17.2962H38.7231L48.6752 17.2858C49.3637 19.247 49.8122 21.3333 49.9896 23.4823H31.3374C30.8262 23.4823 30.3359 23.2632 29.9917 22.8773L28.1974 20.8535C27.9261 20.5509 27.5506 20.3736 27.1438 20.3736H27.0603C26.6847 20.3736 26.3092 20.5301 26.0484 20.8117L23.9203 23.0337C23.6386 23.3258 23.2631 23.4927 22.8562 23.4927H0C0.177342 21.3333 0.625913 19.2574 1.31442 17.3066H25.5268C26.2779 17.3066 27.0081 16.9728 27.5089 16.4095L29.0528 14.6674C29.324 14.3648 29.6996 14.1875 30.1064 14.1875C30.5132 14.1875 30.8888 14.3648 31.16 14.6674L32.9543 16.6912C33.2986 17.0771 33.7889 17.2962 34.3 17.2962Z" fill="black"/>
<path d="M14.8972 36.0527C14.6155 36.3448 14.24 36.5117 13.8331 36.5117L2.39981 36.5221C1.45051 34.5609 0.762002 32.4641 0.344727 30.263H16.608C17.3696 30.263 18.0998 29.9396 18.6005 29.3659L20.1444 27.6237C20.4052 27.3316 20.7912 27.1543 21.1981 27.1543C21.6049 27.1543 21.9804 27.3212 22.2517 27.6237L24.046 29.6267C24.3902 30.0126 24.8805 30.2317 25.3917 30.2317H49.6667C49.2494 32.4328 48.5609 34.5296 47.6116 36.4908H22.3247C21.8135 36.4908 21.3232 36.2718 20.979 35.8858L19.1847 33.862C18.9239 33.5699 18.5379 33.3926 18.1311 33.3926H18.0476C17.6616 33.3926 17.2965 33.549 17.0253 33.8307L14.8972 36.0527Z" fill="black"/>
<path d="M15.5432 42.7174L43.3546 42.7278C38.7646 47.6308 32.2551 50.7082 25.0049 50.7082C17.7548 50.7082 11.2349 47.6308 6.65527 42.7278H6.75959C7.52112 42.7278 8.25135 42.4045 8.75208 41.8307L10.296 40.0886C10.5568 39.7965 10.9428 39.6191 11.3496 39.6191C11.7565 39.6191 12.132 39.7861 12.4032 40.0886L14.1975 42.1124C14.5418 42.4983 15.0321 42.7174 15.5432 42.7174Z" fill="black"/>
</g>
<defs>
<clipPath id="clip0_3930_2692">
<rect width="50" height="51" fill="white" transform="translate(0 0.5)"/>
</clipPath>
</defs>
</svg>
