<svg width="50" height="51" viewBox="0 0 50 51" fill="none" xmlns="http://www.w3.org/2000/svg">
<g clip-path="url(#clip0_3930_10513)">
<path d="M25.0344 50.4296C38.7489 50.4296 49.8667 39.2525 49.8667 25.4648C49.8667 11.6771 38.7489 0.5 25.0344 0.5C11.3199 0.5 0.202148 11.6771 0.202148 25.4648C0.202148 39.2525 11.3199 50.4296 25.0344 50.4296Z" fill="#FF060A"/>
<path d="M38.9968 20.9866C37.6243 19.7126 35.726 17.7672 34.1797 16.3875L34.0881 16.3231C33.9361 16.2002 33.7643 16.1038 33.5804 16.038C29.8521 15.3389 12.5004 12.0782 12.1618 12.1195C12.067 12.1329 11.9763 12.1675 11.8965 12.2207L11.8096 12.2897C11.7026 12.399 11.6213 12.531 11.5717 12.676L11.5488 12.7358V13.0623V13.1129C13.5022 18.5813 21.2151 36.4948 22.7339 40.6984C22.8254 40.9836 22.9992 41.5262 23.324 41.5537H23.3973C23.5711 41.5537 24.3122 40.5695 24.3122 40.5695C24.3122 40.5695 37.5606 24.4175 38.9008 22.6975C39.0743 22.4856 39.2274 22.2577 39.3582 22.0168C39.3918 21.8283 39.376 21.6344 39.3126 21.4538C39.2492 21.2733 39.1404 21.1123 38.9968 20.9866ZM27.7111 22.8676L33.3654 18.1535L36.6821 21.2257L27.7111 22.8676ZM25.5153 22.5595L15.7804 14.5387L31.531 17.4591L25.5153 22.5595ZM26.3937 24.6613L36.3572 23.047L24.9663 36.8441L26.3937 24.6613ZM14.4583 15.3389L24.701 24.0772L23.2188 36.8537L14.4583 15.3389Z" fill="white"/>
</g>
<defs>
<clipPath id="clip0_3930_10513">
<rect width="50" height="50" fill="white" transform="translate(0 0.5)"/>
</clipPath>
</defs>
</svg>
