<svg width="48" height="48" viewBox="0 0 48 48" fill="none" xmlns="http://www.w3.org/2000/svg">
<g clip-path="url(#clip0_3964_639)">
<path d="M1.20001 23.9999C1.20001 36.5922 11.4076 46.8 23.9997 46.8C36.5918 46.8 46.8 36.5919 46.8 23.9999C46.8 11.4077 36.5918 1.19995 23.9997 1.19995C11.4076 1.19995 1.20001 11.4077 1.20001 23.9999Z" fill="#0C0C4F"/>
<path fill-rule="evenodd" clip-rule="evenodd" d="M0 23.9996C0 10.7449 10.7449 0 23.9996 0C37.2545 0 48 10.7449 48 23.9996C48 37.2543 37.2545 47.9994 23.9996 47.9994C10.7449 47.9994 0 37.2545 0 23.9996ZM23.9996 1.21519C11.416 1.21519 1.21519 11.416 1.21519 23.9996C1.21519 36.5834 11.416 46.7842 23.9996 46.7842C36.5834 46.7842 46.7848 36.5831 46.7848 23.9996C46.7848 11.4161 36.5834 1.21519 23.9996 1.21519Z" fill="#EC796B"/>
<path fill-rule="evenodd" clip-rule="evenodd" d="M13.414 18.3451L14.0064 16.5148C14.1269 16.1425 14.4207 15.8528 14.7943 15.7386L16.6336 15.173C16.8882 15.0952 16.8902 14.736 16.6377 14.6542L14.8067 14.0617C14.4351 13.9413 14.1454 13.6475 14.0305 13.2738L13.4656 11.4346C13.3878 11.1807 13.0287 11.1779 12.9468 11.4311L12.3543 13.2615C12.2339 13.633 11.9401 13.9227 11.5664 14.0376L9.72717 14.6026C9.47258 14.681 9.46982 15.0395 9.72304 15.1214L11.5541 15.7138C11.9256 15.8342 12.2153 16.1287 12.3302 16.5024L12.8952 18.341C12.9729 18.5955 13.3321 18.5983 13.414 18.3451Z" fill="#FAFAFA"/>
<path fill-rule="evenodd" clip-rule="evenodd" d="M42.4855 17.2802C41.7272 16.4323 40.5439 15.9549 39.3934 15.7592C38.2338 15.5711 37.0177 15.5886 35.873 15.792C33.5566 16.1838 31.4522 17.143 29.6167 18.3262C28.6635 18.9069 27.8507 19.5789 27.0085 20.2632C26.6028 20.6093 26.2328 20.9778 25.8476 21.3411L24.7949 22.3886C23.651 23.5842 22.5235 24.6733 21.4326 25.5759C20.3374 26.4745 19.3133 27.1569 18.3042 27.6334C17.2957 28.1125 16.2166 28.3942 14.81 28.4393C13.4158 28.4884 11.7663 28.2368 10.0019 27.8215C8.22805 27.408 6.36528 26.8186 4.28369 26.3114C5.01001 28.3264 6.10374 30.107 7.50799 31.7349C8.92869 33.3344 10.7027 34.792 12.9817 35.7508C15.2278 36.7308 18.0504 37.0826 20.6896 36.5519C23.3358 36.0424 25.6579 34.8181 27.535 33.4018C29.4169 31.9712 30.9394 30.3416 32.2229 28.6474C32.5771 28.1793 32.7646 27.9173 33.021 27.5515L33.7297 26.5017C34.2222 25.8524 34.6706 25.113 35.1579 24.4697C36.1136 23.1223 37.056 21.7764 38.1509 20.5365C38.702 19.9076 39.2832 19.3061 39.9691 18.728C40.3112 18.4458 40.6809 18.1697 41.0905 17.9209C41.5061 17.6526 41.945 17.4426 42.4855 17.2802Z" fill="#EC796B"/>
<path fill-rule="evenodd" clip-rule="evenodd" d="M42.4855 17.2802C41.671 15.2247 40.1566 13.4945 38.1239 12.2177C36.1036 10.9549 33.2977 10.3105 30.5171 10.8599C29.1435 11.1255 27.8127 11.637 26.6449 12.3181C25.4823 12.9965 24.4405 13.8132 23.5386 14.6893C23.0884 15.1288 22.6797 15.5873 22.2737 16.0484L21.2214 17.39L19.5961 19.5497C17.5242 22.3284 15.2929 25.5848 11.6313 26.5497C8.03668 27.4969 6.47763 26.658 4.28369 26.3114C4.68486 27.3471 5.18175 28.3529 5.85539 29.2377C6.51648 30.1404 7.29736 30.9882 8.26818 31.7152C8.75878 32.0643 9.27676 32.4088 9.85203 32.701C10.4247 32.9833 11.0423 33.2318 11.7015 33.4186C13.0126 33.778 14.4888 33.9041 15.9181 33.7106C17.348 33.5198 18.7148 33.0668 19.9095 32.465C21.1131 31.8686 22.1615 31.1426 23.0976 30.3764C24.9585 28.831 26.406 27.1235 27.6287 25.3974C28.2437 24.5345 28.802 23.6552 29.3183 22.7757L29.926 21.7287C30.1117 21.4226 30.2996 21.1146 30.4904 20.8278C31.2605 19.6755 32.0136 18.7516 32.9283 18.0581C33.8303 17.3467 35.0865 16.821 36.765 16.6989C38.4365 16.5753 40.3662 16.8036 42.4855 17.2802Z" fill="#FAFAFA"/>
<path fill-rule="evenodd" clip-rule="evenodd" d="M33.4423 34.3587C33.4423 35.8686 34.6669 37.0929 36.1765 37.0929C37.6864 37.0929 38.9092 35.8686 38.9092 34.3587C38.9092 32.8491 37.6864 31.6245 36.1765 31.6245C34.6669 31.6245 33.4423 32.8491 33.4423 34.3587Z" fill="#EC796B"/>
</g>
<defs>
<clipPath id="clip0_3964_639">
<rect width="48" height="48" fill="white"/>
</clipPath>
</defs>
</svg>
