<svg width="24" height="24" viewBox="0 0 24 24" fill="none" xmlns="http://www.w3.org/2000/svg">
<path d="M12 0C18.6273 0 24 5.37267 24 12C24 18.6273 18.6273 24 12 24C5.37267 24 0 18.6273 0 12C0 5.37267 5.37267 0 12 0Z" fill="#0052FF"/>
<path d="M12.0114 16.204C9.67725 16.204 7.79118 14.3158 7.79118 11.9906C7.79118 9.66542 9.68246 7.77719 12.0114 7.77719C14.1007 7.77719 15.8356 9.2961 16.1691 11.2884H20.4205C20.061 6.96052 16.4348 3.55859 12.0062 3.55859C7.34311 3.55859 3.56055 7.33505 3.56055 11.9906C3.56055 16.6461 7.34311 20.4226 12.0062 20.4226C16.4348 20.4226 20.061 17.0207 20.4205 12.6928H16.1639C15.8304 14.6851 14.1007 16.204 12.0114 16.204Z" fill="white"/>
</svg>
