<svg width="32" height="32" viewBox="0 0 50 51" fill="none" xmlns="http://www.w3.org/2000/svg">
<g clip-path="url(#clip0_3930_10508)">
<path d="M25 50.5C38.8071 50.5 50 39.3071 50 25.5C50 11.6929 38.8071 0.5 25 0.5C11.1929 0.5 0 11.6929 0 25.5C0 39.3071 11.1929 50.5 25 50.5Z" fill="black"/>
<path d="M15.1381 31.2896C15.3114 31.1153 15.5496 31.0137 15.8023 31.0137H38.7183C39.1368 31.0137 39.3463 31.522 39.0503 31.8197L34.5233 36.3728C34.35 36.5472 34.1118 36.6488 33.8591 36.6488H10.9434C10.5246 36.6488 10.3153 36.1404 10.6113 35.8428L15.1381 31.2896Z" fill="url(#paint0_linear_3930_10508)"/>
<path d="M15.1381 14.2896C15.3186 14.1153 15.5569 14.0137 15.8023 14.0137H38.7183C39.1368 14.0137 39.3463 14.522 39.0503 14.8197L34.5233 19.3729C34.35 19.5472 34.1118 19.6488 33.8591 19.6488H10.9434C10.5246 19.6488 10.3153 19.1405 10.6113 18.8428L15.1381 14.2896Z" fill="url(#paint1_linear_3930_10508)"/>
<path d="M34.5233 22.7349C34.35 22.5606 34.1118 22.459 33.8591 22.459H10.9434C10.5246 22.459 10.3153 22.9673 10.6113 23.2651L15.1381 27.8182C15.3114 27.9925 15.5496 28.0942 15.8023 28.0942H38.7183C39.1368 28.0942 39.3463 27.5858 39.0503 27.2881L34.5233 22.7349Z" fill="url(#paint2_linear_3930_10508)"/>
</g>
<defs>
<linearGradient id="paint0_linear_3930_10508" x1="33.0396" y1="9.46138" x2="17.035" y2="39.9394" gradientUnits="userSpaceOnUse">
<stop stop-color="#00FFA3"/>
<stop offset="1" stop-color="#DC1FFF"/>
</linearGradient>
<linearGradient id="paint1_linear_3930_10508" x1="33.0396" y1="9.46134" x2="17.035" y2="39.9393" gradientUnits="userSpaceOnUse">
<stop stop-color="#00FFA3"/>
<stop offset="1" stop-color="#DC1FFF"/>
</linearGradient>
<linearGradient id="paint2_linear_3930_10508" x1="33.0396" y1="9.46116" x2="17.035" y2="39.9392" gradientUnits="userSpaceOnUse">
<stop stop-color="#00FFA3"/>
<stop offset="1" stop-color="#DC1FFF"/>
</linearGradient>
<clipPath id="clip0_3930_10508">
<rect width="50" height="50" fill="white" transform="translate(0 0.5)"/>
</clipPath>
</defs>
</svg>
