<svg width="50" height="50" viewBox="0 0 50 50" fill="none" xmlns="http://www.w3.org/2000/svg">
<circle cx="25" cy="25" r="25" fill="white"/>
<path fill-rule="evenodd" clip-rule="evenodd" d="M41 24.9934C40.9964 16.1599 33.8343 9 25 9C16.1635 9 9 16.1635 9 25C9 33.8365 16.1635 41 25 41C33.8343 41 40.9964 33.8401 41 25.0066C41 25.0044 41 25.0022 41 25C41 24.9978 41 24.9956 41 24.9934ZM12.0849 23.5003C12.8284 17.0266 18.3271 11.9993 25 11.9993C28.6918 11.9993 32.0242 13.5381 34.3908 16.0093L24.8548 16.0244H24.8536C20.4082 16.025 16.7176 19.2576 16.0039 23.5003H12.0849ZM12.0849 26.4996C12.8284 32.9734 18.3271 38.0007 25 38.0007C28.6993 38.0007 32.0377 36.4557 34.4051 33.9757H24.8548C20.4088 33.9757 16.7177 30.7428 16.0039 26.4996H12.0849ZM36.5486 30.9764C37.2581 29.6082 37.7316 28.098 37.9151 26.4996H19.0682C19.7336 29.0744 22.0722 30.9764 24.8548 30.9764H36.5486ZM37.9151 23.5003H19.0682C19.7337 20.9256 22.0722 19.0237 24.8548 19.0237H24.856L36.5391 19.0052C37.2538 20.3782 37.7307 21.8948 37.9151 23.5003Z" fill="black"/>
</svg>
