<svg width="48" height="48" viewBox="0 0 48 48" fill="none" xmlns="http://www.w3.org/2000/svg">
<g clip-path="url(#clip0_3988_3963)">
<path d="M23.4469 0H24.5531C24.5906 0.009375 24.6281 0.01875 24.6656 0.028125C24.8813 0.0375 25.0969 0.0375 25.3125 0.05625C25.8656 0.103125 26.4188 0.13125 26.9719 0.20625C27.6656 0.3 28.3688 0.4125 29.0625 0.553125C30.5813 0.871875 32.0625 1.34062 33.4875 1.95937C40.2938 4.89375 45.3656 10.8 47.2313 17.9719C47.4563 18.825 47.625 19.6969 47.7563 20.5687C47.8313 21.0844 47.8875 21.6094 47.925 22.125C47.9625 22.5281 47.9625 22.9406 47.9813 23.3438C47.9906 23.3813 48 23.4094 48.0094 23.4469V24.5531C48 24.5719 47.9906 24.5906 47.9813 24.6188C47.9719 24.8531 47.9719 25.0875 47.9531 25.3219C47.9156 25.8 47.8969 26.2781 47.8313 26.7562C47.7281 27.525 47.6156 28.2844 47.4656 29.0437C47.0813 30.8719 46.4813 32.6438 45.675 34.3219C44.0531 37.725 41.6625 40.6875 38.6813 42.9844C36.1406 44.9625 33.2344 46.3969 30.1219 47.2031C28.7813 47.5594 27.4219 47.7937 26.0344 47.8969C25.4438 47.9437 24.8531 47.9625 24.2625 47.9906C23.9625 48 23.6531 47.9906 23.3531 47.9719C22.8094 47.9438 22.2563 47.925 21.7125 47.8688C21.1594 47.8125 20.6063 47.7375 20.0531 47.6531C18.8813 47.4656 17.7281 47.1937 16.6031 46.8187C8.92502 44.3437 3.02814 38.175 0.871891 30.4125C0.468766 28.9781 0.206266 27.5156 0.0937657 26.025C0.0562657 25.4719 0.0187657 24.9094 1.57485e-05 24.3562C-0.00935925 24.0281 1.57482e-05 23.6906 0.0187657 23.3625C0.0562657 22.725 0.0843907 22.0969 0.140641 21.4688C0.196891 20.8781 0.281266 20.2781 0.384391 19.6969C0.637516 18.2625 1.03127 16.8563 1.55627 15.4969C4.32189 8.23125 10.4344 2.74687 17.9625 0.7875C18.8156 0.5625 19.6875 0.39375 20.5594 0.2625C21.075 0.1875 21.6 0.13125 22.1156 0.09375C22.5281 0.05625 22.9406 0.05625 23.3438 0.0375C23.3906 0.01875 23.4188 0.009375 23.4469 0ZM23.9906 41.6625C33.7406 41.7094 41.6063 33.7406 41.6719 24.2063C41.7375 14.2875 33.7969 6.45938 24.2156 6.35625C14.175 6.25313 6.45002 14.2781 6.34689 23.7938C6.23439 33.8063 14.3625 41.7 23.9906 41.6625Z" fill="#7B2BF9"/>
<path d="M23.9905 41.6627C14.3624 41.7096 6.23427 33.8158 6.3374 23.794C6.44052 14.2877 14.1655 6.25333 24.2061 6.35645C33.7874 6.45958 41.728 14.2877 41.6624 24.2065C41.6155 33.7408 33.7499 41.7002 23.9905 41.6627ZM33.478 18.6752C33.4218 18.6283 33.3843 18.5908 33.3468 18.5627C33.1499 18.4127 32.9624 18.2533 32.7655 18.1033C29.9061 15.8908 26.6436 14.2408 23.1655 13.2471C21.6093 12.7877 20.0061 12.5158 18.3936 12.4315C17.7936 12.4033 17.1936 12.4315 16.5936 12.4502C16.003 12.469 15.4124 12.544 14.8311 12.6658C13.828 12.8721 12.8718 13.2002 11.9999 13.744C11.1749 14.2502 10.4999 14.9721 10.0593 15.844C9.59052 16.7721 9.49677 17.7752 9.5999 18.7971C9.68427 19.5377 9.88115 20.2689 10.1624 20.9533C10.6499 22.1814 11.3436 23.2877 12.1499 24.3377C13.003 25.4346 13.9593 26.4377 15.0093 27.3377C15.2999 27.6002 15.7405 27.6189 16.0405 27.3658C17.6249 26.1189 19.2843 24.9846 21.0186 23.9627C21.4124 23.7471 21.6561 23.344 21.6655 22.9033C21.703 22.3127 21.7405 21.7127 21.7874 21.1221C21.8249 20.6627 21.8718 20.2033 21.9374 19.744C22.0499 19.0033 22.1718 18.2533 22.3218 17.5221C22.528 16.4627 22.8093 15.4127 23.1655 14.3908C23.2218 14.1565 23.4655 14.0158 23.6999 14.0721C23.7186 14.0815 23.7374 14.0815 23.7561 14.0908C23.9249 14.1471 24.103 14.2033 24.2718 14.2596C24.5905 14.3627 24.703 14.5783 24.5905 14.8971C24.0561 16.5189 23.6718 18.1877 23.4561 19.8752C23.353 20.6721 23.278 21.4689 23.2124 22.2658C23.1655 22.9408 23.1561 23.6252 23.1374 24.3002C23.128 24.6846 23.1468 25.0783 23.1561 25.4627C23.1561 25.6783 23.1655 25.8846 23.1749 26.1002C23.2218 26.8033 23.2593 27.5064 23.3249 28.2002C23.3718 28.7346 23.4374 29.2689 23.5218 29.8033C23.6436 30.5439 23.803 31.2846 23.953 32.0252C24.0374 32.419 23.878 32.7377 23.503 32.8971C23.2311 33.0096 22.9593 33.1127 22.6874 33.2252C22.303 33.3846 21.8624 33.3752 21.4968 33.1877C20.1186 32.5502 18.7874 31.8377 17.4936 31.0408C15.0843 29.5127 12.9093 27.7127 11.1186 25.4721C10.2093 24.3283 9.43115 23.1002 8.86865 21.7502C8.72802 21.4033 8.60615 21.0471 8.48427 20.6908C8.45615 20.6064 8.40927 20.5315 8.31552 20.5596C8.25927 20.5783 8.20302 20.6252 8.18427 20.6815C7.9874 21.5252 7.8749 22.3783 7.84677 23.2408C7.82802 23.9533 7.84677 24.6752 7.89365 25.3877C7.93115 25.9596 8.00615 26.5221 8.11865 27.0846C8.34365 28.3127 8.71865 29.5127 9.23427 30.6471C9.59052 31.4252 10.003 32.1752 10.4718 32.8877C10.5374 33.0283 10.6874 33.1033 10.8374 33.0846C10.978 33.0658 11.0999 32.9627 11.1374 32.8221C11.1936 32.7002 11.2499 32.5783 11.3155 32.4565C11.9061 31.3877 12.6843 30.4596 13.5468 29.5971C13.753 29.4002 14.0811 29.3814 14.3061 29.5596C14.3999 29.6252 14.4843 29.7002 14.5686 29.7658C14.8218 29.9533 14.878 30.3096 14.6905 30.5627C14.6718 30.5908 14.6436 30.619 14.6155 30.6471C14.0249 31.2283 13.4905 31.8658 13.0218 32.5408C12.6843 33.0471 12.3749 33.5721 12.2436 34.1721C12.103 34.7908 12.2905 35.1846 12.8624 35.4471C13.2936 35.6346 13.753 35.7377 14.2218 35.7471C14.6436 35.7658 15.0655 35.7658 15.478 35.7283C16.1436 35.6627 16.8186 35.5877 17.4749 35.4565C19.0405 35.1377 20.5874 34.6971 22.078 34.1252C24.2061 33.3283 26.278 32.3908 28.2843 31.3127C30.6655 30.0471 32.9249 28.5846 35.0436 26.9252C35.1561 26.8502 35.2218 26.719 35.2218 26.5877C35.2499 26.044 35.2968 25.5002 35.3155 24.9658C35.3343 24.4971 35.3343 24.0283 35.3436 23.5596C35.3436 23.3533 35.3343 23.1471 35.3249 22.9408C35.3061 22.4814 35.3061 22.0221 35.278 21.5627C35.2405 21.0002 35.1936 20.4377 35.128 19.8846C35.053 19.2471 34.9686 18.6002 34.8655 17.9627C34.6405 16.5752 34.2843 15.2158 33.8061 13.894C33.4311 12.8533 32.9624 11.8596 32.3249 10.9596C31.9124 10.369 31.4343 9.8252 30.8155 9.44082C30.1124 9.0002 29.3718 8.87833 28.5749 9.17833C28.1155 9.36583 27.6936 9.6377 27.3374 9.98458C26.7186 10.5658 26.2405 11.2596 25.8186 12.0002C25.6686 12.2721 25.7436 12.4877 26.0343 12.6002C28.6968 13.6314 31.2093 15.0283 33.4874 16.7533C33.8436 17.0158 34.0874 17.4002 34.1718 17.8315C34.2468 18.2065 34.3124 18.5721 34.3593 18.9471C34.4343 19.5565 34.1155 20.044 33.5624 20.1846C31.8561 20.6158 30.1874 21.1689 28.5655 21.8346C27.0936 22.4346 25.6499 23.1096 24.2436 23.8502C23.9624 23.9908 23.7561 23.8596 23.7561 23.5502C23.7655 23.3064 23.7843 23.0721 23.7843 22.8283C23.7843 22.5002 23.9249 22.294 24.2343 22.1533C25.1343 21.7408 26.0155 21.3002 26.9155 20.9064C28.7249 20.1002 30.5905 19.4346 32.503 18.9096C32.8311 18.8346 33.1405 18.7596 33.478 18.6752ZM23.9811 40.1815C24.6655 40.1721 25.3499 40.1252 26.0343 40.0315C26.1468 40.0315 26.2405 39.9565 26.278 39.8533C26.3061 39.7502 26.2593 39.6377 26.1749 39.5815C25.453 38.9721 24.8999 38.2315 24.4218 37.4252C24.0749 36.8252 23.7655 36.2065 23.503 35.569C23.4093 35.344 23.2499 35.2783 23.0249 35.3627C21.2905 36.0283 19.5093 36.5627 17.6905 36.9377C16.9499 37.0877 16.2093 37.1908 15.4499 37.2377C15.328 37.2471 15.2343 37.2752 15.1968 37.3971C15.1593 37.519 15.2343 37.594 15.3374 37.6502C15.6468 37.8377 15.9468 38.0252 16.2655 38.2033C18.1218 39.2252 20.1655 39.8627 22.2655 40.0783C22.8374 40.1346 23.4093 40.144 23.9811 40.1815ZM23.7374 11.8033C24.0936 11.8033 24.3093 11.6721 24.4499 11.419C24.7874 10.7908 25.1905 10.2002 25.6311 9.64708C25.9686 9.2252 26.3436 8.8502 26.7655 8.5127C26.8499 8.45645 26.8874 8.35333 26.8593 8.2502C26.8405 8.15645 26.7561 8.08145 26.6624 8.0627C26.6061 8.05333 26.5499 8.04395 26.4936 8.03458C25.8468 7.96895 25.2093 7.89395 24.5624 7.85645C24.103 7.8377 23.6436 7.8377 23.1843 7.8752C22.5655 7.92208 21.9561 7.97833 21.3468 8.0627C19.9218 8.2877 18.5249 8.70958 17.2124 9.31895C16.3124 9.73145 15.4593 10.2283 14.653 10.8002C14.578 10.8564 14.5124 10.9127 14.5499 11.0158C14.5874 11.1096 14.6718 11.119 14.7561 11.1002C15.4686 10.969 16.1811 10.894 16.903 10.8752C17.5124 10.8658 18.1218 10.8846 18.7311 10.9127C19.303 10.9502 19.8749 11.0064 20.4468 11.0814C21.403 11.2127 22.3499 11.4096 23.278 11.6721C23.4655 11.7471 23.6249 11.7846 23.7374 11.8033ZM29.0155 39.2346C29.203 39.2065 29.3999 39.1877 29.578 39.1408C30.178 38.9908 30.6655 38.6627 31.1061 38.2502C31.8749 37.5283 32.428 36.6565 32.8968 35.719C32.9624 35.5971 32.9155 35.4377 32.7936 35.3721C32.7468 35.3533 32.6999 35.3346 32.653 35.344C32.3436 35.3533 32.0343 35.3815 31.7249 35.3815C31.228 35.3815 30.7311 35.3721 30.2436 35.3346C29.7374 35.3065 29.2218 35.269 28.7249 35.1846C27.9749 35.0721 27.2343 34.9315 26.4936 34.7815C26.1186 34.7065 25.7436 34.594 25.3686 34.5002C25.228 34.4533 25.0686 34.4908 24.9655 34.6033C24.8718 34.7158 24.853 34.8752 24.928 34.9971C25.2093 35.5502 25.4624 36.1221 25.7624 36.6658C26.1561 37.4065 26.6999 38.0533 27.3655 38.5783C27.8436 38.9721 28.378 39.2158 29.0155 39.2346ZM21.628 25.3596C20.9905 25.6127 17.0343 28.3689 16.7811 28.7346C18.5249 29.9908 20.3999 31.0408 22.378 31.8846C21.9093 29.7377 21.6655 27.5533 21.628 25.3596ZM31.3124 33.9002C31.6405 33.8908 31.9686 33.8815 32.2968 33.8627C32.6249 33.844 32.9436 33.7877 33.2718 33.769C33.6374 33.7502 33.8343 33.5627 33.9468 33.2252C34.3593 31.9502 34.678 30.6471 34.8936 29.3252C34.9124 29.2314 34.9124 29.1471 34.828 29.0908C34.7436 29.0439 34.6686 29.0814 34.5936 29.1377C34.3218 29.3346 34.0499 29.5314 33.7686 29.7189C31.8749 31.0127 29.8968 32.1846 27.853 33.2252C27.7686 33.2627 27.703 33.319 27.7124 33.4127C27.7218 33.5158 27.8061 33.5533 27.8999 33.5721C29.0249 33.7783 30.1686 33.8908 31.3124 33.9002ZM39.3186 28.2189C39.2999 27.9471 39.2905 27.6658 39.2436 27.394C39.1686 26.9627 39.0843 26.5408 38.9718 26.119C38.8968 25.8377 38.578 25.7721 38.3624 25.9689C37.903 26.4002 37.4343 26.8314 36.9749 27.2627C36.8061 27.4033 36.6936 27.5908 36.6374 27.8065C36.5905 28.0127 36.5624 28.2283 36.5343 28.4439C36.4311 29.0721 36.3561 29.7002 36.2249 30.3189C36.0749 31.0783 35.878 31.8283 35.6999 32.5783C35.6436 32.7471 35.7374 32.9346 35.9061 32.9908C35.9905 33.019 36.0843 33.0096 36.1686 32.9627C36.2436 32.9252 36.3093 32.8877 36.3843 32.8596C37.153 32.4565 37.828 31.9408 38.3436 31.2377C38.9905 30.3658 39.3374 29.3064 39.3186 28.2189ZM38.7093 18.2815C38.9249 18.2908 39.0374 18.1408 38.9718 17.9346C38.9624 17.8971 38.9436 17.8596 38.9249 17.8221C38.2499 16.2002 37.3124 14.7002 36.1499 13.3783C35.8218 13.0033 35.4655 12.6565 35.1186 12.3096C35.0718 12.2721 35.0061 12.2627 34.9405 12.2815C34.8749 12.3096 34.8374 12.3846 34.8655 12.4502C34.8655 12.4596 34.8655 12.4596 34.8749 12.469C34.903 12.5252 34.9218 12.5908 34.9405 12.6471C35.5686 14.2033 36.028 15.8252 36.3186 17.4846C36.3749 17.8971 36.7311 18.2065 37.153 18.1877C37.4249 18.1877 37.7061 18.1971 37.978 18.2158C38.2218 18.2252 38.4655 18.2533 38.7093 18.2815ZM37.528 19.669C37.4718 19.669 37.4249 19.669 37.3686 19.669C37.2468 19.6502 37.1343 19.7158 37.0874 19.8283C37.0311 19.9502 37.0874 20.0439 37.1624 20.1283C37.3499 20.3533 37.5468 20.5689 37.7155 20.8033C38.0905 21.3096 38.4561 21.8252 38.8218 22.3408C38.9718 22.5471 39.2436 22.5471 39.3749 22.3314C39.5718 22.0033 39.7124 21.6377 39.7968 21.2721C39.9374 20.6346 39.7311 20.2315 39.1499 19.9783C39.1405 19.969 39.1311 19.9689 39.1124 19.9689C38.6061 19.7439 38.0718 19.6877 37.528 19.669ZM36.8436 24.9471H36.8249C36.8249 24.9565 36.8249 24.9752 36.8249 24.9846C36.8249 25.0689 36.8155 25.1533 36.9093 25.1908C37.003 25.2283 37.0686 25.1814 37.1249 25.1158C37.378 24.8533 37.6311 24.6002 37.8749 24.3377C38.0624 24.1408 38.0811 24.0002 37.9405 23.7752C37.6874 23.3627 37.4249 22.9689 37.1624 22.5658C37.1061 22.4814 37.0405 22.4346 36.9468 22.4627C36.853 22.4908 36.8343 22.5752 36.8343 22.669C36.8436 23.4283 36.8436 24.1877 36.8436 24.9471ZM34.678 36.094C34.7155 36.0752 34.7436 36.0565 34.7718 36.0377C34.8561 35.9627 34.9499 35.8877 35.0249 35.8033C35.278 35.5596 35.5311 35.3158 35.7749 35.0627C35.8124 35.0158 35.8311 34.9502 35.8124 34.8846C35.7936 34.8002 35.7186 34.7815 35.6343 34.7908C35.6155 34.7908 35.6061 34.7908 35.5874 34.8002C35.3811 34.8565 35.1749 34.9221 34.9686 34.9877C34.9218 35.0065 34.8749 35.0346 34.8468 35.0815C34.7249 35.3533 34.603 35.6158 34.4905 35.8971C34.4624 35.9908 34.5374 36.094 34.678 36.094ZM40.1718 24.2627C40.1624 24.2158 40.1624 24.1689 40.1624 24.1221C40.1624 24.0939 40.1436 24.0564 40.1249 24.0471C40.0968 24.0471 40.0686 24.0564 40.0405 24.0752C39.9093 24.1783 39.8905 24.3658 39.9936 24.4971C39.9936 24.5064 40.003 24.5064 40.003 24.5158C40.0499 24.5721 40.1155 24.5627 40.1343 24.4877C40.153 24.4127 40.1624 24.3471 40.1718 24.2627Z" fill="white"/>
<path d="M33.4782 18.6747C33.1407 18.7591 32.8219 18.8341 32.5126 18.9184C30.6001 19.4434 28.7344 20.1091 26.9251 20.9153C26.0251 21.3184 25.1438 21.7591 24.2438 22.1622C23.9438 22.3028 23.7938 22.5091 23.7938 22.8372C23.7938 23.0809 23.7751 23.3153 23.7657 23.5591C23.7563 23.8684 23.9719 24.0091 24.2532 23.8591C25.6594 23.1184 27.1032 22.4434 28.5751 21.8434C30.1969 21.1684 31.8657 20.6247 33.5719 20.1934C34.1251 20.0528 34.4438 19.5653 34.3688 18.9559C34.3219 18.5809 34.2563 18.2059 34.1813 17.8403C34.0969 17.4091 33.8532 17.0247 33.4969 16.7622C31.2188 15.0372 28.7063 13.6403 26.0438 12.6091C25.7532 12.4966 25.6782 12.2716 25.8282 12.0091C26.2501 11.2684 26.7282 10.5841 27.3469 9.99343C27.7032 9.64655 28.1251 9.37468 28.5844 9.18718C29.3719 8.8778 30.1219 8.99968 30.8251 9.44968C31.4438 9.84343 31.9219 10.3778 32.3344 10.9684C32.9719 11.8778 33.4313 12.8716 33.8157 13.9028C34.2938 15.2247 34.6501 16.5841 34.8751 17.9716C34.9782 18.6091 35.0626 19.2466 35.1376 19.8934C35.2032 20.4559 35.2501 21.0091 35.2876 21.5716C35.3157 22.0309 35.3251 22.4903 35.3344 22.9497C35.3438 23.1559 35.3532 23.3622 35.3532 23.5684C35.3532 24.0372 35.3438 24.5059 35.3251 24.9747C35.3063 25.5184 35.2594 26.0622 35.2313 26.5966C35.2313 26.7278 35.1657 26.8591 35.0532 26.9341C32.9344 28.5934 30.6657 30.0559 28.2938 31.3216C26.2969 32.3997 24.2157 33.3372 22.0876 34.1341C20.5876 34.7059 19.0501 35.1466 17.4844 35.4653C16.8282 35.5966 16.1532 35.6716 15.4876 35.7372C15.0657 35.7747 14.6532 35.7841 14.2313 35.7559C13.7626 35.7466 13.3032 35.6434 12.8719 35.4559C12.3001 35.1841 12.1126 34.7903 12.2532 34.1809C12.3938 33.5809 12.6938 33.0559 13.0313 32.5497C13.5094 31.8747 14.0438 31.2372 14.6251 30.6559C14.8594 30.4403 14.8782 30.0841 14.6626 29.8497C14.6344 29.8216 14.6063 29.7934 14.5782 29.7747C14.4938 29.6997 14.4094 29.6341 14.3157 29.5684C14.0907 29.3903 13.7626 29.4091 13.5563 29.6059C12.7032 30.4684 11.9157 31.3872 11.3251 32.4653C11.2594 32.5872 11.1938 32.7091 11.1469 32.8309C11.1001 32.9716 10.9876 33.0653 10.8469 33.0934C10.6969 33.1122 10.5469 33.0372 10.4813 32.8966C10.0126 32.1841 9.60006 31.4341 9.24381 30.6559C8.72818 29.5216 8.35318 28.3216 8.12818 27.0934C8.02506 26.5309 7.95006 25.9684 7.90318 25.3966C7.85631 24.6841 7.83756 23.9622 7.85631 23.2497C7.88443 22.3872 7.99693 21.5341 8.19381 20.6903C8.21256 20.6341 8.26881 20.5872 8.32506 20.5684C8.41881 20.5403 8.46568 20.6153 8.49381 20.6997C8.62506 21.0559 8.73756 21.4122 8.87818 21.7591C9.44068 23.1091 10.2188 24.3372 11.1282 25.4809C12.9188 27.7216 15.0844 29.5216 17.5032 31.0497C18.7876 31.8466 20.1282 32.5684 21.5063 33.1966C21.8813 33.3841 22.3126 33.3934 22.6969 33.2341C22.9688 33.1216 23.2407 33.0184 23.5126 32.9059C23.8876 32.7466 24.0469 32.4278 23.9626 32.0341C23.8126 31.2934 23.6626 30.5622 23.5313 29.8122C23.4376 29.2778 23.3813 28.7434 23.3344 28.2091C23.2688 27.5059 23.2313 26.8122 23.1844 26.1091C23.1751 25.8934 23.1657 25.6872 23.1657 25.4716C23.1563 25.0872 23.1376 24.6934 23.1469 24.3091C23.1657 23.6341 23.1751 22.9497 23.2219 22.2747C23.2782 21.4778 23.3532 20.6809 23.4657 19.8841C23.6813 18.1872 24.0657 16.5184 24.6001 14.9059C24.7126 14.5872 24.6001 14.3716 24.2813 14.2684C24.1126 14.2122 23.9438 14.1559 23.7657 14.0997C23.5407 14.0059 23.2876 14.1184 23.1938 14.3434C23.1844 14.3622 23.1844 14.3809 23.1751 14.3997C22.8282 15.4216 22.5469 16.4716 22.3313 17.5309C22.1907 18.2716 22.0594 19.0122 21.9469 19.7528C21.8813 20.2122 21.8344 20.6716 21.7969 21.1309C21.7501 21.7216 21.7126 22.3122 21.6751 22.9122C21.6657 23.3528 21.4126 23.7653 21.0282 23.9716C19.2938 24.9934 17.6344 26.1278 16.0501 27.3747C15.7407 27.6184 15.3001 27.6091 15.0188 27.3466C13.9688 26.4466 13.0126 25.4434 12.1594 24.3466C11.3532 23.3059 10.6688 22.1903 10.1719 20.9622C9.89068 20.2684 9.69381 19.5466 9.60943 18.8059C9.49693 17.7841 9.60006 16.7809 10.0688 15.8528C10.5094 14.9903 11.1751 14.2591 12.0094 13.7528C12.8813 13.2091 13.8376 12.8809 14.8407 12.6747C15.4219 12.5528 16.0126 12.4778 16.6032 12.4591C17.2032 12.4403 17.8032 12.4122 18.4032 12.4403C20.0251 12.5247 21.6282 12.7966 23.1751 13.2559C26.6532 14.2497 29.9157 15.8997 32.7751 18.1122C32.9719 18.2622 33.1594 18.4216 33.3563 18.5716C33.3938 18.5903 33.4219 18.6184 33.4782 18.6747Z" fill="#7B2BF9"/>
<path d="M23.9812 40.1813C23.4093 40.1438 22.8374 40.1344 22.2749 40.0782C20.1656 39.8625 18.1312 39.225 16.2749 38.2032C15.9562 38.0344 15.6562 37.8375 15.3468 37.65C15.2531 37.5938 15.1781 37.5188 15.2062 37.3969C15.2437 37.275 15.3374 37.2469 15.4593 37.2375C16.2093 37.1907 16.9593 37.0875 17.6999 36.9375C19.5187 36.5625 21.2999 36.0375 23.0343 35.3625C23.2593 35.2782 23.4187 35.3438 23.5124 35.5688C23.7749 36.2063 24.0843 36.825 24.4312 37.425C24.9093 38.2313 25.4624 38.9719 26.1843 39.5813C26.2781 39.6375 26.3156 39.75 26.2874 39.8532C26.2499 39.9563 26.1562 40.0313 26.0437 40.0313C25.3499 40.1157 24.6656 40.1719 23.9812 40.1813Z" fill="#7B2BF9"/>
<path d="M23.7375 11.8031C23.6344 11.775 23.4656 11.7469 23.2969 11.7C22.3687 11.4469 21.4219 11.25 20.4656 11.1094C19.8937 11.0344 19.3219 10.9688 18.75 10.9406C18.1406 10.9031 17.5312 10.8844 16.9219 10.9031C16.2 10.9219 15.4781 10.9969 14.775 11.1281C14.6812 11.1469 14.6062 11.1375 14.5687 11.0438C14.5312 10.9406 14.5969 10.8844 14.6719 10.8281C15.4781 10.2563 16.3312 9.75939 17.2312 9.34689C18.5437 8.73751 19.9312 8.30626 21.3656 8.09064C21.975 7.99689 22.5937 7.94064 23.2031 7.90314C23.6625 7.86564 24.1219 7.86564 24.5812 7.88439C25.2281 7.92189 25.8656 7.99689 26.5125 8.06251C26.5687 8.07189 26.625 8.08126 26.6812 8.09064C26.7844 8.10001 26.8594 8.17501 26.8781 8.27814C26.9062 8.38126 26.8687 8.48439 26.7844 8.54064C26.3625 8.87814 25.9875 9.25314 25.65 9.67501C25.2 10.2281 24.8062 10.8281 24.4687 11.4469C24.3094 11.6813 24.0937 11.8031 23.7375 11.8031Z" fill="#7B2BF9"/>
<path d="M29.0157 39.2342C28.3782 39.2154 27.8438 38.9623 27.3563 38.5873C26.7001 38.0623 26.1563 37.4154 25.7532 36.6748C25.4438 36.1311 25.1907 35.5592 24.9188 35.0061C24.8438 34.8842 24.8532 34.7248 24.9563 34.6123C25.0595 34.4998 25.2188 34.4529 25.3595 34.5092C25.7345 34.6029 26.1095 34.7154 26.4845 34.7904C27.2251 34.9404 27.9751 35.0811 28.7157 35.1936C29.222 35.2686 29.7282 35.3061 30.2345 35.3436C30.7313 35.3717 31.2282 35.3811 31.7157 35.3904C32.0251 35.3904 32.3345 35.3623 32.6438 35.3529C32.7845 35.3436 32.9063 35.4467 32.9251 35.5873C32.9251 35.6342 32.9157 35.6811 32.897 35.7279C32.4282 36.6654 31.8657 37.5373 31.1063 38.2592C30.6657 38.6717 30.1782 39.0092 29.5782 39.1498C29.4001 39.1873 29.2032 39.2061 29.0157 39.2342Z" fill="#7B2BF9"/>
<path d="M21.6281 25.3594C21.6562 27.5531 21.9094 29.7469 22.3781 31.8938C20.4 31.05 18.525 29.9906 16.7812 28.7438C17.0344 28.3688 20.9906 25.6125 21.6281 25.3594Z" fill="#7B2BF9"/>
<path d="M31.3126 33.9001C30.1688 33.8907 29.0251 33.7782 27.9001 33.572C27.8063 33.5532 27.7219 33.5157 27.7126 33.4126C27.7032 33.3188 27.7688 33.272 27.8532 33.2251C29.8969 32.1845 31.8751 31.0126 33.7688 29.7188C34.0407 29.5313 34.3219 29.3345 34.5938 29.1376C34.6688 29.0907 34.7344 29.0438 34.8282 29.0907C34.9219 29.147 34.9126 29.222 34.8938 29.3251C34.6782 30.647 34.3594 31.9501 33.9469 33.2251C33.8344 33.5626 33.6376 33.7501 33.2719 33.7688C32.9438 33.7876 32.6251 33.8345 32.2969 33.8626C31.9688 33.8813 31.6407 33.8907 31.3126 33.9001Z" fill="#7B2BF9"/>
<path d="M39.3187 28.2188C39.328 29.3063 38.9905 30.3657 38.3437 31.2376C37.828 31.9407 37.153 32.4563 36.3843 32.8594C36.3093 32.8969 36.2437 32.9344 36.1687 32.9626C36.0093 33.0469 35.8124 32.9907 35.728 32.8407C35.6812 32.7563 35.6718 32.6626 35.6999 32.5782C35.878 31.8282 36.0655 31.0782 36.2249 30.3188C36.3468 29.7001 36.4312 29.0719 36.5343 28.4438C36.5718 28.2282 36.5905 28.0126 36.6374 27.8063C36.6937 27.6001 36.8155 27.4032 36.9749 27.2626C37.4343 26.8313 37.903 26.4001 38.3624 25.9688C38.5687 25.7719 38.8968 25.8376 38.9718 26.1188C39.0843 26.5407 39.1687 26.9626 39.2437 27.3938C39.2999 27.6657 39.2999 27.9469 39.3187 28.2188Z" fill="#7B2BF9"/>
<path d="M38.7094 18.2809C38.4657 18.2621 38.2219 18.2246 37.9688 18.2152C37.6969 18.1965 37.4157 18.1965 37.1438 18.1871C36.7219 18.2059 36.3657 17.8965 36.3094 17.484C36.0188 15.8246 35.5594 14.2121 34.9313 12.6465C34.9032 12.5902 34.8844 12.5246 34.8657 12.4684C34.8282 12.4027 34.8563 12.3184 34.9219 12.2902C34.9313 12.2902 34.9313 12.2809 34.9407 12.2809C35.0063 12.2621 35.0719 12.2715 35.1188 12.309C35.4657 12.6559 35.8219 13.0027 36.15 13.3777C37.3125 14.6902 38.2594 16.1902 38.925 17.8215C38.9438 17.859 38.9532 17.8965 38.9719 17.934C39.0469 18.1402 38.925 18.2902 38.7094 18.2809Z" fill="#7B2BF9"/>
<path d="M37.528 19.6692C38.0718 19.6879 38.6061 19.7442 39.1218 19.9504C39.1311 19.9504 39.1405 19.9598 39.1593 19.9598C39.7405 20.2129 39.9468 20.616 39.8062 21.2535C39.7218 21.6285 39.5812 21.9848 39.3843 22.3129C39.253 22.5379 38.9812 22.5379 38.8312 22.3223C38.4655 21.8067 38.0999 21.291 37.7249 20.7848C37.5561 20.5504 37.3593 20.3348 37.1718 20.1098C37.0968 20.016 37.0312 19.9317 37.0968 19.8098C37.1437 19.6973 37.2655 19.641 37.378 19.6504C37.4249 19.6692 37.4718 19.6692 37.528 19.6692Z" fill="#7B2BF9"/>
<path d="M36.8439 24.9464C36.8439 24.187 36.8439 23.4277 36.8439 22.6683C36.8439 22.5745 36.8532 22.4995 36.9564 22.462C37.0595 22.4245 37.1251 22.4808 37.172 22.5652C37.4345 22.9683 37.697 23.3714 37.9501 23.7745C38.0907 23.9995 38.0626 24.1402 37.8845 24.337C37.6407 24.5995 37.3876 24.8527 37.1345 25.1152C37.0689 25.1808 37.0032 25.2277 36.9189 25.1902C36.8251 25.1527 36.8345 25.0683 36.8345 24.9839C36.8345 24.9745 36.8345 24.9558 36.8345 24.9464H36.8439Z" fill="#7B2BF9"/>
<path d="M34.6781 36.0936C34.5374 36.0936 34.4624 35.9905 34.5093 35.878C34.6218 35.6061 34.7437 35.3342 34.8656 35.0624C34.8937 35.0155 34.9312 34.9874 34.9874 34.9686C35.1937 34.903 35.3999 34.8467 35.6062 34.7811C35.6249 34.7811 35.6343 34.7717 35.6531 34.7717C35.7281 34.7624 35.8124 34.7811 35.8312 34.8655C35.8406 34.9311 35.8312 34.9967 35.7937 35.0436C35.5499 35.2967 35.2968 35.5405 35.0437 35.7842C34.9593 35.8686 34.8749 35.9436 34.7906 36.0186C34.7437 36.0561 34.7062 36.0749 34.6781 36.0936Z" fill="#7B2BF9"/>
<path d="M40.1718 24.2629C40.1624 24.3379 40.1531 24.4129 40.1437 24.4879C40.1249 24.5629 40.0593 24.5723 40.0124 24.516C39.8999 24.3941 39.9093 24.2066 40.0312 24.0941C40.0406 24.0848 40.0406 24.0848 40.0499 24.0848C40.0687 24.066 40.1062 24.0566 40.1343 24.0566C40.1531 24.066 40.1718 24.1035 40.1718 24.1316C40.1624 24.1691 40.1624 24.216 40.1718 24.2629Z" fill="#7B2BF9"/>
</g>
<defs>
<clipPath id="clip0_3988_3963">
<rect width="48" height="48" fill="white"/>
</clipPath>
</defs>
</svg>
