<svg width="50" height="50" viewBox="0 0 50 50" fill="none" xmlns="http://www.w3.org/2000/svg">
<path d="M25 50C38.8071 50 50 38.8071 50 25C50 11.1929 38.8071 0 25 0C11.1929 0 0 11.1929 0 25C0 38.8071 11.1929 50 25 50Z" fill="#1A1A1A"/>
<path fill-rule="evenodd" clip-rule="evenodd" d="M37.2771 30.6862L38.2377 26.1312L38.2116 26.1089C37.5176 25.5194 36.8222 24.9287 36.1287 24.3392C36.7266 24.1116 38.7019 23.2763 39.9449 21.1385L39.9586 21.1149C40.3638 20.4182 41.4173 18.6067 40.8216 16.4606C40.4954 15.2853 39.8083 14.4892 39.3912 14.0767C39.4914 14.7464 39.7447 17.0246 38.33 19.3393C37.1281 21.3067 35.3969 22.1946 34.7209 22.4995H25.0117L18.0879 14.7195C17.2214 15.7427 15.367 16.0612 15.367 16.0612C15.9314 15.8251 16.4581 15.5111 16.9307 15.1288C17.8221 14.4068 18.32 13.6008 18.5821 13.0871C17.4253 13.4492 16.24 13.7807 15.0247 14.078C14.9647 14.0929 14.9047 14.1073 14.8447 14.1217C14.8212 13.3813 14.8908 12.0067 15.7384 10.6763C15.8363 10.5229 16.2238 9.93185 16.9672 9.30888C21.786 5.27108 27.3487 5.62057 27.3487 5.62057C31.4426 5.87786 34.4053 8.13154 35.5926 9.03471C35.9351 9.2952 36.1298 9.44335 36.1614 9.39884C36.3068 9.19463 33.2099 5.42716 28.2253 4.31617C21.6508 2.85074 15.1243 6.77429 13.0452 10.0286C12.3605 11.1004 11.6227 12.2555 11.5226 13.6269C11.5152 13.7276 11.5039 13.9301 11.4865 14.2437L11.4856 14.2594C11.4542 14.824 11.4031 15.7426 11.3191 17.0642C11.1798 19.2592 10.7087 21.0908 10 22.6228L13.0914 22.7577C13.347 22.1563 13.6026 21.5554 13.8587 20.954L16.4974 18.8184L14.261 21.2968V23.5512L14.2569 23.5543V26.9975L14.291 27.8404L18.2102 23.6969H21.6425L18.4339 24.0311L14.4571 28.3725L15.4459 35.1621L13.2612 42.4812H15.2032L19.2862 32.2394L20.9121 28.1422L20.0904 32.3325L24.7192 33.9126L29.7932 33.4552L31.4681 32.3901L28.9959 29.9261L31.9336 32.0941L38.2571 36.8025L37.8589 42.4816H39.502L39.9888 37.0513L37.2771 30.6862ZM15.1791 16.5214C15.2654 16.7364 14.6476 17.2627 14.0741 17.5573C13.322 17.9441 12.3106 18.1042 12.2174 17.8649C12.1057 17.5784 13.2721 16.6303 14.4446 16.4503C14.601 16.4261 15.1099 16.3478 15.1791 16.5214Z" fill="#23A49C"/>
<path d="M30.1167 33.7792L31.3972 34.8556C32.3142 35.6263 33.2312 36.397 34.148 37.168L33.4263 42.4828H35.194L36.0951 36.1663L31.7782 32.7447L30.1167 33.7792Z" fill="#23A49C"/>
<path d="M17.4738 38.0504L18.4385 42.4808H20.4798L18.6734 34.9018L17.4738 38.0504Z" fill="#23A49C"/>
</svg>
