<svg width="50" height="51" viewBox="0 0 50 51" fill="none" xmlns="http://www.w3.org/2000/svg">
<g clip-path="url(#clip0_3930_2778)">
<path d="M25 50.5C38.8071 50.5 50 39.3071 50 25.5C50 11.6929 38.8071 0.5 25 0.5C11.1929 0.5 0 11.6929 0 25.5C0 39.3071 11.1929 50.5 25 50.5Z" fill="#E6007A"/>
<path d="M31.1353 12.0656C31.1353 14.0349 28.3879 15.6312 24.9988 15.6312C21.6097 15.6312 18.8623 14.0349 18.8623 12.0656C18.8623 10.0964 21.6097 8.5 24.9988 8.5C28.3879 8.5 31.1353 10.0964 31.1353 12.0656Z" fill="white"/>
<path d="M31.1353 38.9328C31.1353 40.9021 28.3879 42.4984 24.9988 42.4984C21.6097 42.4984 18.8623 40.9021 18.8623 38.9328C18.8623 36.9636 21.6097 35.3672 24.9988 35.3672C28.3879 35.3672 31.1353 36.9636 31.1353 38.9328Z" fill="white"/>
<path d="M16.4474 20.5681C18.142 17.6359 18.131 14.4601 16.4229 13.4748C14.7147 12.4896 11.9564 14.0679 10.2618 17.0001C8.56725 19.9323 8.57825 23.108 10.2864 24.0933C11.9945 25.0786 14.7529 23.5003 16.4474 20.5681Z" fill="white"/>
<path d="M39.7104 26.9061C41.4174 27.8908 41.4274 31.066 39.7329 33.9982C38.0383 36.9304 35.2809 38.5092 33.5739 37.5246C31.867 36.54 31.8569 33.3648 33.5514 30.4326C35.246 27.5003 38.0035 25.9215 39.7104 26.9061Z" fill="white"/>
<path d="M16.4238 37.523C18.1319 36.5377 18.1429 33.362 16.4484 30.4297C14.7539 27.4975 11.9955 25.9193 10.2873 26.9045C8.57922 27.8898 8.56823 31.0656 10.2628 33.9978C11.9573 36.93 14.7157 38.5083 16.4238 37.523Z" fill="white"/>
<path d="M39.7348 17.0009C41.4294 19.9331 41.4193 23.1083 39.7124 24.093C38.0054 25.0776 35.2479 23.4988 33.5534 20.5665C31.8589 17.6343 31.8689 14.4591 33.5759 13.4745C35.2828 12.4899 38.0403 14.0687 39.7348 17.0009Z" fill="white"/>
</g>
<defs>
<clipPath id="clip0_3930_2778">
<rect width="50" height="50" fill="white" transform="translate(0 0.5)"/>
</clipPath>
</defs>
</svg>
