<svg width="50" height="50" viewBox="0 0 50 50" fill="none" xmlns="http://www.w3.org/2000/svg">
<path d="M25 50C38.8071 50 50 38.8071 50 25C50 11.1929 38.8071 0 25 0C11.1929 0 0 11.1929 0 25C0 38.8071 11.1929 50 25 50Z" fill="#F49B33"/>
<path d="M34.2108 19.8923C33.9651 16.7559 31.2789 15.6592 27.8719 15.3001L27.9476 10.9561L25.3046 10.9112L25.2301 15.1407C24.5353 15.1274 23.826 15.1297 23.118 15.1317L23.1939 10.8745L20.5508 10.8281L20.4747 15.1707C19.9022 15.1718 19.339 15.1739 18.7912 15.1633L18.7911 15.1496L15.1443 15.0851L15.0954 17.9086C15.0954 17.9086 17.0492 17.9054 17.0162 17.9404C18.0871 17.9598 18.4239 18.5874 18.5164 19.1266L18.4309 24.0747C18.5043 24.0759 18.6 24.0813 18.7102 24.097L18.4305 24.0929L18.3095 31.0252C18.2559 31.3604 18.0485 31.8943 17.2994 31.8829C17.3338 31.9131 15.3783 31.8495 15.3783 31.8495L14.7979 34.997L18.2394 35.057C18.879 35.0693 19.5088 35.0916 20.126 35.1059L20.0509 39.4986L22.6923 39.5438L22.768 35.1997C23.493 35.2259 24.1949 35.2436 24.8803 35.2559L24.8035 39.582L27.4462 39.6268L27.5235 35.2429C31.9735 35.0656 35.1035 34.0002 35.5626 29.8327C35.9337 26.4779 34.3789 24.9493 31.8662 24.3C33.4137 23.5466 34.3949 22.1882 34.2108 19.8923ZM30.3469 29.2211C30.293 32.5043 24.6767 32.0322 22.8844 32.0027L22.988 26.1822C24.781 26.2145 30.408 25.7975 30.3469 29.2211ZM29.2612 20.9878C29.2089 23.975 24.5267 23.5434 23.0355 23.5175L23.1274 18.2404C24.6187 18.2663 29.3158 17.872 29.2612 20.9878Z" fill="white"/>
</svg>
