<svg width="24" height="24" viewBox="0 0 24 24" fill="none" xmlns="http://www.w3.org/2000/svg">
<g clip-path="url(#clip0_3424_802)">
<path d="M12 24C18.6274 24 24 18.6274 24 12C24 5.37258 18.6274 0 12 0C5.37258 0 0 5.37258 0 12C0 18.6274 5.37258 24 12 24Z" fill="#627EE9"/>
<path d="M11.9978 3.54883L6.82324 12.1357L11.9978 9.78384V3.54883Z" fill="#FDFDFE"/>
<path d="M11.9978 9.78384L6.82324 12.1357L11.9978 15.1951V9.78384ZM17.1733 12.1357L11.9978 3.54883V9.78384L17.1733 12.1357Z" fill="#BFCAF5"/>
<path d="M11.998 15.1945L17.1735 12.135L11.998 9.7832V15.1945Z" fill="#8197ED"/>
<path d="M6.82324 13.1172L11.9978 20.4097V16.1748L6.82324 13.1172Z" fill="#FDFDFE"/>
<path d="M11.998 16.1748V20.4097L17.1764 13.1172L11.998 16.1748Z" fill="#BFCAF5"/>
</g>
<defs>
<clipPath id="clip0_3424_802">
<rect width="24" height="24" fill="white"/>
</clipPath>
</defs>
</svg>
