<svg width="50" height="51" viewBox="0 0 50 51" fill="none" xmlns="http://www.w3.org/2000/svg">
<g clip-path="url(#clip0_3930_2859)">
<path d="M50 25.5C50 11.6929 38.8071 0.5 25 0.5C11.1929 0.5 0 11.6929 0 25.5C0 39.3071 11.1929 50.5 25 50.5C38.8071 50.5 50 39.3071 50 25.5Z" fill="#1AAB9B"/>
<path d="M12.7105 21.273V32.9332H10.4727V19.3877C10.4727 18.3015 11.7027 17.6823 12.563 18.3354L23.1926 26.4058C23.5204 26.6546 23.7131 27.0443 23.7131 27.4581V32.9332H21.4752V27.9275L12.7105 21.273Z" fill="white"/>
<path d="M36.9517 21.273V32.9332H39.1896V19.3877C39.1896 18.3015 37.9595 17.6823 37.0994 18.3354L26.4697 26.4058C26.142 26.6546 25.9492 27.0443 25.9492 27.4581V32.9332H28.187V27.9275L36.9517 21.273Z" fill="white"/>
</g>
<defs>
<clipPath id="clip0_3930_2859">
<rect width="50" height="50" fill="white" transform="translate(0 0.5)"/>
</clipPath>
</defs>
</svg>
