<svg width="50" height="50" viewBox="0 0 50 50" fill="none" xmlns="http://www.w3.org/2000/svg">
<path d="M25 50C38.8071 50 50 38.8071 50 25C50 11.1929 38.8071 0 25 0C11.1929 0 0 11.1929 0 25C0 38.8071 11.1929 50 25 50Z" fill="#335DD2"/>
<path d="M24.9256 8.33398L21.8953 10.0764L13.6377 14.8491L10.6074 16.5916V33.1068L13.6377 34.849L21.971 39.6218L25.0014 41.3643L28.0317 39.6218L36.2136 34.849L39.2439 33.1068V16.5916L36.2136 14.8491L27.9559 10.0764L24.9256 8.33398ZM16.668 29.6219V20.0764L24.9256 15.3037L33.1833 20.0764V29.6219L24.9256 34.3946L16.668 29.6219Z" fill="white"/>
</svg>
