<svg width="24" height="24" viewBox="0 0 24 24" fill="none" xmlns="http://www.w3.org/2000/svg">
<path d="M12 24C18.6274 24 24 18.6274 24 12C24 5.37258 18.6274 0 12 0C5.37258 0 0 5.37258 0 12C0 18.6274 5.37258 24 12 24Z" fill="#2D374B"/>
<path d="M4.59277 8.35037V15.2497C4.59277 15.6902 4.82813 16.0976 5.20941 16.3171L11.1845 19.7675C11.5658 19.987 12.0352 19.987 12.4165 19.7675L18.3915 16.3171C18.7728 16.0976 19.0082 15.6902 19.0082 15.2497V8.35037C19.0082 7.90989 18.7728 7.50253 18.3915 7.28301L12.4165 3.83261C12.0352 3.61309 11.5658 3.61309 11.1845 3.83261L5.20797 7.28301C4.82669 7.50253 4.59277 7.90989 4.59277 8.35037Z" fill="#213147"/>
<path d="M13.1038 13.1374L12.2517 15.4742C12.2286 15.5392 12.2286 15.61 12.2517 15.675L13.7176 19.6958L15.4131 18.7166L13.3781 13.1374C13.3318 13.0089 13.15 13.0089 13.1038 13.1374Z" fill="#12AAFF"/>
<path d="M14.8128 9.20769C14.7666 9.07921 14.5846 9.07921 14.5384 9.20769L13.6862 11.5445C13.6632 11.6095 13.6632 11.6803 13.6862 11.7453L16.088 18.3283L17.7835 17.3491L14.8128 9.20769Z" fill="#12AAFF"/>
<path d="M11.7991 4.0904C11.841 4.0904 11.8829 4.10192 11.9203 4.12224L18.3864 7.85568C18.4615 7.89904 18.5077 7.97984 18.5077 8.06512V15.5306C18.5077 15.6173 18.4615 15.6967 18.3864 15.74L11.9203 19.4735C11.8842 19.4951 11.841 19.5053 11.7991 19.5053C11.7571 19.5053 11.7152 19.4938 11.6778 19.4735L5.21168 15.7429C5.13664 15.6995 5.0904 15.6187 5.0904 15.5335V8.06656C5.0904 7.97984 5.13664 7.90048 5.21168 7.85712L11.6778 4.12368C11.7154 4.10208 11.7571 4.0904 11.7991 4.0904ZM11.7991 3C11.5695 3 11.3383 3.0592 11.1319 3.17904L4.6672 6.91104C4.25408 7.14928 4 7.58992 4 8.0664V15.5319C4 16.0085 4.25424 16.449 4.6672 16.6872L11.1333 20.4207C11.3399 20.5391 11.5695 20.5997 11.8005 20.5997C12.0315 20.5997 12.2613 20.5405 12.4677 20.4207L18.9338 16.6872C19.3469 16.449 19.601 16.0083 19.601 15.5319V8.0664C19.601 7.58976 19.3467 7.14928 18.9338 6.91104L12.4663 3.17904C12.2597 3.0592 12.0287 3 11.7991 3Z" fill="#9DCCED"/>
<path d="M7.52246 18.3381L8.1175 16.709L9.31478 17.704L8.19542 18.7266L7.52246 18.3381Z" fill="#213147"/>
<path d="M11.2547 7.5332H9.61547C9.49275 7.5332 9.38299 7.60968 9.34107 7.72536L5.82715 17.3587L7.52267 18.3379L11.392 7.72968C11.4281 7.63432 11.3572 7.5332 11.2547 7.5332Z" fill="white"/>
<path d="M14.123 7.5332H12.4838C12.3611 7.5332 12.2514 7.60968 12.2094 7.72536L8.19727 18.7251L9.89279 19.7043L14.2603 7.72968C14.295 7.63432 14.2242 7.5332 14.123 7.5332Z" fill="white"/>
</svg>
