<svg width="50" height="50" viewBox="0 0 50 50" fill="none" xmlns="http://www.w3.org/2000/svg">
<circle cx="25" cy="25" r="25" fill="#0D0808"/>
<g filter="url(#filter0_f_3933_13540)">
<path d="M21.8021 12.3369C21.9941 12.5138 22.1424 12.6991 22.1424 12.7748C22.1424 12.8338 19.6643 12.8675 16.6279 12.8675L11.1047 12.817L11.0523 12.4043L11 12.0084H16.2178C21.3659 12.0084 21.4357 12.0084 21.7934 12.3201L21.8021 12.3369ZM29.1751 12.3959L29.1228 12.8085H26.1213L26.0689 12.3959L26.0165 12H29.1926L29.1402 12.3959H29.1577H29.1751ZM23.0411 13.5413C23.3029 13.7435 23.5123 13.9793 23.5123 14.0466C23.5123 14.1393 21.0342 14.1561 17.3347 14.1393C11.4973 14.0887 11.1396 14.0803 11.0872 13.8361C10.9564 13.1455 10.8254 13.1623 16.8896 13.1623H22.5786L23.0498 13.5413H23.0324H23.0411ZM29.1402 13.6677V14.1056H27.6395C26.3219 14.1056 26.1387 14.0719 26.0864 13.8361C25.9554 13.2044 26.1213 13.1455 27.6657 13.1876L29.1315 13.2381V13.6761V13.6593L29.1402 13.6677ZM14.176 14.9225L14.2284 15.3353H12.6491C11.0872 15.3353 11.0523 15.3353 11.0523 15.0069C11.0523 14.8215 11.1047 14.611 11.1483 14.552C11.2094 14.4931 11.8987 14.4762 12.7014 14.4931L14.1237 14.5436L14.176 14.9394H14.1935L14.176 14.9225ZM23.9224 14.9225L23.9747 15.3353H22.4129C21.043 15.3353 20.8336 15.3016 20.7464 15.0658C20.694 14.9394 20.6155 14.7373 20.5631 14.6278C20.4845 14.4846 20.8423 14.451 22.1773 14.4846L23.87 14.5352L23.9224 14.931V14.9225ZM29.1751 14.9225L29.2275 15.3353H27.6482C26.0864 15.3353 26.0514 15.3353 26.0514 15.0069C26.0514 14.8215 26.1038 14.611 26.1474 14.552C26.2085 14.4931 26.8978 14.4762 27.7005 14.4931L29.1228 14.5436L29.1751 14.9394H29.1926L29.1751 14.9225ZM14.176 16.228L14.2284 16.6408H12.6491C11.0872 16.6408 11.0523 16.6408 11.0523 16.3123C11.0523 16.127 11.1047 15.9164 11.1483 15.8575C11.2094 15.7985 11.8987 15.7817 12.7014 15.7985L14.1237 15.8491L14.176 16.2449H14.1935L14.176 16.228ZM23.9573 16.1943V16.6323H22.3082C21.4095 16.6323 20.6591 16.5986 20.6591 16.5734C20.6591 16.5229 20.7202 16.3376 20.8074 16.1354C20.9383 15.7564 20.9732 15.7564 22.4565 15.7564H23.9573V16.1943ZM29.21 16.1943V16.6323H27.6308C26.0776 16.6323 26.0514 16.6323 26.0514 16.3039C26.0514 16.1185 26.1038 15.908 26.1474 15.8659C26.1998 15.807 26.9153 15.7733 27.7267 15.7733H29.1926V16.2112L29.21 16.1943ZM23.2767 17.4998L22.8405 17.9378H11.0349V17.0703H23.7043L23.2679 17.5082L23.2854 17.4914L23.2767 17.4998ZM29.21 17.4998V17.9378H26.0602V17.0703H29.21V17.5082V17.4914V17.4998ZM23.2767 18.8053L23.713 19.2433H11.0436V18.3758H22.8492L23.2854 18.8137L23.2679 18.7969L23.2767 18.8053ZM29.21 18.8053V19.2433H26.0602V18.3758H29.21V18.8137V18.7969V18.8053ZM14.176 20.0602L14.1237 20.473L12.588 20.5235L11.0349 20.574V19.6897H14.2022L14.1498 20.0855L14.1673 20.0687L14.176 20.0602ZM23.9573 20.1108V20.5656L22.4216 20.5151C20.9034 20.4646 20.8859 20.4646 20.79 20.0602L20.694 19.6644H23.9747V20.1023H23.9573V20.1108ZM29.21 20.1108V20.5656L27.6744 20.5151L26.1213 20.4646L26.0689 20.0518L26.0165 19.656H29.1839V20.0939H29.2013L29.21 20.1108ZM14.176 21.3657L14.1237 21.7785H11.1221L11.0698 21.3657L11.0175 20.9699H14.1935L14.1411 21.3657H14.1586H14.176ZM23.9573 21.4162V21.8542H22.2122C20.8772 21.8542 20.502 21.8037 20.5631 21.669C20.6155 21.5762 20.694 21.3826 20.7464 21.231C20.8423 21.012 21.043 20.9783 22.3954 20.9783H23.9573V21.4162ZM29.9081 21.2899C30.1 21.4668 30.2484 21.6521 30.2484 21.7279C30.2484 21.8037 29.3147 21.8206 28.1979 21.8206L26.13 21.77L26.0776 21.3573L26.0252 20.9615H27.7878C29.402 20.9615 29.5853 20.9952 29.9081 21.2731V21.2899ZM23.2069 22.2669L23.5821 22.3007L23.0935 22.7217L22.6049 23.1597L16.8635 23.126L11.1221 23.0755L11.0698 22.6796C11.0349 22.3933 11.1047 22.2838 11.2792 22.2416C11.5584 22.1911 22.5263 22.1911 23.1982 22.2416V22.2585L23.2069 22.2669ZM38.8604 22.2669C38.8604 22.2669 38.9564 22.4523 38.9389 22.6796L38.8866 23.0924L33.1976 23.1429L27.4912 23.1766L27.0636 22.7807C26.8367 22.5617 26.636 22.3428 26.636 22.2922C26.636 22.2164 38.3456 22.1995 38.8517 22.2922V22.2753L38.8604 22.2669ZM22.1511 23.5387C22.1511 23.5387 22.0028 23.7914 21.8282 23.9767L21.5142 24.3052H11.0436V23.9767C11.0436 23.7914 11.096 23.5808 11.1396 23.5387C11.2705 23.4124 22.1424 23.4124 22.1424 23.5387H22.1511ZM38.9477 23.9009L39 24.3136H33.8607C28.7912 24.3136 28.7127 24.3136 28.3637 24.0019C28.1718 23.8251 28.0233 23.6398 28.0233 23.5639C28.0233 23.505 30.4665 23.4713 33.4681 23.4713L38.8953 23.5218L38.9477 23.9177V23.9009ZM14.1847 26.0065L14.1324 26.4192L12.5967 26.4697L11.0436 26.5203V25.6359H14.2109L14.1586 26.0317L14.176 26.0149L14.1847 26.0065ZM23.966 26.057V26.495H22.4827C21.2961 26.495 20.9819 26.4445 20.9034 26.2761C20.694 25.7286 20.9557 25.6275 22.4827 25.6275H23.966V26.0654V26.0486V26.057ZM36.8274 25.9307C37.0193 26.1075 37.1677 26.2929 37.1677 26.3687C37.1677 26.4276 34.6896 26.4613 31.6532 26.4613L26.13 26.4108L26.0776 25.9981L26.0252 25.6022H31.2431C36.3911 25.6022 36.461 25.6022 36.8186 25.9138L36.8274 25.9307ZM38.1275 27.1856C38.3543 27.3877 38.4677 27.5983 38.4067 27.6573C38.3456 27.7163 35.5534 27.75 32.2116 27.75L26.1474 27.6994L26.0951 27.3541C26.0602 27.1688 26.13 26.9413 26.2434 26.8992C26.3394 26.8234 29.0007 26.7897 32.0981 26.8066L37.7435 26.8571L38.1362 27.2025V27.1856H38.1275ZM14.176 27.312L14.1237 27.7247H11.1221L11.0698 27.312L11.0175 26.9161H14.1935L14.1411 27.312H14.1586H14.176ZM23.9573 27.3456V27.8005L22.4216 27.75L20.8685 27.6994L20.8161 27.2867L20.7638 26.8908H23.9311V27.3288H23.9485L23.9573 27.3456ZM29.1402 28.5922V29.0302H27.6395C26.3219 29.0302 26.1387 28.9965 26.0864 28.7606C25.9554 28.1289 26.1213 28.07 27.6657 28.1121L29.1315 28.1626V28.6006V28.5837L29.1402 28.5922ZM38.8866 28.5922V29.0302L37.4382 29.0807L36.0072 29.1312L35.7629 28.6764C35.632 28.4069 35.5185 28.1879 35.5185 28.1542C35.5185 28.1205 36.2864 28.1205 37.2113 28.1542L38.8866 28.2047V28.6427V28.5922ZM14.1673 28.6259L14.1149 29.0386H11.1134L11.0611 28.6259L11.0087 28.23H14.1847L14.1324 28.6259H14.1498H14.1673ZM23.9485 28.6595V29.1144L22.4129 29.0639L20.8598 29.0133L20.8074 28.6006L20.7551 28.2047H23.9224V28.6427H23.9398L23.9485 28.6595ZM13.9579 29.4765C14.0888 29.527 14.2022 29.7124 14.2022 29.8976C14.2022 30.1503 14.1062 30.2429 13.7311 30.3188C13.129 30.4283 11.5759 30.4283 11.2879 30.3188C10.9913 30.2261 10.9738 29.5944 11.2356 29.5018C11.5147 29.3923 13.6613 29.3923 13.9579 29.5018V29.4681V29.4765ZM23.87 29.8976V30.3356L22.823 30.3862C21.2874 30.462 20.7987 30.3356 20.7987 29.9145C20.7987 29.4933 21.0081 29.4428 22.5961 29.4597L23.87 29.4933V29.9313V29.8976ZM29.1664 29.8471L29.2188 30.2598H27.6395C26.0776 30.2598 26.0427 30.2598 26.0427 29.9313C26.0427 29.7461 26.0951 29.5354 26.1387 29.4765C26.1998 29.4175 26.8891 29.4007 27.6918 29.4175L29.1141 29.4681L29.1664 29.864H29.1839L29.1664 29.8471ZM38.9651 29.8134V30.2513H37.316C35.9112 30.2513 35.6843 30.2177 35.7366 30.0324C35.7891 29.9229 35.8327 29.7208 35.8851 29.5944C35.9374 29.4175 36.2428 29.3754 37.4643 29.3754H38.9651V29.8134ZM14.1673 31.1526L14.2196 31.5652H12.6404C11.0785 31.5652 11.0436 31.5652 11.0436 31.2368C11.0436 31.0515 11.096 30.8409 11.1396 30.782C11.2007 30.723 11.89 30.7062 12.6927 30.723L14.1149 30.7735L14.1673 31.1694H14.1847L14.1673 31.1526ZM23.9485 31.1189V31.5568H22.3954C21.0081 31.5568 20.8336 31.5231 20.8336 31.2873C20.7987 30.7062 20.8947 30.6725 22.4478 30.6725H23.9485V31.1105V31.1189ZM38.2845 31.1189L37.8483 31.5568H26.0427V30.6893H38.7121L38.2758 31.1273L38.2932 31.1105L38.2845 31.1189ZM14.1847 32.4244V32.8623H11.0349V31.9948H14.1847V32.4328V32.416V32.4244ZM23.9485 32.4244V32.8623H22.3692C20.8161 32.8623 20.79 32.8623 20.79 32.5339C20.79 32.3486 20.8423 32.138 20.8859 32.0959C20.9383 32.0369 21.6538 32.0032 22.4652 32.0032H23.9311V32.4412L23.9485 32.4244ZM38.2845 32.4244L38.7208 32.8623H26.0514V31.9948H37.857L38.2932 32.4328L38.2758 32.416L38.2845 32.4244ZM14.1847 33.7299V34.1678H11.0349V33.3003H14.1847V33.7383V33.7215V33.7299ZM23.9485 33.7299V34.1678H22.4478C20.8859 34.1678 20.6417 34.0751 20.851 33.5192C20.9121 33.3424 21.2437 33.3003 22.4478 33.3003H23.9485V33.7383V33.7215V33.7299ZM29.2013 33.7299V34.1678H26.0514V33.3003H29.2013V33.7383V33.7215V33.7299ZM38.9651 33.7299V34.1846L37.4294 34.1341C35.9112 34.0836 35.8938 34.0836 35.7978 33.6793L35.7018 33.2835H38.9826V33.7215H38.9651V33.7299ZM14.8653 35.0185L15.3016 35.4564H11.0262V34.5889H12.7189C13.8532 34.5889 14.56 34.7321 14.8566 35.0269V35.0101L14.8653 35.0185ZM23.9485 35.0185V35.4564H19.6731L20.1094 35.0185C20.406 34.7237 21.1128 34.5805 22.2471 34.5805H23.9398V35.0185H23.9485ZM29.1664 34.9848L29.1141 35.3975H26.1125L26.0602 34.9848L26.0077 34.5889H29.1839L29.1315 34.9848H29.149H29.1664ZM38.9651 35.0185V35.4733L37.4294 35.4227L35.8763 35.3722L35.824 34.9596L35.7716 34.5637H38.9389V35.0017H38.9564L38.9651 35.0185ZM29.1315 36.2734V36.6945H27.6308C26.1649 36.6945 26.13 36.6945 26.0776 36.3493C26.0426 36.1639 26.0776 35.9702 26.1736 35.9113C26.2696 35.8607 26.9589 35.8355 27.7354 35.8355L29.1402 35.8691V36.2818H29.1228L29.1315 36.2734ZM23.1109 36.324L22.6747 36.7619H12.2914L11.8551 36.324L11.4188 35.886H23.5472L23.1109 36.324ZM38.9564 36.324V36.7787L37.4207 36.7282L35.8676 36.6777L35.8153 36.2649L35.7629 35.8691H38.9302V36.3071H38.9477L38.9564 36.324ZM29.1577 37.5199L29.21 37.9326H27.6308C26.0689 37.9326 26.0339 37.9326 26.0339 37.6041C26.0339 37.4188 26.0864 37.2083 26.13 37.1494C26.1911 37.0904 26.8804 37.0736 27.6831 37.0904L29.1053 37.1409L29.1577 37.5367H29.1751L29.1577 37.5199ZM38.9215 37.5367L38.9738 37.9495L37.4207 37.8989C36.0508 37.8484 35.8676 37.8232 35.824 37.5873C35.728 37.1494 36.0857 37.0652 37.5167 37.0988L38.8691 37.1494L38.9215 37.562V37.5452V37.5367ZM21.8195 37.5704L21.4269 37.9326L17.5179 37.9663L13.5914 38L13.1814 37.5873L12.7538 37.1915H22.2122L21.8195 37.5704Z" fill="#E65000"/>
</g>
<g filter="url(#filter1_f_3933_13540)">
<mask id="path-3-outside-1_3933_13540" maskUnits="userSpaceOnUse" x="10" y="11" width="30" height="28" fill="black">
<rect fill="white" x="10" y="11" width="30" height="28"/>
<path d="M21.8021 12.3369C21.9941 12.5138 22.1424 12.6991 22.1424 12.7748C22.1424 12.8338 19.6643 12.8675 16.6279 12.8675L11.1047 12.817L11.0523 12.4043L11 12.0084H16.2178C21.3659 12.0084 21.4357 12.0084 21.7934 12.3201L21.8021 12.3369ZM29.1751 12.3959L29.1228 12.8085H26.1213L26.0689 12.3959L26.0165 12H29.1926L29.1402 12.3959H29.1577H29.1751ZM23.0411 13.5413C23.3029 13.7435 23.5123 13.9793 23.5123 14.0466C23.5123 14.1393 21.0342 14.1561 17.3347 14.1393C11.4973 14.0887 11.1396 14.0803 11.0872 13.8361C10.9564 13.1455 10.8254 13.1623 16.8896 13.1623H22.5786L23.0498 13.5413H23.0324H23.0411ZM29.1402 13.6677V14.1056H27.6395C26.3219 14.1056 26.1387 14.0719 26.0864 13.8361C25.9554 13.2044 26.1213 13.1455 27.6657 13.1876L29.1315 13.2381V13.6761V13.6593L29.1402 13.6677ZM14.176 14.9225L14.2284 15.3353H12.6491C11.0872 15.3353 11.0523 15.3353 11.0523 15.0069C11.0523 14.8215 11.1047 14.611 11.1483 14.552C11.2094 14.4931 11.8987 14.4762 12.7014 14.4931L14.1237 14.5436L14.176 14.9394H14.1935L14.176 14.9225ZM23.9224 14.9225L23.9747 15.3353H22.4129C21.043 15.3353 20.8336 15.3016 20.7464 15.0658C20.694 14.9394 20.6155 14.7373 20.5631 14.6278C20.4845 14.4846 20.8423 14.451 22.1773 14.4846L23.87 14.5352L23.9224 14.931V14.9225ZM29.1751 14.9225L29.2275 15.3353H27.6482C26.0864 15.3353 26.0514 15.3353 26.0514 15.0069C26.0514 14.8215 26.1038 14.611 26.1474 14.552C26.2085 14.4931 26.8978 14.4762 27.7005 14.4931L29.1228 14.5436L29.1751 14.9394H29.1926L29.1751 14.9225ZM14.176 16.228L14.2284 16.6408H12.6491C11.0872 16.6408 11.0523 16.6408 11.0523 16.3123C11.0523 16.127 11.1047 15.9164 11.1483 15.8575C11.2094 15.7985 11.8987 15.7817 12.7014 15.7985L14.1237 15.8491L14.176 16.2449H14.1935L14.176 16.228ZM23.9573 16.1943V16.6323H22.3082C21.4095 16.6323 20.6591 16.5986 20.6591 16.5734C20.6591 16.5229 20.7202 16.3376 20.8074 16.1354C20.9383 15.7564 20.9732 15.7564 22.4565 15.7564H23.9573V16.1943ZM29.21 16.1943V16.6323H27.6308C26.0776 16.6323 26.0514 16.6323 26.0514 16.3039C26.0514 16.1185 26.1038 15.908 26.1474 15.8659C26.1998 15.807 26.9153 15.7733 27.7267 15.7733H29.1926V16.2112L29.21 16.1943ZM23.2767 17.4998L22.8405 17.9378H11.0349V17.0703H23.7043L23.2679 17.5082L23.2854 17.4914L23.2767 17.4998ZM29.21 17.4998V17.9378H26.0602V17.0703H29.21V17.5082V17.4914V17.4998ZM23.2767 18.8053L23.713 19.2433H11.0436V18.3758H22.8492L23.2854 18.8137L23.2679 18.7969L23.2767 18.8053ZM29.21 18.8053V19.2433H26.0602V18.3758H29.21V18.8137V18.7969V18.8053ZM14.176 20.0602L14.1237 20.473L12.588 20.5235L11.0349 20.574V19.6897H14.2022L14.1498 20.0855L14.1673 20.0687L14.176 20.0602ZM23.9573 20.1108V20.5656L22.4216 20.5151C20.9034 20.4646 20.8859 20.4646 20.79 20.0602L20.694 19.6644H23.9747V20.1023H23.9573V20.1108ZM29.21 20.1108V20.5656L27.6744 20.5151L26.1213 20.4646L26.0689 20.0518L26.0165 19.656H29.1839V20.0939H29.2013L29.21 20.1108ZM14.176 21.3657L14.1237 21.7785H11.1221L11.0698 21.3657L11.0175 20.9699H14.1935L14.1411 21.3657H14.1586H14.176ZM23.9573 21.4162V21.8542H22.2122C20.8772 21.8542 20.502 21.8037 20.5631 21.669C20.6155 21.5762 20.694 21.3826 20.7464 21.231C20.8423 21.012 21.043 20.9783 22.3954 20.9783H23.9573V21.4162ZM29.9081 21.2899C30.1 21.4668 30.2484 21.6521 30.2484 21.7279C30.2484 21.8037 29.3147 21.8206 28.1979 21.8206L26.13 21.77L26.0776 21.3573L26.0252 20.9615H27.7878C29.402 20.9615 29.5853 20.9952 29.9081 21.2731V21.2899ZM23.2069 22.2669L23.5821 22.3007L23.0935 22.7217L22.6049 23.1597L16.8635 23.126L11.1221 23.0755L11.0698 22.6796C11.0349 22.3933 11.1047 22.2838 11.2792 22.2416C11.5584 22.1911 22.5263 22.1911 23.1982 22.2416V22.2585L23.2069 22.2669ZM38.8604 22.2669C38.8604 22.2669 38.9564 22.4523 38.9389 22.6796L38.8866 23.0924L33.1976 23.1429L27.4912 23.1766L27.0636 22.7807C26.8367 22.5617 26.636 22.3428 26.636 22.2922C26.636 22.2164 38.3456 22.1995 38.8517 22.2922V22.2753L38.8604 22.2669ZM22.1511 23.5387C22.1511 23.5387 22.0028 23.7914 21.8282 23.9767L21.5142 24.3052H11.0436V23.9767C11.0436 23.7914 11.096 23.5808 11.1396 23.5387C11.2705 23.4124 22.1424 23.4124 22.1424 23.5387H22.1511ZM38.9477 23.9009L39 24.3136H33.8607C28.7912 24.3136 28.7127 24.3136 28.3637 24.0019C28.1718 23.8251 28.0233 23.6398 28.0233 23.5639C28.0233 23.505 30.4665 23.4713 33.4681 23.4713L38.8953 23.5218L38.9477 23.9177V23.9009ZM14.1847 26.0065L14.1324 26.4192L12.5967 26.4697L11.0436 26.5203V25.6359H14.2109L14.1586 26.0317L14.176 26.0149L14.1847 26.0065ZM23.966 26.057V26.495H22.4827C21.2961 26.495 20.9819 26.4445 20.9034 26.2761C20.694 25.7286 20.9557 25.6275 22.4827 25.6275H23.966V26.0654V26.0486V26.057ZM36.8274 25.9307C37.0193 26.1075 37.1677 26.2929 37.1677 26.3687C37.1677 26.4276 34.6896 26.4613 31.6532 26.4613L26.13 26.4108L26.0776 25.9981L26.0252 25.6022H31.2431C36.3911 25.6022 36.461 25.6022 36.8186 25.9138L36.8274 25.9307ZM38.1275 27.1856C38.3543 27.3877 38.4677 27.5983 38.4067 27.6573C38.3456 27.7163 35.5534 27.75 32.2116 27.75L26.1474 27.6994L26.0951 27.3541C26.0602 27.1688 26.13 26.9413 26.2434 26.8992C26.3394 26.8234 29.0007 26.7897 32.0981 26.8066L37.7435 26.8571L38.1362 27.2025V27.1856H38.1275ZM14.176 27.312L14.1237 27.7247H11.1221L11.0698 27.312L11.0175 26.9161H14.1935L14.1411 27.312H14.1586H14.176ZM23.9573 27.3456V27.8005L22.4216 27.75L20.8685 27.6994L20.8161 27.2867L20.7638 26.8908H23.9311V27.3288H23.9485L23.9573 27.3456ZM29.1402 28.5922V29.0302H27.6395C26.3219 29.0302 26.1387 28.9965 26.0864 28.7606C25.9554 28.1289 26.1213 28.07 27.6657 28.1121L29.1315 28.1626V28.6006V28.5837L29.1402 28.5922ZM38.8866 28.5922V29.0302L37.4382 29.0807L36.0072 29.1312L35.7629 28.6764C35.632 28.4069 35.5185 28.1879 35.5185 28.1542C35.5185 28.1205 36.2864 28.1205 37.2113 28.1542L38.8866 28.2047V28.6427V28.5922ZM14.1673 28.6259L14.1149 29.0386H11.1134L11.0611 28.6259L11.0087 28.23H14.1847L14.1324 28.6259H14.1498H14.1673ZM23.9485 28.6595V29.1144L22.4129 29.0639L20.8598 29.0133L20.8074 28.6006L20.7551 28.2047H23.9224V28.6427H23.9398L23.9485 28.6595ZM13.9579 29.4765C14.0888 29.527 14.2022 29.7124 14.2022 29.8976C14.2022 30.1503 14.1062 30.2429 13.7311 30.3188C13.129 30.4283 11.5759 30.4283 11.2879 30.3188C10.9913 30.2261 10.9738 29.5944 11.2356 29.5018C11.5147 29.3923 13.6613 29.3923 13.9579 29.5018V29.4681V29.4765ZM23.87 29.8976V30.3356L22.823 30.3862C21.2874 30.462 20.7987 30.3356 20.7987 29.9145C20.7987 29.4933 21.0081 29.4428 22.5961 29.4597L23.87 29.4933V29.9313V29.8976ZM29.1664 29.8471L29.2188 30.2598H27.6395C26.0776 30.2598 26.0427 30.2598 26.0427 29.9313C26.0427 29.7461 26.0951 29.5354 26.1387 29.4765C26.1998 29.4175 26.8891 29.4007 27.6918 29.4175L29.1141 29.4681L29.1664 29.864H29.1839L29.1664 29.8471ZM38.9651 29.8134V30.2513H37.316C35.9112 30.2513 35.6843 30.2177 35.7366 30.0324C35.7891 29.9229 35.8327 29.7208 35.8851 29.5944C35.9374 29.4175 36.2428 29.3754 37.4643 29.3754H38.9651V29.8134ZM14.1673 31.1526L14.2196 31.5652H12.6404C11.0785 31.5652 11.0436 31.5652 11.0436 31.2368C11.0436 31.0515 11.096 30.8409 11.1396 30.782C11.2007 30.723 11.89 30.7062 12.6927 30.723L14.1149 30.7735L14.1673 31.1694H14.1847L14.1673 31.1526ZM23.9485 31.1189V31.5568H22.3954C21.0081 31.5568 20.8336 31.5231 20.8336 31.2873C20.7987 30.7062 20.8947 30.6725 22.4478 30.6725H23.9485V31.1105V31.1189ZM38.2845 31.1189L37.8483 31.5568H26.0427V30.6893H38.7121L38.2758 31.1273L38.2932 31.1105L38.2845 31.1189ZM14.1847 32.4244V32.8623H11.0349V31.9948H14.1847V32.4328V32.416V32.4244ZM23.9485 32.4244V32.8623H22.3692C20.8161 32.8623 20.79 32.8623 20.79 32.5339C20.79 32.3486 20.8423 32.138 20.8859 32.0959C20.9383 32.0369 21.6538 32.0032 22.4652 32.0032H23.9311V32.4412L23.9485 32.4244ZM38.2845 32.4244L38.7208 32.8623H26.0514V31.9948H37.857L38.2932 32.4328L38.2758 32.416L38.2845 32.4244ZM14.1847 33.7299V34.1678H11.0349V33.3003H14.1847V33.7383V33.7215V33.7299ZM23.9485 33.7299V34.1678H22.4478C20.8859 34.1678 20.6417 34.0751 20.851 33.5192C20.9121 33.3424 21.2437 33.3003 22.4478 33.3003H23.9485V33.7383V33.7215V33.7299ZM29.2013 33.7299V34.1678H26.0514V33.3003H29.2013V33.7383V33.7215V33.7299ZM38.9651 33.7299V34.1846L37.4294 34.1341C35.9112 34.0836 35.8938 34.0836 35.7978 33.6793L35.7018 33.2835H38.9826V33.7215H38.9651V33.7299ZM14.8653 35.0185L15.3016 35.4564H11.0262V34.5889H12.7189C13.8532 34.5889 14.56 34.7321 14.8566 35.0269V35.0101L14.8653 35.0185ZM23.9485 35.0185V35.4564H19.6731L20.1094 35.0185C20.406 34.7237 21.1128 34.5805 22.2471 34.5805H23.9398V35.0185H23.9485ZM29.1664 34.9848L29.1141 35.3975H26.1125L26.0602 34.9848L26.0077 34.5889H29.1839L29.1315 34.9848H29.149H29.1664ZM38.9651 35.0185V35.4733L37.4294 35.4227L35.8763 35.3722L35.824 34.9596L35.7716 34.5637H38.9389V35.0017H38.9564L38.9651 35.0185ZM29.1315 36.2734V36.6945H27.6308C26.1649 36.6945 26.13 36.6945 26.0776 36.3493C26.0426 36.1639 26.0776 35.9702 26.1736 35.9113C26.2696 35.8607 26.9589 35.8355 27.7354 35.8355L29.1402 35.8691V36.2818H29.1228L29.1315 36.2734ZM23.1109 36.324L22.6747 36.7619H12.2914L11.8551 36.324L11.4188 35.886H23.5472L23.1109 36.324ZM38.9564 36.324V36.7787L37.4207 36.7282L35.8676 36.6777L35.8153 36.2649L35.7629 35.8691H38.9302V36.3071H38.9477L38.9564 36.324ZM29.1577 37.5199L29.21 37.9326H27.6308C26.0689 37.9326 26.0339 37.9326 26.0339 37.6041C26.0339 37.4188 26.0864 37.2083 26.13 37.1494C26.1911 37.0904 26.8804 37.0736 27.6831 37.0904L29.1053 37.1409L29.1577 37.5367H29.1751L29.1577 37.5199ZM38.9215 37.5367L38.9738 37.9495L37.4207 37.8989C36.0508 37.8484 35.8676 37.8232 35.824 37.5873C35.728 37.1494 36.0857 37.0652 37.5167 37.0988L38.8691 37.1494L38.9215 37.562V37.5452V37.5367ZM21.8195 37.5704L21.4269 37.9326L17.5179 37.9663L13.5914 38L13.1814 37.5873L12.7538 37.1915H22.2122L21.8195 37.5704Z"/>
</mask>
<path d="M21.8021 12.3369C21.9941 12.5138 22.1424 12.6991 22.1424 12.7748C22.1424 12.8338 19.6643 12.8675 16.6279 12.8675L11.1047 12.817L11.0523 12.4043L11 12.0084H16.2178C21.3659 12.0084 21.4357 12.0084 21.7934 12.3201L21.8021 12.3369ZM29.1751 12.3959L29.1228 12.8085H26.1213L26.0689 12.3959L26.0165 12H29.1926L29.1402 12.3959H29.1577H29.1751ZM23.0411 13.5413C23.3029 13.7435 23.5123 13.9793 23.5123 14.0466C23.5123 14.1393 21.0342 14.1561 17.3347 14.1393C11.4973 14.0887 11.1396 14.0803 11.0872 13.8361C10.9564 13.1455 10.8254 13.1623 16.8896 13.1623H22.5786L23.0498 13.5413H23.0324H23.0411ZM29.1402 13.6677V14.1056H27.6395C26.3219 14.1056 26.1387 14.0719 26.0864 13.8361C25.9554 13.2044 26.1213 13.1455 27.6657 13.1876L29.1315 13.2381V13.6761V13.6593L29.1402 13.6677ZM14.176 14.9225L14.2284 15.3353H12.6491C11.0872 15.3353 11.0523 15.3353 11.0523 15.0069C11.0523 14.8215 11.1047 14.611 11.1483 14.552C11.2094 14.4931 11.8987 14.4762 12.7014 14.4931L14.1237 14.5436L14.176 14.9394H14.1935L14.176 14.9225ZM23.9224 14.9225L23.9747 15.3353H22.4129C21.043 15.3353 20.8336 15.3016 20.7464 15.0658C20.694 14.9394 20.6155 14.7373 20.5631 14.6278C20.4845 14.4846 20.8423 14.451 22.1773 14.4846L23.87 14.5352L23.9224 14.931V14.9225ZM29.1751 14.9225L29.2275 15.3353H27.6482C26.0864 15.3353 26.0514 15.3353 26.0514 15.0069C26.0514 14.8215 26.1038 14.611 26.1474 14.552C26.2085 14.4931 26.8978 14.4762 27.7005 14.4931L29.1228 14.5436L29.1751 14.9394H29.1926L29.1751 14.9225ZM14.176 16.228L14.2284 16.6408H12.6491C11.0872 16.6408 11.0523 16.6408 11.0523 16.3123C11.0523 16.127 11.1047 15.9164 11.1483 15.8575C11.2094 15.7985 11.8987 15.7817 12.7014 15.7985L14.1237 15.8491L14.176 16.2449H14.1935L14.176 16.228ZM23.9573 16.1943V16.6323H22.3082C21.4095 16.6323 20.6591 16.5986 20.6591 16.5734C20.6591 16.5229 20.7202 16.3376 20.8074 16.1354C20.9383 15.7564 20.9732 15.7564 22.4565 15.7564H23.9573V16.1943ZM29.21 16.1943V16.6323H27.6308C26.0776 16.6323 26.0514 16.6323 26.0514 16.3039C26.0514 16.1185 26.1038 15.908 26.1474 15.8659C26.1998 15.807 26.9153 15.7733 27.7267 15.7733H29.1926V16.2112L29.21 16.1943ZM23.2767 17.4998L22.8405 17.9378H11.0349V17.0703H23.7043L23.2679 17.5082L23.2854 17.4914L23.2767 17.4998ZM29.21 17.4998V17.9378H26.0602V17.0703H29.21V17.5082V17.4914V17.4998ZM23.2767 18.8053L23.713 19.2433H11.0436V18.3758H22.8492L23.2854 18.8137L23.2679 18.7969L23.2767 18.8053ZM29.21 18.8053V19.2433H26.0602V18.3758H29.21V18.8137V18.7969V18.8053ZM14.176 20.0602L14.1237 20.473L12.588 20.5235L11.0349 20.574V19.6897H14.2022L14.1498 20.0855L14.1673 20.0687L14.176 20.0602ZM23.9573 20.1108V20.5656L22.4216 20.5151C20.9034 20.4646 20.8859 20.4646 20.79 20.0602L20.694 19.6644H23.9747V20.1023H23.9573V20.1108ZM29.21 20.1108V20.5656L27.6744 20.5151L26.1213 20.4646L26.0689 20.0518L26.0165 19.656H29.1839V20.0939H29.2013L29.21 20.1108ZM14.176 21.3657L14.1237 21.7785H11.1221L11.0698 21.3657L11.0175 20.9699H14.1935L14.1411 21.3657H14.1586H14.176ZM23.9573 21.4162V21.8542H22.2122C20.8772 21.8542 20.502 21.8037 20.5631 21.669C20.6155 21.5762 20.694 21.3826 20.7464 21.231C20.8423 21.012 21.043 20.9783 22.3954 20.9783H23.9573V21.4162ZM29.9081 21.2899C30.1 21.4668 30.2484 21.6521 30.2484 21.7279C30.2484 21.8037 29.3147 21.8206 28.1979 21.8206L26.13 21.77L26.0776 21.3573L26.0252 20.9615H27.7878C29.402 20.9615 29.5853 20.9952 29.9081 21.2731V21.2899ZM23.2069 22.2669L23.5821 22.3007L23.0935 22.7217L22.6049 23.1597L16.8635 23.126L11.1221 23.0755L11.0698 22.6796C11.0349 22.3933 11.1047 22.2838 11.2792 22.2416C11.5584 22.1911 22.5263 22.1911 23.1982 22.2416V22.2585L23.2069 22.2669ZM38.8604 22.2669C38.8604 22.2669 38.9564 22.4523 38.9389 22.6796L38.8866 23.0924L33.1976 23.1429L27.4912 23.1766L27.0636 22.7807C26.8367 22.5617 26.636 22.3428 26.636 22.2922C26.636 22.2164 38.3456 22.1995 38.8517 22.2922V22.2753L38.8604 22.2669ZM22.1511 23.5387C22.1511 23.5387 22.0028 23.7914 21.8282 23.9767L21.5142 24.3052H11.0436V23.9767C11.0436 23.7914 11.096 23.5808 11.1396 23.5387C11.2705 23.4124 22.1424 23.4124 22.1424 23.5387H22.1511ZM38.9477 23.9009L39 24.3136H33.8607C28.7912 24.3136 28.7127 24.3136 28.3637 24.0019C28.1718 23.8251 28.0233 23.6398 28.0233 23.5639C28.0233 23.505 30.4665 23.4713 33.4681 23.4713L38.8953 23.5218L38.9477 23.9177V23.9009ZM14.1847 26.0065L14.1324 26.4192L12.5967 26.4697L11.0436 26.5203V25.6359H14.2109L14.1586 26.0317L14.176 26.0149L14.1847 26.0065ZM23.966 26.057V26.495H22.4827C21.2961 26.495 20.9819 26.4445 20.9034 26.2761C20.694 25.7286 20.9557 25.6275 22.4827 25.6275H23.966V26.0654V26.0486V26.057ZM36.8274 25.9307C37.0193 26.1075 37.1677 26.2929 37.1677 26.3687C37.1677 26.4276 34.6896 26.4613 31.6532 26.4613L26.13 26.4108L26.0776 25.9981L26.0252 25.6022H31.2431C36.3911 25.6022 36.461 25.6022 36.8186 25.9138L36.8274 25.9307ZM38.1275 27.1856C38.3543 27.3877 38.4677 27.5983 38.4067 27.6573C38.3456 27.7163 35.5534 27.75 32.2116 27.75L26.1474 27.6994L26.0951 27.3541C26.0602 27.1688 26.13 26.9413 26.2434 26.8992C26.3394 26.8234 29.0007 26.7897 32.0981 26.8066L37.7435 26.8571L38.1362 27.2025V27.1856H38.1275ZM14.176 27.312L14.1237 27.7247H11.1221L11.0698 27.312L11.0175 26.9161H14.1935L14.1411 27.312H14.1586H14.176ZM23.9573 27.3456V27.8005L22.4216 27.75L20.8685 27.6994L20.8161 27.2867L20.7638 26.8908H23.9311V27.3288H23.9485L23.9573 27.3456ZM29.1402 28.5922V29.0302H27.6395C26.3219 29.0302 26.1387 28.9965 26.0864 28.7606C25.9554 28.1289 26.1213 28.07 27.6657 28.1121L29.1315 28.1626V28.6006V28.5837L29.1402 28.5922ZM38.8866 28.5922V29.0302L37.4382 29.0807L36.0072 29.1312L35.7629 28.6764C35.632 28.4069 35.5185 28.1879 35.5185 28.1542C35.5185 28.1205 36.2864 28.1205 37.2113 28.1542L38.8866 28.2047V28.6427V28.5922ZM14.1673 28.6259L14.1149 29.0386H11.1134L11.0611 28.6259L11.0087 28.23H14.1847L14.1324 28.6259H14.1498H14.1673ZM23.9485 28.6595V29.1144L22.4129 29.0639L20.8598 29.0133L20.8074 28.6006L20.7551 28.2047H23.9224V28.6427H23.9398L23.9485 28.6595ZM13.9579 29.4765C14.0888 29.527 14.2022 29.7124 14.2022 29.8976C14.2022 30.1503 14.1062 30.2429 13.7311 30.3188C13.129 30.4283 11.5759 30.4283 11.2879 30.3188C10.9913 30.2261 10.9738 29.5944 11.2356 29.5018C11.5147 29.3923 13.6613 29.3923 13.9579 29.5018V29.4681V29.4765ZM23.87 29.8976V30.3356L22.823 30.3862C21.2874 30.462 20.7987 30.3356 20.7987 29.9145C20.7987 29.4933 21.0081 29.4428 22.5961 29.4597L23.87 29.4933V29.9313V29.8976ZM29.1664 29.8471L29.2188 30.2598H27.6395C26.0776 30.2598 26.0427 30.2598 26.0427 29.9313C26.0427 29.7461 26.0951 29.5354 26.1387 29.4765C26.1998 29.4175 26.8891 29.4007 27.6918 29.4175L29.1141 29.4681L29.1664 29.864H29.1839L29.1664 29.8471ZM38.9651 29.8134V30.2513H37.316C35.9112 30.2513 35.6843 30.2177 35.7366 30.0324C35.7891 29.9229 35.8327 29.7208 35.8851 29.5944C35.9374 29.4175 36.2428 29.3754 37.4643 29.3754H38.9651V29.8134ZM14.1673 31.1526L14.2196 31.5652H12.6404C11.0785 31.5652 11.0436 31.5652 11.0436 31.2368C11.0436 31.0515 11.096 30.8409 11.1396 30.782C11.2007 30.723 11.89 30.7062 12.6927 30.723L14.1149 30.7735L14.1673 31.1694H14.1847L14.1673 31.1526ZM23.9485 31.1189V31.5568H22.3954C21.0081 31.5568 20.8336 31.5231 20.8336 31.2873C20.7987 30.7062 20.8947 30.6725 22.4478 30.6725H23.9485V31.1105V31.1189ZM38.2845 31.1189L37.8483 31.5568H26.0427V30.6893H38.7121L38.2758 31.1273L38.2932 31.1105L38.2845 31.1189ZM14.1847 32.4244V32.8623H11.0349V31.9948H14.1847V32.4328V32.416V32.4244ZM23.9485 32.4244V32.8623H22.3692C20.8161 32.8623 20.79 32.8623 20.79 32.5339C20.79 32.3486 20.8423 32.138 20.8859 32.0959C20.9383 32.0369 21.6538 32.0032 22.4652 32.0032H23.9311V32.4412L23.9485 32.4244ZM38.2845 32.4244L38.7208 32.8623H26.0514V31.9948H37.857L38.2932 32.4328L38.2758 32.416L38.2845 32.4244ZM14.1847 33.7299V34.1678H11.0349V33.3003H14.1847V33.7383V33.7215V33.7299ZM23.9485 33.7299V34.1678H22.4478C20.8859 34.1678 20.6417 34.0751 20.851 33.5192C20.9121 33.3424 21.2437 33.3003 22.4478 33.3003H23.9485V33.7383V33.7215V33.7299ZM29.2013 33.7299V34.1678H26.0514V33.3003H29.2013V33.7383V33.7215V33.7299ZM38.9651 33.7299V34.1846L37.4294 34.1341C35.9112 34.0836 35.8938 34.0836 35.7978 33.6793L35.7018 33.2835H38.9826V33.7215H38.9651V33.7299ZM14.8653 35.0185L15.3016 35.4564H11.0262V34.5889H12.7189C13.8532 34.5889 14.56 34.7321 14.8566 35.0269V35.0101L14.8653 35.0185ZM23.9485 35.0185V35.4564H19.6731L20.1094 35.0185C20.406 34.7237 21.1128 34.5805 22.2471 34.5805H23.9398V35.0185H23.9485ZM29.1664 34.9848L29.1141 35.3975H26.1125L26.0602 34.9848L26.0077 34.5889H29.1839L29.1315 34.9848H29.149H29.1664ZM38.9651 35.0185V35.4733L37.4294 35.4227L35.8763 35.3722L35.824 34.9596L35.7716 34.5637H38.9389V35.0017H38.9564L38.9651 35.0185ZM29.1315 36.2734V36.6945H27.6308C26.1649 36.6945 26.13 36.6945 26.0776 36.3493C26.0426 36.1639 26.0776 35.9702 26.1736 35.9113C26.2696 35.8607 26.9589 35.8355 27.7354 35.8355L29.1402 35.8691V36.2818H29.1228L29.1315 36.2734ZM23.1109 36.324L22.6747 36.7619H12.2914L11.8551 36.324L11.4188 35.886H23.5472L23.1109 36.324ZM38.9564 36.324V36.7787L37.4207 36.7282L35.8676 36.6777L35.8153 36.2649L35.7629 35.8691H38.9302V36.3071H38.9477L38.9564 36.324ZM29.1577 37.5199L29.21 37.9326H27.6308C26.0689 37.9326 26.0339 37.9326 26.0339 37.6041C26.0339 37.4188 26.0864 37.2083 26.13 37.1494C26.1911 37.0904 26.8804 37.0736 27.6831 37.0904L29.1053 37.1409L29.1577 37.5367H29.1751L29.1577 37.5199ZM38.9215 37.5367L38.9738 37.9495L37.4207 37.8989C36.0508 37.8484 35.8676 37.8232 35.824 37.5873C35.728 37.1494 36.0857 37.0652 37.5167 37.0988L38.8691 37.1494L38.9215 37.562V37.5452V37.5367ZM21.8195 37.5704L21.4269 37.9326L17.5179 37.9663L13.5914 38L13.1814 37.5873L12.7538 37.1915H22.2122L21.8195 37.5704Z" fill="#9E1500"/>
<path d="M21.8021 12.3369C21.9941 12.5138 22.1424 12.6991 22.1424 12.7748C22.1424 12.8338 19.6643 12.8675 16.6279 12.8675L11.1047 12.817L11.0523 12.4043L11 12.0084H16.2178C21.3659 12.0084 21.4357 12.0084 21.7934 12.3201L21.8021 12.3369ZM29.1751 12.3959L29.1228 12.8085H26.1213L26.0689 12.3959L26.0165 12H29.1926L29.1402 12.3959H29.1577H29.1751ZM23.0411 13.5413C23.3029 13.7435 23.5123 13.9793 23.5123 14.0466C23.5123 14.1393 21.0342 14.1561 17.3347 14.1393C11.4973 14.0887 11.1396 14.0803 11.0872 13.8361C10.9564 13.1455 10.8254 13.1623 16.8896 13.1623H22.5786L23.0498 13.5413H23.0324H23.0411ZM29.1402 13.6677V14.1056H27.6395C26.3219 14.1056 26.1387 14.0719 26.0864 13.8361C25.9554 13.2044 26.1213 13.1455 27.6657 13.1876L29.1315 13.2381V13.6761V13.6593L29.1402 13.6677ZM14.176 14.9225L14.2284 15.3353H12.6491C11.0872 15.3353 11.0523 15.3353 11.0523 15.0069C11.0523 14.8215 11.1047 14.611 11.1483 14.552C11.2094 14.4931 11.8987 14.4762 12.7014 14.4931L14.1237 14.5436L14.176 14.9394H14.1935L14.176 14.9225ZM23.9224 14.9225L23.9747 15.3353H22.4129C21.043 15.3353 20.8336 15.3016 20.7464 15.0658C20.694 14.9394 20.6155 14.7373 20.5631 14.6278C20.4845 14.4846 20.8423 14.451 22.1773 14.4846L23.87 14.5352L23.9224 14.931V14.9225ZM29.1751 14.9225L29.2275 15.3353H27.6482C26.0864 15.3353 26.0514 15.3353 26.0514 15.0069C26.0514 14.8215 26.1038 14.611 26.1474 14.552C26.2085 14.4931 26.8978 14.4762 27.7005 14.4931L29.1228 14.5436L29.1751 14.9394H29.1926L29.1751 14.9225ZM14.176 16.228L14.2284 16.6408H12.6491C11.0872 16.6408 11.0523 16.6408 11.0523 16.3123C11.0523 16.127 11.1047 15.9164 11.1483 15.8575C11.2094 15.7985 11.8987 15.7817 12.7014 15.7985L14.1237 15.8491L14.176 16.2449H14.1935L14.176 16.228ZM23.9573 16.1943V16.6323H22.3082C21.4095 16.6323 20.6591 16.5986 20.6591 16.5734C20.6591 16.5229 20.7202 16.3376 20.8074 16.1354C20.9383 15.7564 20.9732 15.7564 22.4565 15.7564H23.9573V16.1943ZM29.21 16.1943V16.6323H27.6308C26.0776 16.6323 26.0514 16.6323 26.0514 16.3039C26.0514 16.1185 26.1038 15.908 26.1474 15.8659C26.1998 15.807 26.9153 15.7733 27.7267 15.7733H29.1926V16.2112L29.21 16.1943ZM23.2767 17.4998L22.8405 17.9378H11.0349V17.0703H23.7043L23.2679 17.5082L23.2854 17.4914L23.2767 17.4998ZM29.21 17.4998V17.9378H26.0602V17.0703H29.21V17.5082V17.4914V17.4998ZM23.2767 18.8053L23.713 19.2433H11.0436V18.3758H22.8492L23.2854 18.8137L23.2679 18.7969L23.2767 18.8053ZM29.21 18.8053V19.2433H26.0602V18.3758H29.21V18.8137V18.7969V18.8053ZM14.176 20.0602L14.1237 20.473L12.588 20.5235L11.0349 20.574V19.6897H14.2022L14.1498 20.0855L14.1673 20.0687L14.176 20.0602ZM23.9573 20.1108V20.5656L22.4216 20.5151C20.9034 20.4646 20.8859 20.4646 20.79 20.0602L20.694 19.6644H23.9747V20.1023H23.9573V20.1108ZM29.21 20.1108V20.5656L27.6744 20.5151L26.1213 20.4646L26.0689 20.0518L26.0165 19.656H29.1839V20.0939H29.2013L29.21 20.1108ZM14.176 21.3657L14.1237 21.7785H11.1221L11.0698 21.3657L11.0175 20.9699H14.1935L14.1411 21.3657H14.1586H14.176ZM23.9573 21.4162V21.8542H22.2122C20.8772 21.8542 20.502 21.8037 20.5631 21.669C20.6155 21.5762 20.694 21.3826 20.7464 21.231C20.8423 21.012 21.043 20.9783 22.3954 20.9783H23.9573V21.4162ZM29.9081 21.2899C30.1 21.4668 30.2484 21.6521 30.2484 21.7279C30.2484 21.8037 29.3147 21.8206 28.1979 21.8206L26.13 21.77L26.0776 21.3573L26.0252 20.9615H27.7878C29.402 20.9615 29.5853 20.9952 29.9081 21.2731V21.2899ZM23.2069 22.2669L23.5821 22.3007L23.0935 22.7217L22.6049 23.1597L16.8635 23.126L11.1221 23.0755L11.0698 22.6796C11.0349 22.3933 11.1047 22.2838 11.2792 22.2416C11.5584 22.1911 22.5263 22.1911 23.1982 22.2416V22.2585L23.2069 22.2669ZM38.8604 22.2669C38.8604 22.2669 38.9564 22.4523 38.9389 22.6796L38.8866 23.0924L33.1976 23.1429L27.4912 23.1766L27.0636 22.7807C26.8367 22.5617 26.636 22.3428 26.636 22.2922C26.636 22.2164 38.3456 22.1995 38.8517 22.2922V22.2753L38.8604 22.2669ZM22.1511 23.5387C22.1511 23.5387 22.0028 23.7914 21.8282 23.9767L21.5142 24.3052H11.0436V23.9767C11.0436 23.7914 11.096 23.5808 11.1396 23.5387C11.2705 23.4124 22.1424 23.4124 22.1424 23.5387H22.1511ZM38.9477 23.9009L39 24.3136H33.8607C28.7912 24.3136 28.7127 24.3136 28.3637 24.0019C28.1718 23.8251 28.0233 23.6398 28.0233 23.5639C28.0233 23.505 30.4665 23.4713 33.4681 23.4713L38.8953 23.5218L38.9477 23.9177V23.9009ZM14.1847 26.0065L14.1324 26.4192L12.5967 26.4697L11.0436 26.5203V25.6359H14.2109L14.1586 26.0317L14.176 26.0149L14.1847 26.0065ZM23.966 26.057V26.495H22.4827C21.2961 26.495 20.9819 26.4445 20.9034 26.2761C20.694 25.7286 20.9557 25.6275 22.4827 25.6275H23.966V26.0654V26.0486V26.057ZM36.8274 25.9307C37.0193 26.1075 37.1677 26.2929 37.1677 26.3687C37.1677 26.4276 34.6896 26.4613 31.6532 26.4613L26.13 26.4108L26.0776 25.9981L26.0252 25.6022H31.2431C36.3911 25.6022 36.461 25.6022 36.8186 25.9138L36.8274 25.9307ZM38.1275 27.1856C38.3543 27.3877 38.4677 27.5983 38.4067 27.6573C38.3456 27.7163 35.5534 27.75 32.2116 27.75L26.1474 27.6994L26.0951 27.3541C26.0602 27.1688 26.13 26.9413 26.2434 26.8992C26.3394 26.8234 29.0007 26.7897 32.0981 26.8066L37.7435 26.8571L38.1362 27.2025V27.1856H38.1275ZM14.176 27.312L14.1237 27.7247H11.1221L11.0698 27.312L11.0175 26.9161H14.1935L14.1411 27.312H14.1586H14.176ZM23.9573 27.3456V27.8005L22.4216 27.75L20.8685 27.6994L20.8161 27.2867L20.7638 26.8908H23.9311V27.3288H23.9485L23.9573 27.3456ZM29.1402 28.5922V29.0302H27.6395C26.3219 29.0302 26.1387 28.9965 26.0864 28.7606C25.9554 28.1289 26.1213 28.07 27.6657 28.1121L29.1315 28.1626V28.6006V28.5837L29.1402 28.5922ZM38.8866 28.5922V29.0302L37.4382 29.0807L36.0072 29.1312L35.7629 28.6764C35.632 28.4069 35.5185 28.1879 35.5185 28.1542C35.5185 28.1205 36.2864 28.1205 37.2113 28.1542L38.8866 28.2047V28.6427V28.5922ZM14.1673 28.6259L14.1149 29.0386H11.1134L11.0611 28.6259L11.0087 28.23H14.1847L14.1324 28.6259H14.1498H14.1673ZM23.9485 28.6595V29.1144L22.4129 29.0639L20.8598 29.0133L20.8074 28.6006L20.7551 28.2047H23.9224V28.6427H23.9398L23.9485 28.6595ZM13.9579 29.4765C14.0888 29.527 14.2022 29.7124 14.2022 29.8976C14.2022 30.1503 14.1062 30.2429 13.7311 30.3188C13.129 30.4283 11.5759 30.4283 11.2879 30.3188C10.9913 30.2261 10.9738 29.5944 11.2356 29.5018C11.5147 29.3923 13.6613 29.3923 13.9579 29.5018V29.4681V29.4765ZM23.87 29.8976V30.3356L22.823 30.3862C21.2874 30.462 20.7987 30.3356 20.7987 29.9145C20.7987 29.4933 21.0081 29.4428 22.5961 29.4597L23.87 29.4933V29.9313V29.8976ZM29.1664 29.8471L29.2188 30.2598H27.6395C26.0776 30.2598 26.0427 30.2598 26.0427 29.9313C26.0427 29.7461 26.0951 29.5354 26.1387 29.4765C26.1998 29.4175 26.8891 29.4007 27.6918 29.4175L29.1141 29.4681L29.1664 29.864H29.1839L29.1664 29.8471ZM38.9651 29.8134V30.2513H37.316C35.9112 30.2513 35.6843 30.2177 35.7366 30.0324C35.7891 29.9229 35.8327 29.7208 35.8851 29.5944C35.9374 29.4175 36.2428 29.3754 37.4643 29.3754H38.9651V29.8134ZM14.1673 31.1526L14.2196 31.5652H12.6404C11.0785 31.5652 11.0436 31.5652 11.0436 31.2368C11.0436 31.0515 11.096 30.8409 11.1396 30.782C11.2007 30.723 11.89 30.7062 12.6927 30.723L14.1149 30.7735L14.1673 31.1694H14.1847L14.1673 31.1526ZM23.9485 31.1189V31.5568H22.3954C21.0081 31.5568 20.8336 31.5231 20.8336 31.2873C20.7987 30.7062 20.8947 30.6725 22.4478 30.6725H23.9485V31.1105V31.1189ZM38.2845 31.1189L37.8483 31.5568H26.0427V30.6893H38.7121L38.2758 31.1273L38.2932 31.1105L38.2845 31.1189ZM14.1847 32.4244V32.8623H11.0349V31.9948H14.1847V32.4328V32.416V32.4244ZM23.9485 32.4244V32.8623H22.3692C20.8161 32.8623 20.79 32.8623 20.79 32.5339C20.79 32.3486 20.8423 32.138 20.8859 32.0959C20.9383 32.0369 21.6538 32.0032 22.4652 32.0032H23.9311V32.4412L23.9485 32.4244ZM38.2845 32.4244L38.7208 32.8623H26.0514V31.9948H37.857L38.2932 32.4328L38.2758 32.416L38.2845 32.4244ZM14.1847 33.7299V34.1678H11.0349V33.3003H14.1847V33.7383V33.7215V33.7299ZM23.9485 33.7299V34.1678H22.4478C20.8859 34.1678 20.6417 34.0751 20.851 33.5192C20.9121 33.3424 21.2437 33.3003 22.4478 33.3003H23.9485V33.7383V33.7215V33.7299ZM29.2013 33.7299V34.1678H26.0514V33.3003H29.2013V33.7383V33.7215V33.7299ZM38.9651 33.7299V34.1846L37.4294 34.1341C35.9112 34.0836 35.8938 34.0836 35.7978 33.6793L35.7018 33.2835H38.9826V33.7215H38.9651V33.7299ZM14.8653 35.0185L15.3016 35.4564H11.0262V34.5889H12.7189C13.8532 34.5889 14.56 34.7321 14.8566 35.0269V35.0101L14.8653 35.0185ZM23.9485 35.0185V35.4564H19.6731L20.1094 35.0185C20.406 34.7237 21.1128 34.5805 22.2471 34.5805H23.9398V35.0185H23.9485ZM29.1664 34.9848L29.1141 35.3975H26.1125L26.0602 34.9848L26.0077 34.5889H29.1839L29.1315 34.9848H29.149H29.1664ZM38.9651 35.0185V35.4733L37.4294 35.4227L35.8763 35.3722L35.824 34.9596L35.7716 34.5637H38.9389V35.0017H38.9564L38.9651 35.0185ZM29.1315 36.2734V36.6945H27.6308C26.1649 36.6945 26.13 36.6945 26.0776 36.3493C26.0426 36.1639 26.0776 35.9702 26.1736 35.9113C26.2696 35.8607 26.9589 35.8355 27.7354 35.8355L29.1402 35.8691V36.2818H29.1228L29.1315 36.2734ZM23.1109 36.324L22.6747 36.7619H12.2914L11.8551 36.324L11.4188 35.886H23.5472L23.1109 36.324ZM38.9564 36.324V36.7787L37.4207 36.7282L35.8676 36.6777L35.8153 36.2649L35.7629 35.8691H38.9302V36.3071H38.9477L38.9564 36.324ZM29.1577 37.5199L29.21 37.9326H27.6308C26.0689 37.9326 26.0339 37.9326 26.0339 37.6041C26.0339 37.4188 26.0864 37.2083 26.13 37.1494C26.1911 37.0904 26.8804 37.0736 27.6831 37.0904L29.1053 37.1409L29.1577 37.5367H29.1751L29.1577 37.5199ZM38.9215 37.5367L38.9738 37.9495L37.4207 37.8989C36.0508 37.8484 35.8676 37.8232 35.824 37.5873C35.728 37.1494 36.0857 37.0652 37.5167 37.0988L38.8691 37.1494L38.9215 37.562V37.5452V37.5367ZM21.8195 37.5704L21.4269 37.9326L17.5179 37.9663L13.5914 38L13.1814 37.5873L12.7538 37.1915H22.2122L21.8195 37.5704Z" stroke="#9E1500" stroke-width="0.6" stroke-linejoin="round" mask="url(#path-3-outside-1_3933_13540)"/>
</g>
<path d="M21.8021 12.3369C21.9941 12.5138 22.1424 12.6991 22.1424 12.7748C22.1424 12.8338 19.6643 12.8675 16.6279 12.8675L11.1047 12.817L11.0523 12.4043L11 12.0084H16.2178C21.3659 12.0084 21.4357 12.0084 21.7934 12.3201L21.8021 12.3369ZM29.1751 12.3959L29.1228 12.8085H26.1213L26.0689 12.3959L26.0165 12H29.1926L29.1402 12.3959H29.1577H29.1751ZM23.0411 13.5413C23.3029 13.7435 23.5123 13.9793 23.5123 14.0466C23.5123 14.1393 21.0342 14.1561 17.3347 14.1393C11.4973 14.0887 11.1396 14.0803 11.0872 13.8361C10.9564 13.1455 10.8254 13.1623 16.8896 13.1623H22.5786L23.0498 13.5413H23.0324H23.0411ZM29.1402 13.6677V14.1056H27.6395C26.3219 14.1056 26.1387 14.0719 26.0864 13.8361C25.9554 13.2044 26.1213 13.1455 27.6657 13.1876L29.1315 13.2381V13.6761V13.6593L29.1402 13.6677ZM14.176 14.9225L14.2284 15.3353H12.6491C11.0872 15.3353 11.0523 15.3353 11.0523 15.0069C11.0523 14.8215 11.1047 14.611 11.1483 14.552C11.2094 14.4931 11.8987 14.4762 12.7014 14.4931L14.1237 14.5436L14.176 14.9394H14.1935L14.176 14.9225ZM23.9224 14.9225L23.9747 15.3353H22.4129C21.043 15.3353 20.8336 15.3016 20.7464 15.0658C20.694 14.9394 20.6155 14.7373 20.5631 14.6278C20.4845 14.4846 20.8423 14.451 22.1773 14.4846L23.87 14.5352L23.9224 14.931V14.9225ZM29.1751 14.9225L29.2275 15.3353H27.6482C26.0864 15.3353 26.0514 15.3353 26.0514 15.0069C26.0514 14.8215 26.1038 14.611 26.1474 14.552C26.2085 14.4931 26.8978 14.4762 27.7005 14.4931L29.1228 14.5436L29.1751 14.9394H29.1926L29.1751 14.9225ZM14.176 16.228L14.2284 16.6408H12.6491C11.0872 16.6408 11.0523 16.6408 11.0523 16.3123C11.0523 16.127 11.1047 15.9164 11.1483 15.8575C11.2094 15.7985 11.8987 15.7817 12.7014 15.7985L14.1237 15.8491L14.176 16.2449H14.1935L14.176 16.228ZM23.9573 16.1943V16.6323H22.3082C21.4095 16.6323 20.6591 16.5986 20.6591 16.5734C20.6591 16.5229 20.7202 16.3376 20.8074 16.1354C20.9383 15.7564 20.9732 15.7564 22.4565 15.7564H23.9573V16.1943ZM29.21 16.1943V16.6323H27.6308C26.0776 16.6323 26.0514 16.6323 26.0514 16.3039C26.0514 16.1185 26.1038 15.908 26.1474 15.8659C26.1998 15.807 26.9153 15.7733 27.7267 15.7733H29.1926V16.2112L29.21 16.1943ZM23.2767 17.4998L22.8405 17.9378H11.0349V17.0703H23.7043L23.2679 17.5082L23.2854 17.4914L23.2767 17.4998ZM29.21 17.4998V17.9378H26.0602V17.0703H29.21V17.5082V17.4914V17.4998ZM23.2767 18.8053L23.713 19.2433H11.0436V18.3758H22.8492L23.2854 18.8137L23.2679 18.7969L23.2767 18.8053ZM29.21 18.8053V19.2433H26.0602V18.3758H29.21V18.8137V18.7969V18.8053ZM14.176 20.0602L14.1237 20.473L12.588 20.5235L11.0349 20.574V19.6897H14.2022L14.1498 20.0855L14.1673 20.0687L14.176 20.0602ZM23.9573 20.1108V20.5656L22.4216 20.5151C20.9034 20.4646 20.8859 20.4646 20.79 20.0602L20.694 19.6644H23.9747V20.1023H23.9573V20.1108ZM29.21 20.1108V20.5656L27.6744 20.5151L26.1213 20.4646L26.0689 20.0518L26.0165 19.656H29.1839V20.0939H29.2013L29.21 20.1108ZM14.176 21.3657L14.1237 21.7785H11.1221L11.0698 21.3657L11.0175 20.9699H14.1935L14.1411 21.3657H14.1586H14.176ZM23.9573 21.4162V21.8542H22.2122C20.8772 21.8542 20.502 21.8037 20.5631 21.669C20.6155 21.5762 20.694 21.3826 20.7464 21.231C20.8423 21.012 21.043 20.9783 22.3954 20.9783H23.9573V21.4162ZM29.9081 21.2899C30.1 21.4668 30.2484 21.6521 30.2484 21.7279C30.2484 21.8037 29.3147 21.8206 28.1979 21.8206L26.13 21.77L26.0776 21.3573L26.0252 20.9615H27.7878C29.402 20.9615 29.5853 20.9952 29.9081 21.2731V21.2899ZM23.2069 22.2669L23.5821 22.3007L23.0935 22.7217L22.6049 23.1597L16.8635 23.126L11.1221 23.0755L11.0698 22.6796C11.0349 22.3933 11.1047 22.2838 11.2792 22.2416C11.5584 22.1911 22.5263 22.1911 23.1982 22.2416V22.2585L23.2069 22.2669ZM38.8604 22.2669C38.8604 22.2669 38.9564 22.4523 38.9389 22.6796L38.8866 23.0924L33.1976 23.1429L27.4912 23.1766L27.0636 22.7807C26.8367 22.5617 26.636 22.3428 26.636 22.2922C26.636 22.2164 38.3456 22.1995 38.8517 22.2922V22.2753L38.8604 22.2669ZM22.1511 23.5387C22.1511 23.5387 22.0028 23.7914 21.8282 23.9767L21.5142 24.3052H11.0436V23.9767C11.0436 23.7914 11.096 23.5808 11.1396 23.5387C11.2705 23.4124 22.1424 23.4124 22.1424 23.5387H22.1511ZM38.9477 23.9009L39 24.3136H33.8607C28.7912 24.3136 28.7127 24.3136 28.3637 24.0019C28.1718 23.8251 28.0233 23.6398 28.0233 23.5639C28.0233 23.505 30.4665 23.4713 33.4681 23.4713L38.8953 23.5218L38.9477 23.9177V23.9009ZM14.1847 26.0065L14.1324 26.4192L12.5967 26.4697L11.0436 26.5203V25.6359H14.2109L14.1586 26.0317L14.176 26.0149L14.1847 26.0065ZM23.966 26.057V26.495H22.4827C21.2961 26.495 20.9819 26.4445 20.9034 26.2761C20.694 25.7286 20.9557 25.6275 22.4827 25.6275H23.966V26.0654V26.0486V26.057ZM36.8274 25.9307C37.0193 26.1075 37.1677 26.2929 37.1677 26.3687C37.1677 26.4276 34.6896 26.4613 31.6532 26.4613L26.13 26.4108L26.0776 25.9981L26.0252 25.6022H31.2431C36.3911 25.6022 36.461 25.6022 36.8186 25.9138L36.8274 25.9307ZM38.1275 27.1856C38.3543 27.3877 38.4677 27.5983 38.4067 27.6573C38.3456 27.7163 35.5534 27.75 32.2116 27.75L26.1474 27.6994L26.0951 27.3541C26.0602 27.1688 26.13 26.9413 26.2434 26.8992C26.3394 26.8234 29.0007 26.7897 32.0981 26.8066L37.7435 26.8571L38.1362 27.2025V27.1856H38.1275ZM14.176 27.312L14.1237 27.7247H11.1221L11.0698 27.312L11.0175 26.9161H14.1935L14.1411 27.312H14.1586H14.176ZM23.9573 27.3456V27.8005L22.4216 27.75L20.8685 27.6994L20.8161 27.2867L20.7638 26.8908H23.9311V27.3288H23.9485L23.9573 27.3456ZM29.1402 28.5922V29.0302H27.6395C26.3219 29.0302 26.1387 28.9965 26.0864 28.7606C25.9554 28.1289 26.1213 28.07 27.6657 28.1121L29.1315 28.1626V28.6006V28.5837L29.1402 28.5922ZM38.8866 28.5922V29.0302L37.4382 29.0807L36.0072 29.1312L35.7629 28.6764C35.632 28.4069 35.5185 28.1879 35.5185 28.1542C35.5185 28.1205 36.2864 28.1205 37.2113 28.1542L38.8866 28.2047V28.6427V28.5922ZM14.1673 28.6259L14.1149 29.0386H11.1134L11.0611 28.6259L11.0087 28.23H14.1847L14.1324 28.6259H14.1498H14.1673ZM23.9485 28.6595V29.1144L22.4129 29.0639L20.8598 29.0133L20.8074 28.6006L20.7551 28.2047H23.9224V28.6427H23.9398L23.9485 28.6595ZM13.9579 29.4765C14.0888 29.527 14.2022 29.7124 14.2022 29.8976C14.2022 30.1503 14.1062 30.2429 13.7311 30.3188C13.129 30.4283 11.5759 30.4283 11.2879 30.3188C10.9913 30.2261 10.9738 29.5944 11.2356 29.5018C11.5147 29.3923 13.6613 29.3923 13.9579 29.5018V29.4681V29.4765ZM23.87 29.8976V30.3356L22.823 30.3862C21.2874 30.462 20.7987 30.3356 20.7987 29.9145C20.7987 29.4933 21.0081 29.4428 22.5961 29.4597L23.87 29.4933V29.9313V29.8976ZM29.1664 29.8471L29.2188 30.2598H27.6395C26.0776 30.2598 26.0427 30.2598 26.0427 29.9313C26.0427 29.7461 26.0951 29.5354 26.1387 29.4765C26.1998 29.4175 26.8891 29.4007 27.6918 29.4175L29.1141 29.4681L29.1664 29.864H29.1839L29.1664 29.8471ZM38.9651 29.8134V30.2513H37.316C35.9112 30.2513 35.6843 30.2177 35.7366 30.0324C35.7891 29.9229 35.8327 29.7208 35.8851 29.5944C35.9374 29.4175 36.2428 29.3754 37.4643 29.3754H38.9651V29.8134ZM14.1673 31.1526L14.2196 31.5652H12.6404C11.0785 31.5652 11.0436 31.5652 11.0436 31.2368C11.0436 31.0515 11.096 30.8409 11.1396 30.782C11.2007 30.723 11.89 30.7062 12.6927 30.723L14.1149 30.7735L14.1673 31.1694H14.1847L14.1673 31.1526ZM23.9485 31.1189V31.5568H22.3954C21.0081 31.5568 20.8336 31.5231 20.8336 31.2873C20.7987 30.7062 20.8947 30.6725 22.4478 30.6725H23.9485V31.1105V31.1189ZM38.2845 31.1189L37.8483 31.5568H26.0427V30.6893H38.7121L38.2758 31.1273L38.2932 31.1105L38.2845 31.1189ZM14.1847 32.4244V32.8623H11.0349V31.9948H14.1847V32.4328V32.416V32.4244ZM23.9485 32.4244V32.8623H22.3692C20.8161 32.8623 20.79 32.8623 20.79 32.5339C20.79 32.3486 20.8423 32.138 20.8859 32.0959C20.9383 32.0369 21.6538 32.0032 22.4652 32.0032H23.9311V32.4412L23.9485 32.4244ZM38.2845 32.4244L38.7208 32.8623H26.0514V31.9948H37.857L38.2932 32.4328L38.2758 32.416L38.2845 32.4244ZM14.1847 33.7299V34.1678H11.0349V33.3003H14.1847V33.7383V33.7215V33.7299ZM23.9485 33.7299V34.1678H22.4478C20.8859 34.1678 20.6417 34.0751 20.851 33.5192C20.9121 33.3424 21.2437 33.3003 22.4478 33.3003H23.9485V33.7383V33.7215V33.7299ZM29.2013 33.7299V34.1678H26.0514V33.3003H29.2013V33.7383V33.7215V33.7299ZM38.9651 33.7299V34.1846L37.4294 34.1341C35.9112 34.0836 35.8938 34.0836 35.7978 33.6793L35.7018 33.2835H38.9826V33.7215H38.9651V33.7299ZM14.8653 35.0185L15.3016 35.4564H11.0262V34.5889H12.7189C13.8532 34.5889 14.56 34.7321 14.8566 35.0269V35.0101L14.8653 35.0185ZM23.9485 35.0185V35.4564H19.6731L20.1094 35.0185C20.406 34.7237 21.1128 34.5805 22.2471 34.5805H23.9398V35.0185H23.9485ZM29.1664 34.9848L29.1141 35.3975H26.1125L26.0602 34.9848L26.0077 34.5889H29.1839L29.1315 34.9848H29.149H29.1664ZM38.9651 35.0185V35.4733L37.4294 35.4227L35.8763 35.3722L35.824 34.9596L35.7716 34.5637H38.9389V35.0017H38.9564L38.9651 35.0185ZM29.1315 36.2734V36.6945H27.6308C26.1649 36.6945 26.13 36.6945 26.0776 36.3493C26.0426 36.1639 26.0776 35.9702 26.1736 35.9113C26.2696 35.8607 26.9589 35.8355 27.7354 35.8355L29.1402 35.8691V36.2818H29.1228L29.1315 36.2734ZM23.1109 36.324L22.6747 36.7619H12.2914L11.8551 36.324L11.4188 35.886H23.5472L23.1109 36.324ZM38.9564 36.324V36.7787L37.4207 36.7282L35.8676 36.6777L35.8153 36.2649L35.7629 35.8691H38.9302V36.3071H38.9477L38.9564 36.324ZM29.1577 37.5199L29.21 37.9326H27.6308C26.0689 37.9326 26.0339 37.9326 26.0339 37.6041C26.0339 37.4188 26.0864 37.2083 26.13 37.1494C26.1911 37.0904 26.8804 37.0736 27.6831 37.0904L29.1053 37.1409L29.1577 37.5367H29.1751L29.1577 37.5199ZM38.9215 37.5367L38.9738 37.9495L37.4207 37.8989C36.0508 37.8484 35.8676 37.8232 35.824 37.5873C35.728 37.1494 36.0857 37.0652 37.5167 37.0988L38.8691 37.1494L38.9215 37.562V37.5452V37.5367ZM21.8195 37.5704L21.4269 37.9326L17.5179 37.9663L13.5914 38L13.1814 37.5873L12.7538 37.1915H22.2122L21.8195 37.5704Z" fill="#FF8300"/>
<defs>
<filter id="filter0_f_3933_13540" x="9" y="10" width="32" height="30" filterUnits="userSpaceOnUse" color-interpolation-filters="sRGB">
<feFlood flood-opacity="0" result="BackgroundImageFix"/>
<feBlend mode="normal" in="SourceGraphic" in2="BackgroundImageFix" result="shape"/>
<feGaussianBlur stdDeviation="1" result="effect1_foregroundBlur_3933_13540"/>
</filter>
<filter id="filter1_f_3933_13540" x="9.7002" y="10.6992" width="30.5996" height="28.6016" filterUnits="userSpaceOnUse" color-interpolation-filters="sRGB">
<feFlood flood-opacity="0" result="BackgroundImageFix"/>
<feBlend mode="normal" in="SourceGraphic" in2="BackgroundImageFix" result="shape"/>
<feGaussianBlur stdDeviation="0.5" result="effect1_foregroundBlur_3933_13540"/>
</filter>
</defs>
</svg>
