<svg width="24" height="25" viewBox="0 0 24 25" fill="none" xmlns="http://www.w3.org/2000/svg">
<g clip-path="url(#clip0_3930_2829)">
<path d="M12 24.5C18.6274 24.5 24 19.1274 24 12.5C24 5.87258 18.6274 0.5 12 0.5C5.37258 0.5 0 5.87258 0 12.5C0 19.1274 5.37258 24.5 12 24.5Z" fill="#FF0420"/>
<path d="M8.50199 15.6899C7.78727 15.6899 7.20215 15.5219 6.74567 15.1854C6.29543 14.8432 6.07031 14.3569 6.07031 13.7262C6.07031 13.5942 6.08519 13.432 6.11543 13.24C6.19367 12.8075 6.30455 12.2881 6.44855 11.6819C6.85703 10.0307 7.91063 9.20508 9.60983 9.20508C10.0721 9.20508 10.4863 9.28332 10.8526 9.43932C11.2188 9.58956 11.5073 9.81756 11.717 10.1238C11.9273 10.4238 12.0324 10.7843 12.0324 11.2048C12.0324 11.331 12.0175 11.4899 11.9873 11.6824C11.897 12.2166 11.789 12.736 11.6633 13.2404C11.453 14.0632 11.0897 14.6785 10.5737 15.087C10.0572 15.4892 9.36695 15.6899 8.50199 15.6899ZM8.62823 14.3929C8.96471 14.3929 9.24983 14.294 9.48407 14.0958C9.72407 13.8976 9.89543 13.5942 9.99767 13.1862C10.1359 12.6217 10.241 12.1292 10.313 11.7092C10.337 11.583 10.349 11.4539 10.349 11.3219C10.349 10.7756 10.0639 10.5025 9.49367 10.5025C9.15719 10.5025 8.86919 10.6014 8.62919 10.7996C8.39495 10.9979 8.22695 11.3012 8.12471 11.7092C8.01671 12.1115 7.90871 12.604 7.80023 13.1862C7.77623 13.3062 7.76423 13.4324 7.76423 13.5644C7.76423 14.1169 8.05223 14.3929 8.62823 14.3929Z" fill="white"/>
<path d="M12.446 15.5992C12.3797 15.5992 12.3288 15.5781 12.2928 15.5364C12.2626 15.4884 12.254 15.4341 12.266 15.3741L13.5087 9.52004C13.5207 9.4538 13.5538 9.40004 13.6076 9.3578C13.6618 9.31556 13.7184 9.29492 13.7789 9.29492H16.1746C16.8413 9.29492 17.3756 9.43316 17.7778 9.70916C18.1863 9.98516 18.3903 10.3845 18.3903 10.9072C18.3903 11.0575 18.372 11.2135 18.336 11.3757C18.1858 12.0664 17.8829 12.5767 17.4264 12.9069C16.9762 13.2372 16.3575 13.4023 15.5712 13.4023H14.3554L13.9412 15.3746C13.9292 15.4408 13.896 15.4946 13.8423 15.5368C13.788 15.5791 13.7309 15.5997 13.6709 15.5997L12.446 15.5992ZM15.6341 12.1586C15.8861 12.1586 16.1055 12.0895 16.2917 11.9512C16.4837 11.813 16.61 11.6148 16.67 11.357C16.6882 11.2548 16.6968 11.165 16.6968 11.0868C16.6968 10.9125 16.646 10.7805 16.5437 10.6903C16.4415 10.5943 16.2677 10.5463 16.0215 10.5463H14.9405L14.5983 12.1586H15.6341Z" fill="white"/>
</g>
<defs>
<clipPath id="clip0_3930_2829">
<rect width="24" height="24" fill="white" transform="translate(0 0.5)"/>
</clipPath>
</defs>
</svg>
