<svg width="24" height="24" viewBox="0 0 24 24" fill="none" xmlns="http://www.w3.org/2000/svg">
<circle cx="12" cy="12" r="12" fill="white"/>
<path d="M12.9259 11.9523H7.20895C6.97836 11.9523 6.80878 11.8163 6.76976 11.5982C6.75754 11.5366 6.75907 11.4731 6.77423 11.4121C6.78939 11.3512 6.81781 11.2944 6.85747 11.2457C6.89712 11.197 6.94702 11.1577 7.00363 11.1305C7.06024 11.1033 7.12216 11.089 7.18494 11.0885H18.6252C18.8418 11.0885 18.9984 11.1885 19.0624 11.3676C19.088 11.4337 19.0969 11.5051 19.0882 11.5754C19.0795 11.6458 19.0536 11.7129 19.0127 11.7708C18.9718 11.8287 18.9172 11.8756 18.8538 11.9072C18.7904 11.9389 18.7201 11.9544 18.6492 11.9523H12.9259ZM12.3501 14.712H7.20295C7.12233 14.7169 7.04208 14.6976 6.97248 14.6566C6.90288 14.6156 6.84709 14.5548 6.81228 14.4819C6.77284 14.4091 6.7554 14.3265 6.76206 14.244C6.76872 14.1615 6.7992 14.0827 6.8498 14.0172C6.88609 13.9666 6.93361 13.925 6.98862 13.8958C7.04363 13.8665 7.10465 13.8504 7.16693 13.8486H17.4913C17.8349 13.8486 18.0455 14.1883 17.8859 14.4879C17.85 14.5591 17.7941 14.6183 17.7251 14.6582C17.6561 14.6981 17.5769 14.7169 17.4973 14.7125L12.3501 14.712ZM14.8442 15.2762H19.0849C19.1578 15.2746 19.2299 15.2917 19.2944 15.3257C19.3589 15.3597 19.4137 15.4097 19.4535 15.4708C19.4933 15.5319 19.5168 15.6021 19.5219 15.6748C19.527 15.7476 19.5135 15.8204 19.4826 15.8865C19.4523 15.9602 19.4012 16.0234 19.3354 16.0684C19.2696 16.1134 19.1921 16.1381 19.1124 16.1396H10.6249C10.3928 16.1396 10.2247 16.0085 10.1817 15.7984C10.1667 15.7349 10.1665 15.6687 10.1812 15.605C10.1959 15.5414 10.2251 15.482 10.2664 15.4314C10.3078 15.3809 10.3602 15.3405 10.4197 15.3135C10.4792 15.2865 10.5441 15.2736 10.6094 15.2757L14.8442 15.2762ZM9.01521 13.3444H4.86347C4.78806 13.3468 4.71336 13.3292 4.64687 13.2936C4.58039 13.2579 4.52445 13.2054 4.48467 13.1413C4.44489 13.0772 4.42267 13.0037 4.42024 12.9283C4.41781 12.8529 4.43525 12.7782 4.47081 12.7117C4.50328 12.6455 4.55289 12.5893 4.61447 12.5488C4.67605 12.5083 4.74736 12.4851 4.82096 12.4816H13.1665C13.2571 12.4777 13.3465 12.5033 13.4214 12.5544C13.4963 12.6055 13.5527 12.6794 13.5821 12.7652C13.6067 12.8311 13.6147 12.9019 13.6055 12.9717C13.5963 13.0414 13.5702 13.1077 13.5293 13.165C13.4885 13.2222 13.4342 13.2685 13.3713 13.2999C13.3084 13.3313 13.2387 13.3467 13.1685 13.3449L9.01521 13.3444ZM11.9965 18.9593H9.14526C9.06447 18.9627 8.98451 18.9417 8.91593 18.8988C8.84736 18.8559 8.79337 18.7933 8.7611 18.7192C8.72444 18.6475 8.70963 18.5666 8.71852 18.4866C8.72741 18.4065 8.75962 18.3309 8.81112 18.269C8.84777 18.2212 8.89454 18.1822 8.94808 18.1547C9.00162 18.1272 9.06058 18.1119 9.12074 18.1099H14.8332C14.8905 18.1062 14.948 18.1141 15.0022 18.1332C15.0564 18.1522 15.1061 18.1821 15.1485 18.2209C15.1908 18.2597 15.2249 18.3067 15.2486 18.3591C15.2723 18.4114 15.2852 18.468 15.2864 18.5254C15.2877 18.5829 15.2773 18.64 15.2559 18.6933C15.2345 18.7466 15.2025 18.795 15.1619 18.8357C15.1212 18.8763 15.0728 18.9083 15.0195 18.9297C14.9662 18.9511 14.9091 18.9615 14.8517 18.9603H14.0118L11.9965 18.9593ZM14.9662 16.6318H17.5213C17.601 16.6285 17.6799 16.6491 17.7478 16.691C17.8157 16.7329 17.8696 16.7942 17.9024 16.8669C17.9341 16.9295 17.9497 16.9989 17.948 17.0689C17.9462 17.139 17.9272 17.2076 17.8925 17.2685C17.8578 17.3294 17.8086 17.3808 17.7493 17.4181C17.6899 17.4554 17.6222 17.4774 17.5523 17.4821H12.4221C12.1936 17.4821 12.0255 17.3531 11.9815 17.145C11.9677 17.0833 11.9679 17.0193 11.9822 16.9577C11.9965 16.8961 12.0244 16.8385 12.0639 16.7891C12.1034 16.7398 12.1535 16.6999 12.2105 16.6725C12.2675 16.6451 12.3299 16.6308 12.3931 16.6308H13.5326L14.9662 16.6318ZM7.38252 15.2882H9.39787C9.4776 15.2849 9.55648 15.3056 9.6244 15.3475C9.69232 15.3894 9.74618 15.4506 9.77903 15.5233C9.81723 15.5956 9.83311 15.6776 9.82465 15.7589C9.81619 15.8402 9.78377 15.9172 9.73151 15.98C9.69496 16.028 9.64813 16.0672 9.59447 16.0947C9.54081 16.1222 9.48166 16.1374 9.42138 16.1391H5.36668C5.30849 16.1438 5.24997 16.1365 5.19472 16.1176C5.13947 16.0988 5.08867 16.0688 5.04549 16.0295C5.00232 15.9902 4.96767 15.9425 4.94371 15.8893C4.91974 15.836 4.90698 15.7784 4.90619 15.7201C4.9054 15.6617 4.9166 15.6038 4.93911 15.5499C4.96163 15.4961 4.99497 15.4474 5.03707 15.407C5.07917 15.3665 5.12914 15.3352 5.18386 15.3148C5.23858 15.2945 5.29689 15.2856 5.35518 15.2887H7.10041L7.38252 15.2882ZM6.44063 11.5097C6.43925 11.596 6.4124 11.68 6.36344 11.7511C6.31449 11.8222 6.2456 11.8773 6.16545 11.9094C6.0853 11.9415 5.99746 11.9492 5.91294 11.9316C5.82842 11.9139 5.75099 11.8717 5.69039 11.8102C5.62978 11.7487 5.58871 11.6707 5.57231 11.5859C5.5559 11.5011 5.56491 11.4134 5.59819 11.3337C5.63148 11.2541 5.68756 11.186 5.75939 11.1381C5.83122 11.0902 5.91561 11.0646 6.00195 11.0645C6.11914 11.0654 6.23117 11.1128 6.31342 11.1963C6.39568 11.2798 6.44143 11.3925 6.44063 11.5097ZM3.61496 12.4806C3.70303 12.4794 3.78946 12.5044 3.86328 12.5525C3.9371 12.6005 3.99498 12.6694 4.02954 12.7505C4.06409 12.8315 4.07377 12.9209 4.05735 13.0075C4.04094 13.094 3.99917 13.1737 3.93734 13.2365C3.87552 13.2992 3.79643 13.3422 3.71014 13.3598C3.62385 13.3775 3.53426 13.3692 3.45274 13.3358C3.37122 13.3024 3.30144 13.2456 3.2523 13.1725C3.20317 13.0994 3.17687 13.0133 3.17676 12.9252C3.1761 12.8082 3.22185 12.6957 3.30399 12.6124C3.38612 12.529 3.49794 12.4816 3.61496 12.4806ZM6.44063 14.2823C6.43906 14.3686 6.412 14.4526 6.36288 14.5236C6.31376 14.5946 6.24477 14.6495 6.16455 14.6814C6.08433 14.7134 5.99645 14.7209 5.91197 14.703C5.82749 14.6852 5.75017 14.6428 5.68971 14.5812C5.62924 14.5195 5.58834 14.4414 5.57213 14.3566C5.55591 14.2718 5.56513 14.1841 5.59859 14.1045C5.63205 14.0249 5.68829 13.957 5.76023 13.9092C5.83217 13.8615 5.9166 13.836 6.00294 13.8361C6.06099 13.8367 6.11836 13.8486 6.17178 13.8713C6.2252 13.894 6.27363 13.9271 6.31428 13.9685C6.35493 14.0099 6.38701 14.059 6.40869 14.1128C6.43038 14.1667 6.44123 14.2243 6.44063 14.2823ZM3.81253 15.7049C3.81431 15.6186 3.84156 15.5347 3.89086 15.4638C3.94016 15.3929 4.00932 15.3381 4.08964 15.3064C4.16996 15.2746 4.25788 15.2674 4.34233 15.2854C4.42678 15.3035 4.50401 15.3461 4.56431 15.408C4.62461 15.4698 4.66529 15.548 4.68125 15.6329C4.69722 15.7178 4.68774 15.8055 4.65402 15.885C4.6203 15.9645 4.56384 16.0323 4.49173 16.0798C4.41962 16.1273 4.33507 16.1525 4.24871 16.1521C4.13161 16.1505 4.01993 16.1025 3.93815 16.0187C3.85638 15.9349 3.81119 15.822 3.81253 15.7049ZM11.6838 17.054C11.6823 17.1403 11.6552 17.2243 11.6061 17.2953C11.5569 17.3663 11.4879 17.4212 11.4076 17.4531C11.3274 17.485 11.2395 17.4925 11.155 17.4747C11.0705 17.4568 10.9932 17.4143 10.9327 17.3526C10.8723 17.2909 10.8314 17.2128 10.8153 17.1279C10.7991 17.0431 10.8084 16.9554 10.8419 16.8758C10.8755 16.7962 10.9318 16.7283 11.0038 16.6806C11.0758 16.6329 11.1603 16.6076 11.2467 16.6078C11.3047 16.6083 11.362 16.6203 11.4154 16.643C11.4688 16.6657 11.5172 16.6987 11.5578 16.7402C11.5984 16.7816 11.6305 16.8307 11.6521 16.8845C11.6737 16.9384 11.6845 16.9959 11.6838 17.054ZM8.44446 18.5296C8.44298 18.6159 8.41603 18.6999 8.36699 18.7709C8.31796 18.842 8.24902 18.897 8.16883 18.929C8.08864 18.961 8.00079 18.9687 7.9163 18.9509C7.8318 18.9332 7.75441 18.8909 7.69388 18.8293C7.63335 18.7677 7.59236 18.6896 7.57606 18.6048C7.55975 18.5201 7.56885 18.4323 7.60223 18.3527C7.6356 18.2731 7.69176 18.2051 7.76364 18.1573C7.83553 18.1094 7.91993 18.0839 8.00628 18.0839C8.12347 18.085 8.23545 18.1325 8.31761 18.2161C8.39978 18.2996 8.44539 18.4124 8.44446 18.5296Z" fill="#E1177C"/>
<path d="M12.9443 10.2358H8.27083C7.98071 10.2358 7.81164 10.0633 7.80763 9.77414C7.80113 9.30294 7.82464 8.83424 7.93919 8.37355C8.36637 6.66818 9.38813 5.46584 11.0045 4.76655C11.7518 4.44442 12.5401 4.33487 13.3504 4.39439C14.4357 4.47836 15.4665 4.90389 16.2949 5.60995C17.1234 6.316 17.7069 7.2663 17.9619 8.32453C18.0868 8.83011 18.1295 9.35251 18.0884 9.87168C18.0739 9.96448 18.0276 10.0494 17.9574 10.1118C17.8846 10.1848 17.7876 10.2285 17.6847 10.2348H17.6072L12.9443 10.2358Z" fill="#5FC0C1"/>
</svg>
